<?xml version="1.0" encoding="utf-8" standalone="no"?>
<!DOCTYPE svg PUBLIC "-//W3C//DTD SVG 1.1//EN"
  "http://www.w3.org/Graphics/SVG/1.1/DTD/svg11.dtd">
<svg xmlns:xlink="http://www.w3.org/1999/xlink" width="856.8pt" height="568.821281pt" viewBox="0 0 856.8 568.821281" xmlns="http://www.w3.org/2000/svg" version="1.1">
 <metadata>
  <rdf:RDF xmlns:dc="http://purl.org/dc/elements/1.1/" xmlns:cc="http://creativecommons.org/ns#" xmlns:rdf="http://www.w3.org/1999/02/22-rdf-syntax-ns#">
   <cc:Work>
    <dc:type rdf:resource="http://purl.org/dc/dcmitype/StillImage"/>
    <dc:date>2026-04-19T20:13:42.184621</dc:date>
    <dc:format>image/svg+xml</dc:format>
    <dc:creator>
     <cc:Agent>
      <dc:title>Matplotlib v3.9.4, https://matplotlib.org/</dc:title>
     </cc:Agent>
    </dc:creator>
   </cc:Work>
  </rdf:RDF>
 </metadata>
 <defs>
  <style type="text/css">*{stroke-linejoin: round; stroke-linecap: butt}</style>
 </defs>
 <g id="figure_1">
  <g id="patch_1">
   <path d="M 0 568.821281 
L 856.8 568.821281 
L 856.8 0 
L 0 0 
z
" style="fill: #ffffff"/>
  </g>
  <g id="axes_1">
   <g id="patch_2">
    <path d="M 19.636364 268.524281 
L 268.363636 268.524281 
L 268.363636 45.984281 
L 19.636364 45.984281 
z
" clip-path="url(#p39f39d8b44)" style="fill: #ffffff; stroke: #000000; stroke-width: 2; stroke-linejoin: miter"/>
   </g>
   <g id="patch_3">
    <path d="M 144 157.254281 
L 143.924885 155.137127 
L 143.699841 153.028499 
L 143.325776 150.936885 
L 142.804195 148.87071 
L 142.137199 146.838293 
L 141.327473 144.847817 
L 140.378277 142.907297 
L 139.293435 141.024548 
L 138.077314 139.20715 
L 136.73481 137.462422 
L 135.271331 135.797388 
L 133.692768 134.218754 
L 132.005478 132.732875 
L 130.216256 131.345736 
L 128.332305 130.062921 
L 126.361212 128.889597 
L 124.310914 127.830487 
L 122.189666 126.889856 
L 120.00601 126.071492 
L 117.768738 125.37869 
L 115.486861 124.814239 
L 113.169565 124.380414 
L 110.826182 124.078959 
L 108.466147 123.911091 
L 106.098964 123.877483 
L 103.734165 123.978272 
L 101.381272 124.213052 
L 99.049758 124.580877 
L 96.749013 125.080266 
L 94.488301 125.709209 
L 92.276724 126.465173 
L 90.123187 127.345113 
L 88.036364 128.345487 
L 86.024655 129.462267 
L 84.096162 130.690955 
L 82.25865 132.026605 
L 80.519519 133.463837 
L 78.88577 134.996865 
L 77.363983 136.619516 
L 75.960285 138.325256 
L 74.680328 140.107216 
L 73.529267 141.958222 
L 72.511735 143.870819 
L 71.631832 145.837307 
L 70.893099 147.849767 
L 70.29851 149.900095 
L 69.850462 151.980037 
L 69.550757 154.081215 
L 69.400602 156.195171 
L 69.400602 158.313391 
L 69.550757 160.427347 
L 69.850462 162.528526 
L 70.29851 164.608467 
L 70.893099 166.658796 
L 71.631832 168.671256 
L 72.511735 170.637743 
L 73.529267 172.550341 
L 74.680328 174.401346 
L 75.960285 176.183307 
L 77.363983 177.889046 
L 78.88577 179.511697 
L 80.519519 181.044725 
L 82.25865 182.481958 
L 84.096162 183.817607 
L 86.024655 185.046296 
L 88.036364 186.163075 
L 90.123187 187.163449 
L 92.276724 188.04339 
L 94.488301 188.799354 
L 96.749013 189.428296 
L 99.049758 189.927686 
L 101.381272 190.295511 
L 103.734165 190.530291 
L 106.098964 190.63108 
L 108.466147 190.597472 
L 110.826182 190.429603 
L 113.169565 190.128149 
L 115.486861 189.694323 
L 117.768738 189.129873 
L 120.00601 188.437071 
L 122.189666 187.618707 
L 124.310914 186.678076 
L 126.361212 185.618966 
L 128.332305 184.445641 
L 130.216256 183.162826 
L 132.005478 181.775687 
L 133.692768 180.289809 
L 135.271331 178.711174 
L 136.73481 177.046141 
L 138.077314 175.301412 
L 139.293435 173.484014 
L 140.378277 171.601265 
L 141.327473 169.660746 
L 142.137199 167.67027 
L 142.804195 165.637852 
L 143.325776 163.571677 
L 143.699841 161.480064 
L 143.924885 159.371435 
L 144 157.254281 
z
" clip-path="url(#p39f39d8b44)" style="fill: #ff9999; opacity: 0.7; stroke: #ff9999; stroke-linejoin: miter"/>
   </g>
   <g id="patch_4">
    <path d="M 218.618182 157.254281 
L 218.543067 155.137127 
L 218.318023 153.028499 
L 217.943958 150.936885 
L 217.422377 148.87071 
L 216.755381 146.838293 
L 215.945655 144.847817 
L 214.996459 142.907297 
L 213.911617 141.024548 
L 212.695495 139.20715 
L 211.352992 137.462422 
L 209.889513 135.797388 
L 208.31095 134.218754 
L 206.62366 132.732875 
L 204.834438 131.345736 
L 202.950487 130.062921 
L 200.979394 128.889597 
L 198.929095 127.830487 
L 196.807847 126.889856 
L 194.624191 126.071492 
L 192.38692 125.37869 
L 190.105042 124.814239 
L 187.787747 124.380414 
L 185.444363 124.078959 
L 183.084329 123.911091 
L 180.717146 123.877483 
L 178.352347 123.978272 
L 175.999454 124.213052 
L 173.66794 124.580877 
L 171.367195 125.080266 
L 169.106483 125.709209 
L 166.894905 126.465173 
L 164.741369 127.345113 
L 162.654545 128.345487 
L 160.642837 129.462267 
L 158.714344 130.690955 
L 156.876832 132.026605 
L 155.137701 133.463837 
L 153.503952 134.996865 
L 151.982165 136.619516 
L 150.578466 138.325256 
L 149.29851 140.107216 
L 148.147448 141.958222 
L 147.129917 143.870819 
L 146.250013 145.837307 
L 145.51128 147.849767 
L 144.916692 149.900095 
L 144.468644 151.980037 
L 144.168938 154.081215 
L 144.018784 156.195171 
L 144.018784 158.313391 
L 144.168938 160.427347 
L 144.468644 162.528526 
L 144.916692 164.608467 
L 145.51128 166.658796 
L 146.250013 168.671256 
L 147.129917 170.637743 
L 148.147448 172.550341 
L 149.29851 174.401346 
L 150.578466 176.183307 
L 151.982165 177.889046 
L 153.503952 179.511697 
L 155.137701 181.044725 
L 156.876832 182.481958 
L 158.714344 183.817607 
L 160.642837 185.046296 
L 162.654545 186.163075 
L 164.741369 187.163449 
L 166.894905 188.04339 
L 169.106483 188.799354 
L 171.367195 189.428296 
L 173.66794 189.927686 
L 175.999454 190.295511 
L 178.352347 190.530291 
L 180.717146 190.63108 
L 183.084329 190.597472 
L 185.444363 190.429603 
L 187.787747 190.128149 
L 190.105042 189.694323 
L 192.38692 189.129873 
L 194.624191 188.437071 
L 196.807847 187.618707 
L 198.929095 186.678076 
L 200.979394 185.618966 
L 202.950487 184.445641 
L 204.834438 183.162826 
L 206.62366 181.775687 
L 208.31095 180.289809 
L 209.889513 178.711174 
L 211.352992 177.046141 
L 212.695495 175.301412 
L 213.911617 173.484014 
L 214.996459 171.601265 
L 215.945655 169.660746 
L 216.755381 167.67027 
L 217.422377 165.637852 
L 217.943958 163.571677 
L 218.318023 161.480064 
L 218.543067 159.371435 
L 218.618182 157.254281 
z
" clip-path="url(#p39f39d8b44)" style="fill: #ff9999; opacity: 0.7; stroke: #ff9999; stroke-linejoin: miter"/>
   </g>
   <g id="line2d_1">
    <path d="M 144 157.254281 
L 143.924885 155.137127 
L 143.699841 153.028499 
L 143.325776 150.936885 
L 142.804195 148.87071 
L 142.137199 146.838293 
L 141.327473 144.847817 
L 140.378277 142.907297 
L 139.293435 141.024548 
L 138.077314 139.20715 
L 136.73481 137.462422 
L 135.271331 135.797388 
L 133.692768 134.218754 
L 132.005478 132.732875 
L 130.216256 131.345736 
L 128.332305 130.062921 
L 126.361212 128.889597 
L 124.310914 127.830487 
L 122.189666 126.889856 
L 120.00601 126.071492 
L 117.768738 125.37869 
L 115.486861 124.814239 
L 113.169565 124.380414 
L 110.826182 124.078959 
L 108.466147 123.911091 
L 106.098964 123.877483 
L 103.734165 123.978272 
L 101.381272 124.213052 
L 99.049758 124.580877 
L 96.749013 125.080266 
L 94.488301 125.709209 
L 92.276724 126.465173 
L 90.123187 127.345113 
L 88.036364 128.345487 
L 86.024655 129.462267 
L 84.096162 130.690955 
L 82.25865 132.026605 
L 80.519519 133.463837 
L 78.88577 134.996865 
L 77.363983 136.619516 
L 75.960285 138.325256 
L 74.680328 140.107216 
L 73.529267 141.958222 
L 72.511735 143.870819 
L 71.631832 145.837307 
L 70.893099 147.849767 
L 70.29851 149.900095 
L 69.850462 151.980037 
L 69.550757 154.081215 
L 69.400602 156.195171 
L 69.400602 158.313391 
L 69.550757 160.427347 
L 69.850462 162.528526 
L 70.29851 164.608467 
L 70.893099 166.658796 
L 71.631832 168.671256 
L 72.511735 170.637743 
L 73.529267 172.550341 
L 74.680328 174.401346 
L 75.960285 176.183307 
L 77.363983 177.889046 
L 78.88577 179.511697 
L 80.519519 181.044725 
L 82.25865 182.481958 
L 84.096162 183.817607 
L 86.024655 185.046296 
L 88.036364 186.163075 
L 90.123187 187.163449 
L 92.276724 188.04339 
L 94.488301 188.799354 
L 96.749013 189.428296 
L 99.049758 189.927686 
L 101.381272 190.295511 
L 103.734165 190.530291 
L 106.098964 190.63108 
L 108.466147 190.597472 
L 110.826182 190.429603 
L 113.169565 190.128149 
L 115.486861 189.694323 
L 117.768738 189.129873 
L 120.00601 188.437071 
L 122.189666 187.618707 
L 124.310914 186.678076 
L 126.361212 185.618966 
L 128.332305 184.445641 
L 130.216256 183.162826 
L 132.005478 181.775687 
L 133.692768 180.289809 
L 135.271331 178.711174 
L 136.73481 177.046141 
L 138.077314 175.301412 
L 139.293435 173.484014 
L 140.378277 171.601265 
L 141.327473 169.660746 
L 142.137199 167.67027 
L 142.804195 165.637852 
L 143.325776 163.571677 
L 143.699841 161.480064 
L 143.924885 159.371435 
L 144 157.254281 
" clip-path="url(#p39f39d8b44)" style="fill: none; stroke: #000000; stroke-width: 2; stroke-linecap: square"/>
   </g>
   <g id="line2d_2">
    <path d="M 218.618182 157.254281 
L 218.543067 155.137127 
L 218.318023 153.028499 
L 217.943958 150.936885 
L 217.422377 148.87071 
L 216.755381 146.838293 
L 215.945655 144.847817 
L 214.996459 142.907297 
L 213.911617 141.024548 
L 212.695495 139.20715 
L 211.352992 137.462422 
L 209.889513 135.797388 
L 208.31095 134.218754 
L 206.62366 132.732875 
L 204.834438 131.345736 
L 202.950487 130.062921 
L 200.979394 128.889597 
L 198.929095 127.830487 
L 196.807847 126.889856 
L 194.624191 126.071492 
L 192.38692 125.37869 
L 190.105042 124.814239 
L 187.787747 124.380414 
L 185.444363 124.078959 
L 183.084329 123.911091 
L 180.717146 123.877483 
L 178.352347 123.978272 
L 175.999454 124.213052 
L 173.66794 124.580877 
L 171.367195 125.080266 
L 169.106483 125.709209 
L 166.894905 126.465173 
L 164.741369 127.345113 
L 162.654545 128.345487 
L 160.642837 129.462267 
L 158.714344 130.690955 
L 156.876832 132.026605 
L 155.137701 133.463837 
L 153.503952 134.996865 
L 151.982165 136.619516 
L 150.578466 138.325256 
L 149.29851 140.107216 
L 148.147448 141.958222 
L 147.129917 143.870819 
L 146.250013 145.837307 
L 145.51128 147.849767 
L 144.916692 149.900095 
L 144.468644 151.980037 
L 144.168938 154.081215 
L 144.018784 156.195171 
L 144.018784 158.313391 
L 144.168938 160.427347 
L 144.468644 162.528526 
L 144.916692 164.608467 
L 145.51128 166.658796 
L 146.250013 168.671256 
L 147.129917 170.637743 
L 148.147448 172.550341 
L 149.29851 174.401346 
L 150.578466 176.183307 
L 151.982165 177.889046 
L 153.503952 179.511697 
L 155.137701 181.044725 
L 156.876832 182.481958 
L 158.714344 183.817607 
L 160.642837 185.046296 
L 162.654545 186.163075 
L 164.741369 187.163449 
L 166.894905 188.04339 
L 169.106483 188.799354 
L 171.367195 189.428296 
L 173.66794 189.927686 
L 175.999454 190.295511 
L 178.352347 190.530291 
L 180.717146 190.63108 
L 183.084329 190.597472 
L 185.444363 190.429603 
L 187.787747 190.128149 
L 190.105042 189.694323 
L 192.38692 189.129873 
L 194.624191 188.437071 
L 196.807847 187.618707 
L 198.929095 186.678076 
L 200.979394 185.618966 
L 202.950487 184.445641 
L 204.834438 183.162826 
L 206.62366 181.775687 
L 208.31095 180.289809 
L 209.889513 178.711174 
L 211.352992 177.046141 
L 212.695495 175.301412 
L 213.911617 173.484014 
L 214.996459 171.601265 
L 215.945655 169.660746 
L 216.755381 167.67027 
L 217.422377 165.637852 
L 217.943958 163.571677 
L 218.318023 161.480064 
L 218.543067 159.371435 
L 218.618182 157.254281 
" clip-path="url(#p39f39d8b44)" style="fill: none; stroke: #000000; stroke-width: 2; stroke-linecap: square"/>
   </g>
   <g id="text_1">
    <!-- A -->
    <g transform="translate(89.28 157.254281) scale(0.14 -0.14)">
     <defs>
      <path id="DejaVuSans-Bold-41" d="M 3419 850 
L 1538 850 
L 1241 0 
L 31 0 
L 1759 4666 
L 3194 4666 
L 4922 0 
L 3713 0 
L 3419 850 
z
M 1838 1716 
L 3116 1716 
L 2478 3572 
L 1838 1716 
z
" transform="scale(0.015625)"/>
     </defs>
     <use xlink:href="#DejaVuSans-Bold-41"/>
    </g>
   </g>
   <g id="text_2">
    <!-- B -->
    <g transform="translate(198.72 157.254281) scale(0.14 -0.14)">
     <defs>
      <path id="DejaVuSans-Bold-42" d="M 2456 2859 
Q 2741 2859 2887 2984 
Q 3034 3109 3034 3353 
Q 3034 3594 2887 3720 
Q 2741 3847 2456 3847 
L 1791 3847 
L 1791 2859 
L 2456 2859 
z
M 2497 819 
Q 2859 819 3042 972 
Q 3225 1125 3225 1434 
Q 3225 1738 3044 1889 
Q 2863 2041 2497 2041 
L 1791 2041 
L 1791 819 
L 2497 819 
z
M 3616 2497 
Q 4003 2384 4215 2081 
Q 4428 1778 4428 1338 
Q 4428 663 3972 331 
Q 3516 0 2584 0 
L 588 0 
L 588 4666 
L 2394 4666 
Q 3366 4666 3802 4372 
Q 4238 4078 4238 3431 
Q 4238 3091 4078 2852 
Q 3919 2613 3616 2497 
z
" transform="scale(0.015625)"/>
     </defs>
     <use xlink:href="#DejaVuSans-Bold-42"/>
    </g>
   </g>
   <g id="text_3">
    <!-- Ω -->
    <g transform="translate(32.072727 61.562081) scale(0.12 -0.12)">
     <defs>
      <path id="DejaVuSans-3a9" d="M 4647 556 
L 4647 0 
L 2772 0 
L 2772 556 
Q 3325 859 3634 1378 
Q 3944 1897 3944 2528 
Q 3944 3278 3531 3731 
Q 3119 4184 2444 4184 
Q 1769 4184 1355 3729 
Q 941 3275 941 2528 
Q 941 1897 1250 1378 
Q 1563 859 2119 556 
L 2119 0 
L 244 0 
L 244 556 
L 1241 556 
Q 747 991 519 1456 
Q 294 1922 294 2497 
Q 294 3491 894 4106 
Q 1491 4722 2444 4722 
Q 3391 4722 3994 4106 
Q 4594 3494 4594 2528 
Q 4594 1922 4372 1459 
Q 4150 997 3647 556 
L 4647 556 
z
" transform="scale(0.015625)"/>
     </defs>
     <use xlink:href="#DejaVuSans-3a9"/>
    </g>
   </g>
   <g id="text_4">
    <!-- A ∪ B (UNIÓN) -->
    <g transform="translate(99.920078 16.539687) scale(0.11 -0.11)">
     <defs>
      <path id="DejaVuSans-Bold-20" transform="scale(0.015625)"/>
      <path id="DejaVuSans-Bold-222a" d="M 966 1972 
L 966 3706 
L 1834 3706 
L 1834 1972 
Q 1834 1322 1981 1131 
Q 2169 884 2597 884 
Q 3044 884 3219 1131 
Q 3363 1341 3363 1972 
L 3363 3706 
L 4231 3706 
L 4231 1972 
Q 4231 881 3884 484 
Q 3463 0 2597 0 
Q 1697 0 1313 484 
Q 966 922 966 1972 
z
" transform="scale(0.015625)"/>
      <path id="DejaVuSans-Bold-28" d="M 2413 -844 
L 1484 -844 
Q 1006 -72 778 623 
Q 550 1319 550 2003 
Q 550 2688 779 3389 
Q 1009 4091 1484 4856 
L 2413 4856 
Q 2013 4116 1813 3408 
Q 1613 2700 1613 2009 
Q 1613 1319 1811 609 
Q 2009 -100 2413 -844 
z
" transform="scale(0.015625)"/>
      <path id="DejaVuSans-Bold-55" d="M 588 4666 
L 1791 4666 
L 1791 1869 
Q 1791 1291 1980 1042 
Q 2169 794 2597 794 
Q 3028 794 3217 1042 
Q 3406 1291 3406 1869 
L 3406 4666 
L 4609 4666 
L 4609 1869 
Q 4609 878 4112 393 
Q 3616 -91 2597 -91 
Q 1581 -91 1084 393 
Q 588 878 588 1869 
L 588 4666 
z
" transform="scale(0.015625)"/>
      <path id="DejaVuSans-Bold-4e" d="M 588 4666 
L 1931 4666 
L 3628 1466 
L 3628 4666 
L 4769 4666 
L 4769 0 
L 3425 0 
L 1728 3200 
L 1728 0 
L 588 0 
L 588 4666 
z
" transform="scale(0.015625)"/>
      <path id="DejaVuSans-Bold-49" d="M 588 4666 
L 1791 4666 
L 1791 0 
L 588 0 
L 588 4666 
z
" transform="scale(0.015625)"/>
      <path id="DejaVuSans-Bold-d3" d="M 2719 3878 
Q 2169 3878 1866 3472 
Q 1563 3066 1563 2328 
Q 1563 1594 1866 1187 
Q 2169 781 2719 781 
Q 3272 781 3575 1187 
Q 3878 1594 3878 2328 
Q 3878 3066 3575 3472 
Q 3272 3878 2719 3878 
z
M 2719 4750 
Q 3844 4750 4481 4106 
Q 5119 3463 5119 2328 
Q 5119 1197 4481 553 
Q 3844 -91 2719 -91 
Q 1597 -91 958 553 
Q 319 1197 319 2328 
Q 319 3463 958 4106 
Q 1597 4750 2719 4750 
z
M 2799 5921 
L 3684 5921 
L 2793 5096 
L 2181 5096 
L 2799 5921 
z
" transform="scale(0.015625)"/>
      <path id="DejaVuSans-Bold-29" d="M 513 -844 
Q 913 -100 1113 609 
Q 1313 1319 1313 2009 
Q 1313 2700 1113 3408 
Q 913 4116 513 4856 
L 1441 4856 
Q 1916 4091 2145 3389 
Q 2375 2688 2375 2003 
Q 2375 1319 2147 623 
Q 1919 -72 1441 -844 
L 513 -844 
z
" transform="scale(0.015625)"/>
     </defs>
     <use xlink:href="#DejaVuSans-Bold-41"/>
     <use xlink:href="#DejaVuSans-Bold-20" x="77.392578"/>
     <use xlink:href="#DejaVuSans-Bold-222a" x="112.207031"/>
     <use xlink:href="#DejaVuSans-Bold-20" x="193.408203"/>
     <use xlink:href="#DejaVuSans-Bold-42" x="228.222656"/>
     <use xlink:href="#DejaVuSans-Bold-20" x="304.443359"/>
     <use xlink:href="#DejaVuSans-Bold-28" x="339.257812"/>
     <use xlink:href="#DejaVuSans-Bold-55" x="384.960938"/>
     <use xlink:href="#DejaVuSans-Bold-4e" x="466.162109"/>
     <use xlink:href="#DejaVuSans-Bold-49" x="549.853516"/>
     <use xlink:href="#DejaVuSans-Bold-d3" x="587.060547"/>
     <use xlink:href="#DejaVuSans-Bold-4e" x="672.070312"/>
     <use xlink:href="#DejaVuSans-Bold-29" x="755.761719"/>
    </g>
    <!-- "A o B" -->
    <g transform="translate(122.213125 28.857281) scale(0.11 -0.11)">
     <defs>
      <path id="DejaVuSans-Bold-22" d="M 2725 4666 
L 2725 2931 
L 1984 2931 
L 1984 4666 
L 2725 4666 
z
M 1350 4666 
L 1350 2931 
L 609 2931 
L 609 4666 
L 1350 4666 
z
" transform="scale(0.015625)"/>
      <path id="DejaVuSans-Bold-6f" d="M 2203 2784 
Q 1831 2784 1636 2517 
Q 1441 2250 1441 1747 
Q 1441 1244 1636 976 
Q 1831 709 2203 709 
Q 2569 709 2762 976 
Q 2956 1244 2956 1747 
Q 2956 2250 2762 2517 
Q 2569 2784 2203 2784 
z
M 2203 3584 
Q 3106 3584 3614 3096 
Q 4122 2609 4122 1747 
Q 4122 884 3614 396 
Q 3106 -91 2203 -91 
Q 1297 -91 786 396 
Q 275 884 275 1747 
Q 275 2609 786 3096 
Q 1297 3584 2203 3584 
z
" transform="scale(0.015625)"/>
     </defs>
     <use xlink:href="#DejaVuSans-Bold-22"/>
     <use xlink:href="#DejaVuSans-Bold-41" x="52.099609"/>
     <use xlink:href="#DejaVuSans-Bold-20" x="129.492188"/>
     <use xlink:href="#DejaVuSans-Bold-6f" x="164.306641"/>
     <use xlink:href="#DejaVuSans-Bold-20" x="233.007812"/>
     <use xlink:href="#DejaVuSans-Bold-42" x="267.822266"/>
     <use xlink:href="#DejaVuSans-Bold-22" x="344.042969"/>
    </g>
   </g>
  </g>
  <g id="axes_2">
   <g id="patch_5">
    <path d="M 304.036364 268.524281 
L 552.763636 268.524281 
L 552.763636 45.984281 
L 304.036364 45.984281 
z
" clip-path="url(#pf62ed8a626)" style="fill: #ffffff; stroke: #000000; stroke-width: 2; stroke-linejoin: miter"/>
   </g>
   <g id="line2d_3">
    <path d="M 428.575868 157.254281 
L 428.575868 157.254281 
" clip-path="url(#pf62ed8a626)" style="fill: none; stroke: #9999ff; stroke-opacity: 0.8; stroke-width: 1.5; stroke-linecap: square"/>
   </g>
   <g id="line2d_4">
    <path d="M 428.927603 157.254281 
L 428.927603 157.254281 
" clip-path="url(#pf62ed8a626)" style="fill: none; stroke: #9999ff; stroke-opacity: 0.8; stroke-width: 1.5; stroke-linecap: square"/>
   </g>
   <g id="line2d_5">
    <path d="M 429.279339 157.254281 
L 429.279339 157.254281 
" clip-path="url(#pf62ed8a626)" style="fill: none; stroke: #9999ff; stroke-opacity: 0.8; stroke-width: 1.5; stroke-linecap: square"/>
   </g>
   <g id="line2d_6">
    <path d="M 429.631074 157.254281 
L 429.631074 157.254281 
" clip-path="url(#pf62ed8a626)" style="fill: none; stroke: #9999ff; stroke-opacity: 0.8; stroke-width: 1.5; stroke-linecap: square"/>
   </g>
   <g id="line2d_7">
    <path d="M 429.98281 157.254281 
L 429.98281 157.254281 
" clip-path="url(#pf62ed8a626)" style="fill: none; stroke: #9999ff; stroke-opacity: 0.8; stroke-width: 1.5; stroke-linecap: square"/>
   </g>
   <g id="line2d_8">
    <path d="M 430.334545 157.254281 
L 430.334545 157.254281 
" clip-path="url(#pf62ed8a626)" style="fill: none; stroke: #9999ff; stroke-opacity: 0.8; stroke-width: 1.5; stroke-linecap: square"/>
   </g>
   <g id="line2d_9">
    <path d="M 430.686281 157.254281 
L 430.686281 157.254281 
" clip-path="url(#pf62ed8a626)" style="fill: none; stroke: #9999ff; stroke-opacity: 0.8; stroke-width: 1.5; stroke-linecap: square"/>
   </g>
   <g id="line2d_10">
    <path d="M 431.038017 157.254281 
L 431.038017 157.254281 
" clip-path="url(#pf62ed8a626)" style="fill: none; stroke: #9999ff; stroke-opacity: 0.8; stroke-width: 1.5; stroke-linecap: square"/>
   </g>
   <g id="line2d_11">
    <path d="M 431.389752 157.254281 
L 431.389752 157.254281 
" clip-path="url(#pf62ed8a626)" style="fill: none; stroke: #9999ff; stroke-opacity: 0.8; stroke-width: 1.5; stroke-linecap: square"/>
   </g>
   <g id="line2d_12">
    <path d="M 431.741488 157.254281 
L 431.741488 157.254281 
" clip-path="url(#pf62ed8a626)" style="fill: none; stroke: #9999ff; stroke-opacity: 0.8; stroke-width: 1.5; stroke-linecap: square"/>
   </g>
   <g id="line2d_13">
    <path d="M 432.093223 157.254281 
L 432.093223 157.254281 
" clip-path="url(#pf62ed8a626)" style="fill: none; stroke: #9999ff; stroke-opacity: 0.8; stroke-width: 1.5; stroke-linecap: square"/>
   </g>
   <g id="line2d_14">
    <path d="M 432.444959 157.254281 
L 432.444959 157.254281 
" clip-path="url(#pf62ed8a626)" style="fill: none; stroke: #9999ff; stroke-opacity: 0.8; stroke-width: 1.5; stroke-linecap: square"/>
   </g>
   <g id="line2d_15">
    <path d="M 432.796694 157.254281 
L 432.796694 157.254281 
" clip-path="url(#pf62ed8a626)" style="fill: none; stroke: #9999ff; stroke-opacity: 0.8; stroke-width: 1.5; stroke-linecap: square"/>
   </g>
   <g id="line2d_16">
    <path d="M 433.14843 157.254281 
L 433.14843 157.254281 
" clip-path="url(#pf62ed8a626)" style="fill: none; stroke: #9999ff; stroke-opacity: 0.8; stroke-width: 1.5; stroke-linecap: square"/>
   </g>
   <g id="line2d_17">
    <path d="M 433.500165 157.254281 
L 433.500165 157.254281 
" clip-path="url(#pf62ed8a626)" style="fill: none; stroke: #9999ff; stroke-opacity: 0.8; stroke-width: 1.5; stroke-linecap: square"/>
   </g>
   <g id="line2d_18">
    <path d="M 433.851901 157.254281 
L 433.851901 157.254281 
" clip-path="url(#pf62ed8a626)" style="fill: none; stroke: #9999ff; stroke-opacity: 0.8; stroke-width: 1.5; stroke-linecap: square"/>
   </g>
   <g id="line2d_19">
    <path d="M 434.203636 157.254281 
L 434.203636 157.254281 
" clip-path="url(#pf62ed8a626)" style="fill: none; stroke: #9999ff; stroke-opacity: 0.8; stroke-width: 1.5; stroke-linecap: square"/>
   </g>
   <g id="line2d_20">
    <path d="M 434.555372 157.254281 
L 434.555372 157.254281 
" clip-path="url(#pf62ed8a626)" style="fill: none; stroke: #9999ff; stroke-opacity: 0.8; stroke-width: 1.5; stroke-linecap: square"/>
   </g>
   <g id="line2d_21">
    <path d="M 434.907107 157.254281 
L 434.907107 157.254281 
" clip-path="url(#pf62ed8a626)" style="fill: none; stroke: #9999ff; stroke-opacity: 0.8; stroke-width: 1.5; stroke-linecap: square"/>
   </g>
   <g id="line2d_22">
    <path d="M 435.258843 157.254281 
L 435.258843 157.254281 
" clip-path="url(#pf62ed8a626)" style="fill: none; stroke: #9999ff; stroke-opacity: 0.8; stroke-width: 1.5; stroke-linecap: square"/>
   </g>
   <g id="line2d_23">
    <path d="M 435.610579 157.254281 
L 435.610579 157.254281 
" clip-path="url(#pf62ed8a626)" style="fill: none; stroke: #9999ff; stroke-opacity: 0.8; stroke-width: 1.5; stroke-linecap: square"/>
   </g>
   <g id="line2d_24">
    <path d="M 435.962314 157.254281 
L 435.962314 157.254281 
" clip-path="url(#pf62ed8a626)" style="fill: none; stroke: #9999ff; stroke-opacity: 0.8; stroke-width: 1.5; stroke-linecap: square"/>
   </g>
   <g id="line2d_25">
    <path d="M 436.31405 157.254281 
L 436.31405 157.254281 
" clip-path="url(#pf62ed8a626)" style="fill: none; stroke: #9999ff; stroke-opacity: 0.8; stroke-width: 1.5; stroke-linecap: square"/>
   </g>
   <g id="line2d_26">
    <path d="M 436.665785 157.254281 
L 436.665785 157.254281 
" clip-path="url(#pf62ed8a626)" style="fill: none; stroke: #9999ff; stroke-opacity: 0.8; stroke-width: 1.5; stroke-linecap: square"/>
   </g>
   <g id="line2d_27">
    <path d="M 437.017521 157.254281 
L 437.017521 157.254281 
" clip-path="url(#pf62ed8a626)" style="fill: none; stroke: #9999ff; stroke-opacity: 0.8; stroke-width: 1.5; stroke-linecap: square"/>
   </g>
   <g id="line2d_28">
    <path d="M 437.369256 157.254281 
L 437.369256 157.254281 
" clip-path="url(#pf62ed8a626)" style="fill: none; stroke: #9999ff; stroke-opacity: 0.8; stroke-width: 1.5; stroke-linecap: square"/>
   </g>
   <g id="line2d_29">
    <path d="M 437.720992 157.254281 
L 437.720992 157.254281 
" clip-path="url(#pf62ed8a626)" style="fill: none; stroke: #9999ff; stroke-opacity: 0.8; stroke-width: 1.5; stroke-linecap: square"/>
   </g>
   <g id="line2d_30">
    <path d="M 438.072727 157.254281 
L 438.072727 157.254281 
" clip-path="url(#pf62ed8a626)" style="fill: none; stroke: #9999ff; stroke-opacity: 0.8; stroke-width: 1.5; stroke-linecap: square"/>
   </g>
   <g id="line2d_31">
    <path d="M 438.424463 157.254281 
L 438.424463 157.254281 
" clip-path="url(#pf62ed8a626)" style="fill: none; stroke: #9999ff; stroke-opacity: 0.8; stroke-width: 1.5; stroke-linecap: square"/>
   </g>
   <g id="line2d_32">
    <path d="M 438.776198 157.254281 
L 438.776198 157.254281 
" clip-path="url(#pf62ed8a626)" style="fill: none; stroke: #9999ff; stroke-opacity: 0.8; stroke-width: 1.5; stroke-linecap: square"/>
   </g>
   <g id="line2d_33">
    <path d="M 439.127934 157.254281 
L 439.127934 157.254281 
" clip-path="url(#pf62ed8a626)" style="fill: none; stroke: #9999ff; stroke-opacity: 0.8; stroke-width: 1.5; stroke-linecap: square"/>
   </g>
   <g id="line2d_34">
    <path d="M 439.479669 157.254281 
L 439.479669 157.254281 
" clip-path="url(#pf62ed8a626)" style="fill: none; stroke: #9999ff; stroke-opacity: 0.8; stroke-width: 1.5; stroke-linecap: square"/>
   </g>
   <g id="line2d_35">
    <path d="M 439.831405 157.254281 
L 439.831405 157.254281 
" clip-path="url(#pf62ed8a626)" style="fill: none; stroke: #9999ff; stroke-opacity: 0.8; stroke-width: 1.5; stroke-linecap: square"/>
   </g>
   <g id="line2d_36">
    <path d="M 440.18314 157.254281 
L 440.18314 157.254281 
" clip-path="url(#pf62ed8a626)" style="fill: none; stroke: #9999ff; stroke-opacity: 0.8; stroke-width: 1.5; stroke-linecap: square"/>
   </g>
   <g id="line2d_37">
    <path d="M 440.534876 157.254281 
L 440.534876 157.254281 
" clip-path="url(#pf62ed8a626)" style="fill: none; stroke: #9999ff; stroke-opacity: 0.8; stroke-width: 1.5; stroke-linecap: square"/>
   </g>
   <g id="line2d_38">
    <path d="M 440.886612 157.254281 
L 440.886612 157.254281 
" clip-path="url(#pf62ed8a626)" style="fill: none; stroke: #9999ff; stroke-opacity: 0.8; stroke-width: 1.5; stroke-linecap: square"/>
   </g>
   <g id="line2d_39">
    <path d="M 441.238347 157.254281 
L 441.238347 157.254281 
" clip-path="url(#pf62ed8a626)" style="fill: none; stroke: #9999ff; stroke-opacity: 0.8; stroke-width: 1.5; stroke-linecap: square"/>
   </g>
   <g id="line2d_40">
    <path d="M 441.590083 157.254281 
L 441.590083 157.254281 
" clip-path="url(#pf62ed8a626)" style="fill: none; stroke: #9999ff; stroke-opacity: 0.8; stroke-width: 1.5; stroke-linecap: square"/>
   </g>
   <g id="line2d_41">
    <path d="M 441.941818 157.254281 
L 441.941818 157.254281 
" clip-path="url(#pf62ed8a626)" style="fill: none; stroke: #9999ff; stroke-opacity: 0.8; stroke-width: 1.5; stroke-linecap: square"/>
   </g>
   <g id="line2d_42">
    <path d="M 442.293554 157.254281 
L 442.293554 157.254281 
" clip-path="url(#pf62ed8a626)" style="fill: none; stroke: #9999ff; stroke-opacity: 0.8; stroke-width: 1.5; stroke-linecap: square"/>
   </g>
   <g id="line2d_43">
    <path d="M 442.645289 157.254281 
L 442.645289 157.254281 
" clip-path="url(#pf62ed8a626)" style="fill: none; stroke: #9999ff; stroke-opacity: 0.8; stroke-width: 1.5; stroke-linecap: square"/>
   </g>
   <g id="line2d_44">
    <path d="M 442.997025 157.254281 
L 442.997025 157.254281 
" clip-path="url(#pf62ed8a626)" style="fill: none; stroke: #9999ff; stroke-opacity: 0.8; stroke-width: 1.5; stroke-linecap: square"/>
   </g>
   <g id="line2d_45">
    <path d="M 443.34876 157.254281 
L 443.34876 157.254281 
" clip-path="url(#pf62ed8a626)" style="fill: none; stroke: #9999ff; stroke-opacity: 0.8; stroke-width: 1.5; stroke-linecap: square"/>
   </g>
   <g id="line2d_46">
    <path d="M 443.700496 157.254281 
L 443.700496 157.254281 
" clip-path="url(#pf62ed8a626)" style="fill: none; stroke: #9999ff; stroke-opacity: 0.8; stroke-width: 1.5; stroke-linecap: square"/>
   </g>
   <g id="line2d_47">
    <path d="M 444.052231 157.254281 
L 444.052231 157.254281 
" clip-path="url(#pf62ed8a626)" style="fill: none; stroke: #9999ff; stroke-opacity: 0.8; stroke-width: 1.5; stroke-linecap: square"/>
   </g>
   <g id="line2d_48">
    <path d="M 444.403967 157.254281 
L 444.403967 157.254281 
" clip-path="url(#pf62ed8a626)" style="fill: none; stroke: #9999ff; stroke-opacity: 0.8; stroke-width: 1.5; stroke-linecap: square"/>
   </g>
   <g id="line2d_49">
    <path d="M 444.755702 157.254281 
L 444.755702 157.254281 
" clip-path="url(#pf62ed8a626)" style="fill: none; stroke: #9999ff; stroke-opacity: 0.8; stroke-width: 1.5; stroke-linecap: square"/>
   </g>
   <g id="line2d_50">
    <path d="M 445.107438 157.254281 
L 445.107438 157.254281 
" clip-path="url(#pf62ed8a626)" style="fill: none; stroke: #9999ff; stroke-opacity: 0.8; stroke-width: 1.5; stroke-linecap: square"/>
   </g>
   <g id="line2d_51">
    <path d="M 445.459174 157.254281 
L 445.459174 157.254281 
" clip-path="url(#pf62ed8a626)" style="fill: none; stroke: #9999ff; stroke-opacity: 0.8; stroke-width: 1.5; stroke-linecap: square"/>
   </g>
   <g id="line2d_52">
    <path d="M 445.810909 157.254281 
L 445.810909 157.254281 
" clip-path="url(#pf62ed8a626)" style="fill: none; stroke: #9999ff; stroke-opacity: 0.8; stroke-width: 1.5; stroke-linecap: square"/>
   </g>
   <g id="line2d_53">
    <path d="M 428.4 157.254281 
L 428.324885 155.137127 
L 428.099841 153.028499 
L 427.725776 150.936885 
L 427.204195 148.87071 
L 426.537199 146.838293 
L 425.727473 144.847817 
L 424.778277 142.907297 
L 423.693435 141.024548 
L 422.477314 139.20715 
L 421.13481 137.462422 
L 419.671331 135.797388 
L 418.092768 134.218754 
L 416.405478 132.732875 
L 414.616256 131.345736 
L 412.732305 130.062921 
L 410.761212 128.889597 
L 408.710914 127.830487 
L 406.589666 126.889856 
L 404.40601 126.071492 
L 402.168738 125.37869 
L 399.886861 124.814239 
L 397.569565 124.380414 
L 395.226182 124.078959 
L 392.866147 123.911091 
L 390.498964 123.877483 
L 388.134165 123.978272 
L 385.781272 124.213052 
L 383.449758 124.580877 
L 381.149013 125.080266 
L 378.888301 125.709209 
L 376.676724 126.465173 
L 374.523187 127.345113 
L 372.436364 128.345487 
L 370.424655 129.462267 
L 368.496162 130.690955 
L 366.65865 132.026605 
L 364.919519 133.463837 
L 363.28577 134.996865 
L 361.763983 136.619516 
L 360.360285 138.325256 
L 359.080328 140.107216 
L 357.929267 141.958222 
L 356.911735 143.870819 
L 356.031832 145.837307 
L 355.293099 147.849767 
L 354.69851 149.900095 
L 354.250462 151.980037 
L 353.950757 154.081215 
L 353.800602 156.195171 
L 353.800602 158.313391 
L 353.950757 160.427347 
L 354.250462 162.528526 
L 354.69851 164.608467 
L 355.293099 166.658796 
L 356.031832 168.671256 
L 356.911735 170.637743 
L 357.929267 172.550341 
L 359.080328 174.401346 
L 360.360285 176.183307 
L 361.763983 177.889046 
L 363.28577 179.511697 
L 364.919519 181.044725 
L 366.65865 182.481958 
L 368.496162 183.817607 
L 370.424655 185.046296 
L 372.436364 186.163075 
L 374.523187 187.163449 
L 376.676724 188.04339 
L 378.888301 188.799354 
L 381.149013 189.428296 
L 383.449758 189.927686 
L 385.781272 190.295511 
L 388.134165 190.530291 
L 390.498964 190.63108 
L 392.866147 190.597472 
L 395.226182 190.429603 
L 397.569565 190.128149 
L 399.886861 189.694323 
L 402.168738 189.129873 
L 404.40601 188.437071 
L 406.589666 187.618707 
L 408.710914 186.678076 
L 410.761212 185.618966 
L 412.732305 184.445641 
L 414.616256 183.162826 
L 416.405478 181.775687 
L 418.092768 180.289809 
L 419.671331 178.711174 
L 421.13481 177.046141 
L 422.477314 175.301412 
L 423.693435 173.484014 
L 424.778277 171.601265 
L 425.727473 169.660746 
L 426.537199 167.67027 
L 427.204195 165.637852 
L 427.725776 163.571677 
L 428.099841 161.480064 
L 428.324885 159.371435 
L 428.4 157.254281 
" clip-path="url(#pf62ed8a626)" style="fill: none; stroke: #000000; stroke-width: 2; stroke-linecap: square"/>
   </g>
   <g id="line2d_54">
    <path d="M 503.018182 157.254281 
L 502.943067 155.137127 
L 502.718023 153.028499 
L 502.343958 150.936885 
L 501.822377 148.87071 
L 501.155381 146.838293 
L 500.345655 144.847817 
L 499.396459 142.907297 
L 498.311617 141.024548 
L 497.095495 139.20715 
L 495.752992 137.462422 
L 494.289513 135.797388 
L 492.71095 134.218754 
L 491.02366 132.732875 
L 489.234438 131.345736 
L 487.350487 130.062921 
L 485.379394 128.889597 
L 483.329095 127.830487 
L 481.207847 126.889856 
L 479.024191 126.071492 
L 476.78692 125.37869 
L 474.505042 124.814239 
L 472.187747 124.380414 
L 469.844363 124.078959 
L 467.484329 123.911091 
L 465.117146 123.877483 
L 462.752347 123.978272 
L 460.399454 124.213052 
L 458.06794 124.580877 
L 455.767195 125.080266 
L 453.506483 125.709209 
L 451.294905 126.465173 
L 449.141369 127.345113 
L 447.054545 128.345487 
L 445.042837 129.462267 
L 443.114344 130.690955 
L 441.276832 132.026605 
L 439.537701 133.463837 
L 437.903952 134.996865 
L 436.382165 136.619516 
L 434.978466 138.325256 
L 433.69851 140.107216 
L 432.547448 141.958222 
L 431.529917 143.870819 
L 430.650013 145.837307 
L 429.91128 147.849767 
L 429.316692 149.900095 
L 428.868644 151.980037 
L 428.568938 154.081215 
L 428.418784 156.195171 
L 428.418784 158.313391 
L 428.568938 160.427347 
L 428.868644 162.528526 
L 429.316692 164.608467 
L 429.91128 166.658796 
L 430.650013 168.671256 
L 431.529917 170.637743 
L 432.547448 172.550341 
L 433.69851 174.401346 
L 434.978466 176.183307 
L 436.382165 177.889046 
L 437.903952 179.511697 
L 439.537701 181.044725 
L 441.276832 182.481958 
L 443.114344 183.817607 
L 445.042837 185.046296 
L 447.054545 186.163075 
L 449.141369 187.163449 
L 451.294905 188.04339 
L 453.506483 188.799354 
L 455.767195 189.428296 
L 458.06794 189.927686 
L 460.399454 190.295511 
L 462.752347 190.530291 
L 465.117146 190.63108 
L 467.484329 190.597472 
L 469.844363 190.429603 
L 472.187747 190.128149 
L 474.505042 189.694323 
L 476.78692 189.129873 
L 479.024191 188.437071 
L 481.207847 187.618707 
L 483.329095 186.678076 
L 485.379394 185.618966 
L 487.350487 184.445641 
L 489.234438 183.162826 
L 491.02366 181.775687 
L 492.71095 180.289809 
L 494.289513 178.711174 
L 495.752992 177.046141 
L 497.095495 175.301412 
L 498.311617 173.484014 
L 499.396459 171.601265 
L 500.345655 169.660746 
L 501.155381 167.67027 
L 501.822377 165.637852 
L 502.343958 163.571677 
L 502.718023 161.480064 
L 502.943067 159.371435 
L 503.018182 157.254281 
" clip-path="url(#pf62ed8a626)" style="fill: none; stroke: #000000; stroke-width: 2; stroke-linecap: square"/>
   </g>
   <g id="text_5">
    <!-- A -->
    <g transform="translate(373.68 157.254281) scale(0.14 -0.14)">
     <use xlink:href="#DejaVuSans-Bold-41"/>
    </g>
   </g>
   <g id="text_6">
    <!-- B -->
    <g transform="translate(483.12 157.254281) scale(0.14 -0.14)">
     <use xlink:href="#DejaVuSans-Bold-42"/>
    </g>
   </g>
   <g id="text_7">
    <!-- Ω -->
    <g transform="translate(316.472727 61.562081) scale(0.12 -0.12)">
     <use xlink:href="#DejaVuSans-3a9"/>
    </g>
   </g>
   <g id="text_8">
    <!-- A ∩ B (INTERSECCIÓN) -->
    <g transform="translate(359.204844 16.539687) scale(0.11 -0.11)">
     <defs>
      <path id="DejaVuSans-Bold-2229" d="M 966 1734 
Q 966 2784 1313 3222 
Q 1697 3706 2597 3706 
Q 3463 3706 3884 3222 
Q 4231 2825 4231 1734 
L 4231 0 
L 3363 0 
L 3363 1734 
Q 3363 2366 3219 2575 
Q 3044 2822 2597 2822 
Q 2169 2822 1981 2575 
Q 1834 2384 1834 1734 
L 1834 0 
L 966 0 
L 966 1734 
z
" transform="scale(0.015625)"/>
      <path id="DejaVuSans-Bold-54" d="M 31 4666 
L 4331 4666 
L 4331 3756 
L 2784 3756 
L 2784 0 
L 1581 0 
L 1581 3756 
L 31 3756 
L 31 4666 
z
" transform="scale(0.015625)"/>
      <path id="DejaVuSans-Bold-45" d="M 588 4666 
L 3834 4666 
L 3834 3756 
L 1791 3756 
L 1791 2888 
L 3713 2888 
L 3713 1978 
L 1791 1978 
L 1791 909 
L 3903 909 
L 3903 0 
L 588 0 
L 588 4666 
z
" transform="scale(0.015625)"/>
      <path id="DejaVuSans-Bold-52" d="M 2297 2597 
Q 2675 2597 2839 2737 
Q 3003 2878 3003 3200 
Q 3003 3519 2839 3656 
Q 2675 3794 2297 3794 
L 1791 3794 
L 1791 2597 
L 2297 2597 
z
M 1791 1766 
L 1791 0 
L 588 0 
L 588 4666 
L 2425 4666 
Q 3347 4666 3776 4356 
Q 4206 4047 4206 3378 
Q 4206 2916 3982 2619 
Q 3759 2322 3309 2181 
Q 3556 2125 3751 1926 
Q 3947 1728 4147 1325 
L 4800 0 
L 3519 0 
L 2950 1159 
Q 2778 1509 2601 1637 
Q 2425 1766 2131 1766 
L 1791 1766 
z
" transform="scale(0.015625)"/>
      <path id="DejaVuSans-Bold-53" d="M 3834 4519 
L 3834 3531 
Q 3450 3703 3084 3790 
Q 2719 3878 2394 3878 
Q 1963 3878 1756 3759 
Q 1550 3641 1550 3391 
Q 1550 3203 1689 3098 
Q 1828 2994 2194 2919 
L 2706 2816 
Q 3484 2659 3812 2340 
Q 4141 2022 4141 1434 
Q 4141 663 3683 286 
Q 3225 -91 2284 -91 
Q 1841 -91 1394 -6 
Q 947 78 500 244 
L 500 1259 
Q 947 1022 1364 901 
Q 1781 781 2169 781 
Q 2563 781 2772 912 
Q 2981 1044 2981 1288 
Q 2981 1506 2839 1625 
Q 2697 1744 2272 1838 
L 1806 1941 
Q 1106 2091 782 2419 
Q 459 2747 459 3303 
Q 459 4000 909 4375 
Q 1359 4750 2203 4750 
Q 2588 4750 2994 4692 
Q 3400 4634 3834 4519 
z
" transform="scale(0.015625)"/>
      <path id="DejaVuSans-Bold-43" d="M 4288 256 
Q 3956 84 3597 -3 
Q 3238 -91 2847 -91 
Q 1681 -91 1000 561 
Q 319 1213 319 2328 
Q 319 3447 1000 4098 
Q 1681 4750 2847 4750 
Q 3238 4750 3597 4662 
Q 3956 4575 4288 4403 
L 4288 3438 
Q 3953 3666 3628 3772 
Q 3303 3878 2944 3878 
Q 2300 3878 1931 3465 
Q 1563 3053 1563 2328 
Q 1563 1606 1931 1193 
Q 2300 781 2944 781 
Q 3303 781 3628 887 
Q 3953 994 4288 1222 
L 4288 256 
z
" transform="scale(0.015625)"/>
     </defs>
     <use xlink:href="#DejaVuSans-Bold-41"/>
     <use xlink:href="#DejaVuSans-Bold-20" x="77.392578"/>
     <use xlink:href="#DejaVuSans-Bold-2229" x="112.207031"/>
     <use xlink:href="#DejaVuSans-Bold-20" x="193.408203"/>
     <use xlink:href="#DejaVuSans-Bold-42" x="228.222656"/>
     <use xlink:href="#DejaVuSans-Bold-20" x="304.443359"/>
     <use xlink:href="#DejaVuSans-Bold-28" x="339.257812"/>
     <use xlink:href="#DejaVuSans-Bold-49" x="384.960938"/>
     <use xlink:href="#DejaVuSans-Bold-4e" x="422.167969"/>
     <use xlink:href="#DejaVuSans-Bold-54" x="505.859375"/>
     <use xlink:href="#DejaVuSans-Bold-45" x="574.072266"/>
     <use xlink:href="#DejaVuSans-Bold-52" x="642.382812"/>
     <use xlink:href="#DejaVuSans-Bold-53" x="719.384766"/>
     <use xlink:href="#DejaVuSans-Bold-45" x="791.40625"/>
     <use xlink:href="#DejaVuSans-Bold-43" x="859.716797"/>
     <use xlink:href="#DejaVuSans-Bold-43" x="933.105469"/>
     <use xlink:href="#DejaVuSans-Bold-49" x="1006.494141"/>
     <use xlink:href="#DejaVuSans-Bold-d3" x="1043.701172"/>
     <use xlink:href="#DejaVuSans-Bold-4e" x="1128.710938"/>
     <use xlink:href="#DejaVuSans-Bold-29" x="1212.402344"/>
    </g>
    <!-- "A y B" -->
    <g transform="translate(406.806484 28.857281) scale(0.11 -0.11)">
     <defs>
      <path id="DejaVuSans-Bold-79" d="M 78 3500 
L 1197 3500 
L 2138 1125 
L 2938 3500 
L 4056 3500 
L 2584 -331 
Q 2363 -916 2067 -1148 
Q 1772 -1381 1288 -1381 
L 641 -1381 
L 641 -647 
L 991 -647 
Q 1275 -647 1404 -556 
Q 1534 -466 1606 -231 
L 1638 -134 
L 78 3500 
z
" transform="scale(0.015625)"/>
     </defs>
     <use xlink:href="#DejaVuSans-Bold-22"/>
     <use xlink:href="#DejaVuSans-Bold-41" x="52.099609"/>
     <use xlink:href="#DejaVuSans-Bold-20" x="129.492188"/>
     <use xlink:href="#DejaVuSans-Bold-79" x="164.306641"/>
     <use xlink:href="#DejaVuSans-Bold-20" x="229.492188"/>
     <use xlink:href="#DejaVuSans-Bold-42" x="264.306641"/>
     <use xlink:href="#DejaVuSans-Bold-22" x="340.527344"/>
    </g>
   </g>
  </g>
  <g id="axes_3">
   <g id="patch_6">
    <path d="M 588.436364 268.524281 
L 837.163636 268.524281 
L 837.163636 45.984281 
L 588.436364 45.984281 
z
" clip-path="url(#pc098f2b3c1)" style="fill: #ffffff; stroke: #000000; stroke-width: 2; stroke-linejoin: miter"/>
   </g>
   <g id="patch_7">
    <path d="M 588.436364 268.524281 
L 837.163636 268.524281 
L 837.163636 45.984281 
L 588.436364 45.984281 
z
" clip-path="url(#pc098f2b3c1)" style="fill: #ffff99; opacity: 0.5; stroke: #ffff99; stroke-linejoin: miter"/>
   </g>
   <g id="patch_8">
    <path d="M 712.8 157.254281 
L 712.724885 155.137127 
L 712.499841 153.028499 
L 712.125776 150.936885 
L 711.604195 148.87071 
L 710.937199 146.838293 
L 710.127473 144.847817 
L 709.178277 142.907297 
L 708.093435 141.024548 
L 706.877314 139.20715 
L 705.53481 137.462422 
L 704.071331 135.797388 
L 702.492768 134.218754 
L 700.805478 132.732875 
L 699.016256 131.345736 
L 697.132305 130.062921 
L 695.161212 128.889597 
L 693.110914 127.830487 
L 690.989666 126.889856 
L 688.80601 126.071492 
L 686.568738 125.37869 
L 684.286861 124.814239 
L 681.969565 124.380414 
L 679.626182 124.078959 
L 677.266147 123.911091 
L 674.898964 123.877483 
L 672.534165 123.978272 
L 670.181272 124.213052 
L 667.849758 124.580877 
L 665.549013 125.080266 
L 663.288301 125.709209 
L 661.076724 126.465173 
L 658.923187 127.345113 
L 656.836364 128.345487 
L 654.824655 129.462267 
L 652.896162 130.690955 
L 651.05865 132.026605 
L 649.319519 133.463837 
L 647.68577 134.996865 
L 646.163983 136.619516 
L 644.760285 138.325256 
L 643.480328 140.107216 
L 642.329267 141.958222 
L 641.311735 143.870819 
L 640.431832 145.837307 
L 639.693099 147.849767 
L 639.09851 149.900095 
L 638.650462 151.980037 
L 638.350757 154.081215 
L 638.200602 156.195171 
L 638.200602 158.313391 
L 638.350757 160.427347 
L 638.650462 162.528526 
L 639.09851 164.608467 
L 639.693099 166.658796 
L 640.431832 168.671256 
L 641.311735 170.637743 
L 642.329267 172.550341 
L 643.480328 174.401346 
L 644.760285 176.183307 
L 646.163983 177.889046 
L 647.68577 179.511697 
L 649.319519 181.044725 
L 651.05865 182.481958 
L 652.896162 183.817607 
L 654.824655 185.046296 
L 656.836364 186.163075 
L 658.923187 187.163449 
L 661.076724 188.04339 
L 663.288301 188.799354 
L 665.549013 189.428296 
L 667.849758 189.927686 
L 670.181272 190.295511 
L 672.534165 190.530291 
L 674.898964 190.63108 
L 677.266147 190.597472 
L 679.626182 190.429603 
L 681.969565 190.128149 
L 684.286861 189.694323 
L 686.568738 189.129873 
L 688.80601 188.437071 
L 690.989666 187.618707 
L 693.110914 186.678076 
L 695.161212 185.618966 
L 697.132305 184.445641 
L 699.016256 183.162826 
L 700.805478 181.775687 
L 702.492768 180.289809 
L 704.071331 178.711174 
L 705.53481 177.046141 
L 706.877314 175.301412 
L 708.093435 173.484014 
L 709.178277 171.601265 
L 710.127473 169.660746 
L 710.937199 167.67027 
L 711.604195 165.637852 
L 712.125776 163.571677 
L 712.499841 161.480064 
L 712.724885 159.371435 
L 712.8 157.254281 
z
" clip-path="url(#pc098f2b3c1)" style="fill: #ffffff; stroke: #ffffff; stroke-linejoin: miter"/>
   </g>
   <g id="line2d_55">
    <path d="M 712.8 157.254281 
L 712.724885 155.137127 
L 712.499841 153.028499 
L 712.125776 150.936885 
L 711.604195 148.87071 
L 710.937199 146.838293 
L 710.127473 144.847817 
L 709.178277 142.907297 
L 708.093435 141.024548 
L 706.877314 139.20715 
L 705.53481 137.462422 
L 704.071331 135.797388 
L 702.492768 134.218754 
L 700.805478 132.732875 
L 699.016256 131.345736 
L 697.132305 130.062921 
L 695.161212 128.889597 
L 693.110914 127.830487 
L 690.989666 126.889856 
L 688.80601 126.071492 
L 686.568738 125.37869 
L 684.286861 124.814239 
L 681.969565 124.380414 
L 679.626182 124.078959 
L 677.266147 123.911091 
L 674.898964 123.877483 
L 672.534165 123.978272 
L 670.181272 124.213052 
L 667.849758 124.580877 
L 665.549013 125.080266 
L 663.288301 125.709209 
L 661.076724 126.465173 
L 658.923187 127.345113 
L 656.836364 128.345487 
L 654.824655 129.462267 
L 652.896162 130.690955 
L 651.05865 132.026605 
L 649.319519 133.463837 
L 647.68577 134.996865 
L 646.163983 136.619516 
L 644.760285 138.325256 
L 643.480328 140.107216 
L 642.329267 141.958222 
L 641.311735 143.870819 
L 640.431832 145.837307 
L 639.693099 147.849767 
L 639.09851 149.900095 
L 638.650462 151.980037 
L 638.350757 154.081215 
L 638.200602 156.195171 
L 638.200602 158.313391 
L 638.350757 160.427347 
L 638.650462 162.528526 
L 639.09851 164.608467 
L 639.693099 166.658796 
L 640.431832 168.671256 
L 641.311735 170.637743 
L 642.329267 172.550341 
L 643.480328 174.401346 
L 644.760285 176.183307 
L 646.163983 177.889046 
L 647.68577 179.511697 
L 649.319519 181.044725 
L 651.05865 182.481958 
L 652.896162 183.817607 
L 654.824655 185.046296 
L 656.836364 186.163075 
L 658.923187 187.163449 
L 661.076724 188.04339 
L 663.288301 188.799354 
L 665.549013 189.428296 
L 667.849758 189.927686 
L 670.181272 190.295511 
L 672.534165 190.530291 
L 674.898964 190.63108 
L 677.266147 190.597472 
L 679.626182 190.429603 
L 681.969565 190.128149 
L 684.286861 189.694323 
L 686.568738 189.129873 
L 688.80601 188.437071 
L 690.989666 187.618707 
L 693.110914 186.678076 
L 695.161212 185.618966 
L 697.132305 184.445641 
L 699.016256 183.162826 
L 700.805478 181.775687 
L 702.492768 180.289809 
L 704.071331 178.711174 
L 705.53481 177.046141 
L 706.877314 175.301412 
L 708.093435 173.484014 
L 709.178277 171.601265 
L 710.127473 169.660746 
L 710.937199 167.67027 
L 711.604195 165.637852 
L 712.125776 163.571677 
L 712.499841 161.480064 
L 712.724885 159.371435 
L 712.8 157.254281 
" clip-path="url(#pc098f2b3c1)" style="fill: none; stroke: #000000; stroke-width: 2; stroke-linecap: square"/>
   </g>
   <g id="line2d_56">
    <path d="M 787.418182 157.254281 
L 787.343067 155.137127 
L 787.118023 153.028499 
L 786.743958 150.936885 
L 786.222377 148.87071 
L 785.555381 146.838293 
L 784.745655 144.847817 
L 783.796459 142.907297 
L 782.711617 141.024548 
L 781.495495 139.20715 
L 780.152992 137.462422 
L 778.689513 135.797388 
L 777.11095 134.218754 
L 775.42366 132.732875 
L 773.634438 131.345736 
L 771.750487 130.062921 
L 769.779394 128.889597 
L 767.729095 127.830487 
L 765.607847 126.889856 
L 763.424191 126.071492 
L 761.18692 125.37869 
L 758.905042 124.814239 
L 756.587747 124.380414 
L 754.244363 124.078959 
L 751.884329 123.911091 
L 749.517146 123.877483 
L 747.152347 123.978272 
L 744.799454 124.213052 
L 742.46794 124.580877 
L 740.167195 125.080266 
L 737.906483 125.709209 
L 735.694905 126.465173 
L 733.541369 127.345113 
L 731.454545 128.345487 
L 729.442837 129.462267 
L 727.514344 130.690955 
L 725.676832 132.026605 
L 723.937701 133.463837 
L 722.303952 134.996865 
L 720.782165 136.619516 
L 719.378466 138.325256 
L 718.09851 140.107216 
L 716.947448 141.958222 
L 715.929917 143.870819 
L 715.050013 145.837307 
L 714.31128 147.849767 
L 713.716692 149.900095 
L 713.268644 151.980037 
L 712.968938 154.081215 
L 712.818784 156.195171 
L 712.818784 158.313391 
L 712.968938 160.427347 
L 713.268644 162.528526 
L 713.716692 164.608467 
L 714.31128 166.658796 
L 715.050013 168.671256 
L 715.929917 170.637743 
L 716.947448 172.550341 
L 718.09851 174.401346 
L 719.378466 176.183307 
L 720.782165 177.889046 
L 722.303952 179.511697 
L 723.937701 181.044725 
L 725.676832 182.481958 
L 727.514344 183.817607 
L 729.442837 185.046296 
L 731.454545 186.163075 
L 733.541369 187.163449 
L 735.694905 188.04339 
L 737.906483 188.799354 
L 740.167195 189.428296 
L 742.46794 189.927686 
L 744.799454 190.295511 
L 747.152347 190.530291 
L 749.517146 190.63108 
L 751.884329 190.597472 
L 754.244363 190.429603 
L 756.587747 190.128149 
L 758.905042 189.694323 
L 761.18692 189.129873 
L 763.424191 188.437071 
L 765.607847 187.618707 
L 767.729095 186.678076 
L 769.779394 185.618966 
L 771.750487 184.445641 
L 773.634438 183.162826 
L 775.42366 181.775687 
L 777.11095 180.289809 
L 778.689513 178.711174 
L 780.152992 177.046141 
L 781.495495 175.301412 
L 782.711617 173.484014 
L 783.796459 171.601265 
L 784.745655 169.660746 
L 785.555381 167.67027 
L 786.222377 165.637852 
L 786.743958 163.571677 
L 787.118023 161.480064 
L 787.343067 159.371435 
L 787.418182 157.254281 
" clip-path="url(#pc098f2b3c1)" style="fill: none; stroke: #000000; stroke-width: 2; stroke-linecap: square"/>
   </g>
   <g id="text_9">
    <!-- A -->
    <g transform="translate(658.08 157.254281) scale(0.14 -0.14)">
     <use xlink:href="#DejaVuSans-Bold-41"/>
    </g>
   </g>
   <g id="text_10">
    <!-- B -->
    <g transform="translate(767.52 157.254281) scale(0.14 -0.14)">
     <use xlink:href="#DejaVuSans-Bold-42"/>
    </g>
   </g>
   <g id="text_11">
    <!-- Ω -->
    <g transform="translate(600.872727 61.562081) scale(0.12 -0.12)">
     <use xlink:href="#DejaVuSans-3a9"/>
    </g>
   </g>
   <g id="text_12">
    <!-- Ā (COMPLEMENTARIO) -->
    <g transform="translate(643.750078 16.539687) scale(0.11 -0.11)">
     <defs>
      <path id="DejaVuSans-Bold-100" d="M 1488 5823 
L 3456 5823 
L 3456 5235 
L 1488 5235 
L 1488 5823 
z
M 3419 850 
L 1538 850 
L 1241 0 
L 31 0 
L 1759 4666 
L 3194 4666 
L 4922 0 
L 3713 0 
L 3419 850 
z
M 1838 1716 
L 3116 1716 
L 2478 3572 
L 1838 1716 
z
" transform="scale(0.015625)"/>
      <path id="DejaVuSans-Bold-4f" d="M 2719 3878 
Q 2169 3878 1866 3472 
Q 1563 3066 1563 2328 
Q 1563 1594 1866 1187 
Q 2169 781 2719 781 
Q 3272 781 3575 1187 
Q 3878 1594 3878 2328 
Q 3878 3066 3575 3472 
Q 3272 3878 2719 3878 
z
M 2719 4750 
Q 3844 4750 4481 4106 
Q 5119 3463 5119 2328 
Q 5119 1197 4481 553 
Q 3844 -91 2719 -91 
Q 1597 -91 958 553 
Q 319 1197 319 2328 
Q 319 3463 958 4106 
Q 1597 4750 2719 4750 
z
" transform="scale(0.015625)"/>
      <path id="DejaVuSans-Bold-4d" d="M 588 4666 
L 2119 4666 
L 3181 2169 
L 4250 4666 
L 5778 4666 
L 5778 0 
L 4641 0 
L 4641 3413 
L 3566 897 
L 2803 897 
L 1728 3413 
L 1728 0 
L 588 0 
L 588 4666 
z
" transform="scale(0.015625)"/>
      <path id="DejaVuSans-Bold-50" d="M 588 4666 
L 2584 4666 
Q 3475 4666 3951 4270 
Q 4428 3875 4428 3144 
Q 4428 2409 3951 2014 
Q 3475 1619 2584 1619 
L 1791 1619 
L 1791 0 
L 588 0 
L 588 4666 
z
M 1791 3794 
L 1791 2491 
L 2456 2491 
Q 2806 2491 2997 2661 
Q 3188 2831 3188 3144 
Q 3188 3456 2997 3625 
Q 2806 3794 2456 3794 
L 1791 3794 
z
" transform="scale(0.015625)"/>
      <path id="DejaVuSans-Bold-4c" d="M 588 4666 
L 1791 4666 
L 1791 909 
L 3903 909 
L 3903 0 
L 588 0 
L 588 4666 
z
" transform="scale(0.015625)"/>
     </defs>
     <use xlink:href="#DejaVuSans-Bold-100"/>
     <use xlink:href="#DejaVuSans-Bold-20" x="77.392578"/>
     <use xlink:href="#DejaVuSans-Bold-28" x="112.207031"/>
     <use xlink:href="#DejaVuSans-Bold-43" x="157.910156"/>
     <use xlink:href="#DejaVuSans-Bold-4f" x="231.298828"/>
     <use xlink:href="#DejaVuSans-Bold-4d" x="316.308594"/>
     <use xlink:href="#DejaVuSans-Bold-50" x="415.820312"/>
     <use xlink:href="#DejaVuSans-Bold-4c" x="489.111328"/>
     <use xlink:href="#DejaVuSans-Bold-45" x="552.832031"/>
     <use xlink:href="#DejaVuSans-Bold-4d" x="621.142578"/>
     <use xlink:href="#DejaVuSans-Bold-45" x="720.654297"/>
     <use xlink:href="#DejaVuSans-Bold-4e" x="788.964844"/>
     <use xlink:href="#DejaVuSans-Bold-54" x="872.65625"/>
     <use xlink:href="#DejaVuSans-Bold-41" x="933.119141"/>
     <use xlink:href="#DejaVuSans-Bold-52" x="1010.511719"/>
     <use xlink:href="#DejaVuSans-Bold-49" x="1087.513672"/>
     <use xlink:href="#DejaVuSans-Bold-4f" x="1124.720703"/>
     <use xlink:href="#DejaVuSans-Bold-29" x="1209.730469"/>
    </g>
    <!-- "No A" -->
    <g transform="translate(692.517031 28.857281) scale(0.11 -0.11)">
     <use xlink:href="#DejaVuSans-Bold-22"/>
     <use xlink:href="#DejaVuSans-Bold-4e" x="52.099609"/>
     <use xlink:href="#DejaVuSans-Bold-6f" x="135.791016"/>
     <use xlink:href="#DejaVuSans-Bold-20" x="204.492188"/>
     <use xlink:href="#DejaVuSans-Bold-41" x="239.306641"/>
     <use xlink:href="#DejaVuSans-Bold-22" x="316.699219"/>
    </g>
   </g>
  </g>
  <g id="axes_4">
   <g id="patch_9">
    <path d="M 19.636364 550.494281 
L 268.363636 550.494281 
L 268.363636 327.954281 
L 19.636364 327.954281 
z
" clip-path="url(#p31446ddd02)" style="fill: #ffffff; stroke: #000000; stroke-width: 2; stroke-linejoin: miter"/>
   </g>
   <g id="patch_10">
    <path d="M 144 439.224281 
L 143.924885 437.107127 
L 143.699841 434.998499 
L 143.325776 432.906885 
L 142.804195 430.84071 
L 142.137199 428.808293 
L 141.327473 426.817817 
L 140.378277 424.877297 
L 139.293435 422.994548 
L 138.077314 421.17715 
L 136.73481 419.432422 
L 135.271331 417.767388 
L 133.692768 416.188754 
L 132.005478 414.702875 
L 130.216256 413.315736 
L 128.332305 412.032921 
L 126.361212 410.859597 
L 124.310914 409.800487 
L 122.189666 408.859856 
L 120.00601 408.041492 
L 117.768738 407.34869 
L 115.486861 406.784239 
L 113.169565 406.350414 
L 110.826182 406.048959 
L 108.466147 405.881091 
L 106.098964 405.847483 
L 103.734165 405.948272 
L 101.381272 406.183052 
L 99.049758 406.550877 
L 96.749013 407.050266 
L 94.488301 407.679209 
L 92.276724 408.435173 
L 90.123187 409.315113 
L 88.036364 410.315487 
L 86.024655 411.432267 
L 84.096162 412.660955 
L 82.25865 413.996605 
L 80.519519 415.433837 
L 78.88577 416.966865 
L 77.363983 418.589516 
L 75.960285 420.295256 
L 74.680328 422.077216 
L 73.529267 423.928222 
L 72.511735 425.840819 
L 71.631832 427.807307 
L 70.893099 429.819767 
L 70.29851 431.870095 
L 69.850462 433.950037 
L 69.550757 436.051215 
L 69.400602 438.165171 
L 69.400602 440.283391 
L 69.550757 442.397347 
L 69.850462 444.498526 
L 70.29851 446.578467 
L 70.893099 448.628796 
L 71.631832 450.641256 
L 72.511735 452.607743 
L 73.529267 454.520341 
L 74.680328 456.371346 
L 75.960285 458.153307 
L 77.363983 459.859046 
L 78.88577 461.481697 
L 80.519519 463.014725 
L 82.25865 464.451958 
L 84.096162 465.787607 
L 86.024655 467.016296 
L 88.036364 468.133075 
L 90.123187 469.133449 
L 92.276724 470.01339 
L 94.488301 470.769354 
L 96.749013 471.398296 
L 99.049758 471.897686 
L 101.381272 472.265511 
L 103.734165 472.500291 
L 106.098964 472.60108 
L 108.466147 472.567472 
L 110.826182 472.399603 
L 113.169565 472.098149 
L 115.486861 471.664323 
L 117.768738 471.099873 
L 120.00601 470.407071 
L 122.189666 469.588707 
L 124.310914 468.648076 
L 126.361212 467.588966 
L 128.332305 466.415641 
L 130.216256 465.132826 
L 132.005478 463.745687 
L 133.692768 462.259809 
L 135.271331 460.681174 
L 136.73481 459.016141 
L 138.077314 457.271412 
L 139.293435 455.454014 
L 140.378277 453.571265 
L 141.327473 451.630746 
L 142.137199 449.64027 
L 142.804195 447.607852 
L 143.325776 445.541677 
L 143.699841 443.450064 
L 143.924885 441.341435 
L 144 439.224281 
z
" clip-path="url(#p31446ddd02)" style="fill: #ff9999; opacity: 0.7; stroke: #ff9999; stroke-linejoin: miter"/>
   </g>
   <g id="line2d_57">
    <path d="M 144.175868 439.224281 
L 144.175868 439.224281 
" clip-path="url(#p31446ddd02)" style="fill: none; stroke: #ffffff; stroke-width: 1.5; stroke-linecap: square"/>
   </g>
   <g id="line2d_58">
    <path d="M 144.527603 439.224281 
L 144.527603 439.224281 
" clip-path="url(#p31446ddd02)" style="fill: none; stroke: #ffffff; stroke-width: 1.5; stroke-linecap: square"/>
   </g>
   <g id="line2d_59">
    <path d="M 144.879339 439.224281 
L 144.879339 439.224281 
" clip-path="url(#p31446ddd02)" style="fill: none; stroke: #ffffff; stroke-width: 1.5; stroke-linecap: square"/>
   </g>
   <g id="line2d_60">
    <path d="M 145.231074 439.224281 
L 145.231074 439.224281 
" clip-path="url(#p31446ddd02)" style="fill: none; stroke: #ffffff; stroke-width: 1.5; stroke-linecap: square"/>
   </g>
   <g id="line2d_61">
    <path d="M 145.58281 439.224281 
L 145.58281 439.224281 
" clip-path="url(#p31446ddd02)" style="fill: none; stroke: #ffffff; stroke-width: 1.5; stroke-linecap: square"/>
   </g>
   <g id="line2d_62">
    <path d="M 145.934545 439.224281 
L 145.934545 439.224281 
" clip-path="url(#p31446ddd02)" style="fill: none; stroke: #ffffff; stroke-width: 1.5; stroke-linecap: square"/>
   </g>
   <g id="line2d_63">
    <path d="M 146.286281 439.224281 
L 146.286281 439.224281 
" clip-path="url(#p31446ddd02)" style="fill: none; stroke: #ffffff; stroke-width: 1.5; stroke-linecap: square"/>
   </g>
   <g id="line2d_64">
    <path d="M 146.638017 439.224281 
L 146.638017 439.224281 
" clip-path="url(#p31446ddd02)" style="fill: none; stroke: #ffffff; stroke-width: 1.5; stroke-linecap: square"/>
   </g>
   <g id="line2d_65">
    <path d="M 146.989752 439.224281 
L 146.989752 439.224281 
" clip-path="url(#p31446ddd02)" style="fill: none; stroke: #ffffff; stroke-width: 1.5; stroke-linecap: square"/>
   </g>
   <g id="line2d_66">
    <path d="M 147.341488 439.224281 
L 147.341488 439.224281 
" clip-path="url(#p31446ddd02)" style="fill: none; stroke: #ffffff; stroke-width: 1.5; stroke-linecap: square"/>
   </g>
   <g id="line2d_67">
    <path d="M 147.693223 439.224281 
L 147.693223 439.224281 
" clip-path="url(#p31446ddd02)" style="fill: none; stroke: #ffffff; stroke-width: 1.5; stroke-linecap: square"/>
   </g>
   <g id="line2d_68">
    <path d="M 148.044959 439.224281 
L 148.044959 439.224281 
" clip-path="url(#p31446ddd02)" style="fill: none; stroke: #ffffff; stroke-width: 1.5; stroke-linecap: square"/>
   </g>
   <g id="line2d_69">
    <path d="M 148.396694 439.224281 
L 148.396694 439.224281 
" clip-path="url(#p31446ddd02)" style="fill: none; stroke: #ffffff; stroke-width: 1.5; stroke-linecap: square"/>
   </g>
   <g id="line2d_70">
    <path d="M 148.74843 439.224281 
L 148.74843 439.224281 
" clip-path="url(#p31446ddd02)" style="fill: none; stroke: #ffffff; stroke-width: 1.5; stroke-linecap: square"/>
   </g>
   <g id="line2d_71">
    <path d="M 149.100165 439.224281 
L 149.100165 439.224281 
" clip-path="url(#p31446ddd02)" style="fill: none; stroke: #ffffff; stroke-width: 1.5; stroke-linecap: square"/>
   </g>
   <g id="line2d_72">
    <path d="M 149.451901 439.224281 
L 149.451901 439.224281 
" clip-path="url(#p31446ddd02)" style="fill: none; stroke: #ffffff; stroke-width: 1.5; stroke-linecap: square"/>
   </g>
   <g id="line2d_73">
    <path d="M 149.803636 439.224281 
L 149.803636 439.224281 
" clip-path="url(#p31446ddd02)" style="fill: none; stroke: #ffffff; stroke-width: 1.5; stroke-linecap: square"/>
   </g>
   <g id="line2d_74">
    <path d="M 150.155372 439.224281 
L 150.155372 439.224281 
" clip-path="url(#p31446ddd02)" style="fill: none; stroke: #ffffff; stroke-width: 1.5; stroke-linecap: square"/>
   </g>
   <g id="line2d_75">
    <path d="M 150.507107 439.224281 
L 150.507107 439.224281 
" clip-path="url(#p31446ddd02)" style="fill: none; stroke: #ffffff; stroke-width: 1.5; stroke-linecap: square"/>
   </g>
   <g id="line2d_76">
    <path d="M 150.858843 439.224281 
L 150.858843 439.224281 
" clip-path="url(#p31446ddd02)" style="fill: none; stroke: #ffffff; stroke-width: 1.5; stroke-linecap: square"/>
   </g>
   <g id="line2d_77">
    <path d="M 151.210579 439.224281 
L 151.210579 439.224281 
" clip-path="url(#p31446ddd02)" style="fill: none; stroke: #ffffff; stroke-width: 1.5; stroke-linecap: square"/>
   </g>
   <g id="line2d_78">
    <path d="M 151.562314 439.224281 
L 151.562314 439.224281 
" clip-path="url(#p31446ddd02)" style="fill: none; stroke: #ffffff; stroke-width: 1.5; stroke-linecap: square"/>
   </g>
   <g id="line2d_79">
    <path d="M 151.91405 439.224281 
L 151.91405 439.224281 
" clip-path="url(#p31446ddd02)" style="fill: none; stroke: #ffffff; stroke-width: 1.5; stroke-linecap: square"/>
   </g>
   <g id="line2d_80">
    <path d="M 152.265785 439.224281 
L 152.265785 439.224281 
" clip-path="url(#p31446ddd02)" style="fill: none; stroke: #ffffff; stroke-width: 1.5; stroke-linecap: square"/>
   </g>
   <g id="line2d_81">
    <path d="M 152.617521 439.224281 
L 152.617521 439.224281 
" clip-path="url(#p31446ddd02)" style="fill: none; stroke: #ffffff; stroke-width: 1.5; stroke-linecap: square"/>
   </g>
   <g id="line2d_82">
    <path d="M 152.969256 439.224281 
L 152.969256 439.224281 
" clip-path="url(#p31446ddd02)" style="fill: none; stroke: #ffffff; stroke-width: 1.5; stroke-linecap: square"/>
   </g>
   <g id="line2d_83">
    <path d="M 153.320992 439.224281 
L 153.320992 439.224281 
" clip-path="url(#p31446ddd02)" style="fill: none; stroke: #ffffff; stroke-width: 1.5; stroke-linecap: square"/>
   </g>
   <g id="line2d_84">
    <path d="M 153.672727 439.224281 
L 153.672727 439.224281 
" clip-path="url(#p31446ddd02)" style="fill: none; stroke: #ffffff; stroke-width: 1.5; stroke-linecap: square"/>
   </g>
   <g id="line2d_85">
    <path d="M 154.024463 439.224281 
L 154.024463 439.224281 
" clip-path="url(#p31446ddd02)" style="fill: none; stroke: #ffffff; stroke-width: 1.5; stroke-linecap: square"/>
   </g>
   <g id="line2d_86">
    <path d="M 154.376198 439.224281 
L 154.376198 439.224281 
" clip-path="url(#p31446ddd02)" style="fill: none; stroke: #ffffff; stroke-width: 1.5; stroke-linecap: square"/>
   </g>
   <g id="line2d_87">
    <path d="M 154.727934 439.224281 
L 154.727934 439.224281 
" clip-path="url(#p31446ddd02)" style="fill: none; stroke: #ffffff; stroke-width: 1.5; stroke-linecap: square"/>
   </g>
   <g id="line2d_88">
    <path d="M 155.079669 439.224281 
L 155.079669 439.224281 
" clip-path="url(#p31446ddd02)" style="fill: none; stroke: #ffffff; stroke-width: 1.5; stroke-linecap: square"/>
   </g>
   <g id="line2d_89">
    <path d="M 155.431405 439.224281 
L 155.431405 439.224281 
" clip-path="url(#p31446ddd02)" style="fill: none; stroke: #ffffff; stroke-width: 1.5; stroke-linecap: square"/>
   </g>
   <g id="line2d_90">
    <path d="M 155.78314 439.224281 
L 155.78314 439.224281 
" clip-path="url(#p31446ddd02)" style="fill: none; stroke: #ffffff; stroke-width: 1.5; stroke-linecap: square"/>
   </g>
   <g id="line2d_91">
    <path d="M 156.134876 439.224281 
L 156.134876 439.224281 
" clip-path="url(#p31446ddd02)" style="fill: none; stroke: #ffffff; stroke-width: 1.5; stroke-linecap: square"/>
   </g>
   <g id="line2d_92">
    <path d="M 156.486612 439.224281 
L 156.486612 439.224281 
" clip-path="url(#p31446ddd02)" style="fill: none; stroke: #ffffff; stroke-width: 1.5; stroke-linecap: square"/>
   </g>
   <g id="line2d_93">
    <path d="M 156.838347 439.224281 
L 156.838347 439.224281 
" clip-path="url(#p31446ddd02)" style="fill: none; stroke: #ffffff; stroke-width: 1.5; stroke-linecap: square"/>
   </g>
   <g id="line2d_94">
    <path d="M 157.190083 439.224281 
L 157.190083 439.224281 
" clip-path="url(#p31446ddd02)" style="fill: none; stroke: #ffffff; stroke-width: 1.5; stroke-linecap: square"/>
   </g>
   <g id="line2d_95">
    <path d="M 157.541818 439.224281 
L 157.541818 439.224281 
" clip-path="url(#p31446ddd02)" style="fill: none; stroke: #ffffff; stroke-width: 1.5; stroke-linecap: square"/>
   </g>
   <g id="line2d_96">
    <path d="M 157.893554 439.224281 
L 157.893554 439.224281 
" clip-path="url(#p31446ddd02)" style="fill: none; stroke: #ffffff; stroke-width: 1.5; stroke-linecap: square"/>
   </g>
   <g id="line2d_97">
    <path d="M 158.245289 439.224281 
L 158.245289 439.224281 
" clip-path="url(#p31446ddd02)" style="fill: none; stroke: #ffffff; stroke-width: 1.5; stroke-linecap: square"/>
   </g>
   <g id="line2d_98">
    <path d="M 158.597025 439.224281 
L 158.597025 439.224281 
" clip-path="url(#p31446ddd02)" style="fill: none; stroke: #ffffff; stroke-width: 1.5; stroke-linecap: square"/>
   </g>
   <g id="line2d_99">
    <path d="M 158.94876 439.224281 
L 158.94876 439.224281 
" clip-path="url(#p31446ddd02)" style="fill: none; stroke: #ffffff; stroke-width: 1.5; stroke-linecap: square"/>
   </g>
   <g id="line2d_100">
    <path d="M 159.300496 439.224281 
L 159.300496 439.224281 
" clip-path="url(#p31446ddd02)" style="fill: none; stroke: #ffffff; stroke-width: 1.5; stroke-linecap: square"/>
   </g>
   <g id="line2d_101">
    <path d="M 159.652231 439.224281 
L 159.652231 439.224281 
" clip-path="url(#p31446ddd02)" style="fill: none; stroke: #ffffff; stroke-width: 1.5; stroke-linecap: square"/>
   </g>
   <g id="line2d_102">
    <path d="M 160.003967 439.224281 
L 160.003967 439.224281 
" clip-path="url(#p31446ddd02)" style="fill: none; stroke: #ffffff; stroke-width: 1.5; stroke-linecap: square"/>
   </g>
   <g id="line2d_103">
    <path d="M 160.355702 439.224281 
L 160.355702 439.224281 
" clip-path="url(#p31446ddd02)" style="fill: none; stroke: #ffffff; stroke-width: 1.5; stroke-linecap: square"/>
   </g>
   <g id="line2d_104">
    <path d="M 160.707438 439.224281 
L 160.707438 439.224281 
" clip-path="url(#p31446ddd02)" style="fill: none; stroke: #ffffff; stroke-width: 1.5; stroke-linecap: square"/>
   </g>
   <g id="line2d_105">
    <path d="M 161.059174 439.224281 
L 161.059174 439.224281 
" clip-path="url(#p31446ddd02)" style="fill: none; stroke: #ffffff; stroke-width: 1.5; stroke-linecap: square"/>
   </g>
   <g id="line2d_106">
    <path d="M 161.410909 439.224281 
L 161.410909 439.224281 
" clip-path="url(#p31446ddd02)" style="fill: none; stroke: #ffffff; stroke-width: 1.5; stroke-linecap: square"/>
   </g>
   <g id="line2d_107">
    <path d="M 144 439.224281 
L 143.924885 437.107127 
L 143.699841 434.998499 
L 143.325776 432.906885 
L 142.804195 430.84071 
L 142.137199 428.808293 
L 141.327473 426.817817 
L 140.378277 424.877297 
L 139.293435 422.994548 
L 138.077314 421.17715 
L 136.73481 419.432422 
L 135.271331 417.767388 
L 133.692768 416.188754 
L 132.005478 414.702875 
L 130.216256 413.315736 
L 128.332305 412.032921 
L 126.361212 410.859597 
L 124.310914 409.800487 
L 122.189666 408.859856 
L 120.00601 408.041492 
L 117.768738 407.34869 
L 115.486861 406.784239 
L 113.169565 406.350414 
L 110.826182 406.048959 
L 108.466147 405.881091 
L 106.098964 405.847483 
L 103.734165 405.948272 
L 101.381272 406.183052 
L 99.049758 406.550877 
L 96.749013 407.050266 
L 94.488301 407.679209 
L 92.276724 408.435173 
L 90.123187 409.315113 
L 88.036364 410.315487 
L 86.024655 411.432267 
L 84.096162 412.660955 
L 82.25865 413.996605 
L 80.519519 415.433837 
L 78.88577 416.966865 
L 77.363983 418.589516 
L 75.960285 420.295256 
L 74.680328 422.077216 
L 73.529267 423.928222 
L 72.511735 425.840819 
L 71.631832 427.807307 
L 70.893099 429.819767 
L 70.29851 431.870095 
L 69.850462 433.950037 
L 69.550757 436.051215 
L 69.400602 438.165171 
L 69.400602 440.283391 
L 69.550757 442.397347 
L 69.850462 444.498526 
L 70.29851 446.578467 
L 70.893099 448.628796 
L 71.631832 450.641256 
L 72.511735 452.607743 
L 73.529267 454.520341 
L 74.680328 456.371346 
L 75.960285 458.153307 
L 77.363983 459.859046 
L 78.88577 461.481697 
L 80.519519 463.014725 
L 82.25865 464.451958 
L 84.096162 465.787607 
L 86.024655 467.016296 
L 88.036364 468.133075 
L 90.123187 469.133449 
L 92.276724 470.01339 
L 94.488301 470.769354 
L 96.749013 471.398296 
L 99.049758 471.897686 
L 101.381272 472.265511 
L 103.734165 472.500291 
L 106.098964 472.60108 
L 108.466147 472.567472 
L 110.826182 472.399603 
L 113.169565 472.098149 
L 115.486861 471.664323 
L 117.768738 471.099873 
L 120.00601 470.407071 
L 122.189666 469.588707 
L 124.310914 468.648076 
L 126.361212 467.588966 
L 128.332305 466.415641 
L 130.216256 465.132826 
L 132.005478 463.745687 
L 133.692768 462.259809 
L 135.271331 460.681174 
L 136.73481 459.016141 
L 138.077314 457.271412 
L 139.293435 455.454014 
L 140.378277 453.571265 
L 141.327473 451.630746 
L 142.137199 449.64027 
L 142.804195 447.607852 
L 143.325776 445.541677 
L 143.699841 443.450064 
L 143.924885 441.341435 
L 144 439.224281 
" clip-path="url(#p31446ddd02)" style="fill: none; stroke: #000000; stroke-width: 2; stroke-linecap: square"/>
   </g>
   <g id="line2d_108">
    <path d="M 218.618182 439.224281 
L 218.543067 437.107127 
L 218.318023 434.998499 
L 217.943958 432.906885 
L 217.422377 430.84071 
L 216.755381 428.808293 
L 215.945655 426.817817 
L 214.996459 424.877297 
L 213.911617 422.994548 
L 212.695495 421.17715 
L 211.352992 419.432422 
L 209.889513 417.767388 
L 208.31095 416.188754 
L 206.62366 414.702875 
L 204.834438 413.315736 
L 202.950487 412.032921 
L 200.979394 410.859597 
L 198.929095 409.800487 
L 196.807847 408.859856 
L 194.624191 408.041492 
L 192.38692 407.34869 
L 190.105042 406.784239 
L 187.787747 406.350414 
L 185.444363 406.048959 
L 183.084329 405.881091 
L 180.717146 405.847483 
L 178.352347 405.948272 
L 175.999454 406.183052 
L 173.66794 406.550877 
L 171.367195 407.050266 
L 169.106483 407.679209 
L 166.894905 408.435173 
L 164.741369 409.315113 
L 162.654545 410.315487 
L 160.642837 411.432267 
L 158.714344 412.660955 
L 156.876832 413.996605 
L 155.137701 415.433837 
L 153.503952 416.966865 
L 151.982165 418.589516 
L 150.578466 420.295256 
L 149.29851 422.077216 
L 148.147448 423.928222 
L 147.129917 425.840819 
L 146.250013 427.807307 
L 145.51128 429.819767 
L 144.916692 431.870095 
L 144.468644 433.950037 
L 144.168938 436.051215 
L 144.018784 438.165171 
L 144.018784 440.283391 
L 144.168938 442.397347 
L 144.468644 444.498526 
L 144.916692 446.578467 
L 145.51128 448.628796 
L 146.250013 450.641256 
L 147.129917 452.607743 
L 148.147448 454.520341 
L 149.29851 456.371346 
L 150.578466 458.153307 
L 151.982165 459.859046 
L 153.503952 461.481697 
L 155.137701 463.014725 
L 156.876832 464.451958 
L 158.714344 465.787607 
L 160.642837 467.016296 
L 162.654545 468.133075 
L 164.741369 469.133449 
L 166.894905 470.01339 
L 169.106483 470.769354 
L 171.367195 471.398296 
L 173.66794 471.897686 
L 175.999454 472.265511 
L 178.352347 472.500291 
L 180.717146 472.60108 
L 183.084329 472.567472 
L 185.444363 472.399603 
L 187.787747 472.098149 
L 190.105042 471.664323 
L 192.38692 471.099873 
L 194.624191 470.407071 
L 196.807847 469.588707 
L 198.929095 468.648076 
L 200.979394 467.588966 
L 202.950487 466.415641 
L 204.834438 465.132826 
L 206.62366 463.745687 
L 208.31095 462.259809 
L 209.889513 460.681174 
L 211.352992 459.016141 
L 212.695495 457.271412 
L 213.911617 455.454014 
L 214.996459 453.571265 
L 215.945655 451.630746 
L 216.755381 449.64027 
L 217.422377 447.607852 
L 217.943958 445.541677 
L 218.318023 443.450064 
L 218.543067 441.341435 
L 218.618182 439.224281 
" clip-path="url(#p31446ddd02)" style="fill: none; stroke: #000000; stroke-width: 2; stroke-linecap: square"/>
   </g>
   <g id="text_13">
    <!-- A -->
    <g transform="translate(89.28 439.224281) scale(0.14 -0.14)">
     <use xlink:href="#DejaVuSans-Bold-41"/>
    </g>
   </g>
   <g id="text_14">
    <!-- B -->
    <g transform="translate(198.72 439.224281) scale(0.14 -0.14)">
     <use xlink:href="#DejaVuSans-Bold-42"/>
    </g>
   </g>
   <g id="text_15">
    <!-- Ω -->
    <g transform="translate(32.072727 343.532081) scale(0.12 -0.12)">
     <use xlink:href="#DejaVuSans-3a9"/>
    </g>
   </g>
   <g id="text_16">
    <!-- A − B (DIFERENCIA) -->
    <g transform="translate(83.110703 298.509687) scale(0.11 -0.11)">
     <defs>
      <path id="DejaVuSans-Bold-2212" d="M 678 2375 
L 4684 2375 
L 4684 1638 
L 678 1638 
L 678 2375 
z
" transform="scale(0.015625)"/>
      <path id="DejaVuSans-Bold-44" d="M 1791 3756 
L 1791 909 
L 2222 909 
Q 2959 909 3348 1275 
Q 3738 1641 3738 2338 
Q 3738 3031 3350 3393 
Q 2963 3756 2222 3756 
L 1791 3756 
z
M 588 4666 
L 1856 4666 
Q 2919 4666 3439 4514 
Q 3959 4363 4331 4000 
Q 4659 3684 4818 3271 
Q 4978 2859 4978 2338 
Q 4978 1809 4818 1395 
Q 4659 981 4331 666 
Q 3956 303 3431 151 
Q 2906 0 1856 0 
L 588 0 
L 588 4666 
z
" transform="scale(0.015625)"/>
      <path id="DejaVuSans-Bold-46" d="M 588 4666 
L 3834 4666 
L 3834 3756 
L 1791 3756 
L 1791 2888 
L 3713 2888 
L 3713 1978 
L 1791 1978 
L 1791 0 
L 588 0 
L 588 4666 
z
" transform="scale(0.015625)"/>
     </defs>
     <use xlink:href="#DejaVuSans-Bold-41"/>
     <use xlink:href="#DejaVuSans-Bold-20" x="77.392578"/>
     <use xlink:href="#DejaVuSans-Bold-2212" x="112.207031"/>
     <use xlink:href="#DejaVuSans-Bold-20" x="195.996094"/>
     <use xlink:href="#DejaVuSans-Bold-42" x="230.810547"/>
     <use xlink:href="#DejaVuSans-Bold-20" x="307.03125"/>
     <use xlink:href="#DejaVuSans-Bold-28" x="341.845703"/>
     <use xlink:href="#DejaVuSans-Bold-44" x="387.548828"/>
     <use xlink:href="#DejaVuSans-Bold-49" x="470.556641"/>
     <use xlink:href="#DejaVuSans-Bold-46" x="507.763672"/>
     <use xlink:href="#DejaVuSans-Bold-45" x="576.074219"/>
     <use xlink:href="#DejaVuSans-Bold-52" x="644.384766"/>
     <use xlink:href="#DejaVuSans-Bold-45" x="721.386719"/>
     <use xlink:href="#DejaVuSans-Bold-4e" x="789.697266"/>
     <use xlink:href="#DejaVuSans-Bold-43" x="873.388672"/>
     <use xlink:href="#DejaVuSans-Bold-49" x="946.777344"/>
     <use xlink:href="#DejaVuSans-Bold-41" x="983.984375"/>
     <use xlink:href="#DejaVuSans-Bold-29" x="1061.376953"/>
    </g>
    <!-- "A pero no B" -->
    <g transform="translate(102.224922 310.827281) scale(0.11 -0.11)">
     <defs>
      <path id="DejaVuSans-Bold-70" d="M 1656 506 
L 1656 -1331 
L 538 -1331 
L 538 3500 
L 1656 3500 
L 1656 2988 
Q 1888 3294 2169 3439 
Q 2450 3584 2816 3584 
Q 3463 3584 3878 3070 
Q 4294 2556 4294 1747 
Q 4294 938 3878 423 
Q 3463 -91 2816 -91 
Q 2450 -91 2169 54 
Q 1888 200 1656 506 
z
M 2400 2772 
Q 2041 2772 1848 2508 
Q 1656 2244 1656 1747 
Q 1656 1250 1848 986 
Q 2041 722 2400 722 
Q 2759 722 2948 984 
Q 3138 1247 3138 1747 
Q 3138 2247 2948 2509 
Q 2759 2772 2400 2772 
z
" transform="scale(0.015625)"/>
      <path id="DejaVuSans-Bold-65" d="M 4031 1759 
L 4031 1441 
L 1416 1441 
Q 1456 1047 1700 850 
Q 1944 653 2381 653 
Q 2734 653 3104 758 
Q 3475 863 3866 1075 
L 3866 213 
Q 3469 63 3072 -14 
Q 2675 -91 2278 -91 
Q 1328 -91 801 392 
Q 275 875 275 1747 
Q 275 2603 792 3093 
Q 1309 3584 2216 3584 
Q 3041 3584 3536 3087 
Q 4031 2591 4031 1759 
z
M 2881 2131 
Q 2881 2450 2695 2645 
Q 2509 2841 2209 2841 
Q 1884 2841 1681 2658 
Q 1478 2475 1428 2131 
L 2881 2131 
z
" transform="scale(0.015625)"/>
      <path id="DejaVuSans-Bold-72" d="M 3138 2547 
Q 2991 2616 2845 2648 
Q 2700 2681 2553 2681 
Q 2122 2681 1889 2404 
Q 1656 2128 1656 1613 
L 1656 0 
L 538 0 
L 538 3500 
L 1656 3500 
L 1656 2925 
Q 1872 3269 2151 3426 
Q 2431 3584 2822 3584 
Q 2878 3584 2943 3579 
Q 3009 3575 3134 3559 
L 3138 2547 
z
" transform="scale(0.015625)"/>
      <path id="DejaVuSans-Bold-6e" d="M 4056 2131 
L 4056 0 
L 2931 0 
L 2931 347 
L 2931 1631 
Q 2931 2084 2911 2256 
Q 2891 2428 2841 2509 
Q 2775 2619 2662 2680 
Q 2550 2741 2406 2741 
Q 2056 2741 1856 2470 
Q 1656 2200 1656 1722 
L 1656 0 
L 538 0 
L 538 3500 
L 1656 3500 
L 1656 2988 
Q 1909 3294 2193 3439 
Q 2478 3584 2822 3584 
Q 3428 3584 3742 3212 
Q 4056 2841 4056 2131 
z
" transform="scale(0.015625)"/>
     </defs>
     <use xlink:href="#DejaVuSans-Bold-22"/>
     <use xlink:href="#DejaVuSans-Bold-41" x="52.099609"/>
     <use xlink:href="#DejaVuSans-Bold-20" x="129.492188"/>
     <use xlink:href="#DejaVuSans-Bold-70" x="164.306641"/>
     <use xlink:href="#DejaVuSans-Bold-65" x="235.888672"/>
     <use xlink:href="#DejaVuSans-Bold-72" x="303.710938"/>
     <use xlink:href="#DejaVuSans-Bold-6f" x="353.027344"/>
     <use xlink:href="#DejaVuSans-Bold-20" x="421.728516"/>
     <use xlink:href="#DejaVuSans-Bold-6e" x="456.542969"/>
     <use xlink:href="#DejaVuSans-Bold-6f" x="527.734375"/>
     <use xlink:href="#DejaVuSans-Bold-20" x="596.435547"/>
     <use xlink:href="#DejaVuSans-Bold-42" x="631.25"/>
     <use xlink:href="#DejaVuSans-Bold-22" x="707.470703"/>
    </g>
   </g>
  </g>
  <g id="axes_5">
   <g id="patch_11">
    <path d="M 304.036364 550.494281 
L 552.763636 550.494281 
L 552.763636 327.954281 
L 304.036364 327.954281 
z
" clip-path="url(#p7b62467013)" style="fill: #ffffff; stroke: #000000; stroke-width: 2; stroke-linejoin: miter"/>
   </g>
   <g id="patch_12">
    <path d="M 378.654545 465.929081 
C 386.570135 465.929081 394.162588 463.115295 399.759754 458.107426 
C 405.356921 453.099558 408.501818 446.306477 408.501818 439.224281 
C 408.501818 432.142086 405.356921 425.349005 399.759754 420.341136 
C 394.162588 415.333267 386.570135 412.519481 378.654545 412.519481 
C 370.738956 412.519481 363.146503 415.333267 357.549337 420.341136 
C 351.95217 425.349005 348.807273 432.142086 348.807273 439.224281 
C 348.807273 446.306477 351.95217 453.099558 357.549337 458.107426 
C 363.146503 463.115295 370.738956 465.929081 378.654545 465.929081 
z
" clip-path="url(#p7b62467013)" style="fill: #ff9999; stroke: #ff9999; stroke-width: 2; stroke-linejoin: miter"/>
   </g>
   <g id="patch_13">
    <path d="M 478.145455 465.929081 
C 486.061044 465.929081 493.653497 463.115295 499.250663 458.107426 
C 504.84783 453.099558 507.992727 446.306477 507.992727 439.224281 
C 507.992727 432.142086 504.84783 425.349005 499.250663 420.341136 
C 493.653497 415.333267 486.061044 412.519481 478.145455 412.519481 
C 470.229865 412.519481 462.637412 415.333267 457.040246 420.341136 
C 451.443079 425.349005 448.298182 432.142086 448.298182 439.224281 
C 448.298182 446.306477 451.443079 453.099558 457.040246 458.107426 
C 462.637412 463.115295 470.229865 465.929081 478.145455 465.929081 
z
" clip-path="url(#p7b62467013)" style="fill: #9999ff; stroke: #9999ff; stroke-width: 2; stroke-linejoin: miter"/>
   </g>
   <g id="text_17">
    <!-- A -->
    <g transform="translate(373.237202 443.087406) scale(0.14 -0.14)">
     <use xlink:href="#DejaVuSans-Bold-41"/>
    </g>
   </g>
   <g id="text_18">
    <!-- B -->
    <g transform="translate(472.810142 443.087406) scale(0.14 -0.14)">
     <use xlink:href="#DejaVuSans-Bold-42"/>
    </g>
   </g>
   <g id="text_19">
    <!-- A ∩ B = ∅ -->
    <g transform="translate(397.905937 505.986281) scale(0.12 -0.12)">
     <defs>
      <path id="DejaVuSans-Oblique-41" d="M 2356 4666 
L 3072 4666 
L 3938 0 
L 3278 0 
L 3084 1197 
L 984 1197 
L 325 0 
L -341 0 
L 2356 4666 
z
M 2584 4044 
L 1275 1722 
L 2988 1722 
L 2584 4044 
z
" transform="scale(0.015625)"/>
      <path id="DejaVuSans-Oblique-20" transform="scale(0.015625)"/>
      <path id="DejaVuSans-Oblique-2229" d="M 825 1850 
Q 825 2775 1208 3240 
Q 1591 3706 2344 3706 
Q 3094 3706 3476 3240 
Q 3859 2775 3859 1850 
L 3859 0 
L 3322 0 
L 3322 1772 
Q 3322 2534 3090 2864 
Q 2859 3194 2344 3194 
Q 1825 3194 1594 2864 
Q 1363 2534 1363 1772 
L 1363 0 
L 825 0 
L 825 1850 
z
" transform="scale(0.015625)"/>
      <path id="DejaVuSans-Oblique-42" d="M 1081 4666 
L 2694 4666 
Q 3350 4666 3675 4422 
Q 4000 4178 4000 3688 
Q 4000 3238 3720 2911 
Q 3441 2584 2988 2516 
Q 3375 2428 3569 2181 
Q 3763 1934 3763 1522 
Q 3763 819 3242 409 
Q 2722 0 1819 0 
L 172 0 
L 1081 4666 
z
M 1234 2228 
L 903 519 
L 1919 519 
Q 2491 519 2800 781 
Q 3109 1044 3109 1522 
Q 3109 1891 2904 2059 
Q 2700 2228 2247 2228 
L 1234 2228 
z
M 1606 4147 
L 1331 2741 
L 2272 2741 
Q 2775 2741 3058 2959 
Q 3341 3178 3341 3566 
Q 3341 3869 3150 4008 
Q 2959 4147 2541 4147 
L 1606 4147 
z
" transform="scale(0.015625)"/>
      <path id="DejaVuSans-Oblique-3d" d="M 678 2906 
L 4684 2906 
L 4684 2381 
L 678 2381 
L 678 2906 
z
M 678 1631 
L 4684 1631 
L 4684 1100 
L 678 1100 
L 678 1631 
z
" transform="scale(0.015625)"/>
      <path id="DejaVuSans-Oblique-2205" d="M 4025 4184 
L 4303 4528 
L 4634 4528 
L 4234 4038 
Q 4563 3778 4778 3397 
Q 5091 2841 5091 2241 
Q 5091 1641 4778 1086 
Q 4466 531 3916 234 
Q 3366 -63 2788 -63 
Q 2203 -63 1653 234 
Q 1478 328 1328 450 
L 934 -38 
L 606 -38 
L 1138 619 
Q 941 825 794 1088 
Q 484 1641 484 2241 
Q 484 2841 793 3395 
Q 1103 3950 1653 4247 
Q 2203 4544 2788 4544 
Q 3366 4544 3916 4247 
Q 3972 4216 4025 4184 
z
M 1400 944 
L 3763 3859 
L 3719 3884 
Q 3266 4128 2788 4128 
Q 2306 4128 1851 3883 
Q 1397 3638 1141 3178 
Q 888 2725 884 2241 
Q 888 1756 1141 1303 
Q 1253 1103 1400 944 
z
M 3975 3716 
L 1591 772 
Q 1713 675 1853 600 
Q 2306 353 2788 353 
Q 3266 353 3719 598 
Q 4172 844 4431 1303 
Q 4688 1756 4691 2241 
Q 4688 2725 4431 3178 
Q 4250 3500 3975 3716 
z
" transform="scale(0.015625)"/>
     </defs>
     <use xlink:href="#DejaVuSans-Oblique-41"/>
     <use xlink:href="#DejaVuSans-Oblique-20" x="68.408203"/>
     <use xlink:href="#DejaVuSans-Oblique-2229" x="100.195312"/>
     <use xlink:href="#DejaVuSans-Oblique-20" x="173.388672"/>
     <use xlink:href="#DejaVuSans-Oblique-42" x="205.175781"/>
     <use xlink:href="#DejaVuSans-Oblique-20" x="273.779297"/>
     <use xlink:href="#DejaVuSans-Oblique-3d" x="305.566406"/>
     <use xlink:href="#DejaVuSans-Oblique-20" x="389.355469"/>
     <use xlink:href="#DejaVuSans-Oblique-2205" x="421.142578"/>
    </g>
   </g>
   <g id="text_20">
    <!-- INCOMPATIBLES -->
    <g transform="translate(378.992812 310.827281) scale(0.11 -0.11)">
     <use xlink:href="#DejaVuSans-Bold-49"/>
     <use xlink:href="#DejaVuSans-Bold-4e" x="37.207031"/>
     <use xlink:href="#DejaVuSans-Bold-43" x="120.898438"/>
     <use xlink:href="#DejaVuSans-Bold-4f" x="194.287109"/>
     <use xlink:href="#DejaVuSans-Bold-4d" x="279.296875"/>
     <use xlink:href="#DejaVuSans-Bold-50" x="378.808594"/>
     <use xlink:href="#DejaVuSans-Bold-41" x="442.974609"/>
     <use xlink:href="#DejaVuSans-Bold-54" x="512.617188"/>
     <use xlink:href="#DejaVuSans-Bold-49" x="580.830078"/>
     <use xlink:href="#DejaVuSans-Bold-42" x="618.037109"/>
     <use xlink:href="#DejaVuSans-Bold-4c" x="694.257812"/>
     <use xlink:href="#DejaVuSans-Bold-45" x="757.978516"/>
     <use xlink:href="#DejaVuSans-Bold-53" x="826.289062"/>
    </g>
   </g>
  </g>
  <g id="axes_6">
   <g id="text_21">
    <!-- Leyes de De Morgan: -->
    <g transform="translate(641.608125 390.265481) scale(0.12 -0.12)">
     <defs>
      <path id="DejaVuSans-Bold-73" d="M 3272 3391 
L 3272 2541 
Q 2913 2691 2578 2766 
Q 2244 2841 1947 2841 
Q 1628 2841 1473 2761 
Q 1319 2681 1319 2516 
Q 1319 2381 1436 2309 
Q 1553 2238 1856 2203 
L 2053 2175 
Q 2913 2066 3209 1816 
Q 3506 1566 3506 1031 
Q 3506 472 3093 190 
Q 2681 -91 1863 -91 
Q 1516 -91 1145 -36 
Q 775 19 384 128 
L 384 978 
Q 719 816 1070 734 
Q 1422 653 1784 653 
Q 2113 653 2278 743 
Q 2444 834 2444 1013 
Q 2444 1163 2330 1236 
Q 2216 1309 1875 1350 
L 1678 1375 
Q 931 1469 631 1722 
Q 331 1975 331 2491 
Q 331 3047 712 3315 
Q 1094 3584 1881 3584 
Q 2191 3584 2531 3537 
Q 2872 3491 3272 3391 
z
" transform="scale(0.015625)"/>
      <path id="DejaVuSans-Bold-64" d="M 2919 2988 
L 2919 4863 
L 4044 4863 
L 4044 0 
L 2919 0 
L 2919 506 
Q 2688 197 2409 53 
Q 2131 -91 1766 -91 
Q 1119 -91 703 423 
Q 288 938 288 1747 
Q 288 2556 703 3070 
Q 1119 3584 1766 3584 
Q 2128 3584 2408 3439 
Q 2688 3294 2919 2988 
z
M 2181 722 
Q 2541 722 2730 984 
Q 2919 1247 2919 1747 
Q 2919 2247 2730 2509 
Q 2541 2772 2181 2772 
Q 1825 2772 1636 2509 
Q 1447 2247 1447 1747 
Q 1447 1247 1636 984 
Q 1825 722 2181 722 
z
" transform="scale(0.015625)"/>
      <path id="DejaVuSans-Bold-67" d="M 2919 594 
Q 2688 288 2409 144 
Q 2131 0 1766 0 
Q 1125 0 706 504 
Q 288 1009 288 1791 
Q 288 2575 706 3076 
Q 1125 3578 1766 3578 
Q 2131 3578 2409 3434 
Q 2688 3291 2919 2981 
L 2919 3500 
L 4044 3500 
L 4044 353 
Q 4044 -491 3511 -936 
Q 2978 -1381 1966 -1381 
Q 1638 -1381 1331 -1331 
Q 1025 -1281 716 -1178 
L 716 -306 
Q 1009 -475 1290 -558 
Q 1572 -641 1856 -641 
Q 2406 -641 2662 -400 
Q 2919 -159 2919 353 
L 2919 594 
z
M 2181 2772 
Q 1834 2772 1640 2515 
Q 1447 2259 1447 1791 
Q 1447 1309 1634 1061 
Q 1822 813 2181 813 
Q 2531 813 2725 1069 
Q 2919 1325 2919 1791 
Q 2919 2259 2725 2515 
Q 2531 2772 2181 2772 
z
" transform="scale(0.015625)"/>
      <path id="DejaVuSans-Bold-61" d="M 2106 1575 
Q 1756 1575 1579 1456 
Q 1403 1338 1403 1106 
Q 1403 894 1545 773 
Q 1688 653 1941 653 
Q 2256 653 2472 879 
Q 2688 1106 2688 1447 
L 2688 1575 
L 2106 1575 
z
M 3816 1997 
L 3816 0 
L 2688 0 
L 2688 519 
Q 2463 200 2181 54 
Q 1900 -91 1497 -91 
Q 953 -91 614 226 
Q 275 544 275 1050 
Q 275 1666 698 1953 
Q 1122 2241 2028 2241 
L 2688 2241 
L 2688 2328 
Q 2688 2594 2478 2717 
Q 2269 2841 1825 2841 
Q 1466 2841 1156 2769 
Q 847 2697 581 2553 
L 581 3406 
Q 941 3494 1303 3539 
Q 1666 3584 2028 3584 
Q 2975 3584 3395 3211 
Q 3816 2838 3816 1997 
z
" transform="scale(0.015625)"/>
      <path id="DejaVuSans-Bold-3a" d="M 716 3500 
L 1844 3500 
L 1844 2291 
L 716 2291 
L 716 3500 
z
M 716 1209 
L 1844 1209 
L 1844 0 
L 716 0 
L 716 1209 
z
" transform="scale(0.015625)"/>
     </defs>
     <use xlink:href="#DejaVuSans-Bold-4c"/>
     <use xlink:href="#DejaVuSans-Bold-65" x="63.720703"/>
     <use xlink:href="#DejaVuSans-Bold-79" x="131.542969"/>
     <use xlink:href="#DejaVuSans-Bold-65" x="196.728516"/>
     <use xlink:href="#DejaVuSans-Bold-73" x="264.550781"/>
     <use xlink:href="#DejaVuSans-Bold-20" x="324.072266"/>
     <use xlink:href="#DejaVuSans-Bold-64" x="358.886719"/>
     <use xlink:href="#DejaVuSans-Bold-65" x="430.46875"/>
     <use xlink:href="#DejaVuSans-Bold-20" x="498.291016"/>
     <use xlink:href="#DejaVuSans-Bold-44" x="533.105469"/>
     <use xlink:href="#DejaVuSans-Bold-65" x="616.113281"/>
     <use xlink:href="#DejaVuSans-Bold-20" x="683.935547"/>
     <use xlink:href="#DejaVuSans-Bold-4d" x="718.75"/>
     <use xlink:href="#DejaVuSans-Bold-6f" x="818.261719"/>
     <use xlink:href="#DejaVuSans-Bold-72" x="886.962891"/>
     <use xlink:href="#DejaVuSans-Bold-67" x="936.279297"/>
     <use xlink:href="#DejaVuSans-Bold-61" x="1007.861328"/>
     <use xlink:href="#DejaVuSans-Bold-6e" x="1075.341797"/>
     <use xlink:href="#DejaVuSans-Bold-3a" x="1146.533203"/>
    </g>
   </g>
   <g id="text_22">
    <g id="patch_14">
     <path d="M 669.26 446.335844 
L 756.34 446.335844 
Q 760.54 446.335844 760.54 442.135844 
L 760.54 428.415844 
Q 760.54 424.215844 756.34 424.215844 
L 669.26 424.215844 
Q 665.06 424.215844 665.06 428.415844 
L 665.06 442.135844 
Q 665.06 446.335844 669.26 446.335844 
z
" style="fill: #ffffcc; stroke: #000000; stroke-linejoin: miter"/>
    </g>
    <!-- $\overline{A \cup B} = \bar{A} \cap \bar{B}$ -->
    <g transform="translate(669.26 439.224281) scale(0.14 -0.14)">
     <defs>
      <path id="DejaVuSans-222a" d="M 825 1856 
L 825 3706 
L 1363 3706 
L 1363 1934 
Q 1363 1172 1594 842 
Q 1825 513 2344 513 
Q 2859 513 3090 842 
Q 3322 1172 3322 1934 
L 3322 3706 
L 3859 3706 
L 3859 1856 
Q 3859 931 3476 465 
Q 3094 0 2344 0 
Q 1591 0 1208 465 
Q 825 931 825 1856 
z
" transform="scale(0.015625)"/>
      <path id="DejaVuSans-3d" d="M 678 2906 
L 4684 2906 
L 4684 2381 
L 678 2381 
L 678 2906 
z
M 678 1631 
L 4684 1631 
L 4684 1100 
L 678 1100 
L 678 1631 
z
" transform="scale(0.015625)"/>
      <path id="DejaVuSans-304" d="M -2518 4769 
L -650 4769 
L -650 4306 
L -2518 4306 
L -2518 4769 
z
" transform="scale(0.015625)"/>
      <path id="DejaVuSans-2229" d="M 825 1850 
Q 825 2775 1208 3240 
Q 1591 3706 2344 3706 
Q 3094 3706 3476 3240 
Q 3859 2775 3859 1850 
L 3859 0 
L 3322 0 
L 3322 1772 
Q 3322 2534 3090 2864 
Q 2859 3194 2344 3194 
Q 1825 3194 1594 2864 
Q 1363 2534 1363 1772 
L 1363 0 
L 825 0 
L 825 1850 
z
" transform="scale(0.015625)"/>
     </defs>
     <use xlink:href="#DejaVuSans-Oblique-41" transform="translate(0 0.84375)"/>
     <use xlink:href="#DejaVuSans-222a" transform="translate(87.890625 0.84375)"/>
     <use xlink:href="#DejaVuSans-Oblique-42" transform="translate(180.566406 0.84375)"/>
     <use xlink:href="#DejaVuSans-3d" transform="translate(268.652344 0.34375)"/>
     <use xlink:href="#DejaVuSans-304" transform="translate(439.369629 18.46875)"/>
     <use xlink:href="#DejaVuSans-Oblique-41" transform="translate(371.923828 0.34375)"/>
     <use xlink:href="#DejaVuSans-2229" transform="translate(459.814453 0.34375)"/>
     <use xlink:href="#DejaVuSans-304" transform="translate(619.984863 18.46875)"/>
     <use xlink:href="#DejaVuSans-Oblique-42" transform="translate(552.490234 0.34375)"/>
     <path d="M 0 85.5 
L 0 91.75 
L 249.169922 91.75 
L 249.169922 85.5 
L 0 85.5 
z
"/>
    </g>
   </g>
   <g id="text_23">
    <g id="patch_15">
     <path d="M 669.26 507.534344 
L 756.34 507.534344 
Q 760.54 507.534344 760.54 503.334344 
L 760.54 489.614344 
Q 760.54 485.414344 756.34 485.414344 
L 669.26 485.414344 
Q 665.06 485.414344 665.06 489.614344 
L 665.06 503.334344 
Q 665.06 507.534344 669.26 507.534344 
z
" style="fill: #ffffcc; stroke: #000000; stroke-linejoin: miter"/>
    </g>
    <!-- $\overline{A \cap B} = \bar{A} \cup \bar{B}$ -->
    <g transform="translate(669.26 500.422781) scale(0.14 -0.14)">
     <use xlink:href="#DejaVuSans-Oblique-41" transform="translate(0 0.84375)"/>
     <use xlink:href="#DejaVuSans-2229" transform="translate(87.890625 0.84375)"/>
     <use xlink:href="#DejaVuSans-Oblique-42" transform="translate(180.566406 0.84375)"/>
     <use xlink:href="#DejaVuSans-3d" transform="translate(268.652344 0.34375)"/>
     <use xlink:href="#DejaVuSans-304" transform="translate(439.369629 18.46875)"/>
     <use xlink:href="#DejaVuSans-Oblique-41" transform="translate(371.923828 0.34375)"/>
     <use xlink:href="#DejaVuSans-222a" transform="translate(459.814453 0.34375)"/>
     <use xlink:href="#DejaVuSans-304" transform="translate(619.984863 18.46875)"/>
     <use xlink:href="#DejaVuSans-Oblique-42" transform="translate(552.490234 0.34375)"/>
     <path d="M 0 85.5 
L 0 91.75 
L 249.169922 91.75 
L 249.169922 85.5 
L 0 85.5 
z
"/>
    </g>
   </g>
   <g id="text_24">
    <!-- PROPIEDADES -->
    <g transform="translate(668.916875 310.827281) scale(0.11 -0.11)">
     <use xlink:href="#DejaVuSans-Bold-50"/>
     <use xlink:href="#DejaVuSans-Bold-52" x="73.291016"/>
     <use xlink:href="#DejaVuSans-Bold-4f" x="150.292969"/>
     <use xlink:href="#DejaVuSans-Bold-50" x="235.302734"/>
     <use xlink:href="#DejaVuSans-Bold-49" x="308.59375"/>
     <use xlink:href="#DejaVuSans-Bold-45" x="345.800781"/>
     <use xlink:href="#DejaVuSans-Bold-44" x="414.111328"/>
     <use xlink:href="#DejaVuSans-Bold-41" x="497.119141"/>
     <use xlink:href="#DejaVuSans-Bold-44" x="574.511719"/>
     <use xlink:href="#DejaVuSans-Bold-45" x="657.519531"/>
     <use xlink:href="#DejaVuSans-Bold-53" x="725.830078"/>
    </g>
   </g>
  </g>
 </g>
 <defs>
  <clipPath id="p39f39d8b44">
   <rect x="7.2" y="34.857281" width="273.6" height="244.794"/>
  </clipPath>
  <clipPath id="pf62ed8a626">
   <rect x="291.6" y="34.857281" width="273.6" height="244.794"/>
  </clipPath>
  <clipPath id="pc098f2b3c1">
   <rect x="576" y="34.857281" width="273.6" height="244.794"/>
  </clipPath>
  <clipPath id="p31446ddd02">
   <rect x="7.2" y="316.827281" width="273.6" height="244.794"/>
  </clipPath>
  <clipPath id="p7b62467013">
   <rect x="291.6" y="316.827281" width="273.6" height="244.794"/>
  </clipPath>
 </defs>
</svg>
