<?xml version="1.0" encoding="utf-8" standalone="no"?>
<!DOCTYPE svg PUBLIC "-//W3C//DTD SVG 1.1//EN"
  "http://www.w3.org/Graphics/SVG/1.1/DTD/svg11.dtd">
<svg xmlns:xlink="http://www.w3.org/1999/xlink" width="712.8pt" height="496.8pt" viewBox="0 0 712.8 496.8" xmlns="http://www.w3.org/2000/svg" version="1.1">
 <metadata>
  <rdf:RDF xmlns:dc="http://purl.org/dc/elements/1.1/" xmlns:cc="http://creativecommons.org/ns#" xmlns:rdf="http://www.w3.org/1999/02/22-rdf-syntax-ns#">
   <cc:Work>
    <dc:type rdf:resource="http://purl.org/dc/dcmitype/StillImage"/>
    <dc:date>2026-04-19T20:13:42.278831</dc:date>
    <dc:format>image/svg+xml</dc:format>
    <dc:creator>
     <cc:Agent>
      <dc:title>Matplotlib v3.9.4, https://matplotlib.org/</dc:title>
     </cc:Agent>
    </dc:creator>
   </cc:Work>
  </rdf:RDF>
 </metadata>
 <defs>
  <style type="text/css">*{stroke-linejoin: round; stroke-linecap: butt}</style>
 </defs>
 <g id="figure_1">
  <g id="patch_1">
   <path d="M 0 496.8 
L 712.8 496.8 
L 712.8 0 
L 0 0 
z
" style="fill: #ffffff"/>
  </g>
  <g id="axes_1">
   <g id="patch_2">
    <path d="M 42.12 171.216 
L 216.72 171.216 
Q 223.704 171.216 223.704 166.392 
L 223.704 108.504 
Q 223.704 103.68 216.72 103.68 
L 42.12 103.68 
Q 35.136 103.68 35.136 108.504 
L 35.136 166.392 
Q 35.136 171.216 42.12 171.216 
z
" clip-path="url(#p8ded4cc3b4)" style="fill: #e3f2fd; stroke: #2196f3; stroke-width: 2; stroke-linejoin: miter"/>
   </g>
   <g id="patch_3">
    <path d="M 269.1 171.216 
L 443.7 171.216 
Q 450.684 171.216 450.684 166.392 
L 450.684 108.504 
Q 450.684 103.68 443.7 103.68 
L 269.1 103.68 
Q 262.116 103.68 262.116 108.504 
L 262.116 166.392 
Q 262.116 171.216 269.1 171.216 
z
" clip-path="url(#p8ded4cc3b4)" style="fill: #e8f5e9; stroke: #4caf50; stroke-width: 2; stroke-linejoin: miter"/>
   </g>
   <g id="patch_4">
    <path d="M 496.08 171.216 
L 670.68 171.216 
Q 677.664 171.216 677.664 166.392 
L 677.664 108.504 
Q 677.664 103.68 670.68 103.68 
L 496.08 103.68 
Q 489.096 103.68 489.096 108.504 
L 489.096 166.392 
Q 489.096 171.216 496.08 171.216 
z
" clip-path="url(#p8ded4cc3b4)" style="fill: #fff3e0; stroke: #ff9800; stroke-width: 2; stroke-linejoin: miter"/>
   </g>
   <g id="text_1">
    <!-- TÉCNICAS DE RECUENTO -->
    <g transform="translate(259.820781 31.32) scale(0.14 -0.14)">
     <defs>
      <path id="DejaVuSans-Bold-54" d="M 31 4666 
L 4331 4666 
L 4331 3756 
L 2784 3756 
L 2784 0 
L 1581 0 
L 1581 3756 
L 31 3756 
L 31 4666 
z
" transform="scale(0.015625)"/>
      <path id="DejaVuSans-Bold-c9" d="M 588 4666 
L 3834 4666 
L 3834 3756 
L 1791 3756 
L 1791 2888 
L 3713 2888 
L 3713 1978 
L 1791 1978 
L 1791 909 
L 3903 909 
L 3903 0 
L 588 0 
L 588 4666 
z
M 2319 5921 
L 3204 5921 
L 2313 5096 
L 1701 5096 
L 2319 5921 
z
" transform="scale(0.015625)"/>
      <path id="DejaVuSans-Bold-43" d="M 4288 256 
Q 3956 84 3597 -3 
Q 3238 -91 2847 -91 
Q 1681 -91 1000 561 
Q 319 1213 319 2328 
Q 319 3447 1000 4098 
Q 1681 4750 2847 4750 
Q 3238 4750 3597 4662 
Q 3956 4575 4288 4403 
L 4288 3438 
Q 3953 3666 3628 3772 
Q 3303 3878 2944 3878 
Q 2300 3878 1931 3465 
Q 1563 3053 1563 2328 
Q 1563 1606 1931 1193 
Q 2300 781 2944 781 
Q 3303 781 3628 887 
Q 3953 994 4288 1222 
L 4288 256 
z
" transform="scale(0.015625)"/>
      <path id="DejaVuSans-Bold-4e" d="M 588 4666 
L 1931 4666 
L 3628 1466 
L 3628 4666 
L 4769 4666 
L 4769 0 
L 3425 0 
L 1728 3200 
L 1728 0 
L 588 0 
L 588 4666 
z
" transform="scale(0.015625)"/>
      <path id="DejaVuSans-Bold-49" d="M 588 4666 
L 1791 4666 
L 1791 0 
L 588 0 
L 588 4666 
z
" transform="scale(0.015625)"/>
      <path id="DejaVuSans-Bold-41" d="M 3419 850 
L 1538 850 
L 1241 0 
L 31 0 
L 1759 4666 
L 3194 4666 
L 4922 0 
L 3713 0 
L 3419 850 
z
M 1838 1716 
L 3116 1716 
L 2478 3572 
L 1838 1716 
z
" transform="scale(0.015625)"/>
      <path id="DejaVuSans-Bold-53" d="M 3834 4519 
L 3834 3531 
Q 3450 3703 3084 3790 
Q 2719 3878 2394 3878 
Q 1963 3878 1756 3759 
Q 1550 3641 1550 3391 
Q 1550 3203 1689 3098 
Q 1828 2994 2194 2919 
L 2706 2816 
Q 3484 2659 3812 2340 
Q 4141 2022 4141 1434 
Q 4141 663 3683 286 
Q 3225 -91 2284 -91 
Q 1841 -91 1394 -6 
Q 947 78 500 244 
L 500 1259 
Q 947 1022 1364 901 
Q 1781 781 2169 781 
Q 2563 781 2772 912 
Q 2981 1044 2981 1288 
Q 2981 1506 2839 1625 
Q 2697 1744 2272 1838 
L 1806 1941 
Q 1106 2091 782 2419 
Q 459 2747 459 3303 
Q 459 4000 909 4375 
Q 1359 4750 2203 4750 
Q 2588 4750 2994 4692 
Q 3400 4634 3834 4519 
z
" transform="scale(0.015625)"/>
      <path id="DejaVuSans-Bold-20" transform="scale(0.015625)"/>
      <path id="DejaVuSans-Bold-44" d="M 1791 3756 
L 1791 909 
L 2222 909 
Q 2959 909 3348 1275 
Q 3738 1641 3738 2338 
Q 3738 3031 3350 3393 
Q 2963 3756 2222 3756 
L 1791 3756 
z
M 588 4666 
L 1856 4666 
Q 2919 4666 3439 4514 
Q 3959 4363 4331 4000 
Q 4659 3684 4818 3271 
Q 4978 2859 4978 2338 
Q 4978 1809 4818 1395 
Q 4659 981 4331 666 
Q 3956 303 3431 151 
Q 2906 0 1856 0 
L 588 0 
L 588 4666 
z
" transform="scale(0.015625)"/>
      <path id="DejaVuSans-Bold-45" d="M 588 4666 
L 3834 4666 
L 3834 3756 
L 1791 3756 
L 1791 2888 
L 3713 2888 
L 3713 1978 
L 1791 1978 
L 1791 909 
L 3903 909 
L 3903 0 
L 588 0 
L 588 4666 
z
" transform="scale(0.015625)"/>
      <path id="DejaVuSans-Bold-52" d="M 2297 2597 
Q 2675 2597 2839 2737 
Q 3003 2878 3003 3200 
Q 3003 3519 2839 3656 
Q 2675 3794 2297 3794 
L 1791 3794 
L 1791 2597 
L 2297 2597 
z
M 1791 1766 
L 1791 0 
L 588 0 
L 588 4666 
L 2425 4666 
Q 3347 4666 3776 4356 
Q 4206 4047 4206 3378 
Q 4206 2916 3982 2619 
Q 3759 2322 3309 2181 
Q 3556 2125 3751 1926 
Q 3947 1728 4147 1325 
L 4800 0 
L 3519 0 
L 2950 1159 
Q 2778 1509 2601 1637 
Q 2425 1766 2131 1766 
L 1791 1766 
z
" transform="scale(0.015625)"/>
      <path id="DejaVuSans-Bold-55" d="M 588 4666 
L 1791 4666 
L 1791 1869 
Q 1791 1291 1980 1042 
Q 2169 794 2597 794 
Q 3028 794 3217 1042 
Q 3406 1291 3406 1869 
L 3406 4666 
L 4609 4666 
L 4609 1869 
Q 4609 878 4112 393 
Q 3616 -91 2597 -91 
Q 1581 -91 1084 393 
Q 588 878 588 1869 
L 588 4666 
z
" transform="scale(0.015625)"/>
      <path id="DejaVuSans-Bold-4f" d="M 2719 3878 
Q 2169 3878 1866 3472 
Q 1563 3066 1563 2328 
Q 1563 1594 1866 1187 
Q 2169 781 2719 781 
Q 3272 781 3575 1187 
Q 3878 1594 3878 2328 
Q 3878 3066 3575 3472 
Q 3272 3878 2719 3878 
z
M 2719 4750 
Q 3844 4750 4481 4106 
Q 5119 3463 5119 2328 
Q 5119 1197 4481 553 
Q 3844 -91 2719 -91 
Q 1597 -91 958 553 
Q 319 1197 319 2328 
Q 319 3463 958 4106 
Q 1597 4750 2719 4750 
z
" transform="scale(0.015625)"/>
     </defs>
     <use xlink:href="#DejaVuSans-Bold-54"/>
     <use xlink:href="#DejaVuSans-Bold-c9" x="68.212891"/>
     <use xlink:href="#DejaVuSans-Bold-43" x="136.523438"/>
     <use xlink:href="#DejaVuSans-Bold-4e" x="209.912109"/>
     <use xlink:href="#DejaVuSans-Bold-49" x="293.603516"/>
     <use xlink:href="#DejaVuSans-Bold-43" x="330.810547"/>
     <use xlink:href="#DejaVuSans-Bold-41" x="404.199219"/>
     <use xlink:href="#DejaVuSans-Bold-53" x="481.591797"/>
     <use xlink:href="#DejaVuSans-Bold-20" x="553.613281"/>
     <use xlink:href="#DejaVuSans-Bold-44" x="588.427734"/>
     <use xlink:href="#DejaVuSans-Bold-45" x="671.435547"/>
     <use xlink:href="#DejaVuSans-Bold-20" x="739.746094"/>
     <use xlink:href="#DejaVuSans-Bold-52" x="774.560547"/>
     <use xlink:href="#DejaVuSans-Bold-45" x="851.5625"/>
     <use xlink:href="#DejaVuSans-Bold-43" x="919.873047"/>
     <use xlink:href="#DejaVuSans-Bold-55" x="993.261719"/>
     <use xlink:href="#DejaVuSans-Bold-45" x="1074.462891"/>
     <use xlink:href="#DejaVuSans-Bold-4e" x="1142.773438"/>
     <use xlink:href="#DejaVuSans-Bold-54" x="1226.464844"/>
     <use xlink:href="#DejaVuSans-Bold-4f" x="1294.677734"/>
    </g>
   </g>
   <g id="text_2">
    <!-- VARIACIONES -->
    <g transform="translate(87.66125 127.8) scale(0.11 -0.11)">
     <defs>
      <path id="DejaVuSans-Bold-56" d="M 31 4666 
L 1241 4666 
L 2478 1222 
L 3713 4666 
L 4922 4666 
L 3194 0 
L 1759 0 
L 31 4666 
z
" transform="scale(0.015625)"/>
     </defs>
     <use xlink:href="#DejaVuSans-Bold-56"/>
     <use xlink:href="#DejaVuSans-Bold-41" x="70.642578"/>
     <use xlink:href="#DejaVuSans-Bold-52" x="148.035156"/>
     <use xlink:href="#DejaVuSans-Bold-49" x="225.037109"/>
     <use xlink:href="#DejaVuSans-Bold-41" x="262.244141"/>
     <use xlink:href="#DejaVuSans-Bold-43" x="339.636719"/>
     <use xlink:href="#DejaVuSans-Bold-49" x="413.025391"/>
     <use xlink:href="#DejaVuSans-Bold-4f" x="450.232422"/>
     <use xlink:href="#DejaVuSans-Bold-4e" x="535.242188"/>
     <use xlink:href="#DejaVuSans-Bold-45" x="618.933594"/>
     <use xlink:href="#DejaVuSans-Bold-53" x="687.244141"/>
    </g>
   </g>
   <g id="text_3">
    <!-- $V_n^m = \frac{n!}{(n-m)!}$ -->
    <g transform="translate(100.57 151.92) scale(0.1 -0.1)">
     <defs>
      <path id="DejaVuSans-Oblique-56" d="M 1319 0 
L 500 4666 
L 1119 4666 
L 1797 653 
L 4063 4666 
L 4750 4666 
L 2053 0 
L 1319 0 
z
" transform="scale(0.015625)"/>
      <path id="DejaVuSans-Oblique-6d" d="M 5747 2113 
L 5338 0 
L 4763 0 
L 5166 2094 
Q 5191 2228 5203 2325 
Q 5216 2422 5216 2491 
Q 5216 2772 5059 2928 
Q 4903 3084 4622 3084 
Q 4203 3084 3875 2770 
Q 3547 2456 3450 1953 
L 3066 0 
L 2491 0 
L 2900 2094 
Q 2925 2209 2937 2307 
Q 2950 2406 2950 2484 
Q 2950 2769 2794 2926 
Q 2638 3084 2363 3084 
Q 1938 3084 1609 2770 
Q 1281 2456 1184 1953 
L 800 0 
L 225 0 
L 909 3500 
L 1484 3500 
L 1375 2956 
Q 1609 3263 1923 3423 
Q 2238 3584 2597 3584 
Q 2978 3584 3223 3384 
Q 3469 3184 3519 2828 
Q 3781 3197 4126 3390 
Q 4472 3584 4856 3584 
Q 5306 3584 5551 3325 
Q 5797 3066 5797 2591 
Q 5797 2488 5784 2364 
Q 5772 2241 5747 2113 
z
" transform="scale(0.015625)"/>
      <path id="DejaVuSans-Oblique-6e" d="M 3566 2113 
L 3156 0 
L 2578 0 
L 2988 2091 
Q 3016 2238 3031 2350 
Q 3047 2463 3047 2528 
Q 3047 2791 2881 2937 
Q 2716 3084 2419 3084 
Q 1956 3084 1622 2776 
Q 1288 2469 1184 1941 
L 800 0 
L 225 0 
L 903 3500 
L 1478 3500 
L 1363 2950 
Q 1603 3253 1940 3418 
Q 2278 3584 2650 3584 
Q 3113 3584 3367 3334 
Q 3622 3084 3622 2631 
Q 3622 2519 3608 2391 
Q 3594 2263 3566 2113 
z
" transform="scale(0.015625)"/>
      <path id="DejaVuSans-3d" d="M 678 2906 
L 4684 2906 
L 4684 2381 
L 678 2381 
L 678 2906 
z
M 678 1631 
L 4684 1631 
L 4684 1100 
L 678 1100 
L 678 1631 
z
" transform="scale(0.015625)"/>
      <path id="DejaVuSans-21" d="M 966 794 
L 1600 794 
L 1600 0 
L 966 0 
L 966 794 
z
M 966 4666 
L 1600 4666 
L 1600 2619 
L 1538 1503 
L 1031 1503 
L 966 2619 
L 966 4666 
z
" transform="scale(0.015625)"/>
      <path id="DejaVuSans-28" d="M 1984 4856 
Q 1566 4138 1362 3434 
Q 1159 2731 1159 2009 
Q 1159 1288 1364 580 
Q 1569 -128 1984 -844 
L 1484 -844 
Q 1016 -109 783 600 
Q 550 1309 550 2009 
Q 550 2706 781 3412 
Q 1013 4119 1484 4856 
L 1984 4856 
z
" transform="scale(0.015625)"/>
      <path id="DejaVuSans-2212" d="M 678 2272 
L 4684 2272 
L 4684 1741 
L 678 1741 
L 678 2272 
z
" transform="scale(0.015625)"/>
      <path id="DejaVuSans-29" d="M 513 4856 
L 1013 4856 
Q 1481 4119 1714 3412 
Q 1947 2706 1947 2009 
Q 1947 1309 1714 600 
Q 1481 -109 1013 -844 
L 513 -844 
Q 928 -128 1133 580 
Q 1338 1288 1338 2009 
Q 1338 2731 1133 3434 
Q 928 4138 513 4856 
z
" transform="scale(0.015625)"/>
     </defs>
     <use xlink:href="#DejaVuSans-Oblique-56" transform="translate(0 0.16875)"/>
     <use xlink:href="#DejaVuSans-Oblique-6d" transform="translate(75.424974 38.45) scale(0.7)"/>
     <use xlink:href="#DejaVuSans-Oblique-6e" transform="translate(68.408203 -27.175) scale(0.7)"/>
     <use xlink:href="#DejaVuSans-3d" transform="translate(165.830247 0.16875)"/>
     <use xlink:href="#DejaVuSans-Oblique-6e" transform="translate(373.101732 43.965625) scale(0.7)"/>
     <use xlink:href="#DejaVuSans-21" transform="translate(417.466966 43.965625) scale(0.7)"/>
     <use xlink:href="#DejaVuSans-28" transform="translate(269.101732 -40.396875) scale(0.7)"/>
     <use xlink:href="#DejaVuSans-Oblique-6e" transform="translate(296.411302 -40.396875) scale(0.7)"/>
     <use xlink:href="#DejaVuSans-2212" transform="translate(354.414232 -40.396875) scale(0.7)"/>
     <use xlink:href="#DejaVuSans-Oblique-6d" transform="translate(426.704271 -40.396875) scale(0.7)"/>
     <use xlink:href="#DejaVuSans-29" transform="translate(494.892747 -40.396875) scale(0.7)"/>
     <use xlink:href="#DejaVuSans-21" transform="translate(522.202318 -40.396875) scale(0.7)"/>
     <path d="M 269.101732 18.965625 
L 269.101732 25.215625 
L 563.901536 25.215625 
L 563.901536 18.965625 
L 269.101732 18.965625 
z
"/>
    </g>
   </g>
   <g id="text_4">
    <!-- Importa orden -->
    <g transform="translate(100.794375 200.16) scale(0.08 -0.08)">
     <defs>
      <path id="DejaVuSans-Oblique-49" d="M 1081 4666 
L 1716 4666 
L 806 0 
L 172 0 
L 1081 4666 
z
" transform="scale(0.015625)"/>
      <path id="DejaVuSans-Oblique-70" d="M 3175 2156 
Q 3175 2616 2975 2859 
Q 2775 3103 2400 3103 
Q 2144 3103 1911 2972 
Q 1678 2841 1497 2591 
Q 1319 2344 1212 1994 
Q 1106 1644 1106 1300 
Q 1106 863 1306 627 
Q 1506 391 1875 391 
Q 2147 391 2380 519 
Q 2613 647 2778 891 
Q 2956 1147 3065 1494 
Q 3175 1841 3175 2156 
z
M 1394 2969 
Q 1625 3272 1939 3428 
Q 2253 3584 2638 3584 
Q 3175 3584 3472 3232 
Q 3769 2881 3769 2247 
Q 3769 1728 3584 1258 
Q 3400 788 3053 416 
Q 2822 169 2531 39 
Q 2241 -91 1919 -91 
Q 1547 -91 1294 64 
Q 1041 219 916 525 
L 556 -1331 
L -19 -1331 
L 922 3500 
L 1497 3500 
L 1394 2969 
z
" transform="scale(0.015625)"/>
      <path id="DejaVuSans-Oblique-6f" d="M 1625 -91 
Q 1009 -91 651 289 
Q 294 669 294 1325 
Q 294 1706 417 2101 
Q 541 2497 738 2766 
Q 1047 3184 1428 3384 
Q 1809 3584 2291 3584 
Q 2888 3584 3255 3212 
Q 3622 2841 3622 2241 
Q 3622 1825 3500 1412 
Q 3378 1000 3181 728 
Q 2875 309 2494 109 
Q 2113 -91 1625 -91 
z
M 891 1344 
Q 891 869 1089 633 
Q 1288 397 1691 397 
Q 2269 397 2648 901 
Q 3028 1406 3028 2181 
Q 3028 2634 2825 2865 
Q 2622 3097 2228 3097 
Q 1903 3097 1650 2945 
Q 1397 2794 1197 2484 
Q 1050 2253 970 1956 
Q 891 1659 891 1344 
z
" transform="scale(0.015625)"/>
      <path id="DejaVuSans-Oblique-72" d="M 2853 2969 
Q 2766 3016 2653 3041 
Q 2541 3066 2413 3066 
Q 1953 3066 1609 2717 
Q 1266 2369 1153 1784 
L 800 0 
L 225 0 
L 909 3500 
L 1484 3500 
L 1375 2956 
Q 1603 3259 1920 3421 
Q 2238 3584 2597 3584 
Q 2691 3584 2781 3573 
Q 2872 3563 2963 3538 
L 2853 2969 
z
" transform="scale(0.015625)"/>
      <path id="DejaVuSans-Oblique-74" d="M 2706 3500 
L 2619 3053 
L 1472 3053 
L 1100 1153 
Q 1081 1047 1072 975 
Q 1063 903 1063 863 
Q 1063 663 1183 572 
Q 1303 481 1569 481 
L 2150 481 
L 2053 0 
L 1503 0 
Q 991 0 739 200 
Q 488 400 488 806 
Q 488 878 497 964 
Q 506 1050 525 1153 
L 897 3053 
L 409 3053 
L 500 3500 
L 978 3500 
L 1172 4494 
L 1747 4494 
L 1556 3500 
L 2706 3500 
z
" transform="scale(0.015625)"/>
      <path id="DejaVuSans-Oblique-61" d="M 3438 1997 
L 3047 0 
L 2472 0 
L 2578 531 
Q 2325 219 2001 64 
Q 1678 -91 1281 -91 
Q 834 -91 548 182 
Q 263 456 263 884 
Q 263 1497 752 1853 
Q 1241 2209 2100 2209 
L 2900 2209 
L 2931 2363 
Q 2938 2388 2941 2417 
Q 2944 2447 2944 2509 
Q 2944 2788 2717 2942 
Q 2491 3097 2081 3097 
Q 1800 3097 1504 3025 
Q 1209 2953 897 2809 
L 997 3341 
Q 1322 3463 1633 3523 
Q 1944 3584 2234 3584 
Q 2853 3584 3176 3315 
Q 3500 3047 3500 2534 
Q 3500 2431 3484 2292 
Q 3469 2153 3438 1997 
z
M 2816 1759 
L 2241 1759 
Q 1534 1759 1195 1570 
Q 856 1381 856 984 
Q 856 709 1029 553 
Q 1203 397 1509 397 
Q 1978 397 2328 733 
Q 2678 1069 2791 1631 
L 2816 1759 
z
" transform="scale(0.015625)"/>
      <path id="DejaVuSans-Oblique-20" transform="scale(0.015625)"/>
      <path id="DejaVuSans-Oblique-64" d="M 2675 525 
Q 2444 222 2128 65 
Q 1813 -91 1428 -91 
Q 903 -91 598 267 
Q 294 625 294 1247 
Q 294 1766 478 2236 
Q 663 2706 1013 3078 
Q 1244 3325 1534 3454 
Q 1825 3584 2144 3584 
Q 2481 3584 2739 3421 
Q 2997 3259 3138 2956 
L 3513 4863 
L 4091 4863 
L 3144 0 
L 2566 0 
L 2675 525 
z
M 891 1350 
Q 891 897 1095 644 
Q 1300 391 1663 391 
Q 1931 391 2161 520 
Q 2391 650 2566 903 
Q 2750 1166 2856 1509 
Q 2963 1853 2963 2188 
Q 2963 2622 2758 2865 
Q 2553 3109 2194 3109 
Q 1922 3109 1687 2981 
Q 1453 2853 1288 2613 
Q 1106 2353 998 2009 
Q 891 1666 891 1350 
z
" transform="scale(0.015625)"/>
      <path id="DejaVuSans-Oblique-65" d="M 3078 2063 
Q 3088 2113 3092 2166 
Q 3097 2219 3097 2272 
Q 3097 2653 2873 2875 
Q 2650 3097 2266 3097 
Q 1838 3097 1509 2826 
Q 1181 2556 1013 2059 
L 3078 2063 
z
M 3578 1613 
L 903 1613 
Q 884 1494 878 1425 
Q 872 1356 872 1306 
Q 872 872 1139 634 
Q 1406 397 1894 397 
Q 2269 397 2603 481 
Q 2938 566 3225 728 
L 3116 159 
Q 2806 34 2476 -28 
Q 2147 -91 1806 -91 
Q 1078 -91 686 257 
Q 294 606 294 1247 
Q 294 1794 489 2264 
Q 684 2734 1063 3103 
Q 1306 3334 1642 3459 
Q 1978 3584 2356 3584 
Q 2950 3584 3301 3228 
Q 3653 2872 3653 2272 
Q 3653 2128 3634 1964 
Q 3616 1800 3578 1613 
z
" transform="scale(0.015625)"/>
     </defs>
     <use xlink:href="#DejaVuSans-Oblique-49"/>
     <use xlink:href="#DejaVuSans-Oblique-6d" x="29.492188"/>
     <use xlink:href="#DejaVuSans-Oblique-70" x="126.904297"/>
     <use xlink:href="#DejaVuSans-Oblique-6f" x="190.380859"/>
     <use xlink:href="#DejaVuSans-Oblique-72" x="251.5625"/>
     <use xlink:href="#DejaVuSans-Oblique-74" x="292.675781"/>
     <use xlink:href="#DejaVuSans-Oblique-61" x="331.884766"/>
     <use xlink:href="#DejaVuSans-Oblique-20" x="393.164062"/>
     <use xlink:href="#DejaVuSans-Oblique-6f" x="424.951172"/>
     <use xlink:href="#DejaVuSans-Oblique-72" x="486.132812"/>
     <use xlink:href="#DejaVuSans-Oblique-64" x="527.246094"/>
     <use xlink:href="#DejaVuSans-Oblique-65" x="590.722656"/>
     <use xlink:href="#DejaVuSans-Oblique-6e" x="652.246094"/>
    </g>
   </g>
   <g id="text_5">
    <!-- Sin repetición -->
    <g transform="translate(101.884375 224.28) scale(0.08 -0.08)">
     <defs>
      <path id="DejaVuSans-Oblique-53" d="M 3859 4513 
L 3738 3897 
Q 3422 4066 3111 4152 
Q 2800 4238 2509 4238 
Q 1944 4238 1609 3991 
Q 1275 3744 1275 3334 
Q 1275 3109 1398 2989 
Q 1522 2869 2034 2731 
L 2413 2638 
Q 3053 2472 3303 2217 
Q 3553 1963 3553 1503 
Q 3553 797 2998 353 
Q 2444 -91 1538 -91 
Q 1166 -91 791 -17 
Q 416 56 38 206 
L 166 856 
Q 513 641 861 531 
Q 1209 422 1556 422 
Q 2147 422 2503 684 
Q 2859 947 2859 1369 
Q 2859 1650 2717 1795 
Q 2575 1941 2106 2059 
L 1728 2156 
Q 1081 2325 845 2545 
Q 609 2766 609 3163 
Q 609 3859 1145 4304 
Q 1681 4750 2541 4750 
Q 2875 4750 3203 4690 
Q 3531 4631 3859 4513 
z
" transform="scale(0.015625)"/>
      <path id="DejaVuSans-Oblique-69" d="M 1172 4863 
L 1747 4863 
L 1606 4134 
L 1031 4134 
L 1172 4863 
z
M 909 3500 
L 1484 3500 
L 800 0 
L 225 0 
L 909 3500 
z
" transform="scale(0.015625)"/>
      <path id="DejaVuSans-Oblique-63" d="M 3431 3366 
L 3316 2797 
Q 3109 2947 2876 3022 
Q 2644 3097 2394 3097 
Q 2119 3097 1870 3000 
Q 1622 2903 1453 2725 
Q 1184 2453 1037 2087 
Q 891 1722 891 1331 
Q 891 859 1127 628 
Q 1363 397 1844 397 
Q 2081 397 2348 469 
Q 2616 541 2906 684 
L 2797 116 
Q 2547 13 2283 -39 
Q 2019 -91 1741 -91 
Q 1044 -91 669 257 
Q 294 606 294 1253 
Q 294 1797 489 2255 
Q 684 2713 1069 3078 
Q 1331 3328 1684 3456 
Q 2038 3584 2456 3584 
Q 2700 3584 2940 3529 
Q 3181 3475 3431 3366 
z
" transform="scale(0.015625)"/>
      <path id="DejaVuSans-Oblique-f3" d="M 1625 -91 
Q 1009 -91 651 289 
Q 294 669 294 1325 
Q 294 1706 417 2101 
Q 541 2497 738 2766 
Q 1047 3184 1428 3384 
Q 1809 3584 2291 3584 
Q 2888 3584 3255 3212 
Q 3622 2841 3622 2241 
Q 3622 1825 3500 1412 
Q 3378 1000 3181 728 
Q 2875 309 2494 109 
Q 2113 -91 1625 -91 
z
M 891 1344 
Q 891 869 1089 633 
Q 1288 397 1691 397 
Q 2269 397 2648 901 
Q 3028 1406 3028 2181 
Q 3028 2634 2825 2865 
Q 2622 3097 2228 3097 
Q 1903 3097 1650 2945 
Q 1397 2794 1197 2484 
Q 1050 2253 970 1956 
Q 891 1659 891 1344 
z
M 3079 5119 
L 3701 5119 
L 2454 3944 
L 1973 3944 
L 3079 5119 
z
" transform="scale(0.015625)"/>
     </defs>
     <use xlink:href="#DejaVuSans-Oblique-53"/>
     <use xlink:href="#DejaVuSans-Oblique-69" x="63.476562"/>
     <use xlink:href="#DejaVuSans-Oblique-6e" x="91.259766"/>
     <use xlink:href="#DejaVuSans-Oblique-20" x="154.638672"/>
     <use xlink:href="#DejaVuSans-Oblique-72" x="186.425781"/>
     <use xlink:href="#DejaVuSans-Oblique-65" x="227.539062"/>
     <use xlink:href="#DejaVuSans-Oblique-70" x="289.0625"/>
     <use xlink:href="#DejaVuSans-Oblique-65" x="352.539062"/>
     <use xlink:href="#DejaVuSans-Oblique-74" x="414.0625"/>
     <use xlink:href="#DejaVuSans-Oblique-69" x="453.271484"/>
     <use xlink:href="#DejaVuSans-Oblique-63" x="481.054688"/>
     <use xlink:href="#DejaVuSans-Oblique-69" x="536.035156"/>
     <use xlink:href="#DejaVuSans-Oblique-f3" x="563.818359"/>
     <use xlink:href="#DejaVuSans-Oblique-6e" x="625"/>
    </g>
   </g>
   <g id="text_6">
    <!-- PERMUTACIONES -->
    <g transform="translate(303.775312 127.8) scale(0.11 -0.11)">
     <defs>
      <path id="DejaVuSans-Bold-50" d="M 588 4666 
L 2584 4666 
Q 3475 4666 3951 4270 
Q 4428 3875 4428 3144 
Q 4428 2409 3951 2014 
Q 3475 1619 2584 1619 
L 1791 1619 
L 1791 0 
L 588 0 
L 588 4666 
z
M 1791 3794 
L 1791 2491 
L 2456 2491 
Q 2806 2491 2997 2661 
Q 3188 2831 3188 3144 
Q 3188 3456 2997 3625 
Q 2806 3794 2456 3794 
L 1791 3794 
z
" transform="scale(0.015625)"/>
      <path id="DejaVuSans-Bold-4d" d="M 588 4666 
L 2119 4666 
L 3181 2169 
L 4250 4666 
L 5778 4666 
L 5778 0 
L 4641 0 
L 4641 3413 
L 3566 897 
L 2803 897 
L 1728 3413 
L 1728 0 
L 588 0 
L 588 4666 
z
" transform="scale(0.015625)"/>
     </defs>
     <use xlink:href="#DejaVuSans-Bold-50"/>
     <use xlink:href="#DejaVuSans-Bold-45" x="73.291016"/>
     <use xlink:href="#DejaVuSans-Bold-52" x="141.601562"/>
     <use xlink:href="#DejaVuSans-Bold-4d" x="218.603516"/>
     <use xlink:href="#DejaVuSans-Bold-55" x="318.115234"/>
     <use xlink:href="#DejaVuSans-Bold-54" x="399.316406"/>
     <use xlink:href="#DejaVuSans-Bold-41" x="459.779297"/>
     <use xlink:href="#DejaVuSans-Bold-43" x="537.171875"/>
     <use xlink:href="#DejaVuSans-Bold-49" x="610.560547"/>
     <use xlink:href="#DejaVuSans-Bold-4f" x="647.767578"/>
     <use xlink:href="#DejaVuSans-Bold-4e" x="732.777344"/>
     <use xlink:href="#DejaVuSans-Bold-45" x="816.46875"/>
     <use xlink:href="#DejaVuSans-Bold-53" x="884.779297"/>
    </g>
   </g>
   <g id="text_7">
    <!-- $P_n = n!$ -->
    <g transform="translate(338.7 151.92) scale(0.1 -0.1)">
     <defs>
      <path id="DejaVuSans-Oblique-50" d="M 1081 4666 
L 2541 4666 
Q 3178 4666 3512 4369 
Q 3847 4072 3847 3500 
Q 3847 2731 3353 2303 
Q 2859 1875 1966 1875 
L 1172 1875 
L 806 0 
L 172 0 
L 1081 4666 
z
M 1613 4147 
L 1275 2394 
L 2069 2394 
Q 2606 2394 2893 2669 
Q 3181 2944 3181 3456 
Q 3181 3784 2986 3965 
Q 2791 4147 2438 4147 
L 1613 4147 
z
" transform="scale(0.015625)"/>
     </defs>
     <use xlink:href="#DejaVuSans-Oblique-50" transform="translate(0 0.09375)"/>
     <use xlink:href="#DejaVuSans-Oblique-6e" transform="translate(60.302734 -16.3125) scale(0.7)"/>
     <use xlink:href="#DejaVuSans-3d" transform="translate(126.884766 0.09375)"/>
     <use xlink:href="#DejaVuSans-Oblique-6e" transform="translate(230.15625 0.09375)"/>
     <use xlink:href="#DejaVuSans-21" transform="translate(293.535156 0.09375)"/>
    </g>
   </g>
   <g id="text_8">
    <!-- m = n (todos) -->
    <g transform="translate(328.595625 200.16) scale(0.08 -0.08)">
     <defs>
      <path id="DejaVuSans-Oblique-3d" d="M 678 2906 
L 4684 2906 
L 4684 2381 
L 678 2381 
L 678 2906 
z
M 678 1631 
L 4684 1631 
L 4684 1100 
L 678 1100 
L 678 1631 
z
" transform="scale(0.015625)"/>
      <path id="DejaVuSans-Oblique-28" d="M 2731 4856 
Q 1903 3822 1495 2892 
Q 1088 1963 1088 1100 
Q 1088 606 1206 120 
Q 1325 -366 1563 -844 
L 1063 -844 
Q 775 -306 634 201 
Q 494 709 494 1197 
Q 494 2125 923 3036 
Q 1353 3947 2222 4856 
L 2731 4856 
z
" transform="scale(0.015625)"/>
      <path id="DejaVuSans-Oblique-73" d="M 3200 3397 
L 3091 2853 
Q 2863 2978 2609 3040 
Q 2356 3103 2088 3103 
Q 1634 3103 1373 2948 
Q 1113 2794 1113 2528 
Q 1113 2219 1719 2053 
Q 1766 2041 1788 2034 
L 1972 1978 
Q 2547 1819 2739 1644 
Q 2931 1469 2931 1166 
Q 2931 609 2489 259 
Q 2047 -91 1331 -91 
Q 1053 -91 747 -37 
Q 441 16 72 128 
L 184 722 
Q 500 559 806 475 
Q 1113 391 1394 391 
Q 1816 391 2080 572 
Q 2344 753 2344 1031 
Q 2344 1331 1650 1516 
L 1591 1531 
L 1394 1581 
Q 956 1697 753 1886 
Q 550 2075 550 2369 
Q 550 2928 970 3256 
Q 1391 3584 2113 3584 
Q 2397 3584 2667 3537 
Q 2938 3491 3200 3397 
z
" transform="scale(0.015625)"/>
      <path id="DejaVuSans-Oblique-29" d="M -397 -844 
Q 434 191 840 1120 
Q 1247 2050 1247 2913 
Q 1247 3406 1130 3892 
Q 1013 4378 775 4856 
L 1275 4856 
Q 1563 4316 1703 3812 
Q 1844 3309 1844 2822 
Q 1844 1891 1411 973 
Q 978 56 116 -844 
L -397 -844 
z
" transform="scale(0.015625)"/>
     </defs>
     <use xlink:href="#DejaVuSans-Oblique-6d"/>
     <use xlink:href="#DejaVuSans-Oblique-20" x="97.412109"/>
     <use xlink:href="#DejaVuSans-Oblique-3d" x="129.199219"/>
     <use xlink:href="#DejaVuSans-Oblique-20" x="212.988281"/>
     <use xlink:href="#DejaVuSans-Oblique-6e" x="244.775391"/>
     <use xlink:href="#DejaVuSans-Oblique-20" x="308.154297"/>
     <use xlink:href="#DejaVuSans-Oblique-28" x="339.941406"/>
     <use xlink:href="#DejaVuSans-Oblique-74" x="378.955078"/>
     <use xlink:href="#DejaVuSans-Oblique-6f" x="418.164062"/>
     <use xlink:href="#DejaVuSans-Oblique-64" x="479.345703"/>
     <use xlink:href="#DejaVuSans-Oblique-6f" x="542.822266"/>
     <use xlink:href="#DejaVuSans-Oblique-73" x="604.003906"/>
     <use xlink:href="#DejaVuSans-Oblique-29" x="656.103516"/>
    </g>
   </g>
   <g id="text_9">
    <!-- Caso especial de V -->
    <g transform="translate(318.655 224.28) scale(0.08 -0.08)">
     <defs>
      <path id="DejaVuSans-Oblique-43" d="M 4447 4306 
L 4319 3641 
Q 4019 3944 3683 4091 
Q 3347 4238 2956 4238 
Q 2422 4238 2017 3981 
Q 1613 3725 1319 3200 
Q 1131 2863 1032 2486 
Q 934 2109 934 1728 
Q 934 1091 1264 756 
Q 1594 422 2222 422 
Q 2656 422 3056 561 
Q 3456 700 3834 978 
L 3688 231 
Q 3316 72 2936 -9 
Q 2556 -91 2175 -91 
Q 1278 -91 773 396 
Q 269 884 269 1753 
Q 269 2309 461 2846 
Q 653 3384 1013 3828 
Q 1394 4300 1883 4525 
Q 2372 4750 3022 4750 
Q 3422 4750 3780 4639 
Q 4138 4528 4447 4306 
z
" transform="scale(0.015625)"/>
      <path id="DejaVuSans-Oblique-6c" d="M 1172 4863 
L 1747 4863 
L 800 0 
L 225 0 
L 1172 4863 
z
" transform="scale(0.015625)"/>
     </defs>
     <use xlink:href="#DejaVuSans-Oblique-43"/>
     <use xlink:href="#DejaVuSans-Oblique-61" x="69.824219"/>
     <use xlink:href="#DejaVuSans-Oblique-73" x="131.103516"/>
     <use xlink:href="#DejaVuSans-Oblique-6f" x="183.203125"/>
     <use xlink:href="#DejaVuSans-Oblique-20" x="244.384766"/>
     <use xlink:href="#DejaVuSans-Oblique-65" x="276.171875"/>
     <use xlink:href="#DejaVuSans-Oblique-73" x="337.695312"/>
     <use xlink:href="#DejaVuSans-Oblique-70" x="389.794922"/>
     <use xlink:href="#DejaVuSans-Oblique-65" x="453.271484"/>
     <use xlink:href="#DejaVuSans-Oblique-63" x="514.794922"/>
     <use xlink:href="#DejaVuSans-Oblique-69" x="569.775391"/>
     <use xlink:href="#DejaVuSans-Oblique-61" x="597.558594"/>
     <use xlink:href="#DejaVuSans-Oblique-6c" x="658.837891"/>
     <use xlink:href="#DejaVuSans-Oblique-20" x="686.621094"/>
     <use xlink:href="#DejaVuSans-Oblique-64" x="718.408203"/>
     <use xlink:href="#DejaVuSans-Oblique-65" x="781.884766"/>
     <use xlink:href="#DejaVuSans-Oblique-20" x="843.408203"/>
     <use xlink:href="#DejaVuSans-Oblique-56" x="875.195312"/>
    </g>
   </g>
   <g id="text_10">
    <!-- COMBINACIONES -->
    <g transform="translate(531.017422 127.8) scale(0.11 -0.11)">
     <defs>
      <path id="DejaVuSans-Bold-42" d="M 2456 2859 
Q 2741 2859 2887 2984 
Q 3034 3109 3034 3353 
Q 3034 3594 2887 3720 
Q 2741 3847 2456 3847 
L 1791 3847 
L 1791 2859 
L 2456 2859 
z
M 2497 819 
Q 2859 819 3042 972 
Q 3225 1125 3225 1434 
Q 3225 1738 3044 1889 
Q 2863 2041 2497 2041 
L 1791 2041 
L 1791 819 
L 2497 819 
z
M 3616 2497 
Q 4003 2384 4215 2081 
Q 4428 1778 4428 1338 
Q 4428 663 3972 331 
Q 3516 0 2584 0 
L 588 0 
L 588 4666 
L 2394 4666 
Q 3366 4666 3802 4372 
Q 4238 4078 4238 3431 
Q 4238 3091 4078 2852 
Q 3919 2613 3616 2497 
z
" transform="scale(0.015625)"/>
     </defs>
     <use xlink:href="#DejaVuSans-Bold-43"/>
     <use xlink:href="#DejaVuSans-Bold-4f" x="73.388672"/>
     <use xlink:href="#DejaVuSans-Bold-4d" x="158.398438"/>
     <use xlink:href="#DejaVuSans-Bold-42" x="257.910156"/>
     <use xlink:href="#DejaVuSans-Bold-49" x="334.130859"/>
     <use xlink:href="#DejaVuSans-Bold-4e" x="371.337891"/>
     <use xlink:href="#DejaVuSans-Bold-41" x="455.029297"/>
     <use xlink:href="#DejaVuSans-Bold-43" x="532.421875"/>
     <use xlink:href="#DejaVuSans-Bold-49" x="605.810547"/>
     <use xlink:href="#DejaVuSans-Bold-4f" x="643.017578"/>
     <use xlink:href="#DejaVuSans-Bold-4e" x="728.027344"/>
     <use xlink:href="#DejaVuSans-Bold-45" x="811.71875"/>
     <use xlink:href="#DejaVuSans-Bold-53" x="880.029297"/>
    </g>
   </g>
   <g id="text_11">
    <!-- $C_n^m = \binom{n}{m} = \frac{n!}{m!(n-m)!}$ -->
    <g transform="translate(534.83 151.92) scale(0.1 -0.1)">
     <defs>
      <path id="STIXSizeOneSym-Regular-28" d="M 2445 -858 
L 2445 -1050 
Q 1728 -371 1309 630 
Q 890 1632 890 2886 
Q 890 4122 1309 5136 
Q 1728 6150 2445 6822 
L 2445 6630 
Q 1408 5363 1408 2886 
Q 1408 410 2445 -858 
z
" transform="scale(0.015625)"/>
      <path id="STIXSizeOneSym-Regular-29" d="M 550 6630 
L 550 6822 
Q 1267 6144 1686 5142 
Q 2106 4141 2106 2886 
Q 2106 1651 1686 636 
Q 1267 -378 550 -1050 
L 550 -858 
Q 1587 410 1587 2886 
Q 1587 5363 550 6630 
z
" transform="scale(0.015625)"/>
     </defs>
     <use xlink:href="#DejaVuSans-Oblique-43" transform="translate(0 0.16875)"/>
     <use xlink:href="#DejaVuSans-Oblique-6d" transform="translate(77.02474 38.45) scale(0.7)"/>
     <use xlink:href="#DejaVuSans-Oblique-6e" transform="translate(69.824219 -27.175) scale(0.7)"/>
     <use xlink:href="#DejaVuSans-3d" transform="translate(167.430013 0.16875)"/>
     <use xlink:href="#STIXSizeOneSym-Regular-28" transform="translate(270.701497 -12.703125) scale(0.84065)"/>
     <use xlink:href="#DejaVuSans-Oblique-6e" transform="translate(322.071996 37.715625) scale(0.7)"/>
     <use xlink:href="#DejaVuSans-Oblique-6d" transform="translate(310.071996 -26.484375) scale(0.7)"/>
     <use xlink:href="#STIXSizeOneSym-Regular-29" transform="translate(390.760473 -12.703125) scale(0.84065)"/>
     <use xlink:href="#DejaVuSans-3d" transform="translate(449.613393 0.16875)"/>
     <use xlink:href="#DejaVuSans-Oblique-6e" transform="translate(711.884878 43.965625) scale(0.7)"/>
     <use xlink:href="#DejaVuSans-21" transform="translate(756.250112 43.965625) scale(0.7)"/>
     <use xlink:href="#DejaVuSans-Oblique-6d" transform="translate(552.884878 -40.396875) scale(0.7)"/>
     <use xlink:href="#DejaVuSans-21" transform="translate(621.073354 -40.396875) scale(0.7)"/>
     <use xlink:href="#DejaVuSans-28" transform="translate(662.772573 -40.396875) scale(0.7)"/>
     <use xlink:href="#DejaVuSans-Oblique-6e" transform="translate(690.082143 -40.396875) scale(0.7)"/>
     <use xlink:href="#DejaVuSans-2212" transform="translate(748.085073 -40.396875) scale(0.7)"/>
     <use xlink:href="#DejaVuSans-Oblique-6d" transform="translate(820.375112 -40.396875) scale(0.7)"/>
     <use xlink:href="#DejaVuSans-29" transform="translate(888.563588 -40.396875) scale(0.7)"/>
     <use xlink:href="#DejaVuSans-21" transform="translate(915.873159 -40.396875) scale(0.7)"/>
     <path d="M 552.884878 18.965625 
L 552.884878 25.215625 
L 957.572378 25.215625 
L 957.572378 18.965625 
L 552.884878 18.965625 
z
"/>
    </g>
   </g>
   <g id="text_12">
    <!-- NO importa orden -->
    <g transform="translate(547.410625 200.16) scale(0.08 -0.08)">
     <defs>
      <path id="DejaVuSans-Oblique-4e" d="M 1081 4666 
L 1931 4666 
L 3219 666 
L 4000 4666 
L 4616 4666 
L 3706 0 
L 2853 0 
L 1569 4025 
L 788 0 
L 172 0 
L 1081 4666 
z
" transform="scale(0.015625)"/>
      <path id="DejaVuSans-Oblique-4f" d="M 2919 4238 
Q 2400 4238 2003 3986 
Q 1606 3734 1313 3219 
Q 1125 2891 1026 2522 
Q 928 2153 928 1778 
Q 928 1128 1239 775 
Q 1550 422 2119 422 
Q 2631 422 3032 676 
Q 3434 931 3719 1434 
Q 3909 1772 4009 2142 
Q 4109 2513 4109 2881 
Q 4109 3528 3796 3883 
Q 3484 4238 2919 4238 
z
M 2100 -91 
Q 1241 -91 748 418 
Q 256 928 256 1813 
Q 256 2319 448 2847 
Q 641 3375 978 3788 
Q 1375 4272 1862 4511 
Q 2350 4750 2938 4750 
Q 3794 4750 4287 4245 
Q 4781 3741 4781 2869 
Q 4781 2331 4593 1812 
Q 4406 1294 4056 872 
Q 3656 384 3173 146 
Q 2691 -91 2100 -91 
z
" transform="scale(0.015625)"/>
     </defs>
     <use xlink:href="#DejaVuSans-Oblique-4e"/>
     <use xlink:href="#DejaVuSans-Oblique-4f" x="74.804688"/>
     <use xlink:href="#DejaVuSans-Oblique-20" x="153.515625"/>
     <use xlink:href="#DejaVuSans-Oblique-69" x="185.302734"/>
     <use xlink:href="#DejaVuSans-Oblique-6d" x="213.085938"/>
     <use xlink:href="#DejaVuSans-Oblique-70" x="310.498047"/>
     <use xlink:href="#DejaVuSans-Oblique-6f" x="373.974609"/>
     <use xlink:href="#DejaVuSans-Oblique-72" x="435.15625"/>
     <use xlink:href="#DejaVuSans-Oblique-74" x="476.269531"/>
     <use xlink:href="#DejaVuSans-Oblique-61" x="515.478516"/>
     <use xlink:href="#DejaVuSans-Oblique-20" x="576.757812"/>
     <use xlink:href="#DejaVuSans-Oblique-6f" x="608.544922"/>
     <use xlink:href="#DejaVuSans-Oblique-72" x="669.726562"/>
     <use xlink:href="#DejaVuSans-Oblique-64" x="710.839844"/>
     <use xlink:href="#DejaVuSans-Oblique-65" x="774.316406"/>
     <use xlink:href="#DejaVuSans-Oblique-6e" x="835.839844"/>
    </g>
   </g>
   <g id="text_13">
    <!-- Sin repetición -->
    <g transform="translate(555.844375 224.28) scale(0.08 -0.08)">
     <use xlink:href="#DejaVuSans-Oblique-53"/>
     <use xlink:href="#DejaVuSans-Oblique-69" x="63.476562"/>
     <use xlink:href="#DejaVuSans-Oblique-6e" x="91.259766"/>
     <use xlink:href="#DejaVuSans-Oblique-20" x="154.638672"/>
     <use xlink:href="#DejaVuSans-Oblique-72" x="186.425781"/>
     <use xlink:href="#DejaVuSans-Oblique-65" x="227.539062"/>
     <use xlink:href="#DejaVuSans-Oblique-70" x="289.0625"/>
     <use xlink:href="#DejaVuSans-Oblique-65" x="352.539062"/>
     <use xlink:href="#DejaVuSans-Oblique-74" x="414.0625"/>
     <use xlink:href="#DejaVuSans-Oblique-69" x="453.271484"/>
     <use xlink:href="#DejaVuSans-Oblique-63" x="481.054688"/>
     <use xlink:href="#DejaVuSans-Oblique-69" x="536.035156"/>
     <use xlink:href="#DejaVuSans-Oblique-f3" x="563.818359"/>
     <use xlink:href="#DejaVuSans-Oblique-6e" x="625"/>
    </g>
   </g>
   <g id="text_14">
    <g id="patch_5">
     <path d="M 252.228125 277.677813 
L 460.571875 277.677813 
Q 463.571875 277.677813 463.571875 274.677813 
L 463.571875 264.921562 
Q 463.571875 261.921562 460.571875 261.921562 
L 252.228125 261.921562 
Q 249.228125 261.921562 249.228125 264.921562 
L 249.228125 274.677813 
Q 249.228125 277.677813 252.228125 277.677813 
z
" style="fill: #ffff00; opacity: 0.3; stroke: #000000; stroke-linejoin: miter"/>
    </g>
    <!-- EJEMPLO: Elegir 2 letras de {A, B, C} -->
    <g transform="translate(252.228125 272.52) scale(0.1 -0.1)">
     <defs>
      <path id="DejaVuSans-Bold-4a" d="M 588 4666 
L 1791 4666 
L 1791 453 
Q 1791 -419 1317 -850 
Q 844 -1281 -116 -1281 
L -359 -1281 
L -359 -372 
L -172 -372 
Q 203 -372 395 -162 
Q 588 47 588 453 
L 588 4666 
z
" transform="scale(0.015625)"/>
      <path id="DejaVuSans-Bold-4c" d="M 588 4666 
L 1791 4666 
L 1791 909 
L 3903 909 
L 3903 0 
L 588 0 
L 588 4666 
z
" transform="scale(0.015625)"/>
      <path id="DejaVuSans-Bold-3a" d="M 716 3500 
L 1844 3500 
L 1844 2291 
L 716 2291 
L 716 3500 
z
M 716 1209 
L 1844 1209 
L 1844 0 
L 716 0 
L 716 1209 
z
" transform="scale(0.015625)"/>
      <path id="DejaVuSans-Bold-6c" d="M 538 4863 
L 1656 4863 
L 1656 0 
L 538 0 
L 538 4863 
z
" transform="scale(0.015625)"/>
      <path id="DejaVuSans-Bold-65" d="M 4031 1759 
L 4031 1441 
L 1416 1441 
Q 1456 1047 1700 850 
Q 1944 653 2381 653 
Q 2734 653 3104 758 
Q 3475 863 3866 1075 
L 3866 213 
Q 3469 63 3072 -14 
Q 2675 -91 2278 -91 
Q 1328 -91 801 392 
Q 275 875 275 1747 
Q 275 2603 792 3093 
Q 1309 3584 2216 3584 
Q 3041 3584 3536 3087 
Q 4031 2591 4031 1759 
z
M 2881 2131 
Q 2881 2450 2695 2645 
Q 2509 2841 2209 2841 
Q 1884 2841 1681 2658 
Q 1478 2475 1428 2131 
L 2881 2131 
z
" transform="scale(0.015625)"/>
      <path id="DejaVuSans-Bold-67" d="M 2919 594 
Q 2688 288 2409 144 
Q 2131 0 1766 0 
Q 1125 0 706 504 
Q 288 1009 288 1791 
Q 288 2575 706 3076 
Q 1125 3578 1766 3578 
Q 2131 3578 2409 3434 
Q 2688 3291 2919 2981 
L 2919 3500 
L 4044 3500 
L 4044 353 
Q 4044 -491 3511 -936 
Q 2978 -1381 1966 -1381 
Q 1638 -1381 1331 -1331 
Q 1025 -1281 716 -1178 
L 716 -306 
Q 1009 -475 1290 -558 
Q 1572 -641 1856 -641 
Q 2406 -641 2662 -400 
Q 2919 -159 2919 353 
L 2919 594 
z
M 2181 2772 
Q 1834 2772 1640 2515 
Q 1447 2259 1447 1791 
Q 1447 1309 1634 1061 
Q 1822 813 2181 813 
Q 2531 813 2725 1069 
Q 2919 1325 2919 1791 
Q 2919 2259 2725 2515 
Q 2531 2772 2181 2772 
z
" transform="scale(0.015625)"/>
      <path id="DejaVuSans-Bold-69" d="M 538 3500 
L 1656 3500 
L 1656 0 
L 538 0 
L 538 3500 
z
M 538 4863 
L 1656 4863 
L 1656 3950 
L 538 3950 
L 538 4863 
z
" transform="scale(0.015625)"/>
      <path id="DejaVuSans-Bold-72" d="M 3138 2547 
Q 2991 2616 2845 2648 
Q 2700 2681 2553 2681 
Q 2122 2681 1889 2404 
Q 1656 2128 1656 1613 
L 1656 0 
L 538 0 
L 538 3500 
L 1656 3500 
L 1656 2925 
Q 1872 3269 2151 3426 
Q 2431 3584 2822 3584 
Q 2878 3584 2943 3579 
Q 3009 3575 3134 3559 
L 3138 2547 
z
" transform="scale(0.015625)"/>
      <path id="DejaVuSans-Bold-32" d="M 1844 884 
L 3897 884 
L 3897 0 
L 506 0 
L 506 884 
L 2209 2388 
Q 2438 2594 2547 2791 
Q 2656 2988 2656 3200 
Q 2656 3528 2436 3728 
Q 2216 3928 1850 3928 
Q 1569 3928 1234 3808 
Q 900 3688 519 3450 
L 519 4475 
Q 925 4609 1322 4679 
Q 1719 4750 2100 4750 
Q 2938 4750 3402 4381 
Q 3866 4013 3866 3353 
Q 3866 2972 3669 2642 
Q 3472 2313 2841 1759 
L 1844 884 
z
" transform="scale(0.015625)"/>
      <path id="DejaVuSans-Bold-74" d="M 1759 4494 
L 1759 3500 
L 2913 3500 
L 2913 2700 
L 1759 2700 
L 1759 1216 
Q 1759 972 1856 886 
Q 1953 800 2241 800 
L 2816 800 
L 2816 0 
L 1856 0 
Q 1194 0 917 276 
Q 641 553 641 1216 
L 641 2700 
L 84 2700 
L 84 3500 
L 641 3500 
L 641 4494 
L 1759 4494 
z
" transform="scale(0.015625)"/>
      <path id="DejaVuSans-Bold-61" d="M 2106 1575 
Q 1756 1575 1579 1456 
Q 1403 1338 1403 1106 
Q 1403 894 1545 773 
Q 1688 653 1941 653 
Q 2256 653 2472 879 
Q 2688 1106 2688 1447 
L 2688 1575 
L 2106 1575 
z
M 3816 1997 
L 3816 0 
L 2688 0 
L 2688 519 
Q 2463 200 2181 54 
Q 1900 -91 1497 -91 
Q 953 -91 614 226 
Q 275 544 275 1050 
Q 275 1666 698 1953 
Q 1122 2241 2028 2241 
L 2688 2241 
L 2688 2328 
Q 2688 2594 2478 2717 
Q 2269 2841 1825 2841 
Q 1466 2841 1156 2769 
Q 847 2697 581 2553 
L 581 3406 
Q 941 3494 1303 3539 
Q 1666 3584 2028 3584 
Q 2975 3584 3395 3211 
Q 3816 2838 3816 1997 
z
" transform="scale(0.015625)"/>
      <path id="DejaVuSans-Bold-73" d="M 3272 3391 
L 3272 2541 
Q 2913 2691 2578 2766 
Q 2244 2841 1947 2841 
Q 1628 2841 1473 2761 
Q 1319 2681 1319 2516 
Q 1319 2381 1436 2309 
Q 1553 2238 1856 2203 
L 2053 2175 
Q 2913 2066 3209 1816 
Q 3506 1566 3506 1031 
Q 3506 472 3093 190 
Q 2681 -91 1863 -91 
Q 1516 -91 1145 -36 
Q 775 19 384 128 
L 384 978 
Q 719 816 1070 734 
Q 1422 653 1784 653 
Q 2113 653 2278 743 
Q 2444 834 2444 1013 
Q 2444 1163 2330 1236 
Q 2216 1309 1875 1350 
L 1678 1375 
Q 931 1469 631 1722 
Q 331 1975 331 2491 
Q 331 3047 712 3315 
Q 1094 3584 1881 3584 
Q 2191 3584 2531 3537 
Q 2872 3491 3272 3391 
z
" transform="scale(0.015625)"/>
      <path id="DejaVuSans-Bold-64" d="M 2919 2988 
L 2919 4863 
L 4044 4863 
L 4044 0 
L 2919 0 
L 2919 506 
Q 2688 197 2409 53 
Q 2131 -91 1766 -91 
Q 1119 -91 703 423 
Q 288 938 288 1747 
Q 288 2556 703 3070 
Q 1119 3584 1766 3584 
Q 2128 3584 2408 3439 
Q 2688 3294 2919 2988 
z
M 2181 722 
Q 2541 722 2730 984 
Q 2919 1247 2919 1747 
Q 2919 2247 2730 2509 
Q 2541 2772 2181 2772 
Q 1825 2772 1636 2509 
Q 1447 2247 1447 1747 
Q 1447 1247 1636 984 
Q 1825 722 2181 722 
z
" transform="scale(0.015625)"/>
      <path id="DejaVuSans-Bold-7b" d="M 3756 -341 
L 3756 -1044 
L 3078 -1044 
Q 2397 -1044 2084 -769 
Q 1772 -494 1772 109 
L 1772 709 
Q 1772 1178 1603 1361 
Q 1434 1544 991 1544 
L 800 1544 
L 800 2241 
L 991 2241 
Q 1434 2241 1603 2422 
Q 1772 2603 1772 3072 
L 1772 3713 
Q 1772 4316 2084 4589 
Q 2397 4863 3078 4863 
L 3756 4863 
L 3756 4159 
L 3541 4159 
Q 3100 4159 2967 4023 
Q 2834 3888 2834 3444 
L 2834 2925 
Q 2834 2434 2693 2212 
Q 2553 1991 2209 1913 
Q 2556 1828 2695 1606 
Q 2834 1384 2834 897 
L 2834 378 
Q 2834 -69 2967 -205 
Q 3100 -341 3541 -341 
L 3756 -341 
z
" transform="scale(0.015625)"/>
      <path id="DejaVuSans-Bold-2c" d="M 653 1209 
L 1778 1209 
L 1778 256 
L 1006 -909 
L 341 -909 
L 653 256 
L 653 1209 
z
" transform="scale(0.015625)"/>
      <path id="DejaVuSans-Bold-7d" d="M 800 -341 
L 1019 -341 
Q 1456 -341 1589 -205 
Q 1722 -69 1722 378 
L 1722 897 
Q 1722 1384 1862 1606 
Q 2003 1828 2350 1913 
Q 2003 1991 1862 2212 
Q 1722 2434 1722 2925 
L 1722 3444 
Q 1722 3888 1589 4023 
Q 1456 4159 1019 4159 
L 800 4159 
L 800 4863 
L 1478 4863 
Q 2159 4863 2471 4589 
Q 2784 4316 2784 3713 
L 2784 3072 
Q 2784 2603 2953 2422 
Q 3122 2241 3566 2241 
L 3756 2241 
L 3756 1544 
L 3566 1544 
Q 3122 1544 2953 1361 
Q 2784 1178 2784 709 
L 2784 109 
Q 2784 -494 2471 -769 
Q 2159 -1044 1478 -1044 
L 800 -1044 
L 800 -341 
z
" transform="scale(0.015625)"/>
     </defs>
     <use xlink:href="#DejaVuSans-Bold-45"/>
     <use xlink:href="#DejaVuSans-Bold-4a" x="68.310547"/>
     <use xlink:href="#DejaVuSans-Bold-45" x="105.517578"/>
     <use xlink:href="#DejaVuSans-Bold-4d" x="173.828125"/>
     <use xlink:href="#DejaVuSans-Bold-50" x="273.339844"/>
     <use xlink:href="#DejaVuSans-Bold-4c" x="346.630859"/>
     <use xlink:href="#DejaVuSans-Bold-4f" x="406.726562"/>
     <use xlink:href="#DejaVuSans-Bold-3a" x="491.736328"/>
     <use xlink:href="#DejaVuSans-Bold-20" x="531.726562"/>
     <use xlink:href="#DejaVuSans-Bold-45" x="566.541016"/>
     <use xlink:href="#DejaVuSans-Bold-6c" x="634.851562"/>
     <use xlink:href="#DejaVuSans-Bold-65" x="669.128906"/>
     <use xlink:href="#DejaVuSans-Bold-67" x="736.951172"/>
     <use xlink:href="#DejaVuSans-Bold-69" x="808.533203"/>
     <use xlink:href="#DejaVuSans-Bold-72" x="842.810547"/>
     <use xlink:href="#DejaVuSans-Bold-20" x="892.126953"/>
     <use xlink:href="#DejaVuSans-Bold-32" x="926.941406"/>
     <use xlink:href="#DejaVuSans-Bold-20" x="996.521484"/>
     <use xlink:href="#DejaVuSans-Bold-6c" x="1031.335938"/>
     <use xlink:href="#DejaVuSans-Bold-65" x="1065.613281"/>
     <use xlink:href="#DejaVuSans-Bold-74" x="1133.435547"/>
     <use xlink:href="#DejaVuSans-Bold-72" x="1181.238281"/>
     <use xlink:href="#DejaVuSans-Bold-61" x="1230.554688"/>
     <use xlink:href="#DejaVuSans-Bold-73" x="1298.035156"/>
     <use xlink:href="#DejaVuSans-Bold-20" x="1357.556641"/>
     <use xlink:href="#DejaVuSans-Bold-64" x="1392.371094"/>
     <use xlink:href="#DejaVuSans-Bold-65" x="1463.953125"/>
     <use xlink:href="#DejaVuSans-Bold-20" x="1531.775391"/>
     <use xlink:href="#DejaVuSans-Bold-7b" x="1566.589844"/>
     <use xlink:href="#DejaVuSans-Bold-41" x="1637.78125"/>
     <use xlink:href="#DejaVuSans-Bold-2c" x="1717.048828"/>
     <use xlink:href="#DejaVuSans-Bold-20" x="1755.037109"/>
     <use xlink:href="#DejaVuSans-Bold-42" x="1789.851562"/>
     <use xlink:href="#DejaVuSans-Bold-2c" x="1866.072266"/>
     <use xlink:href="#DejaVuSans-Bold-20" x="1904.060547"/>
     <use xlink:href="#DejaVuSans-Bold-43" x="1938.875"/>
     <use xlink:href="#DejaVuSans-Bold-7d" x="2012.263672"/>
    </g>
   </g>
   <g id="text_15">
    <!-- Con orden: -->
    <g transform="translate(104.645391 344.88) scale(0.09 -0.09)">
     <defs>
      <path id="DejaVuSans-Oblique-3a" d="M 978 3309 
L 1638 3309 
L 1484 2516 
L 825 2516 
L 978 3309 
z
M 488 794 
L 1147 794 
L 991 0 
L 331 0 
L 488 794 
z
" transform="scale(0.015625)"/>
     </defs>
     <use xlink:href="#DejaVuSans-Oblique-43"/>
     <use xlink:href="#DejaVuSans-Oblique-6f" x="69.824219"/>
     <use xlink:href="#DejaVuSans-Oblique-6e" x="131.005859"/>
     <use xlink:href="#DejaVuSans-Oblique-20" x="194.384766"/>
     <use xlink:href="#DejaVuSans-Oblique-6f" x="226.171875"/>
     <use xlink:href="#DejaVuSans-Oblique-72" x="287.353516"/>
     <use xlink:href="#DejaVuSans-Oblique-64" x="328.466797"/>
     <use xlink:href="#DejaVuSans-Oblique-65" x="391.943359"/>
     <use xlink:href="#DejaVuSans-Oblique-6e" x="453.466797"/>
     <use xlink:href="#DejaVuSans-Oblique-3a" x="516.845703"/>
    </g>
   </g>
   <g id="text_16">
    <!-- AB, BA, AC, CA, -->
    <g transform="translate(93.298125 369) scale(0.08 -0.08)">
     <defs>
      <path id="DejaVuSansMono-41" d="M 1925 4109 
L 1259 1722 
L 2591 1722 
L 1925 4109 
z
M 1544 4666 
L 2309 4666 
L 3738 0 
L 3084 0 
L 2741 1216 
L 1106 1216 
L 769 0 
L 116 0 
L 1544 4666 
z
" transform="scale(0.015625)"/>
      <path id="DejaVuSansMono-42" d="M 1153 2228 
L 1153 519 
L 1900 519 
Q 2450 519 2684 711 
Q 2919 903 2919 1344 
Q 2919 1800 2672 2014 
Q 2425 2228 1900 2228 
L 1153 2228 
z
M 1153 4147 
L 1153 2741 
L 1888 2741 
Q 2344 2741 2548 2916 
Q 2753 3091 2753 3481 
Q 2753 3834 2551 3990 
Q 2350 4147 1888 4147 
L 1153 4147 
z
M 519 4666 
L 1900 4666 
Q 2616 4666 3003 4356 
Q 3391 4047 3391 3481 
Q 3391 3053 3186 2806 
Q 2981 2559 2572 2497 
Q 3031 2428 3292 2104 
Q 3553 1781 3553 1281 
Q 3553 647 3137 323 
Q 2722 0 1900 0 
L 519 0 
L 519 4666 
z
" transform="scale(0.015625)"/>
      <path id="DejaVuSansMono-2c" d="M 1569 947 
L 2356 947 
L 2356 300 
L 1741 -897 
L 1259 -897 
L 1569 300 
L 1569 947 
z
" transform="scale(0.015625)"/>
      <path id="DejaVuSansMono-20" transform="scale(0.015625)"/>
      <path id="DejaVuSansMono-43" d="M 3353 166 
Q 3113 38 2859 -26 
Q 2606 -91 2322 -91 
Q 1425 -91 929 543 
Q 434 1178 434 2328 
Q 434 3472 932 4111 
Q 1431 4750 2322 4750 
Q 2606 4750 2859 4686 
Q 3113 4622 3353 4494 
L 3353 3847 
Q 3122 4038 2856 4138 
Q 2591 4238 2322 4238 
Q 1706 4238 1400 3763 
Q 1094 3288 1094 2328 
Q 1094 1372 1400 897 
Q 1706 422 2322 422 
Q 2597 422 2861 522 
Q 3125 622 3353 813 
L 3353 166 
z
" transform="scale(0.015625)"/>
     </defs>
     <use xlink:href="#DejaVuSansMono-41"/>
     <use xlink:href="#DejaVuSansMono-42" x="60.205078"/>
     <use xlink:href="#DejaVuSansMono-2c" x="120.410156"/>
     <use xlink:href="#DejaVuSansMono-20" x="180.615234"/>
     <use xlink:href="#DejaVuSansMono-42" x="240.820312"/>
     <use xlink:href="#DejaVuSansMono-41" x="301.025391"/>
     <use xlink:href="#DejaVuSansMono-2c" x="361.230469"/>
     <use xlink:href="#DejaVuSansMono-20" x="421.435547"/>
     <use xlink:href="#DejaVuSansMono-41" x="481.640625"/>
     <use xlink:href="#DejaVuSansMono-43" x="541.845703"/>
     <use xlink:href="#DejaVuSansMono-2c" x="602.050781"/>
     <use xlink:href="#DejaVuSansMono-20" x="662.255859"/>
     <use xlink:href="#DejaVuSansMono-43" x="722.460938"/>
     <use xlink:href="#DejaVuSansMono-41" x="782.666016"/>
     <use xlink:href="#DejaVuSansMono-2c" x="842.871094"/>
    </g>
   </g>
   <g id="text_17">
    <!-- BC, CB -->
    <g transform="translate(114.97125 393.12) scale(0.08 -0.08)">
     <use xlink:href="#DejaVuSansMono-42"/>
     <use xlink:href="#DejaVuSansMono-43" x="60.205078"/>
     <use xlink:href="#DejaVuSansMono-2c" x="120.410156"/>
     <use xlink:href="#DejaVuSansMono-20" x="180.615234"/>
     <use xlink:href="#DejaVuSansMono-43" x="240.820312"/>
     <use xlink:href="#DejaVuSansMono-42" x="301.025391"/>
    </g>
   </g>
   <g id="text_18">
    <g id="patch_6">
     <path d="M 105.525 433.098 
L 153.315 433.098 
Q 156.015 433.098 156.015 430.398 
L 156.015 418.158 
Q 156.015 415.458 153.315 415.458 
L 105.525 415.458 
Q 102.825 415.458 102.825 418.158 
L 102.825 430.398 
Q 102.825 433.098 105.525 433.098 
z
" style="fill: #e3f2fd; stroke: #000000; stroke-linejoin: miter"/>
    </g>
    <!-- $V_3^2 = \frac{3!}{1!} = 6$ -->
    <g transform="translate(105.525 426.888) scale(0.09 -0.09)">
     <defs>
      <path id="DejaVuSans-32" d="M 1228 531 
L 3431 531 
L 3431 0 
L 469 0 
L 469 531 
Q 828 903 1448 1529 
Q 2069 2156 2228 2338 
Q 2531 2678 2651 2914 
Q 2772 3150 2772 3378 
Q 2772 3750 2511 3984 
Q 2250 4219 1831 4219 
Q 1534 4219 1204 4116 
Q 875 4013 500 3803 
L 500 4441 
Q 881 4594 1212 4672 
Q 1544 4750 1819 4750 
Q 2544 4750 2975 4387 
Q 3406 4025 3406 3419 
Q 3406 3131 3298 2873 
Q 3191 2616 2906 2266 
Q 2828 2175 2409 1742 
Q 1991 1309 1228 531 
z
" transform="scale(0.015625)"/>
      <path id="DejaVuSans-33" d="M 2597 2516 
Q 3050 2419 3304 2112 
Q 3559 1806 3559 1356 
Q 3559 666 3084 287 
Q 2609 -91 1734 -91 
Q 1441 -91 1130 -33 
Q 819 25 488 141 
L 488 750 
Q 750 597 1062 519 
Q 1375 441 1716 441 
Q 2309 441 2620 675 
Q 2931 909 2931 1356 
Q 2931 1769 2642 2001 
Q 2353 2234 1838 2234 
L 1294 2234 
L 1294 2753 
L 1863 2753 
Q 2328 2753 2575 2939 
Q 2822 3125 2822 3475 
Q 2822 3834 2567 4026 
Q 2313 4219 1838 4219 
Q 1578 4219 1281 4162 
Q 984 4106 628 3988 
L 628 4550 
Q 988 4650 1302 4700 
Q 1616 4750 1894 4750 
Q 2613 4750 3031 4423 
Q 3450 4097 3450 3541 
Q 3450 3153 3228 2886 
Q 3006 2619 2597 2516 
z
" transform="scale(0.015625)"/>
      <path id="DejaVuSans-31" d="M 794 531 
L 1825 531 
L 1825 4091 
L 703 3866 
L 703 4441 
L 1819 4666 
L 2450 4666 
L 2450 531 
L 3481 531 
L 3481 0 
L 794 0 
L 794 531 
z
" transform="scale(0.015625)"/>
      <path id="DejaVuSans-36" d="M 2113 2584 
Q 1688 2584 1439 2293 
Q 1191 2003 1191 1497 
Q 1191 994 1439 701 
Q 1688 409 2113 409 
Q 2538 409 2786 701 
Q 3034 994 3034 1497 
Q 3034 2003 2786 2293 
Q 2538 2584 2113 2584 
z
M 3366 4563 
L 3366 3988 
Q 3128 4100 2886 4159 
Q 2644 4219 2406 4219 
Q 1781 4219 1451 3797 
Q 1122 3375 1075 2522 
Q 1259 2794 1537 2939 
Q 1816 3084 2150 3084 
Q 2853 3084 3261 2657 
Q 3669 2231 3669 1497 
Q 3669 778 3244 343 
Q 2819 -91 2113 -91 
Q 1303 -91 875 529 
Q 447 1150 447 2328 
Q 447 3434 972 4092 
Q 1497 4750 2381 4750 
Q 2619 4750 2861 4703 
Q 3103 4656 3366 4563 
z
" transform="scale(0.015625)"/>
     </defs>
     <use xlink:href="#DejaVuSans-Oblique-56" transform="translate(0 0.254688)"/>
     <use xlink:href="#DejaVuSans-32" transform="translate(75.424974 38.535938) scale(0.7)"/>
     <use xlink:href="#DejaVuSans-33" transform="translate(68.408203 -27.089062) scale(0.7)"/>
     <use xlink:href="#DejaVuSans-3d" transform="translate(142.177904 0.254688)"/>
     <use xlink:href="#DejaVuSans-33" transform="translate(245.449388 45.046875) scale(0.7)"/>
     <use xlink:href="#DejaVuSans-21" transform="translate(289.985521 45.046875) scale(0.7)"/>
     <use xlink:href="#DejaVuSans-31" transform="translate(245.449388 -38.232812) scale(0.7)"/>
     <use xlink:href="#DejaVuSans-21" transform="translate(289.985521 -38.232812) scale(0.7)"/>
     <use xlink:href="#DejaVuSans-3d" transform="translate(363.667161 0.254688)"/>
     <use xlink:href="#DejaVuSans-36" transform="translate(466.938646 0.254688)"/>
     <path d="M 245.449388 19.051563 
L 245.449388 25.301563 
L 331.68474 25.301563 
L 331.68474 19.051563 
L 245.449388 19.051563 
z
"/>
    </g>
   </g>
   <g id="text_19">
    <!-- Sin orden: -->
    <g transform="translate(560.394141 344.88) scale(0.09 -0.09)">
     <use xlink:href="#DejaVuSans-Oblique-53"/>
     <use xlink:href="#DejaVuSans-Oblique-69" x="63.476562"/>
     <use xlink:href="#DejaVuSans-Oblique-6e" x="91.259766"/>
     <use xlink:href="#DejaVuSans-Oblique-20" x="154.638672"/>
     <use xlink:href="#DejaVuSans-Oblique-6f" x="186.425781"/>
     <use xlink:href="#DejaVuSans-Oblique-72" x="247.607422"/>
     <use xlink:href="#DejaVuSans-Oblique-64" x="288.720703"/>
     <use xlink:href="#DejaVuSans-Oblique-65" x="352.197266"/>
     <use xlink:href="#DejaVuSans-Oblique-6e" x="413.720703"/>
     <use xlink:href="#DejaVuSans-Oblique-3a" x="477.099609"/>
    </g>
   </g>
   <g id="text_20">
    <!-- {A,B}, {A,C}, -->
    <g transform="translate(552.074375 369) scale(0.08 -0.08)">
     <defs>
      <path id="DejaVuSansMono-7b" d="M 3163 -594 
L 3163 -1044 
L 2963 -1044 
Q 2184 -1044 1920 -812 
Q 1656 -581 1656 109 
L 1656 856 
Q 1656 1328 1489 1509 
Q 1322 1691 884 1691 
L 691 1691 
L 691 2138 
L 884 2138 
Q 1325 2138 1490 2316 
Q 1656 2494 1656 2963 
L 1656 3713 
Q 1656 4403 1920 4633 
Q 2184 4863 2963 4863 
L 3163 4863 
L 3163 4416 
L 2944 4416 
Q 2506 4416 2373 4280 
Q 2241 4144 2241 3700 
L 2241 2925 
Q 2241 2434 2098 2212 
Q 1956 1991 1613 1913 
Q 1959 1828 2100 1606 
Q 2241 1384 2241 897 
L 2241 122 
Q 2241 -325 2373 -459 
Q 2506 -594 2944 -594 
L 3163 -594 
z
" transform="scale(0.015625)"/>
      <path id="DejaVuSansMono-7d" d="M 691 -594 
L 903 -594 
Q 1344 -594 1478 -456 
Q 1613 -319 1613 122 
L 1613 897 
Q 1613 1384 1753 1606 
Q 1894 1828 2241 1913 
Q 1897 1991 1755 2212 
Q 1613 2434 1613 2925 
L 1613 3700 
Q 1613 4141 1478 4278 
Q 1344 4416 903 4416 
L 691 4416 
L 691 4863 
L 884 4863 
Q 1663 4863 1925 4633 
Q 2188 4403 2188 3713 
L 2188 2963 
Q 2188 2494 2355 2316 
Q 2522 2138 2963 2138 
L 3163 2138 
L 3163 1691 
L 2963 1691 
Q 2522 1691 2355 1509 
Q 2188 1328 2188 856 
L 2188 109 
Q 2188 -581 1925 -812 
Q 1663 -1044 884 -1044 
L 691 -1044 
L 691 -594 
z
" transform="scale(0.015625)"/>
     </defs>
     <use xlink:href="#DejaVuSansMono-7b"/>
     <use xlink:href="#DejaVuSansMono-41" x="60.205078"/>
     <use xlink:href="#DejaVuSansMono-2c" x="120.410156"/>
     <use xlink:href="#DejaVuSansMono-42" x="180.615234"/>
     <use xlink:href="#DejaVuSansMono-7d" x="240.820312"/>
     <use xlink:href="#DejaVuSansMono-2c" x="301.025391"/>
     <use xlink:href="#DejaVuSansMono-20" x="361.230469"/>
     <use xlink:href="#DejaVuSansMono-7b" x="421.435547"/>
     <use xlink:href="#DejaVuSansMono-41" x="481.640625"/>
     <use xlink:href="#DejaVuSansMono-2c" x="541.845703"/>
     <use xlink:href="#DejaVuSansMono-43" x="602.050781"/>
     <use xlink:href="#DejaVuSansMono-7d" x="662.255859"/>
     <use xlink:href="#DejaVuSansMono-2c" x="722.460938"/>
    </g>
   </g>
   <g id="text_21">
    <!-- {B,C} -->
    <g transform="translate(571.339375 393.12) scale(0.08 -0.08)">
     <use xlink:href="#DejaVuSansMono-7b"/>
     <use xlink:href="#DejaVuSansMono-42" x="60.205078"/>
     <use xlink:href="#DejaVuSansMono-2c" x="120.410156"/>
     <use xlink:href="#DejaVuSansMono-43" x="180.615234"/>
     <use xlink:href="#DejaVuSansMono-7d" x="240.820312"/>
    </g>
   </g>
   <g id="text_22">
    <g id="patch_7">
     <path d="M 556.83 433.188 
L 609.93 433.188 
Q 612.63 433.188 612.63 430.488 
L 612.63 418.698 
Q 612.63 415.998 609.93 415.998 
L 556.83 415.998 
Q 554.13 415.998 554.13 418.698 
L 554.13 430.488 
Q 554.13 433.188 556.83 433.188 
z
" style="fill: #fff3e0; stroke: #000000; stroke-linejoin: miter"/>
    </g>
    <!-- $C_3^2 = \binom{3}{2} = 3$ -->
    <g transform="translate(556.83 426.888) scale(0.09 -0.09)">
     <use xlink:href="#DejaVuSans-Oblique-43" transform="translate(0 0.015625)"/>
     <use xlink:href="#DejaVuSans-32" transform="translate(77.02474 38.296875) scale(0.7)"/>
     <use xlink:href="#DejaVuSans-33" transform="translate(69.824219 -27.328125) scale(0.7)"/>
     <use xlink:href="#DejaVuSans-3d" transform="translate(143.777669 0.015625)"/>
     <use xlink:href="#STIXSizeOneSym-Regular-28" transform="translate(247.049154 -22) scale(1.05611)"/>
     <use xlink:href="#DejaVuSans-33" transform="translate(296.481649 38.557813) scale(0.7)"/>
     <use xlink:href="#DejaVuSans-32" transform="translate(296.481649 -39.390625) scale(0.7)"/>
     <use xlink:href="#STIXSizeOneSym-Regular-29" transform="translate(353.517782 -22) scale(1.05611)"/>
     <use xlink:href="#DejaVuSans-3d" transform="translate(422.432699 0.015625)"/>
     <use xlink:href="#DejaVuSans-33" transform="translate(525.704183 0.015625)"/>
    </g>
   </g>
   <g id="text_23">
    <g id="patch_8">
     <path d="M 170.094531 470.837812 
L 542.705469 470.837812 
Q 545.705469 470.837812 545.705469 467.837812 
L 545.705469 456.228437 
Q 545.705469 453.228437 542.705469 453.228437 
L 170.094531 453.228437 
Q 167.094531 453.228437 167.094531 456.228437 
L 167.094531 467.837812 
Q 167.094531 470.837812 170.094531 470.837812 
z
" style="fill: #ffcccc; stroke: #ff0000; stroke-width: 2; stroke-linejoin: miter"/>
    </g>
    <!-- 💡 Pregunta clave: ¿Importa el orden? SÍ→Variaciones | NO→Combinaciones -->
    <g transform="translate(170.094531 465.48) scale(0.1 -0.1)">
     <defs>
      <path id="DejaVuSans-1f4a1" d="M 319 -1131 
L 319 4513 
L 3519 4513 
L 3519 -1131 
L 319 -1131 
z
M 678 -775 
L 3163 -775 
L 3163 4153 
L 678 4153 
L 678 -775 
z
" transform="scale(0.015625)"/>
      <path id="DejaVuSans-20" transform="scale(0.015625)"/>
      <path id="DejaVuSans-50" d="M 1259 4147 
L 1259 2394 
L 2053 2394 
Q 2494 2394 2734 2622 
Q 2975 2850 2975 3272 
Q 2975 3691 2734 3919 
Q 2494 4147 2053 4147 
L 1259 4147 
z
M 628 4666 
L 2053 4666 
Q 2838 4666 3239 4311 
Q 3641 3956 3641 3272 
Q 3641 2581 3239 2228 
Q 2838 1875 2053 1875 
L 1259 1875 
L 1259 0 
L 628 0 
L 628 4666 
z
" transform="scale(0.015625)"/>
      <path id="DejaVuSans-72" d="M 2631 2963 
Q 2534 3019 2420 3045 
Q 2306 3072 2169 3072 
Q 1681 3072 1420 2755 
Q 1159 2438 1159 1844 
L 1159 0 
L 581 0 
L 581 3500 
L 1159 3500 
L 1159 2956 
Q 1341 3275 1631 3429 
Q 1922 3584 2338 3584 
Q 2397 3584 2469 3576 
Q 2541 3569 2628 3553 
L 2631 2963 
z
" transform="scale(0.015625)"/>
      <path id="DejaVuSans-65" d="M 3597 1894 
L 3597 1613 
L 953 1613 
Q 991 1019 1311 708 
Q 1631 397 2203 397 
Q 2534 397 2845 478 
Q 3156 559 3463 722 
L 3463 178 
Q 3153 47 2828 -22 
Q 2503 -91 2169 -91 
Q 1331 -91 842 396 
Q 353 884 353 1716 
Q 353 2575 817 3079 
Q 1281 3584 2069 3584 
Q 2775 3584 3186 3129 
Q 3597 2675 3597 1894 
z
M 3022 2063 
Q 3016 2534 2758 2815 
Q 2500 3097 2075 3097 
Q 1594 3097 1305 2825 
Q 1016 2553 972 2059 
L 3022 2063 
z
" transform="scale(0.015625)"/>
      <path id="DejaVuSans-67" d="M 2906 1791 
Q 2906 2416 2648 2759 
Q 2391 3103 1925 3103 
Q 1463 3103 1205 2759 
Q 947 2416 947 1791 
Q 947 1169 1205 825 
Q 1463 481 1925 481 
Q 2391 481 2648 825 
Q 2906 1169 2906 1791 
z
M 3481 434 
Q 3481 -459 3084 -895 
Q 2688 -1331 1869 -1331 
Q 1566 -1331 1297 -1286 
Q 1028 -1241 775 -1147 
L 775 -588 
Q 1028 -725 1275 -790 
Q 1522 -856 1778 -856 
Q 2344 -856 2625 -561 
Q 2906 -266 2906 331 
L 2906 616 
Q 2728 306 2450 153 
Q 2172 0 1784 0 
Q 1141 0 747 490 
Q 353 981 353 1791 
Q 353 2603 747 3093 
Q 1141 3584 1784 3584 
Q 2172 3584 2450 3431 
Q 2728 3278 2906 2969 
L 2906 3500 
L 3481 3500 
L 3481 434 
z
" transform="scale(0.015625)"/>
      <path id="DejaVuSans-75" d="M 544 1381 
L 544 3500 
L 1119 3500 
L 1119 1403 
Q 1119 906 1312 657 
Q 1506 409 1894 409 
Q 2359 409 2629 706 
Q 2900 1003 2900 1516 
L 2900 3500 
L 3475 3500 
L 3475 0 
L 2900 0 
L 2900 538 
Q 2691 219 2414 64 
Q 2138 -91 1772 -91 
Q 1169 -91 856 284 
Q 544 659 544 1381 
z
M 1991 3584 
L 1991 3584 
z
" transform="scale(0.015625)"/>
      <path id="DejaVuSans-6e" d="M 3513 2113 
L 3513 0 
L 2938 0 
L 2938 2094 
Q 2938 2591 2744 2837 
Q 2550 3084 2163 3084 
Q 1697 3084 1428 2787 
Q 1159 2491 1159 1978 
L 1159 0 
L 581 0 
L 581 3500 
L 1159 3500 
L 1159 2956 
Q 1366 3272 1645 3428 
Q 1925 3584 2291 3584 
Q 2894 3584 3203 3211 
Q 3513 2838 3513 2113 
z
" transform="scale(0.015625)"/>
      <path id="DejaVuSans-74" d="M 1172 4494 
L 1172 3500 
L 2356 3500 
L 2356 3053 
L 1172 3053 
L 1172 1153 
Q 1172 725 1289 603 
Q 1406 481 1766 481 
L 2356 481 
L 2356 0 
L 1766 0 
Q 1100 0 847 248 
Q 594 497 594 1153 
L 594 3053 
L 172 3053 
L 172 3500 
L 594 3500 
L 594 4494 
L 1172 4494 
z
" transform="scale(0.015625)"/>
      <path id="DejaVuSans-61" d="M 2194 1759 
Q 1497 1759 1228 1600 
Q 959 1441 959 1056 
Q 959 750 1161 570 
Q 1363 391 1709 391 
Q 2188 391 2477 730 
Q 2766 1069 2766 1631 
L 2766 1759 
L 2194 1759 
z
M 3341 1997 
L 3341 0 
L 2766 0 
L 2766 531 
Q 2569 213 2275 61 
Q 1981 -91 1556 -91 
Q 1019 -91 701 211 
Q 384 513 384 1019 
Q 384 1609 779 1909 
Q 1175 2209 1959 2209 
L 2766 2209 
L 2766 2266 
Q 2766 2663 2505 2880 
Q 2244 3097 1772 3097 
Q 1472 3097 1187 3025 
Q 903 2953 641 2809 
L 641 3341 
Q 956 3463 1253 3523 
Q 1550 3584 1831 3584 
Q 2591 3584 2966 3190 
Q 3341 2797 3341 1997 
z
" transform="scale(0.015625)"/>
      <path id="DejaVuSans-63" d="M 3122 3366 
L 3122 2828 
Q 2878 2963 2633 3030 
Q 2388 3097 2138 3097 
Q 1578 3097 1268 2742 
Q 959 2388 959 1747 
Q 959 1106 1268 751 
Q 1578 397 2138 397 
Q 2388 397 2633 464 
Q 2878 531 3122 666 
L 3122 134 
Q 2881 22 2623 -34 
Q 2366 -91 2075 -91 
Q 1284 -91 818 406 
Q 353 903 353 1747 
Q 353 2603 823 3093 
Q 1294 3584 2113 3584 
Q 2378 3584 2631 3529 
Q 2884 3475 3122 3366 
z
" transform="scale(0.015625)"/>
      <path id="DejaVuSans-6c" d="M 603 4863 
L 1178 4863 
L 1178 0 
L 603 0 
L 603 4863 
z
" transform="scale(0.015625)"/>
      <path id="DejaVuSans-76" d="M 191 3500 
L 800 3500 
L 1894 563 
L 2988 3500 
L 3597 3500 
L 2284 0 
L 1503 0 
L 191 3500 
z
" transform="scale(0.015625)"/>
      <path id="DejaVuSans-3a" d="M 750 794 
L 1409 794 
L 1409 0 
L 750 0 
L 750 794 
z
M 750 3309 
L 1409 3309 
L 1409 2516 
L 750 2516 
L 750 3309 
z
" transform="scale(0.015625)"/>
      <path id="DejaVuSans-bf" d="M 1563 2247 
L 2156 2247 
L 2156 1759 
Q 2156 1444 2070 1241 
Q 1984 1038 1703 766 
L 1422 491 
Q 1241 325 1161 178 
Q 1081 31 1081 -122 
Q 1081 -400 1286 -572 
Q 1491 -744 1831 -744 
Q 2075 -744 2356 -634 
Q 2638 -525 2938 -316 
L 2938 -903 
Q 2644 -1081 2344 -1168 
Q 2044 -1256 1722 -1256 
Q 1147 -1256 797 -953 
Q 447 -650 447 -153 
Q 447 84 561 298 
Q 675 513 953 781 
L 1228 1050 
Q 1378 1197 1437 1280 
Q 1497 1363 1522 1441 
Q 1544 1506 1553 1600 
Q 1563 1694 1563 1863 
L 1563 2247 
z
M 2175 2706 
L 1544 2706 
L 1544 3500 
L 2175 3500 
L 2175 2706 
z
" transform="scale(0.015625)"/>
      <path id="DejaVuSans-49" d="M 628 4666 
L 1259 4666 
L 1259 0 
L 628 0 
L 628 4666 
z
" transform="scale(0.015625)"/>
      <path id="DejaVuSans-6d" d="M 3328 2828 
Q 3544 3216 3844 3400 
Q 4144 3584 4550 3584 
Q 5097 3584 5394 3201 
Q 5691 2819 5691 2113 
L 5691 0 
L 5113 0 
L 5113 2094 
Q 5113 2597 4934 2840 
Q 4756 3084 4391 3084 
Q 3944 3084 3684 2787 
Q 3425 2491 3425 1978 
L 3425 0 
L 2847 0 
L 2847 2094 
Q 2847 2600 2669 2842 
Q 2491 3084 2119 3084 
Q 1678 3084 1418 2786 
Q 1159 2488 1159 1978 
L 1159 0 
L 581 0 
L 581 3500 
L 1159 3500 
L 1159 2956 
Q 1356 3278 1631 3431 
Q 1906 3584 2284 3584 
Q 2666 3584 2933 3390 
Q 3200 3197 3328 2828 
z
" transform="scale(0.015625)"/>
      <path id="DejaVuSans-70" d="M 1159 525 
L 1159 -1331 
L 581 -1331 
L 581 3500 
L 1159 3500 
L 1159 2969 
Q 1341 3281 1617 3432 
Q 1894 3584 2278 3584 
Q 2916 3584 3314 3078 
Q 3713 2572 3713 1747 
Q 3713 922 3314 415 
Q 2916 -91 2278 -91 
Q 1894 -91 1617 61 
Q 1341 213 1159 525 
z
M 3116 1747 
Q 3116 2381 2855 2742 
Q 2594 3103 2138 3103 
Q 1681 3103 1420 2742 
Q 1159 2381 1159 1747 
Q 1159 1113 1420 752 
Q 1681 391 2138 391 
Q 2594 391 2855 752 
Q 3116 1113 3116 1747 
z
" transform="scale(0.015625)"/>
      <path id="DejaVuSans-6f" d="M 1959 3097 
Q 1497 3097 1228 2736 
Q 959 2375 959 1747 
Q 959 1119 1226 758 
Q 1494 397 1959 397 
Q 2419 397 2687 759 
Q 2956 1122 2956 1747 
Q 2956 2369 2687 2733 
Q 2419 3097 1959 3097 
z
M 1959 3584 
Q 2709 3584 3137 3096 
Q 3566 2609 3566 1747 
Q 3566 888 3137 398 
Q 2709 -91 1959 -91 
Q 1206 -91 779 398 
Q 353 888 353 1747 
Q 353 2609 779 3096 
Q 1206 3584 1959 3584 
z
" transform="scale(0.015625)"/>
      <path id="DejaVuSans-64" d="M 2906 2969 
L 2906 4863 
L 3481 4863 
L 3481 0 
L 2906 0 
L 2906 525 
Q 2725 213 2448 61 
Q 2172 -91 1784 -91 
Q 1150 -91 751 415 
Q 353 922 353 1747 
Q 353 2572 751 3078 
Q 1150 3584 1784 3584 
Q 2172 3584 2448 3432 
Q 2725 3281 2906 2969 
z
M 947 1747 
Q 947 1113 1208 752 
Q 1469 391 1925 391 
Q 2381 391 2643 752 
Q 2906 1113 2906 1747 
Q 2906 2381 2643 2742 
Q 2381 3103 1925 3103 
Q 1469 3103 1208 2742 
Q 947 2381 947 1747 
z
" transform="scale(0.015625)"/>
      <path id="DejaVuSans-3f" d="M 1222 794 
L 1856 794 
L 1856 0 
L 1222 0 
L 1222 794 
z
M 1838 1253 
L 1241 1253 
L 1241 1734 
Q 1241 2050 1328 2253 
Q 1416 2456 1697 2725 
L 1978 3003 
Q 2156 3169 2236 3316 
Q 2316 3463 2316 3616 
Q 2316 3894 2111 4066 
Q 1906 4238 1569 4238 
Q 1322 4238 1042 4128 
Q 763 4019 459 3809 
L 459 4397 
Q 753 4575 1054 4662 
Q 1356 4750 1678 4750 
Q 2253 4750 2601 4447 
Q 2950 4144 2950 3647 
Q 2950 3409 2837 3195 
Q 2725 2981 2444 2713 
L 2169 2444 
Q 2022 2297 1961 2214 
Q 1900 2131 1875 2053 
Q 1856 1988 1847 1894 
Q 1838 1800 1838 1638 
L 1838 1253 
z
" transform="scale(0.015625)"/>
      <path id="DejaVuSans-53" d="M 3425 4513 
L 3425 3897 
Q 3066 4069 2747 4153 
Q 2428 4238 2131 4238 
Q 1616 4238 1336 4038 
Q 1056 3838 1056 3469 
Q 1056 3159 1242 3001 
Q 1428 2844 1947 2747 
L 2328 2669 
Q 3034 2534 3370 2195 
Q 3706 1856 3706 1288 
Q 3706 609 3251 259 
Q 2797 -91 1919 -91 
Q 1588 -91 1214 -16 
Q 841 59 441 206 
L 441 856 
Q 825 641 1194 531 
Q 1563 422 1919 422 
Q 2459 422 2753 634 
Q 3047 847 3047 1241 
Q 3047 1584 2836 1778 
Q 2625 1972 2144 2069 
L 1759 2144 
Q 1053 2284 737 2584 
Q 422 2884 422 3419 
Q 422 4038 858 4394 
Q 1294 4750 2059 4750 
Q 2388 4750 2728 4690 
Q 3069 4631 3425 4513 
z
" transform="scale(0.015625)"/>
      <path id="DejaVuSans-cd" d="M 628 4666 
L 1259 4666 
L 1259 0 
L 628 0 
L 628 4666 
z
M 1116 5921 
L 1694 5921 
L 982 5096 
L 503 5096 
L 1116 5921 
z
" transform="scale(0.015625)"/>
      <path id="DejaVuSans-2192" d="M 5050 2147 
L 5050 1866 
L 3822 638 
L 3447 1013 
L 4175 1741 
L 366 1741 
L 366 2272 
L 4175 2272 
L 3447 3000 
L 3822 3375 
L 5050 2147 
z
" transform="scale(0.015625)"/>
      <path id="DejaVuSans-56" d="M 1831 0 
L 50 4666 
L 709 4666 
L 2188 738 
L 3669 4666 
L 4325 4666 
L 2547 0 
L 1831 0 
z
" transform="scale(0.015625)"/>
      <path id="DejaVuSans-69" d="M 603 3500 
L 1178 3500 
L 1178 0 
L 603 0 
L 603 3500 
z
M 603 4863 
L 1178 4863 
L 1178 4134 
L 603 4134 
L 603 4863 
z
" transform="scale(0.015625)"/>
      <path id="DejaVuSans-73" d="M 2834 3397 
L 2834 2853 
Q 2591 2978 2328 3040 
Q 2066 3103 1784 3103 
Q 1356 3103 1142 2972 
Q 928 2841 928 2578 
Q 928 2378 1081 2264 
Q 1234 2150 1697 2047 
L 1894 2003 
Q 2506 1872 2764 1633 
Q 3022 1394 3022 966 
Q 3022 478 2636 193 
Q 2250 -91 1575 -91 
Q 1294 -91 989 -36 
Q 684 19 347 128 
L 347 722 
Q 666 556 975 473 
Q 1284 391 1588 391 
Q 1994 391 2212 530 
Q 2431 669 2431 922 
Q 2431 1156 2273 1281 
Q 2116 1406 1581 1522 
L 1381 1569 
Q 847 1681 609 1914 
Q 372 2147 372 2553 
Q 372 3047 722 3315 
Q 1072 3584 1716 3584 
Q 2034 3584 2315 3537 
Q 2597 3491 2834 3397 
z
" transform="scale(0.015625)"/>
      <path id="DejaVuSans-7c" d="M 1344 4891 
L 1344 -1509 
L 813 -1509 
L 813 4891 
L 1344 4891 
z
" transform="scale(0.015625)"/>
      <path id="DejaVuSans-4e" d="M 628 4666 
L 1478 4666 
L 3547 763 
L 3547 4666 
L 4159 4666 
L 4159 0 
L 3309 0 
L 1241 3903 
L 1241 0 
L 628 0 
L 628 4666 
z
" transform="scale(0.015625)"/>
      <path id="DejaVuSans-4f" d="M 2522 4238 
Q 1834 4238 1429 3725 
Q 1025 3213 1025 2328 
Q 1025 1447 1429 934 
Q 1834 422 2522 422 
Q 3209 422 3611 934 
Q 4013 1447 4013 2328 
Q 4013 3213 3611 3725 
Q 3209 4238 2522 4238 
z
M 2522 4750 
Q 3503 4750 4090 4092 
Q 4678 3434 4678 2328 
Q 4678 1225 4090 567 
Q 3503 -91 2522 -91 
Q 1538 -91 948 565 
Q 359 1222 359 2328 
Q 359 3434 948 4092 
Q 1538 4750 2522 4750 
z
" transform="scale(0.015625)"/>
      <path id="DejaVuSans-43" d="M 4122 4306 
L 4122 3641 
Q 3803 3938 3442 4084 
Q 3081 4231 2675 4231 
Q 1875 4231 1450 3742 
Q 1025 3253 1025 2328 
Q 1025 1406 1450 917 
Q 1875 428 2675 428 
Q 3081 428 3442 575 
Q 3803 722 4122 1019 
L 4122 359 
Q 3791 134 3420 21 
Q 3050 -91 2638 -91 
Q 1578 -91 968 557 
Q 359 1206 359 2328 
Q 359 3453 968 4101 
Q 1578 4750 2638 4750 
Q 3056 4750 3426 4639 
Q 3797 4528 4122 4306 
z
" transform="scale(0.015625)"/>
      <path id="DejaVuSans-62" d="M 3116 1747 
Q 3116 2381 2855 2742 
Q 2594 3103 2138 3103 
Q 1681 3103 1420 2742 
Q 1159 2381 1159 1747 
Q 1159 1113 1420 752 
Q 1681 391 2138 391 
Q 2594 391 2855 752 
Q 3116 1113 3116 1747 
z
M 1159 2969 
Q 1341 3281 1617 3432 
Q 1894 3584 2278 3584 
Q 2916 3584 3314 3078 
Q 3713 2572 3713 1747 
Q 3713 922 3314 415 
Q 2916 -91 2278 -91 
Q 1894 -91 1617 61 
Q 1341 213 1159 525 
L 1159 0 
L 581 0 
L 581 4863 
L 1159 4863 
L 1159 2969 
z
" transform="scale(0.015625)"/>
     </defs>
     <use xlink:href="#DejaVuSans-1f4a1"/>
     <use xlink:href="#DejaVuSans-20" x="60.009766"/>
     <use xlink:href="#DejaVuSans-50" x="91.796875"/>
     <use xlink:href="#DejaVuSans-72" x="150.349609"/>
     <use xlink:href="#DejaVuSans-65" x="189.212891"/>
     <use xlink:href="#DejaVuSans-67" x="250.736328"/>
     <use xlink:href="#DejaVuSans-75" x="314.212891"/>
     <use xlink:href="#DejaVuSans-6e" x="377.591797"/>
     <use xlink:href="#DejaVuSans-74" x="440.970703"/>
     <use xlink:href="#DejaVuSans-61" x="480.179688"/>
     <use xlink:href="#DejaVuSans-20" x="541.458984"/>
     <use xlink:href="#DejaVuSans-63" x="573.246094"/>
     <use xlink:href="#DejaVuSans-6c" x="628.226562"/>
     <use xlink:href="#DejaVuSans-61" x="656.009766"/>
     <use xlink:href="#DejaVuSans-76" x="717.289062"/>
     <use xlink:href="#DejaVuSans-65" x="776.46875"/>
     <use xlink:href="#DejaVuSans-3a" x="837.992188"/>
     <use xlink:href="#DejaVuSans-20" x="871.683594"/>
     <use xlink:href="#DejaVuSans-bf" x="903.470703"/>
     <use xlink:href="#DejaVuSans-49" x="956.546875"/>
     <use xlink:href="#DejaVuSans-6d" x="986.039062"/>
     <use xlink:href="#DejaVuSans-70" x="1083.451172"/>
     <use xlink:href="#DejaVuSans-6f" x="1146.927734"/>
     <use xlink:href="#DejaVuSans-72" x="1208.109375"/>
     <use xlink:href="#DejaVuSans-74" x="1249.222656"/>
     <use xlink:href="#DejaVuSans-61" x="1288.431641"/>
     <use xlink:href="#DejaVuSans-20" x="1349.710938"/>
     <use xlink:href="#DejaVuSans-65" x="1381.498047"/>
     <use xlink:href="#DejaVuSans-6c" x="1443.021484"/>
     <use xlink:href="#DejaVuSans-20" x="1470.804688"/>
     <use xlink:href="#DejaVuSans-6f" x="1502.591797"/>
     <use xlink:href="#DejaVuSans-72" x="1563.773438"/>
     <use xlink:href="#DejaVuSans-64" x="1603.136719"/>
     <use xlink:href="#DejaVuSans-65" x="1666.613281"/>
     <use xlink:href="#DejaVuSans-6e" x="1728.136719"/>
     <use xlink:href="#DejaVuSans-3f" x="1791.515625"/>
     <use xlink:href="#DejaVuSans-20" x="1844.591797"/>
     <use xlink:href="#DejaVuSans-53" x="1876.378906"/>
     <use xlink:href="#DejaVuSans-cd" x="1939.855469"/>
     <use xlink:href="#DejaVuSans-2192" x="1969.347656"/>
     <use xlink:href="#DejaVuSans-56" x="2053.136719"/>
     <use xlink:href="#DejaVuSans-61" x="2113.794922"/>
     <use xlink:href="#DejaVuSans-72" x="2175.074219"/>
     <use xlink:href="#DejaVuSans-69" x="2216.1875"/>
     <use xlink:href="#DejaVuSans-61" x="2243.970703"/>
     <use xlink:href="#DejaVuSans-63" x="2305.25"/>
     <use xlink:href="#DejaVuSans-69" x="2360.230469"/>
     <use xlink:href="#DejaVuSans-6f" x="2388.013672"/>
     <use xlink:href="#DejaVuSans-6e" x="2449.195312"/>
     <use xlink:href="#DejaVuSans-65" x="2512.574219"/>
     <use xlink:href="#DejaVuSans-73" x="2574.097656"/>
     <use xlink:href="#DejaVuSans-20" x="2626.197266"/>
     <use xlink:href="#DejaVuSans-7c" x="2657.984375"/>
     <use xlink:href="#DejaVuSans-20" x="2691.675781"/>
     <use xlink:href="#DejaVuSans-4e" x="2723.462891"/>
     <use xlink:href="#DejaVuSans-4f" x="2798.267578"/>
     <use xlink:href="#DejaVuSans-2192" x="2876.978516"/>
     <use xlink:href="#DejaVuSans-43" x="2960.767578"/>
     <use xlink:href="#DejaVuSans-6f" x="3030.591797"/>
     <use xlink:href="#DejaVuSans-6d" x="3091.773438"/>
     <use xlink:href="#DejaVuSans-62" x="3189.185547"/>
     <use xlink:href="#DejaVuSans-69" x="3252.662109"/>
     <use xlink:href="#DejaVuSans-6e" x="3280.445312"/>
     <use xlink:href="#DejaVuSans-61" x="3343.824219"/>
     <use xlink:href="#DejaVuSans-63" x="3405.103516"/>
     <use xlink:href="#DejaVuSans-69" x="3460.083984"/>
     <use xlink:href="#DejaVuSans-6f" x="3487.867188"/>
     <use xlink:href="#DejaVuSans-6e" x="3549.048828"/>
     <use xlink:href="#DejaVuSans-65" x="3612.427734"/>
     <use xlink:href="#DejaVuSans-73" x="3673.951172"/>
    </g>
   </g>
  </g>
 </g>
 <defs>
  <clipPath id="p8ded4cc3b4">
   <rect x="7.2" y="7.2" width="698.4" height="482.4"/>
  </clipPath>
 </defs>
</svg>
