<?xml version="1.0" encoding="utf-8" standalone="no"?>
<!DOCTYPE svg PUBLIC "-//W3C//DTD SVG 1.1//EN"
  "http://www.w3.org/Graphics/SVG/1.1/DTD/svg11.dtd">
<svg xmlns:xlink="http://www.w3.org/1999/xlink" width="712.8pt" height="568.8pt" viewBox="0 0 712.8 568.8" xmlns="http://www.w3.org/2000/svg" version="1.1">
 <metadata>
  <rdf:RDF xmlns:dc="http://purl.org/dc/elements/1.1/" xmlns:cc="http://creativecommons.org/ns#" xmlns:rdf="http://www.w3.org/1999/02/22-rdf-syntax-ns#">
   <cc:Work>
    <dc:type rdf:resource="http://purl.org/dc/dcmitype/StillImage"/>
    <dc:date>2026-04-19T20:13:42.328612</dc:date>
    <dc:format>image/svg+xml</dc:format>
    <dc:creator>
     <cc:Agent>
      <dc:title>Matplotlib v3.9.4, https://matplotlib.org/</dc:title>
     </cc:Agent>
    </dc:creator>
   </cc:Work>
  </rdf:RDF>
 </metadata>
 <defs>
  <style type="text/css">*{stroke-linejoin: round; stroke-linecap: butt}</style>
 </defs>
 <g id="figure_1">
  <g id="patch_1">
   <path d="M 0 568.8 
L 712.8 568.8 
L 712.8 0 
L 0 0 
z
" style="fill: #ffffff"/>
  </g>
  <g id="axes_1">
   <g id="line2d_1">
    <defs>
     <path id="ma63b4ff3f5" d="M 0 7.5 
C 1.989023 7.5 3.896849 6.709753 5.303301 5.303301 
C 6.709753 3.896849 7.5 1.989023 7.5 0 
C 7.5 -1.989023 6.709753 -3.896849 5.303301 -5.303301 
C 3.896849 -6.709753 1.989023 -7.5 0 -7.5 
C -1.989023 -7.5 -3.896849 -6.709753 -5.303301 -5.303301 
C -6.709753 -3.896849 -7.5 -1.989023 -7.5 0 
C -7.5 1.989023 -6.709753 3.896849 -5.303301 5.303301 
C -3.896849 6.709753 -1.989023 7.5 0 7.5 
z
" style="stroke: #000000"/>
    </defs>
    <g clip-path="url(#paba282b8b5)">
     <use xlink:href="#ma63b4ff3f5" x="77.04" y="284.4" style="stroke: #000000"/>
    </g>
   </g>
   <g id="line2d_2">
    <path d="M 77.04 284.4 
L 251.64 173.52 
" clip-path="url(#paba282b8b5)" style="fill: none; stroke: #0000ff; stroke-width: 2; stroke-linecap: square"/>
   </g>
   <g id="line2d_3">
    <path d="M 77.04 284.4 
L 251.64 395.28 
" clip-path="url(#paba282b8b5)" style="fill: none; stroke: #0000ff; stroke-width: 2; stroke-linecap: square"/>
   </g>
   <g id="line2d_4">
    <defs>
     <path id="ma4394316ea" d="M 0 6 
C 1.591219 6 3.117479 5.367802 4.242641 4.242641 
C 5.367802 3.117479 6 1.591219 6 0 
C 6 -1.591219 5.367802 -3.117479 4.242641 -4.242641 
C 3.117479 -5.367802 1.591219 -6 0 -6 
C -1.591219 -6 -3.117479 -5.367802 -4.242641 -4.242641 
C -5.367802 -3.117479 -6 -1.591219 -6 0 
C -6 1.591219 -5.367802 3.117479 -4.242641 4.242641 
C -3.117479 5.367802 -1.591219 6 0 6 
z
" style="stroke: #ff0000"/>
    </defs>
    <g clip-path="url(#paba282b8b5)">
     <use xlink:href="#ma4394316ea" x="251.64" y="173.52" style="fill: #ff0000; stroke: #ff0000"/>
    </g>
   </g>
   <g id="line2d_5">
    <defs>
     <path id="m9961521bc5" d="M 0 6 
C 1.591219 6 3.117479 5.367802 4.242641 4.242641 
C 5.367802 3.117479 6 1.591219 6 0 
C 6 -1.591219 5.367802 -3.117479 4.242641 -4.242641 
C 3.117479 -5.367802 1.591219 -6 0 -6 
C -1.591219 -6 -3.117479 -5.367802 -4.242641 -4.242641 
C -5.367802 -3.117479 -6 -1.591219 -6 0 
C -6 1.591219 -5.367802 3.117479 -4.242641 4.242641 
C -3.117479 5.367802 -1.591219 6 0 6 
z
" style="stroke: #008000"/>
    </defs>
    <g clip-path="url(#paba282b8b5)">
     <use xlink:href="#m9961521bc5" x="251.64" y="395.28" style="fill: #008000; stroke: #008000"/>
    </g>
   </g>
   <g id="line2d_6">
    <path d="M 251.64 173.52 
L 461.16 118.08 
" clip-path="url(#paba282b8b5)" style="fill: none; stroke: #ff0000; stroke-width: 1.5; stroke-linecap: square"/>
   </g>
   <g id="line2d_7">
    <path d="M 251.64 173.52 
L 461.16 228.96 
" clip-path="url(#paba282b8b5)" style="fill: none; stroke-dasharray: 5.55,2.4; stroke-dashoffset: 0; stroke: #ff0000; stroke-width: 1.5"/>
   </g>
   <g id="line2d_8">
    <defs>
     <path id="m94be25d47e" d="M 0 5 
C 1.326016 5 2.597899 4.473168 3.535534 3.535534 
C 4.473168 2.597899 5 1.326016 5 0 
C 5 -1.326016 4.473168 -2.597899 3.535534 -3.535534 
C 2.597899 -4.473168 1.326016 -5 0 -5 
C -1.326016 -5 -2.597899 -4.473168 -3.535534 -3.535534 
C -4.473168 -2.597899 -5 -1.326016 -5 0 
C -5 1.326016 -4.473168 2.597899 -3.535534 3.535534 
C -2.597899 4.473168 -1.326016 5 0 5 
z
" style="stroke: #ffa500"/>
    </defs>
    <g clip-path="url(#paba282b8b5)">
     <use xlink:href="#m94be25d47e" x="461.16" y="118.08" style="fill: #ffa500; stroke: #ffa500"/>
    </g>
   </g>
   <g id="line2d_9">
    <defs>
     <path id="md4f6fb3176" d="M 0 5 
C 1.326016 5 2.597899 4.473168 3.535534 3.535534 
C 4.473168 2.597899 5 1.326016 5 0 
C 5 -1.326016 4.473168 -2.597899 3.535534 -3.535534 
C 2.597899 -4.473168 1.326016 -5 0 -5 
C -1.326016 -5 -2.597899 -4.473168 -3.535534 -3.535534 
C -4.473168 -2.597899 -5 -1.326016 -5 0 
C -5 1.326016 -4.473168 2.597899 -3.535534 3.535534 
C -2.597899 4.473168 -1.326016 5 0 5 
z
" style="stroke: #808080"/>
    </defs>
    <g clip-path="url(#paba282b8b5)">
     <use xlink:href="#md4f6fb3176" x="461.16" y="228.96" style="fill: #808080; stroke: #808080"/>
    </g>
   </g>
   <g id="line2d_10">
    <path d="M 251.64 395.28 
L 461.16 339.84 
" clip-path="url(#paba282b8b5)" style="fill: none; stroke-dasharray: 5.55,2.4; stroke-dashoffset: 0; stroke: #008000; stroke-width: 1.5"/>
   </g>
   <g id="line2d_11">
    <path d="M 251.64 395.28 
L 461.16 450.72 
" clip-path="url(#paba282b8b5)" style="fill: none; stroke: #008000; stroke-width: 1.5; stroke-linecap: square"/>
   </g>
   <g id="line2d_12">
    <g clip-path="url(#paba282b8b5)">
     <use xlink:href="#md4f6fb3176" x="461.16" y="339.84" style="fill: #808080; stroke: #808080"/>
    </g>
   </g>
   <g id="line2d_13">
    <defs>
     <path id="m360d83e30a" d="M 0 5 
C 1.326016 5 2.597899 4.473168 3.535534 3.535534 
C 4.473168 2.597899 5 1.326016 5 0 
C 5 -1.326016 4.473168 -2.597899 3.535534 -3.535534 
C 2.597899 -4.473168 1.326016 -5 0 -5 
C -1.326016 -5 -2.597899 -4.473168 -3.535534 -3.535534 
C -4.473168 -2.597899 -5 -1.326016 -5 0 
C -5 1.326016 -4.473168 2.597899 -3.535534 3.535534 
C -2.597899 4.473168 -1.326016 5 0 5 
z
" style="stroke: #90ee90"/>
    </defs>
    <g clip-path="url(#paba282b8b5)">
     <use xlink:href="#m360d83e30a" x="461.16" y="450.72" style="fill: #90ee90; stroke: #90ee90"/>
    </g>
   </g>
   <g id="text_1">
    <!-- ÁRBOL DE PROBABILIDAD - Ejemplo: Test médico -->
    <g transform="translate(177.462109 34.92) scale(0.13 -0.13)">
     <defs>
      <path id="DejaVuSans-Bold-c1" d="M 3419 850 
L 1538 850 
L 1241 0 
L 31 0 
L 1759 4666 
L 3194 4666 
L 4922 0 
L 3713 0 
L 3419 850 
z
M 1838 1716 
L 3116 1716 
L 2478 3572 
L 1838 1716 
z
M 2559 5921 
L 3444 5921 
L 2553 5096 
L 1941 5096 
L 2559 5921 
z
" transform="scale(0.015625)"/>
      <path id="DejaVuSans-Bold-52" d="M 2297 2597 
Q 2675 2597 2839 2737 
Q 3003 2878 3003 3200 
Q 3003 3519 2839 3656 
Q 2675 3794 2297 3794 
L 1791 3794 
L 1791 2597 
L 2297 2597 
z
M 1791 1766 
L 1791 0 
L 588 0 
L 588 4666 
L 2425 4666 
Q 3347 4666 3776 4356 
Q 4206 4047 4206 3378 
Q 4206 2916 3982 2619 
Q 3759 2322 3309 2181 
Q 3556 2125 3751 1926 
Q 3947 1728 4147 1325 
L 4800 0 
L 3519 0 
L 2950 1159 
Q 2778 1509 2601 1637 
Q 2425 1766 2131 1766 
L 1791 1766 
z
" transform="scale(0.015625)"/>
      <path id="DejaVuSans-Bold-42" d="M 2456 2859 
Q 2741 2859 2887 2984 
Q 3034 3109 3034 3353 
Q 3034 3594 2887 3720 
Q 2741 3847 2456 3847 
L 1791 3847 
L 1791 2859 
L 2456 2859 
z
M 2497 819 
Q 2859 819 3042 972 
Q 3225 1125 3225 1434 
Q 3225 1738 3044 1889 
Q 2863 2041 2497 2041 
L 1791 2041 
L 1791 819 
L 2497 819 
z
M 3616 2497 
Q 4003 2384 4215 2081 
Q 4428 1778 4428 1338 
Q 4428 663 3972 331 
Q 3516 0 2584 0 
L 588 0 
L 588 4666 
L 2394 4666 
Q 3366 4666 3802 4372 
Q 4238 4078 4238 3431 
Q 4238 3091 4078 2852 
Q 3919 2613 3616 2497 
z
" transform="scale(0.015625)"/>
      <path id="DejaVuSans-Bold-4f" d="M 2719 3878 
Q 2169 3878 1866 3472 
Q 1563 3066 1563 2328 
Q 1563 1594 1866 1187 
Q 2169 781 2719 781 
Q 3272 781 3575 1187 
Q 3878 1594 3878 2328 
Q 3878 3066 3575 3472 
Q 3272 3878 2719 3878 
z
M 2719 4750 
Q 3844 4750 4481 4106 
Q 5119 3463 5119 2328 
Q 5119 1197 4481 553 
Q 3844 -91 2719 -91 
Q 1597 -91 958 553 
Q 319 1197 319 2328 
Q 319 3463 958 4106 
Q 1597 4750 2719 4750 
z
" transform="scale(0.015625)"/>
      <path id="DejaVuSans-Bold-4c" d="M 588 4666 
L 1791 4666 
L 1791 909 
L 3903 909 
L 3903 0 
L 588 0 
L 588 4666 
z
" transform="scale(0.015625)"/>
      <path id="DejaVuSans-Bold-20" transform="scale(0.015625)"/>
      <path id="DejaVuSans-Bold-44" d="M 1791 3756 
L 1791 909 
L 2222 909 
Q 2959 909 3348 1275 
Q 3738 1641 3738 2338 
Q 3738 3031 3350 3393 
Q 2963 3756 2222 3756 
L 1791 3756 
z
M 588 4666 
L 1856 4666 
Q 2919 4666 3439 4514 
Q 3959 4363 4331 4000 
Q 4659 3684 4818 3271 
Q 4978 2859 4978 2338 
Q 4978 1809 4818 1395 
Q 4659 981 4331 666 
Q 3956 303 3431 151 
Q 2906 0 1856 0 
L 588 0 
L 588 4666 
z
" transform="scale(0.015625)"/>
      <path id="DejaVuSans-Bold-45" d="M 588 4666 
L 3834 4666 
L 3834 3756 
L 1791 3756 
L 1791 2888 
L 3713 2888 
L 3713 1978 
L 1791 1978 
L 1791 909 
L 3903 909 
L 3903 0 
L 588 0 
L 588 4666 
z
" transform="scale(0.015625)"/>
      <path id="DejaVuSans-Bold-50" d="M 588 4666 
L 2584 4666 
Q 3475 4666 3951 4270 
Q 4428 3875 4428 3144 
Q 4428 2409 3951 2014 
Q 3475 1619 2584 1619 
L 1791 1619 
L 1791 0 
L 588 0 
L 588 4666 
z
M 1791 3794 
L 1791 2491 
L 2456 2491 
Q 2806 2491 2997 2661 
Q 3188 2831 3188 3144 
Q 3188 3456 2997 3625 
Q 2806 3794 2456 3794 
L 1791 3794 
z
" transform="scale(0.015625)"/>
      <path id="DejaVuSans-Bold-41" d="M 3419 850 
L 1538 850 
L 1241 0 
L 31 0 
L 1759 4666 
L 3194 4666 
L 4922 0 
L 3713 0 
L 3419 850 
z
M 1838 1716 
L 3116 1716 
L 2478 3572 
L 1838 1716 
z
" transform="scale(0.015625)"/>
      <path id="DejaVuSans-Bold-49" d="M 588 4666 
L 1791 4666 
L 1791 0 
L 588 0 
L 588 4666 
z
" transform="scale(0.015625)"/>
      <path id="DejaVuSans-Bold-2d" d="M 347 2297 
L 2309 2297 
L 2309 1388 
L 347 1388 
L 347 2297 
z
" transform="scale(0.015625)"/>
      <path id="DejaVuSans-Bold-6a" d="M 538 3500 
L 1656 3500 
L 1656 63 
Q 1656 -641 1318 -1011 
Q 981 -1381 341 -1381 
L -213 -1381 
L -213 -647 
L -19 -647 
Q 300 -647 419 -503 
Q 538 -359 538 63 
L 538 3500 
z
M 538 4863 
L 1656 4863 
L 1656 3950 
L 538 3950 
L 538 4863 
z
" transform="scale(0.015625)"/>
      <path id="DejaVuSans-Bold-65" d="M 4031 1759 
L 4031 1441 
L 1416 1441 
Q 1456 1047 1700 850 
Q 1944 653 2381 653 
Q 2734 653 3104 758 
Q 3475 863 3866 1075 
L 3866 213 
Q 3469 63 3072 -14 
Q 2675 -91 2278 -91 
Q 1328 -91 801 392 
Q 275 875 275 1747 
Q 275 2603 792 3093 
Q 1309 3584 2216 3584 
Q 3041 3584 3536 3087 
Q 4031 2591 4031 1759 
z
M 2881 2131 
Q 2881 2450 2695 2645 
Q 2509 2841 2209 2841 
Q 1884 2841 1681 2658 
Q 1478 2475 1428 2131 
L 2881 2131 
z
" transform="scale(0.015625)"/>
      <path id="DejaVuSans-Bold-6d" d="M 3781 2919 
Q 3994 3244 4286 3414 
Q 4578 3584 4928 3584 
Q 5531 3584 5847 3212 
Q 6163 2841 6163 2131 
L 6163 0 
L 5038 0 
L 5038 1825 
Q 5041 1866 5042 1909 
Q 5044 1953 5044 2034 
Q 5044 2406 4934 2573 
Q 4825 2741 4581 2741 
Q 4263 2741 4089 2478 
Q 3916 2216 3909 1719 
L 3909 0 
L 2784 0 
L 2784 1825 
Q 2784 2406 2684 2573 
Q 2584 2741 2328 2741 
Q 2006 2741 1831 2477 
Q 1656 2213 1656 1722 
L 1656 0 
L 531 0 
L 531 3500 
L 1656 3500 
L 1656 2988 
Q 1863 3284 2130 3434 
Q 2397 3584 2719 3584 
Q 3081 3584 3359 3409 
Q 3638 3234 3781 2919 
z
" transform="scale(0.015625)"/>
      <path id="DejaVuSans-Bold-70" d="M 1656 506 
L 1656 -1331 
L 538 -1331 
L 538 3500 
L 1656 3500 
L 1656 2988 
Q 1888 3294 2169 3439 
Q 2450 3584 2816 3584 
Q 3463 3584 3878 3070 
Q 4294 2556 4294 1747 
Q 4294 938 3878 423 
Q 3463 -91 2816 -91 
Q 2450 -91 2169 54 
Q 1888 200 1656 506 
z
M 2400 2772 
Q 2041 2772 1848 2508 
Q 1656 2244 1656 1747 
Q 1656 1250 1848 986 
Q 2041 722 2400 722 
Q 2759 722 2948 984 
Q 3138 1247 3138 1747 
Q 3138 2247 2948 2509 
Q 2759 2772 2400 2772 
z
" transform="scale(0.015625)"/>
      <path id="DejaVuSans-Bold-6c" d="M 538 4863 
L 1656 4863 
L 1656 0 
L 538 0 
L 538 4863 
z
" transform="scale(0.015625)"/>
      <path id="DejaVuSans-Bold-6f" d="M 2203 2784 
Q 1831 2784 1636 2517 
Q 1441 2250 1441 1747 
Q 1441 1244 1636 976 
Q 1831 709 2203 709 
Q 2569 709 2762 976 
Q 2956 1244 2956 1747 
Q 2956 2250 2762 2517 
Q 2569 2784 2203 2784 
z
M 2203 3584 
Q 3106 3584 3614 3096 
Q 4122 2609 4122 1747 
Q 4122 884 3614 396 
Q 3106 -91 2203 -91 
Q 1297 -91 786 396 
Q 275 884 275 1747 
Q 275 2609 786 3096 
Q 1297 3584 2203 3584 
z
" transform="scale(0.015625)"/>
      <path id="DejaVuSans-Bold-3a" d="M 716 3500 
L 1844 3500 
L 1844 2291 
L 716 2291 
L 716 3500 
z
M 716 1209 
L 1844 1209 
L 1844 0 
L 716 0 
L 716 1209 
z
" transform="scale(0.015625)"/>
      <path id="DejaVuSans-Bold-54" d="M 31 4666 
L 4331 4666 
L 4331 3756 
L 2784 3756 
L 2784 0 
L 1581 0 
L 1581 3756 
L 31 3756 
L 31 4666 
z
" transform="scale(0.015625)"/>
      <path id="DejaVuSans-Bold-73" d="M 3272 3391 
L 3272 2541 
Q 2913 2691 2578 2766 
Q 2244 2841 1947 2841 
Q 1628 2841 1473 2761 
Q 1319 2681 1319 2516 
Q 1319 2381 1436 2309 
Q 1553 2238 1856 2203 
L 2053 2175 
Q 2913 2066 3209 1816 
Q 3506 1566 3506 1031 
Q 3506 472 3093 190 
Q 2681 -91 1863 -91 
Q 1516 -91 1145 -36 
Q 775 19 384 128 
L 384 978 
Q 719 816 1070 734 
Q 1422 653 1784 653 
Q 2113 653 2278 743 
Q 2444 834 2444 1013 
Q 2444 1163 2330 1236 
Q 2216 1309 1875 1350 
L 1678 1375 
Q 931 1469 631 1722 
Q 331 1975 331 2491 
Q 331 3047 712 3315 
Q 1094 3584 1881 3584 
Q 2191 3584 2531 3537 
Q 2872 3491 3272 3391 
z
" transform="scale(0.015625)"/>
      <path id="DejaVuSans-Bold-74" d="M 1759 4494 
L 1759 3500 
L 2913 3500 
L 2913 2700 
L 1759 2700 
L 1759 1216 
Q 1759 972 1856 886 
Q 1953 800 2241 800 
L 2816 800 
L 2816 0 
L 1856 0 
Q 1194 0 917 276 
Q 641 553 641 1216 
L 641 2700 
L 84 2700 
L 84 3500 
L 641 3500 
L 641 4494 
L 1759 4494 
z
" transform="scale(0.015625)"/>
      <path id="DejaVuSans-Bold-e9" d="M 4031 1759 
L 4031 1441 
L 1416 1441 
Q 1456 1047 1700 850 
Q 1944 653 2381 653 
Q 2734 653 3104 758 
Q 3475 863 3866 1075 
L 3866 213 
Q 3469 63 3072 -14 
Q 2675 -91 2278 -91 
Q 1328 -91 801 392 
Q 275 875 275 1747 
Q 275 2603 792 3093 
Q 1309 3584 2216 3584 
Q 3041 3584 3536 3087 
Q 4031 2591 4031 1759 
z
M 2881 2131 
Q 2881 2450 2695 2645 
Q 2509 2841 2209 2841 
Q 1884 2841 1681 2658 
Q 1478 2475 1428 2131 
L 2881 2131 
z
M 2702 5119 
L 3586 5119 
L 2433 3944 
L 1821 3944 
L 2702 5119 
z
" transform="scale(0.015625)"/>
      <path id="DejaVuSans-Bold-64" d="M 2919 2988 
L 2919 4863 
L 4044 4863 
L 4044 0 
L 2919 0 
L 2919 506 
Q 2688 197 2409 53 
Q 2131 -91 1766 -91 
Q 1119 -91 703 423 
Q 288 938 288 1747 
Q 288 2556 703 3070 
Q 1119 3584 1766 3584 
Q 2128 3584 2408 3439 
Q 2688 3294 2919 2988 
z
M 2181 722 
Q 2541 722 2730 984 
Q 2919 1247 2919 1747 
Q 2919 2247 2730 2509 
Q 2541 2772 2181 2772 
Q 1825 2772 1636 2509 
Q 1447 2247 1447 1747 
Q 1447 1247 1636 984 
Q 1825 722 2181 722 
z
" transform="scale(0.015625)"/>
      <path id="DejaVuSans-Bold-69" d="M 538 3500 
L 1656 3500 
L 1656 0 
L 538 0 
L 538 3500 
z
M 538 4863 
L 1656 4863 
L 1656 3950 
L 538 3950 
L 538 4863 
z
" transform="scale(0.015625)"/>
      <path id="DejaVuSans-Bold-63" d="M 3366 3391 
L 3366 2478 
Q 3138 2634 2908 2709 
Q 2678 2784 2431 2784 
Q 1963 2784 1702 2511 
Q 1441 2238 1441 1747 
Q 1441 1256 1702 982 
Q 1963 709 2431 709 
Q 2694 709 2930 787 
Q 3166 866 3366 1019 
L 3366 103 
Q 3103 6 2833 -42 
Q 2563 -91 2291 -91 
Q 1344 -91 809 395 
Q 275 881 275 1747 
Q 275 2613 809 3098 
Q 1344 3584 2291 3584 
Q 2566 3584 2833 3536 
Q 3100 3488 3366 3391 
z
" transform="scale(0.015625)"/>
     </defs>
     <use xlink:href="#DejaVuSans-Bold-c1"/>
     <use xlink:href="#DejaVuSans-Bold-52" x="77.392578"/>
     <use xlink:href="#DejaVuSans-Bold-42" x="154.394531"/>
     <use xlink:href="#DejaVuSans-Bold-4f" x="230.615234"/>
     <use xlink:href="#DejaVuSans-Bold-4c" x="315.625"/>
     <use xlink:href="#DejaVuSans-Bold-20" x="379.345703"/>
     <use xlink:href="#DejaVuSans-Bold-44" x="414.160156"/>
     <use xlink:href="#DejaVuSans-Bold-45" x="497.167969"/>
     <use xlink:href="#DejaVuSans-Bold-20" x="565.478516"/>
     <use xlink:href="#DejaVuSans-Bold-50" x="600.292969"/>
     <use xlink:href="#DejaVuSans-Bold-52" x="673.583984"/>
     <use xlink:href="#DejaVuSans-Bold-4f" x="750.585938"/>
     <use xlink:href="#DejaVuSans-Bold-42" x="835.595703"/>
     <use xlink:href="#DejaVuSans-Bold-41" x="911.816406"/>
     <use xlink:href="#DejaVuSans-Bold-42" x="989.208984"/>
     <use xlink:href="#DejaVuSans-Bold-49" x="1065.429688"/>
     <use xlink:href="#DejaVuSans-Bold-4c" x="1102.636719"/>
     <use xlink:href="#DejaVuSans-Bold-49" x="1166.357422"/>
     <use xlink:href="#DejaVuSans-Bold-44" x="1203.564453"/>
     <use xlink:href="#DejaVuSans-Bold-41" x="1286.572266"/>
     <use xlink:href="#DejaVuSans-Bold-44" x="1363.964844"/>
     <use xlink:href="#DejaVuSans-Bold-20" x="1446.972656"/>
     <use xlink:href="#DejaVuSans-Bold-2d" x="1481.787109"/>
     <use xlink:href="#DejaVuSans-Bold-20" x="1523.291016"/>
     <use xlink:href="#DejaVuSans-Bold-45" x="1558.105469"/>
     <use xlink:href="#DejaVuSans-Bold-6a" x="1626.416016"/>
     <use xlink:href="#DejaVuSans-Bold-65" x="1660.693359"/>
     <use xlink:href="#DejaVuSans-Bold-6d" x="1728.515625"/>
     <use xlink:href="#DejaVuSans-Bold-70" x="1832.714844"/>
     <use xlink:href="#DejaVuSans-Bold-6c" x="1904.296875"/>
     <use xlink:href="#DejaVuSans-Bold-6f" x="1938.574219"/>
     <use xlink:href="#DejaVuSans-Bold-3a" x="2007.275391"/>
     <use xlink:href="#DejaVuSans-Bold-20" x="2047.265625"/>
     <use xlink:href="#DejaVuSans-Bold-54" x="2082.080078"/>
     <use xlink:href="#DejaVuSans-Bold-65" x="2137.042969"/>
     <use xlink:href="#DejaVuSans-Bold-73" x="2204.865234"/>
     <use xlink:href="#DejaVuSans-Bold-74" x="2264.386719"/>
     <use xlink:href="#DejaVuSans-Bold-20" x="2312.189453"/>
     <use xlink:href="#DejaVuSans-Bold-6d" x="2347.003906"/>
     <use xlink:href="#DejaVuSans-Bold-e9" x="2451.203125"/>
     <use xlink:href="#DejaVuSans-Bold-64" x="2519.025391"/>
     <use xlink:href="#DejaVuSans-Bold-69" x="2590.607422"/>
     <use xlink:href="#DejaVuSans-Bold-63" x="2624.884766"/>
     <use xlink:href="#DejaVuSans-Bold-6f" x="2684.162109"/>
    </g>
   </g>
   <g id="text_2">
    <!-- Inicio -->
    <g transform="translate(15.659063 287.159375) scale(0.1 -0.1)">
     <defs>
      <path id="DejaVuSans-49" d="M 628 4666 
L 1259 4666 
L 1259 0 
L 628 0 
L 628 4666 
z
" transform="scale(0.015625)"/>
      <path id="DejaVuSans-6e" d="M 3513 2113 
L 3513 0 
L 2938 0 
L 2938 2094 
Q 2938 2591 2744 2837 
Q 2550 3084 2163 3084 
Q 1697 3084 1428 2787 
Q 1159 2491 1159 1978 
L 1159 0 
L 581 0 
L 581 3500 
L 1159 3500 
L 1159 2956 
Q 1366 3272 1645 3428 
Q 1925 3584 2291 3584 
Q 2894 3584 3203 3211 
Q 3513 2838 3513 2113 
z
" transform="scale(0.015625)"/>
      <path id="DejaVuSans-69" d="M 603 3500 
L 1178 3500 
L 1178 0 
L 603 0 
L 603 3500 
z
M 603 4863 
L 1178 4863 
L 1178 4134 
L 603 4134 
L 603 4863 
z
" transform="scale(0.015625)"/>
      <path id="DejaVuSans-63" d="M 3122 3366 
L 3122 2828 
Q 2878 2963 2633 3030 
Q 2388 3097 2138 3097 
Q 1578 3097 1268 2742 
Q 959 2388 959 1747 
Q 959 1106 1268 751 
Q 1578 397 2138 397 
Q 2388 397 2633 464 
Q 2878 531 3122 666 
L 3122 134 
Q 2881 22 2623 -34 
Q 2366 -91 2075 -91 
Q 1284 -91 818 406 
Q 353 903 353 1747 
Q 353 2603 823 3093 
Q 1294 3584 2113 3584 
Q 2378 3584 2631 3529 
Q 2884 3475 3122 3366 
z
" transform="scale(0.015625)"/>
      <path id="DejaVuSans-6f" d="M 1959 3097 
Q 1497 3097 1228 2736 
Q 959 2375 959 1747 
Q 959 1119 1226 758 
Q 1494 397 1959 397 
Q 2419 397 2687 759 
Q 2956 1122 2956 1747 
Q 2956 2369 2687 2733 
Q 2419 3097 1959 3097 
z
M 1959 3584 
Q 2709 3584 3137 3096 
Q 3566 2609 3566 1747 
Q 3566 888 3137 398 
Q 2709 -91 1959 -91 
Q 1206 -91 779 398 
Q 353 888 353 1747 
Q 353 2609 779 3096 
Q 1206 3584 1959 3584 
z
" transform="scale(0.015625)"/>
     </defs>
     <use xlink:href="#DejaVuSans-49"/>
     <use xlink:href="#DejaVuSans-6e" x="29.492188"/>
     <use xlink:href="#DejaVuSans-69" x="92.871094"/>
     <use xlink:href="#DejaVuSans-63" x="120.654297"/>
     <use xlink:href="#DejaVuSans-69" x="175.634766"/>
     <use xlink:href="#DejaVuSans-6f" x="203.417969"/>
    </g>
   </g>
   <g id="text_3">
    <g id="patch_2">
     <path d="M 137.989406 205.811719 
L 183.706594 205.811719 
Q 186.406594 205.811719 186.406594 203.111719 
L 186.406594 194.401406 
Q 186.406594 191.701406 183.706594 191.701406 
L 137.989406 191.701406 
Q 135.289406 191.701406 135.289406 194.401406 
L 135.289406 203.111719 
Q 135.289406 205.811719 137.989406 205.811719 
z
" style="fill: #ffe6e6; stroke: #000000; stroke-linejoin: miter"/>
    </g>
    <!-- P(E)=0.01 -->
    <g transform="translate(137.989406 201.24) scale(0.09 -0.09)">
     <defs>
      <path id="DejaVuSans-50" d="M 1259 4147 
L 1259 2394 
L 2053 2394 
Q 2494 2394 2734 2622 
Q 2975 2850 2975 3272 
Q 2975 3691 2734 3919 
Q 2494 4147 2053 4147 
L 1259 4147 
z
M 628 4666 
L 2053 4666 
Q 2838 4666 3239 4311 
Q 3641 3956 3641 3272 
Q 3641 2581 3239 2228 
Q 2838 1875 2053 1875 
L 1259 1875 
L 1259 0 
L 628 0 
L 628 4666 
z
" transform="scale(0.015625)"/>
      <path id="DejaVuSans-28" d="M 1984 4856 
Q 1566 4138 1362 3434 
Q 1159 2731 1159 2009 
Q 1159 1288 1364 580 
Q 1569 -128 1984 -844 
L 1484 -844 
Q 1016 -109 783 600 
Q 550 1309 550 2009 
Q 550 2706 781 3412 
Q 1013 4119 1484 4856 
L 1984 4856 
z
" transform="scale(0.015625)"/>
      <path id="DejaVuSans-45" d="M 628 4666 
L 3578 4666 
L 3578 4134 
L 1259 4134 
L 1259 2753 
L 3481 2753 
L 3481 2222 
L 1259 2222 
L 1259 531 
L 3634 531 
L 3634 0 
L 628 0 
L 628 4666 
z
" transform="scale(0.015625)"/>
      <path id="DejaVuSans-29" d="M 513 4856 
L 1013 4856 
Q 1481 4119 1714 3412 
Q 1947 2706 1947 2009 
Q 1947 1309 1714 600 
Q 1481 -109 1013 -844 
L 513 -844 
Q 928 -128 1133 580 
Q 1338 1288 1338 2009 
Q 1338 2731 1133 3434 
Q 928 4138 513 4856 
z
" transform="scale(0.015625)"/>
      <path id="DejaVuSans-3d" d="M 678 2906 
L 4684 2906 
L 4684 2381 
L 678 2381 
L 678 2906 
z
M 678 1631 
L 4684 1631 
L 4684 1100 
L 678 1100 
L 678 1631 
z
" transform="scale(0.015625)"/>
      <path id="DejaVuSans-30" d="M 2034 4250 
Q 1547 4250 1301 3770 
Q 1056 3291 1056 2328 
Q 1056 1369 1301 889 
Q 1547 409 2034 409 
Q 2525 409 2770 889 
Q 3016 1369 3016 2328 
Q 3016 3291 2770 3770 
Q 2525 4250 2034 4250 
z
M 2034 4750 
Q 2819 4750 3233 4129 
Q 3647 3509 3647 2328 
Q 3647 1150 3233 529 
Q 2819 -91 2034 -91 
Q 1250 -91 836 529 
Q 422 1150 422 2328 
Q 422 3509 836 4129 
Q 1250 4750 2034 4750 
z
" transform="scale(0.015625)"/>
      <path id="DejaVuSans-2e" d="M 684 794 
L 1344 794 
L 1344 0 
L 684 0 
L 684 794 
z
" transform="scale(0.015625)"/>
      <path id="DejaVuSans-31" d="M 794 531 
L 1825 531 
L 1825 4091 
L 703 3866 
L 703 4441 
L 1819 4666 
L 2450 4666 
L 2450 531 
L 3481 531 
L 3481 0 
L 794 0 
L 794 531 
z
" transform="scale(0.015625)"/>
     </defs>
     <use xlink:href="#DejaVuSans-50"/>
     <use xlink:href="#DejaVuSans-28" x="60.302734"/>
     <use xlink:href="#DejaVuSans-45" x="99.316406"/>
     <use xlink:href="#DejaVuSans-29" x="162.5"/>
     <use xlink:href="#DejaVuSans-3d" x="201.513672"/>
     <use xlink:href="#DejaVuSans-30" x="285.302734"/>
     <use xlink:href="#DejaVuSans-2e" x="348.925781"/>
     <use xlink:href="#DejaVuSans-30" x="380.712891"/>
     <use xlink:href="#DejaVuSans-31" x="444.335938"/>
    </g>
   </g>
   <g id="text_4">
    <g id="patch_3">
     <path d="M 137.976047 372.131719 
L 183.719953 372.131719 
Q 186.419953 372.131719 186.419953 369.431719 
L 186.419953 360.721406 
Q 186.419953 358.021406 183.719953 358.021406 
L 137.976047 358.021406 
Q 135.276047 358.021406 135.276047 360.721406 
L 135.276047 369.431719 
Q 135.276047 372.131719 137.976047 372.131719 
z
" style="fill: #e6ffe6; stroke: #000000; stroke-linejoin: miter"/>
    </g>
    <!-- P(S)=0.99 -->
    <g transform="translate(137.976047 367.56) scale(0.09 -0.09)">
     <defs>
      <path id="DejaVuSans-53" d="M 3425 4513 
L 3425 3897 
Q 3066 4069 2747 4153 
Q 2428 4238 2131 4238 
Q 1616 4238 1336 4038 
Q 1056 3838 1056 3469 
Q 1056 3159 1242 3001 
Q 1428 2844 1947 2747 
L 2328 2669 
Q 3034 2534 3370 2195 
Q 3706 1856 3706 1288 
Q 3706 609 3251 259 
Q 2797 -91 1919 -91 
Q 1588 -91 1214 -16 
Q 841 59 441 206 
L 441 856 
Q 825 641 1194 531 
Q 1563 422 1919 422 
Q 2459 422 2753 634 
Q 3047 847 3047 1241 
Q 3047 1584 2836 1778 
Q 2625 1972 2144 2069 
L 1759 2144 
Q 1053 2284 737 2584 
Q 422 2884 422 3419 
Q 422 4038 858 4394 
Q 1294 4750 2059 4750 
Q 2388 4750 2728 4690 
Q 3069 4631 3425 4513 
z
" transform="scale(0.015625)"/>
      <path id="DejaVuSans-39" d="M 703 97 
L 703 672 
Q 941 559 1184 500 
Q 1428 441 1663 441 
Q 2288 441 2617 861 
Q 2947 1281 2994 2138 
Q 2813 1869 2534 1725 
Q 2256 1581 1919 1581 
Q 1219 1581 811 2004 
Q 403 2428 403 3163 
Q 403 3881 828 4315 
Q 1253 4750 1959 4750 
Q 2769 4750 3195 4129 
Q 3622 3509 3622 2328 
Q 3622 1225 3098 567 
Q 2575 -91 1691 -91 
Q 1453 -91 1209 -44 
Q 966 3 703 97 
z
M 1959 2075 
Q 2384 2075 2632 2365 
Q 2881 2656 2881 3163 
Q 2881 3666 2632 3958 
Q 2384 4250 1959 4250 
Q 1534 4250 1286 3958 
Q 1038 3666 1038 3163 
Q 1038 2656 1286 2365 
Q 1534 2075 1959 2075 
z
" transform="scale(0.015625)"/>
     </defs>
     <use xlink:href="#DejaVuSans-50"/>
     <use xlink:href="#DejaVuSans-28" x="60.302734"/>
     <use xlink:href="#DejaVuSans-53" x="99.316406"/>
     <use xlink:href="#DejaVuSans-29" x="162.792969"/>
     <use xlink:href="#DejaVuSans-3d" x="201.806641"/>
     <use xlink:href="#DejaVuSans-30" x="285.595703"/>
     <use xlink:href="#DejaVuSans-2e" x="349.21875"/>
     <use xlink:href="#DejaVuSans-39" x="381.005859"/>
     <use xlink:href="#DejaVuSans-39" x="444.628906"/>
    </g>
   </g>
   <g id="text_5">
    <!-- Enfermo -->
    <g style="fill: #ff0000" transform="translate(227.987656 145.8) scale(0.1 -0.1)">
     <defs>
      <path id="DejaVuSans-Bold-6e" d="M 4056 2131 
L 4056 0 
L 2931 0 
L 2931 347 
L 2931 1631 
Q 2931 2084 2911 2256 
Q 2891 2428 2841 2509 
Q 2775 2619 2662 2680 
Q 2550 2741 2406 2741 
Q 2056 2741 1856 2470 
Q 1656 2200 1656 1722 
L 1656 0 
L 538 0 
L 538 3500 
L 1656 3500 
L 1656 2988 
Q 1909 3294 2193 3439 
Q 2478 3584 2822 3584 
Q 3428 3584 3742 3212 
Q 4056 2841 4056 2131 
z
" transform="scale(0.015625)"/>
      <path id="DejaVuSans-Bold-66" d="M 2841 4863 
L 2841 4128 
L 2222 4128 
Q 1984 4128 1890 4042 
Q 1797 3956 1797 3744 
L 1797 3500 
L 2753 3500 
L 2753 2700 
L 1797 2700 
L 1797 0 
L 678 0 
L 678 2700 
L 122 2700 
L 122 3500 
L 678 3500 
L 678 3744 
Q 678 4316 997 4589 
Q 1316 4863 1984 4863 
L 2841 4863 
z
" transform="scale(0.015625)"/>
      <path id="DejaVuSans-Bold-72" d="M 3138 2547 
Q 2991 2616 2845 2648 
Q 2700 2681 2553 2681 
Q 2122 2681 1889 2404 
Q 1656 2128 1656 1613 
L 1656 0 
L 538 0 
L 538 3500 
L 1656 3500 
L 1656 2925 
Q 1872 3269 2151 3426 
Q 2431 3584 2822 3584 
Q 2878 3584 2943 3579 
Q 3009 3575 3134 3559 
L 3138 2547 
z
" transform="scale(0.015625)"/>
     </defs>
     <use xlink:href="#DejaVuSans-Bold-45"/>
     <use xlink:href="#DejaVuSans-Bold-6e" x="68.310547"/>
     <use xlink:href="#DejaVuSans-Bold-66" x="139.501953"/>
     <use xlink:href="#DejaVuSans-Bold-65" x="183.007812"/>
     <use xlink:href="#DejaVuSans-Bold-72" x="250.830078"/>
     <use xlink:href="#DejaVuSans-Bold-6d" x="300.146484"/>
     <use xlink:href="#DejaVuSans-Bold-6f" x="404.345703"/>
    </g>
   </g>
   <g id="text_6">
    <!-- Sano -->
    <g style="fill: #008000" transform="translate(237.670469 423) scale(0.1 -0.1)">
     <defs>
      <path id="DejaVuSans-Bold-53" d="M 3834 4519 
L 3834 3531 
Q 3450 3703 3084 3790 
Q 2719 3878 2394 3878 
Q 1963 3878 1756 3759 
Q 1550 3641 1550 3391 
Q 1550 3203 1689 3098 
Q 1828 2994 2194 2919 
L 2706 2816 
Q 3484 2659 3812 2340 
Q 4141 2022 4141 1434 
Q 4141 663 3683 286 
Q 3225 -91 2284 -91 
Q 1841 -91 1394 -6 
Q 947 78 500 244 
L 500 1259 
Q 947 1022 1364 901 
Q 1781 781 2169 781 
Q 2563 781 2772 912 
Q 2981 1044 2981 1288 
Q 2981 1506 2839 1625 
Q 2697 1744 2272 1838 
L 1806 1941 
Q 1106 2091 782 2419 
Q 459 2747 459 3303 
Q 459 4000 909 4375 
Q 1359 4750 2203 4750 
Q 2588 4750 2994 4692 
Q 3400 4634 3834 4519 
z
" transform="scale(0.015625)"/>
      <path id="DejaVuSans-Bold-61" d="M 2106 1575 
Q 1756 1575 1579 1456 
Q 1403 1338 1403 1106 
Q 1403 894 1545 773 
Q 1688 653 1941 653 
Q 2256 653 2472 879 
Q 2688 1106 2688 1447 
L 2688 1575 
L 2106 1575 
z
M 3816 1997 
L 3816 0 
L 2688 0 
L 2688 519 
Q 2463 200 2181 54 
Q 1900 -91 1497 -91 
Q 953 -91 614 226 
Q 275 544 275 1050 
Q 275 1666 698 1953 
Q 1122 2241 2028 2241 
L 2688 2241 
L 2688 2328 
Q 2688 2594 2478 2717 
Q 2269 2841 1825 2841 
Q 1466 2841 1156 2769 
Q 847 2697 581 2553 
L 581 3406 
Q 941 3494 1303 3539 
Q 1666 3584 2028 3584 
Q 2975 3584 3395 3211 
Q 3816 2838 3816 1997 
z
" transform="scale(0.015625)"/>
     </defs>
     <use xlink:href="#DejaVuSans-Bold-53"/>
     <use xlink:href="#DejaVuSans-Bold-61" x="72.021484"/>
     <use xlink:href="#DejaVuSans-Bold-6e" x="139.501953"/>
     <use xlink:href="#DejaVuSans-Bold-6f" x="210.693359"/>
    </g>
   </g>
   <g id="text_7">
    <g id="patch_4">
     <path d="M 331.381875 133.45425 
L 381.418125 133.45425 
Q 383.818125 133.45425 383.818125 131.05425 
L 383.818125 123.05425 
Q 383.818125 120.65425 381.418125 120.65425 
L 331.381875 120.65425 
Q 328.981875 120.65425 328.981875 123.05425 
L 328.981875 131.05425 
Q 328.981875 133.45425 331.381875 133.45425 
z
" style="fill: #ffff00; stroke: #000000; stroke-linejoin: miter"/>
    </g>
    <!-- P(+|E)=0.95 -->
    <g transform="translate(331.381875 129.168) scale(0.08 -0.08)">
     <defs>
      <path id="DejaVuSans-2b" d="M 2944 4013 
L 2944 2272 
L 4684 2272 
L 4684 1741 
L 2944 1741 
L 2944 0 
L 2419 0 
L 2419 1741 
L 678 1741 
L 678 2272 
L 2419 2272 
L 2419 4013 
L 2944 4013 
z
" transform="scale(0.015625)"/>
      <path id="DejaVuSans-7c" d="M 1344 4891 
L 1344 -1509 
L 813 -1509 
L 813 4891 
L 1344 4891 
z
" transform="scale(0.015625)"/>
      <path id="DejaVuSans-35" d="M 691 4666 
L 3169 4666 
L 3169 4134 
L 1269 4134 
L 1269 2991 
Q 1406 3038 1543 3061 
Q 1681 3084 1819 3084 
Q 2600 3084 3056 2656 
Q 3513 2228 3513 1497 
Q 3513 744 3044 326 
Q 2575 -91 1722 -91 
Q 1428 -91 1123 -41 
Q 819 9 494 109 
L 494 744 
Q 775 591 1075 516 
Q 1375 441 1709 441 
Q 2250 441 2565 725 
Q 2881 1009 2881 1497 
Q 2881 1984 2565 2268 
Q 2250 2553 1709 2553 
Q 1456 2553 1204 2497 
Q 953 2441 691 2322 
L 691 4666 
z
" transform="scale(0.015625)"/>
     </defs>
     <use xlink:href="#DejaVuSans-50"/>
     <use xlink:href="#DejaVuSans-28" x="60.302734"/>
     <use xlink:href="#DejaVuSans-2b" x="99.316406"/>
     <use xlink:href="#DejaVuSans-7c" x="183.105469"/>
     <use xlink:href="#DejaVuSans-45" x="216.796875"/>
     <use xlink:href="#DejaVuSans-29" x="279.980469"/>
     <use xlink:href="#DejaVuSans-3d" x="318.994141"/>
     <use xlink:href="#DejaVuSans-30" x="402.783203"/>
     <use xlink:href="#DejaVuSans-2e" x="466.40625"/>
     <use xlink:href="#DejaVuSans-39" x="498.193359"/>
     <use xlink:href="#DejaVuSans-35" x="561.816406"/>
    </g>
   </g>
   <g id="text_8">
    <g id="patch_5">
     <path d="M 331.381875 216.61425 
L 381.418125 216.61425 
Q 383.818125 216.61425 383.818125 214.21425 
L 383.818125 206.21425 
Q 383.818125 203.81425 381.418125 203.81425 
L 331.381875 203.81425 
Q 328.981875 203.81425 328.981875 206.21425 
L 328.981875 214.21425 
Q 328.981875 216.61425 331.381875 216.61425 
z
" style="fill: #d3d3d3; stroke: #000000; stroke-linejoin: miter"/>
    </g>
    <!-- P(−|E)=0.05 -->
    <g transform="translate(331.381875 212.328) scale(0.08 -0.08)">
     <defs>
      <path id="DejaVuSans-2212" d="M 678 2272 
L 4684 2272 
L 4684 1741 
L 678 1741 
L 678 2272 
z
" transform="scale(0.015625)"/>
     </defs>
     <use xlink:href="#DejaVuSans-50"/>
     <use xlink:href="#DejaVuSans-28" x="60.302734"/>
     <use xlink:href="#DejaVuSans-2212" x="99.316406"/>
     <use xlink:href="#DejaVuSans-7c" x="183.105469"/>
     <use xlink:href="#DejaVuSans-45" x="216.796875"/>
     <use xlink:href="#DejaVuSans-29" x="279.980469"/>
     <use xlink:href="#DejaVuSans-3d" x="318.994141"/>
     <use xlink:href="#DejaVuSans-30" x="402.783203"/>
     <use xlink:href="#DejaVuSans-2e" x="466.40625"/>
     <use xlink:href="#DejaVuSans-30" x="498.193359"/>
     <use xlink:href="#DejaVuSans-35" x="561.816406"/>
    </g>
   </g>
   <g id="text_9">
    <!-- Test + -->
    <g transform="translate(510.048 120.563437) scale(0.09 -0.09)">
     <defs>
      <path id="DejaVuSans-Bold-2b" d="M 3053 4013 
L 3053 2375 
L 4684 2375 
L 4684 1638 
L 3053 1638 
L 3053 0 
L 2309 0 
L 2309 1638 
L 678 1638 
L 678 2375 
L 2309 2375 
L 2309 4013 
L 3053 4013 
z
" transform="scale(0.015625)"/>
     </defs>
     <use xlink:href="#DejaVuSans-Bold-54"/>
     <use xlink:href="#DejaVuSans-Bold-65" x="54.962891"/>
     <use xlink:href="#DejaVuSans-Bold-73" x="122.785156"/>
     <use xlink:href="#DejaVuSans-Bold-74" x="182.306641"/>
     <use xlink:href="#DejaVuSans-Bold-20" x="230.109375"/>
     <use xlink:href="#DejaVuSans-Bold-2b" x="264.923828"/>
    </g>
   </g>
   <g id="text_10">
    <!-- Test − -->
    <g transform="translate(510.048 231.443437) scale(0.09 -0.09)">
     <defs>
      <path id="DejaVuSans-54" d="M -19 4666 
L 3928 4666 
L 3928 4134 
L 2272 4134 
L 2272 0 
L 1638 0 
L 1638 4134 
L -19 4134 
L -19 4666 
z
" transform="scale(0.015625)"/>
      <path id="DejaVuSans-65" d="M 3597 1894 
L 3597 1613 
L 953 1613 
Q 991 1019 1311 708 
Q 1631 397 2203 397 
Q 2534 397 2845 478 
Q 3156 559 3463 722 
L 3463 178 
Q 3153 47 2828 -22 
Q 2503 -91 2169 -91 
Q 1331 -91 842 396 
Q 353 884 353 1716 
Q 353 2575 817 3079 
Q 1281 3584 2069 3584 
Q 2775 3584 3186 3129 
Q 3597 2675 3597 1894 
z
M 3022 2063 
Q 3016 2534 2758 2815 
Q 2500 3097 2075 3097 
Q 1594 3097 1305 2825 
Q 1016 2553 972 2059 
L 3022 2063 
z
" transform="scale(0.015625)"/>
      <path id="DejaVuSans-73" d="M 2834 3397 
L 2834 2853 
Q 2591 2978 2328 3040 
Q 2066 3103 1784 3103 
Q 1356 3103 1142 2972 
Q 928 2841 928 2578 
Q 928 2378 1081 2264 
Q 1234 2150 1697 2047 
L 1894 2003 
Q 2506 1872 2764 1633 
Q 3022 1394 3022 966 
Q 3022 478 2636 193 
Q 2250 -91 1575 -91 
Q 1294 -91 989 -36 
Q 684 19 347 128 
L 347 722 
Q 666 556 975 473 
Q 1284 391 1588 391 
Q 1994 391 2212 530 
Q 2431 669 2431 922 
Q 2431 1156 2273 1281 
Q 2116 1406 1581 1522 
L 1381 1569 
Q 847 1681 609 1914 
Q 372 2147 372 2553 
Q 372 3047 722 3315 
Q 1072 3584 1716 3584 
Q 2034 3584 2315 3537 
Q 2597 3491 2834 3397 
z
" transform="scale(0.015625)"/>
      <path id="DejaVuSans-74" d="M 1172 4494 
L 1172 3500 
L 2356 3500 
L 2356 3053 
L 1172 3053 
L 1172 1153 
Q 1172 725 1289 603 
Q 1406 481 1766 481 
L 2356 481 
L 2356 0 
L 1766 0 
Q 1100 0 847 248 
Q 594 497 594 1153 
L 594 3053 
L 172 3053 
L 172 3500 
L 594 3500 
L 594 4494 
L 1172 4494 
z
" transform="scale(0.015625)"/>
      <path id="DejaVuSans-20" transform="scale(0.015625)"/>
     </defs>
     <use xlink:href="#DejaVuSans-54"/>
     <use xlink:href="#DejaVuSans-65" x="44.083984"/>
     <use xlink:href="#DejaVuSans-73" x="105.607422"/>
     <use xlink:href="#DejaVuSans-74" x="157.707031"/>
     <use xlink:href="#DejaVuSans-20" x="196.916016"/>
     <use xlink:href="#DejaVuSans-2212" x="228.703125"/>
    </g>
   </g>
   <g id="text_11">
    <g id="patch_6">
     <path d="M 331.37 360.75825 
L 381.43 360.75825 
Q 383.83 360.75825 383.83 358.35825 
L 383.83 350.35825 
Q 383.83 347.95825 381.43 347.95825 
L 331.37 347.95825 
Q 328.97 347.95825 328.97 350.35825 
L 328.97 358.35825 
Q 328.97 360.75825 331.37 360.75825 
z
" style="fill: #d3d3d3; stroke: #000000; stroke-linejoin: miter"/>
    </g>
    <!-- P(+|S)=0.02 -->
    <g transform="translate(331.37 356.472) scale(0.08 -0.08)">
     <defs>
      <path id="DejaVuSans-32" d="M 1228 531 
L 3431 531 
L 3431 0 
L 469 0 
L 469 531 
Q 828 903 1448 1529 
Q 2069 2156 2228 2338 
Q 2531 2678 2651 2914 
Q 2772 3150 2772 3378 
Q 2772 3750 2511 3984 
Q 2250 4219 1831 4219 
Q 1534 4219 1204 4116 
Q 875 4013 500 3803 
L 500 4441 
Q 881 4594 1212 4672 
Q 1544 4750 1819 4750 
Q 2544 4750 2975 4387 
Q 3406 4025 3406 3419 
Q 3406 3131 3298 2873 
Q 3191 2616 2906 2266 
Q 2828 2175 2409 1742 
Q 1991 1309 1228 531 
z
" transform="scale(0.015625)"/>
     </defs>
     <use xlink:href="#DejaVuSans-50"/>
     <use xlink:href="#DejaVuSans-28" x="60.302734"/>
     <use xlink:href="#DejaVuSans-2b" x="99.316406"/>
     <use xlink:href="#DejaVuSans-7c" x="183.105469"/>
     <use xlink:href="#DejaVuSans-53" x="216.796875"/>
     <use xlink:href="#DejaVuSans-29" x="280.273438"/>
     <use xlink:href="#DejaVuSans-3d" x="319.287109"/>
     <use xlink:href="#DejaVuSans-30" x="403.076172"/>
     <use xlink:href="#DejaVuSans-2e" x="466.699219"/>
     <use xlink:href="#DejaVuSans-30" x="498.486328"/>
     <use xlink:href="#DejaVuSans-32" x="562.109375"/>
    </g>
   </g>
   <g id="text_12">
    <g id="patch_7">
     <path d="M 331.37 438.37425 
L 381.43 438.37425 
Q 383.83 438.37425 383.83 435.97425 
L 383.83 427.97425 
Q 383.83 425.57425 381.43 425.57425 
L 331.37 425.57425 
Q 328.97 425.57425 328.97 427.97425 
L 328.97 435.97425 
Q 328.97 438.37425 331.37 438.37425 
z
" style="fill: #90ee90; stroke: #000000; stroke-linejoin: miter"/>
    </g>
    <!-- P(−|S)=0.98 -->
    <g transform="translate(331.37 434.088) scale(0.08 -0.08)">
     <defs>
      <path id="DejaVuSans-38" d="M 2034 2216 
Q 1584 2216 1326 1975 
Q 1069 1734 1069 1313 
Q 1069 891 1326 650 
Q 1584 409 2034 409 
Q 2484 409 2743 651 
Q 3003 894 3003 1313 
Q 3003 1734 2745 1975 
Q 2488 2216 2034 2216 
z
M 1403 2484 
Q 997 2584 770 2862 
Q 544 3141 544 3541 
Q 544 4100 942 4425 
Q 1341 4750 2034 4750 
Q 2731 4750 3128 4425 
Q 3525 4100 3525 3541 
Q 3525 3141 3298 2862 
Q 3072 2584 2669 2484 
Q 3125 2378 3379 2068 
Q 3634 1759 3634 1313 
Q 3634 634 3220 271 
Q 2806 -91 2034 -91 
Q 1263 -91 848 271 
Q 434 634 434 1313 
Q 434 1759 690 2068 
Q 947 2378 1403 2484 
z
M 1172 3481 
Q 1172 3119 1398 2916 
Q 1625 2713 2034 2713 
Q 2441 2713 2670 2916 
Q 2900 3119 2900 3481 
Q 2900 3844 2670 4047 
Q 2441 4250 2034 4250 
Q 1625 4250 1398 4047 
Q 1172 3844 1172 3481 
z
" transform="scale(0.015625)"/>
     </defs>
     <use xlink:href="#DejaVuSans-50"/>
     <use xlink:href="#DejaVuSans-28" x="60.302734"/>
     <use xlink:href="#DejaVuSans-2212" x="99.316406"/>
     <use xlink:href="#DejaVuSans-7c" x="183.105469"/>
     <use xlink:href="#DejaVuSans-53" x="216.796875"/>
     <use xlink:href="#DejaVuSans-29" x="280.273438"/>
     <use xlink:href="#DejaVuSans-3d" x="319.287109"/>
     <use xlink:href="#DejaVuSans-30" x="403.076172"/>
     <use xlink:href="#DejaVuSans-2e" x="466.699219"/>
     <use xlink:href="#DejaVuSans-39" x="498.486328"/>
     <use xlink:href="#DejaVuSans-38" x="562.109375"/>
    </g>
   </g>
   <g id="text_13">
    <!-- Test + -->
    <g transform="translate(510.048 342.323437) scale(0.09 -0.09)">
     <use xlink:href="#DejaVuSans-54"/>
     <use xlink:href="#DejaVuSans-65" x="44.083984"/>
     <use xlink:href="#DejaVuSans-73" x="105.607422"/>
     <use xlink:href="#DejaVuSans-74" x="157.707031"/>
     <use xlink:href="#DejaVuSans-20" x="196.916016"/>
     <use xlink:href="#DejaVuSans-2b" x="228.703125"/>
    </g>
   </g>
   <g id="text_14">
    <!-- Test − -->
    <g transform="translate(510.048 453.203437) scale(0.09 -0.09)">
     <defs>
      <path id="DejaVuSans-Bold-2212" d="M 678 2375 
L 4684 2375 
L 4684 1638 
L 678 1638 
L 678 2375 
z
" transform="scale(0.015625)"/>
     </defs>
     <use xlink:href="#DejaVuSans-Bold-54"/>
     <use xlink:href="#DejaVuSans-Bold-65" x="54.962891"/>
     <use xlink:href="#DejaVuSans-Bold-73" x="122.785156"/>
     <use xlink:href="#DejaVuSans-Bold-74" x="182.306641"/>
     <use xlink:href="#DejaVuSans-Bold-20" x="230.109375"/>
     <use xlink:href="#DejaVuSans-Bold-2212" x="264.923828"/>
    </g>
   </g>
   <g id="text_15">
    <!-- 0.01×0.95 = 0.0095 -->
    <g transform="translate(592.41375 118.08) scale(0.08 -0.08)">
     <defs>
      <path id="DejaVuSansMono-30" d="M 1509 2344 
Q 1509 2516 1629 2641 
Q 1750 2766 1919 2766 
Q 2094 2766 2219 2641 
Q 2344 2516 2344 2344 
Q 2344 2169 2220 2047 
Q 2097 1925 1919 1925 
Q 1744 1925 1626 2044 
Q 1509 2163 1509 2344 
z
M 1925 4250 
Q 1484 4250 1267 3775 
Q 1050 3300 1050 2328 
Q 1050 1359 1267 884 
Q 1484 409 1925 409 
Q 2369 409 2586 884 
Q 2803 1359 2803 2328 
Q 2803 3300 2586 3775 
Q 2369 4250 1925 4250 
z
M 1925 4750 
Q 2672 4750 3055 4137 
Q 3438 3525 3438 2328 
Q 3438 1134 3055 521 
Q 2672 -91 1925 -91 
Q 1178 -91 797 521 
Q 416 1134 416 2328 
Q 416 3525 797 4137 
Q 1178 4750 1925 4750 
z
" transform="scale(0.015625)"/>
      <path id="DejaVuSansMono-2e" d="M 1528 953 
L 2316 953 
L 2316 0 
L 1528 0 
L 1528 953 
z
" transform="scale(0.015625)"/>
      <path id="DejaVuSansMono-31" d="M 844 531 
L 1825 531 
L 1825 4097 
L 769 3859 
L 769 4434 
L 1819 4666 
L 2450 4666 
L 2450 531 
L 3419 531 
L 3419 0 
L 844 0 
L 844 531 
z
" transform="scale(0.015625)"/>
      <path id="DejaVuSansMono-d7" d="M 469 916 
L 1563 2003 
L 469 3097 
L 831 3463 
L 1925 2369 
L 3022 3463 
L 3384 3097 
L 2291 2003 
L 3378 916 
L 3016 544 
L 1925 1638 
L 838 544 
L 469 916 
z
" transform="scale(0.015625)"/>
      <path id="DejaVuSansMono-39" d="M 1863 2069 
Q 2266 2069 2495 2359 
Q 2725 2650 2725 3163 
Q 2725 3675 2495 3965 
Q 2266 4256 1863 4256 
Q 1444 4256 1231 3979 
Q 1019 3703 1019 3163 
Q 1019 2619 1230 2344 
Q 1441 2069 1863 2069 
z
M 738 97 
L 738 678 
Q 934 563 1156 502 
Q 1378 441 1619 441 
Q 2219 441 2526 892 
Q 2834 1344 2834 2222 
Q 2688 1909 2422 1742 
Q 2156 1575 1813 1575 
Q 1138 1575 767 1990 
Q 397 2406 397 3169 
Q 397 3922 776 4336 
Q 1156 4750 1850 4750 
Q 2663 4750 3041 4165 
Q 3419 3581 3419 2328 
Q 3419 1150 2964 529 
Q 2509 -91 1644 -91 
Q 1416 -91 1184 -42 
Q 953 6 738 97 
z
" transform="scale(0.015625)"/>
      <path id="DejaVuSansMono-35" d="M 647 4666 
L 3009 4666 
L 3009 4134 
L 1222 4134 
L 1222 2988 
Q 1356 3038 1492 3061 
Q 1628 3084 1766 3084 
Q 2491 3084 2916 2656 
Q 3341 2228 3341 1497 
Q 3341 759 2895 334 
Q 2450 -91 1678 -91 
Q 1306 -91 998 -41 
Q 691 9 447 109 
L 447 750 
Q 734 594 1025 517 
Q 1316 441 1619 441 
Q 2141 441 2423 716 
Q 2706 991 2706 1497 
Q 2706 1997 2414 2275 
Q 2122 2553 1600 2553 
Q 1347 2553 1106 2495 
Q 866 2438 647 2322 
L 647 4666 
z
" transform="scale(0.015625)"/>
      <path id="DejaVuSansMono-20" transform="scale(0.015625)"/>
      <path id="DejaVuSansMono-3d" d="M 275 1638 
L 3578 1638 
L 3578 1100 
L 275 1100 
L 275 1638 
z
M 275 2906 
L 3578 2906 
L 3578 2375 
L 275 2375 
L 275 2906 
z
" transform="scale(0.015625)"/>
     </defs>
     <use xlink:href="#DejaVuSansMono-30"/>
     <use xlink:href="#DejaVuSansMono-2e" x="60.205078"/>
     <use xlink:href="#DejaVuSansMono-30" x="120.410156"/>
     <use xlink:href="#DejaVuSansMono-31" x="180.615234"/>
     <use xlink:href="#DejaVuSansMono-d7" x="240.820312"/>
     <use xlink:href="#DejaVuSansMono-30" x="301.025391"/>
     <use xlink:href="#DejaVuSansMono-2e" x="361.230469"/>
     <use xlink:href="#DejaVuSansMono-39" x="421.435547"/>
     <use xlink:href="#DejaVuSansMono-35" x="481.640625"/>
     <use xlink:href="#DejaVuSansMono-20" x="541.845703"/>
     <use xlink:href="#DejaVuSansMono-3d" x="602.050781"/>
     <use xlink:href="#DejaVuSansMono-20" x="662.255859"/>
     <use xlink:href="#DejaVuSansMono-30" x="722.460938"/>
     <use xlink:href="#DejaVuSansMono-2e" x="782.666016"/>
     <use xlink:href="#DejaVuSansMono-30" x="842.871094"/>
     <use xlink:href="#DejaVuSansMono-30" x="903.076172"/>
     <use xlink:href="#DejaVuSansMono-39" x="963.28125"/>
     <use xlink:href="#DejaVuSansMono-35" x="1023.486328"/>
    </g>
   </g>
   <g id="text_16">
    <!-- 0.01×0.05 = 0.0005 -->
    <g transform="translate(592.41375 228.96) scale(0.08 -0.08)">
     <use xlink:href="#DejaVuSansMono-30"/>
     <use xlink:href="#DejaVuSansMono-2e" x="60.205078"/>
     <use xlink:href="#DejaVuSansMono-30" x="120.410156"/>
     <use xlink:href="#DejaVuSansMono-31" x="180.615234"/>
     <use xlink:href="#DejaVuSansMono-d7" x="240.820312"/>
     <use xlink:href="#DejaVuSansMono-30" x="301.025391"/>
     <use xlink:href="#DejaVuSansMono-2e" x="361.230469"/>
     <use xlink:href="#DejaVuSansMono-30" x="421.435547"/>
     <use xlink:href="#DejaVuSansMono-35" x="481.640625"/>
     <use xlink:href="#DejaVuSansMono-20" x="541.845703"/>
     <use xlink:href="#DejaVuSansMono-3d" x="602.050781"/>
     <use xlink:href="#DejaVuSansMono-20" x="662.255859"/>
     <use xlink:href="#DejaVuSansMono-30" x="722.460938"/>
     <use xlink:href="#DejaVuSansMono-2e" x="782.666016"/>
     <use xlink:href="#DejaVuSansMono-30" x="842.871094"/>
     <use xlink:href="#DejaVuSansMono-30" x="903.076172"/>
     <use xlink:href="#DejaVuSansMono-30" x="963.28125"/>
     <use xlink:href="#DejaVuSansMono-35" x="1023.486328"/>
    </g>
   </g>
   <g id="text_17">
    <!-- 0.99×0.02 = 0.0198 -->
    <g transform="translate(592.41375 339.84) scale(0.08 -0.08)">
     <defs>
      <path id="DejaVuSansMono-32" d="M 1166 531 
L 3309 531 
L 3309 0 
L 475 0 
L 475 531 
Q 1059 1147 1496 1619 
Q 1934 2091 2100 2284 
Q 2413 2666 2522 2902 
Q 2631 3138 2631 3384 
Q 2631 3775 2401 3997 
Q 2172 4219 1772 4219 
Q 1488 4219 1175 4116 
Q 863 4013 513 3803 
L 513 4441 
Q 834 4594 1145 4672 
Q 1456 4750 1759 4750 
Q 2444 4750 2861 4386 
Q 3278 4022 3278 3431 
Q 3278 3131 3139 2831 
Q 3000 2531 2688 2169 
Q 2513 1966 2180 1606 
Q 1847 1247 1166 531 
z
" transform="scale(0.015625)"/>
      <path id="DejaVuSansMono-38" d="M 1925 2216 
Q 1503 2216 1273 1980 
Q 1044 1744 1044 1313 
Q 1044 881 1276 642 
Q 1509 403 1925 403 
Q 2350 403 2579 639 
Q 2809 875 2809 1313 
Q 2809 1741 2576 1978 
Q 2344 2216 1925 2216 
z
M 1375 2478 
Q 972 2581 745 2862 
Q 519 3144 519 3541 
Q 519 4097 897 4423 
Q 1275 4750 1925 4750 
Q 2578 4750 2956 4423 
Q 3334 4097 3334 3541 
Q 3334 3144 3107 2862 
Q 2881 2581 2478 2478 
Q 2947 2375 3195 2062 
Q 3444 1750 3444 1253 
Q 3444 622 3041 265 
Q 2638 -91 1925 -91 
Q 1213 -91 811 264 
Q 409 619 409 1247 
Q 409 1747 657 2061 
Q 906 2375 1375 2478 
z
M 1147 3481 
Q 1147 3106 1347 2909 
Q 1547 2713 1925 2713 
Q 2306 2713 2506 2909 
Q 2706 3106 2706 3481 
Q 2706 3863 2507 4063 
Q 2309 4263 1925 4263 
Q 1547 4263 1347 4061 
Q 1147 3859 1147 3481 
z
" transform="scale(0.015625)"/>
     </defs>
     <use xlink:href="#DejaVuSansMono-30"/>
     <use xlink:href="#DejaVuSansMono-2e" x="60.205078"/>
     <use xlink:href="#DejaVuSansMono-39" x="120.410156"/>
     <use xlink:href="#DejaVuSansMono-39" x="180.615234"/>
     <use xlink:href="#DejaVuSansMono-d7" x="240.820312"/>
     <use xlink:href="#DejaVuSansMono-30" x="301.025391"/>
     <use xlink:href="#DejaVuSansMono-2e" x="361.230469"/>
     <use xlink:href="#DejaVuSansMono-30" x="421.435547"/>
     <use xlink:href="#DejaVuSansMono-32" x="481.640625"/>
     <use xlink:href="#DejaVuSansMono-20" x="541.845703"/>
     <use xlink:href="#DejaVuSansMono-3d" x="602.050781"/>
     <use xlink:href="#DejaVuSansMono-20" x="662.255859"/>
     <use xlink:href="#DejaVuSansMono-30" x="722.460938"/>
     <use xlink:href="#DejaVuSansMono-2e" x="782.666016"/>
     <use xlink:href="#DejaVuSansMono-30" x="842.871094"/>
     <use xlink:href="#DejaVuSansMono-31" x="903.076172"/>
     <use xlink:href="#DejaVuSansMono-39" x="963.28125"/>
     <use xlink:href="#DejaVuSansMono-38" x="1023.486328"/>
    </g>
   </g>
   <g id="text_18">
    <!-- 0.99×0.98 = 0.9702 -->
    <g transform="translate(592.41375 450.72) scale(0.08 -0.08)">
     <defs>
      <path id="DejaVuSansMono-37" d="M 434 4666 
L 3372 4666 
L 3372 4397 
L 1703 0 
L 1044 0 
L 2669 4134 
L 434 4134 
L 434 4666 
z
" transform="scale(0.015625)"/>
     </defs>
     <use xlink:href="#DejaVuSansMono-30"/>
     <use xlink:href="#DejaVuSansMono-2e" x="60.205078"/>
     <use xlink:href="#DejaVuSansMono-39" x="120.410156"/>
     <use xlink:href="#DejaVuSansMono-39" x="180.615234"/>
     <use xlink:href="#DejaVuSansMono-d7" x="240.820312"/>
     <use xlink:href="#DejaVuSansMono-30" x="301.025391"/>
     <use xlink:href="#DejaVuSansMono-2e" x="361.230469"/>
     <use xlink:href="#DejaVuSansMono-39" x="421.435547"/>
     <use xlink:href="#DejaVuSansMono-38" x="481.640625"/>
     <use xlink:href="#DejaVuSansMono-20" x="541.845703"/>
     <use xlink:href="#DejaVuSansMono-3d" x="602.050781"/>
     <use xlink:href="#DejaVuSansMono-20" x="662.255859"/>
     <use xlink:href="#DejaVuSansMono-30" x="722.460938"/>
     <use xlink:href="#DejaVuSansMono-2e" x="782.666016"/>
     <use xlink:href="#DejaVuSansMono-39" x="842.871094"/>
     <use xlink:href="#DejaVuSansMono-37" x="903.076172"/>
     <use xlink:href="#DejaVuSansMono-30" x="963.28125"/>
     <use xlink:href="#DejaVuSansMono-32" x="1023.486328"/>
    </g>
   </g>
   <g id="text_19">
    <g id="patch_8">
     <path d="M 211.054687 539.237812 
L 501.745312 539.237812 
Q 504.745312 539.237812 504.745312 536.237812 
L 504.745312 526.237812 
Q 504.745312 523.237812 501.745312 523.237812 
L 211.054687 523.237812 
Q 208.054687 523.237812 208.054687 526.237812 
L 208.054687 536.237812 
Q 208.054687 539.237812 211.054687 539.237812 
z
" style="fill: #fff9c4; stroke: #ffa500; stroke-width: 2; stroke-linejoin: miter"/>
    </g>
    <!-- P(E|+) = P(E∩+)/P(+) = 0.0095/(0.0095+0.0198) = 0.324 -->
    <g transform="translate(211.054687 533.88) scale(0.1 -0.1)">
     <defs>
      <path id="DejaVuSans-2229" d="M 825 1850 
Q 825 2775 1208 3240 
Q 1591 3706 2344 3706 
Q 3094 3706 3476 3240 
Q 3859 2775 3859 1850 
L 3859 0 
L 3322 0 
L 3322 1772 
Q 3322 2534 3090 2864 
Q 2859 3194 2344 3194 
Q 1825 3194 1594 2864 
Q 1363 2534 1363 1772 
L 1363 0 
L 825 0 
L 825 1850 
z
" transform="scale(0.015625)"/>
      <path id="DejaVuSans-2f" d="M 1625 4666 
L 2156 4666 
L 531 -594 
L 0 -594 
L 1625 4666 
z
" transform="scale(0.015625)"/>
      <path id="DejaVuSans-33" d="M 2597 2516 
Q 3050 2419 3304 2112 
Q 3559 1806 3559 1356 
Q 3559 666 3084 287 
Q 2609 -91 1734 -91 
Q 1441 -91 1130 -33 
Q 819 25 488 141 
L 488 750 
Q 750 597 1062 519 
Q 1375 441 1716 441 
Q 2309 441 2620 675 
Q 2931 909 2931 1356 
Q 2931 1769 2642 2001 
Q 2353 2234 1838 2234 
L 1294 2234 
L 1294 2753 
L 1863 2753 
Q 2328 2753 2575 2939 
Q 2822 3125 2822 3475 
Q 2822 3834 2567 4026 
Q 2313 4219 1838 4219 
Q 1578 4219 1281 4162 
Q 984 4106 628 3988 
L 628 4550 
Q 988 4650 1302 4700 
Q 1616 4750 1894 4750 
Q 2613 4750 3031 4423 
Q 3450 4097 3450 3541 
Q 3450 3153 3228 2886 
Q 3006 2619 2597 2516 
z
" transform="scale(0.015625)"/>
      <path id="DejaVuSans-34" d="M 2419 4116 
L 825 1625 
L 2419 1625 
L 2419 4116 
z
M 2253 4666 
L 3047 4666 
L 3047 1625 
L 3713 1625 
L 3713 1100 
L 3047 1100 
L 3047 0 
L 2419 0 
L 2419 1100 
L 313 1100 
L 313 1709 
L 2253 4666 
z
" transform="scale(0.015625)"/>
     </defs>
     <use xlink:href="#DejaVuSans-50"/>
     <use xlink:href="#DejaVuSans-28" x="60.302734"/>
     <use xlink:href="#DejaVuSans-45" x="99.316406"/>
     <use xlink:href="#DejaVuSans-7c" x="162.5"/>
     <use xlink:href="#DejaVuSans-2b" x="196.191406"/>
     <use xlink:href="#DejaVuSans-29" x="279.980469"/>
     <use xlink:href="#DejaVuSans-20" x="318.994141"/>
     <use xlink:href="#DejaVuSans-3d" x="350.78125"/>
     <use xlink:href="#DejaVuSans-20" x="434.570312"/>
     <use xlink:href="#DejaVuSans-50" x="466.357422"/>
     <use xlink:href="#DejaVuSans-28" x="526.660156"/>
     <use xlink:href="#DejaVuSans-45" x="565.673828"/>
     <use xlink:href="#DejaVuSans-2229" x="628.857422"/>
     <use xlink:href="#DejaVuSans-2b" x="702.050781"/>
     <use xlink:href="#DejaVuSans-29" x="785.839844"/>
     <use xlink:href="#DejaVuSans-2f" x="824.853516"/>
     <use xlink:href="#DejaVuSans-50" x="858.544922"/>
     <use xlink:href="#DejaVuSans-28" x="918.847656"/>
     <use xlink:href="#DejaVuSans-2b" x="957.861328"/>
     <use xlink:href="#DejaVuSans-29" x="1041.650391"/>
     <use xlink:href="#DejaVuSans-20" x="1080.664062"/>
     <use xlink:href="#DejaVuSans-3d" x="1112.451172"/>
     <use xlink:href="#DejaVuSans-20" x="1196.240234"/>
     <use xlink:href="#DejaVuSans-30" x="1228.027344"/>
     <use xlink:href="#DejaVuSans-2e" x="1291.650391"/>
     <use xlink:href="#DejaVuSans-30" x="1323.4375"/>
     <use xlink:href="#DejaVuSans-30" x="1387.060547"/>
     <use xlink:href="#DejaVuSans-39" x="1450.683594"/>
     <use xlink:href="#DejaVuSans-35" x="1514.306641"/>
     <use xlink:href="#DejaVuSans-2f" x="1577.929688"/>
     <use xlink:href="#DejaVuSans-28" x="1611.621094"/>
     <use xlink:href="#DejaVuSans-30" x="1650.634766"/>
     <use xlink:href="#DejaVuSans-2e" x="1714.257812"/>
     <use xlink:href="#DejaVuSans-30" x="1746.044922"/>
     <use xlink:href="#DejaVuSans-30" x="1809.667969"/>
     <use xlink:href="#DejaVuSans-39" x="1873.291016"/>
     <use xlink:href="#DejaVuSans-35" x="1936.914062"/>
     <use xlink:href="#DejaVuSans-2b" x="2000.537109"/>
     <use xlink:href="#DejaVuSans-30" x="2084.326172"/>
     <use xlink:href="#DejaVuSans-2e" x="2147.949219"/>
     <use xlink:href="#DejaVuSans-30" x="2179.736328"/>
     <use xlink:href="#DejaVuSans-31" x="2243.359375"/>
     <use xlink:href="#DejaVuSans-39" x="2306.982422"/>
     <use xlink:href="#DejaVuSans-38" x="2370.605469"/>
     <use xlink:href="#DejaVuSans-29" x="2434.228516"/>
     <use xlink:href="#DejaVuSans-20" x="2473.242188"/>
     <use xlink:href="#DejaVuSans-3d" x="2505.029297"/>
     <use xlink:href="#DejaVuSans-20" x="2588.818359"/>
     <use xlink:href="#DejaVuSans-30" x="2620.605469"/>
     <use xlink:href="#DejaVuSans-2e" x="2684.228516"/>
     <use xlink:href="#DejaVuSans-33" x="2716.015625"/>
     <use xlink:href="#DejaVuSans-32" x="2779.638672"/>
     <use xlink:href="#DejaVuSans-34" x="2843.261719"/>
    </g>
   </g>
  </g>
 </g>
 <defs>
  <clipPath id="paba282b8b5">
   <rect x="7.2" y="7.2" width="698.4" height="554.4"/>
  </clipPath>
 </defs>
</svg>
