<?xml version="1.0" encoding="utf-8" standalone="no"?>
<!DOCTYPE svg PUBLIC "-//W3C//DTD SVG 1.1//EN"
  "http://www.w3.org/Graphics/SVG/1.1/DTD/svg11.dtd">
<svg xmlns:xlink="http://www.w3.org/1999/xlink" width="1000.8pt" height="424.8pt" viewBox="0 0 1000.8 424.8" xmlns="http://www.w3.org/2000/svg" version="1.1">
 <metadata>
  <rdf:RDF xmlns:dc="http://purl.org/dc/elements/1.1/" xmlns:cc="http://creativecommons.org/ns#" xmlns:rdf="http://www.w3.org/1999/02/22-rdf-syntax-ns#">
   <cc:Work>
    <dc:type rdf:resource="http://purl.org/dc/dcmitype/StillImage"/>
    <dc:date>2026-04-19T20:13:42.398202</dc:date>
    <dc:format>image/svg+xml</dc:format>
    <dc:creator>
     <cc:Agent>
      <dc:title>Matplotlib v3.9.4, https://matplotlib.org/</dc:title>
     </cc:Agent>
    </dc:creator>
   </cc:Work>
  </rdf:RDF>
 </metadata>
 <defs>
  <style type="text/css">*{stroke-linejoin: round; stroke-linecap: butt}</style>
 </defs>
 <g id="figure_1">
  <g id="patch_1">
   <path d="M 0 424.8 
L 1000.8 424.8 
L 1000.8 0 
L 0 0 
z
" style="fill: #ffffff"/>
  </g>
  <g id="axes_1">
   <g id="patch_2">
    <path d="M 55.178489 263.7 
L 175.12471 263.7 
L 175.12471 84.15 
L 55.178489 84.15 
z
" clip-path="url(#p7c3b648c39)" style="fill: #ffcccc; stroke: #000000; stroke-width: 2; stroke-linejoin: miter"/>
   </g>
   <g id="patch_3">
    <path d="M 175.12471 263.7 
L 319.060176 263.7 
L 319.060176 84.15 
L 175.12471 84.15 
z
" clip-path="url(#p7c3b648c39)" style="fill: #ccffcc; stroke: #000000; stroke-width: 2; stroke-linejoin: miter"/>
   </g>
   <g id="patch_4">
    <path d="M 319.060176 263.7 
L 415.017153 263.7 
L 415.017153 84.15 
L 319.060176 84.15 
z
" clip-path="url(#p7c3b648c39)" style="fill: #ccccff; stroke: #000000; stroke-width: 2; stroke-linejoin: miter"/>
   </g>
   <g id="patch_5">
    <path d="M 415.017153 263.7 
L 534.963375 263.7 
L 534.963375 84.15 
L 415.017153 84.15 
z
" clip-path="url(#p7c3b648c39)" style="fill: #ffffcc; stroke: #000000; stroke-width: 2; stroke-linejoin: miter"/>
   </g>
   <g id="patch_6">
    <path d="M 79.167733 238.05 
L 343.04942 238.05 
L 343.04942 161.1 
L 79.167733 161.1 
z
" clip-path="url(#p7c3b648c39)" style="fill: #ffa500; opacity: 0.5; stroke-dasharray: 11.1,4.8; stroke-dashoffset: 0; stroke: #ff0000; stroke-width: 3; stroke-linejoin: miter"/>
   </g>
   <g id="text_1">
    <!-- TEOREMA DE LA PROBABILIDAD TOTAL -->
    <g transform="translate(116.475256 32.85) scale(0.12 -0.12)">
     <defs>
      <path id="DejaVuSans-Bold-54" d="M 31 4666 
L 4331 4666 
L 4331 3756 
L 2784 3756 
L 2784 0 
L 1581 0 
L 1581 3756 
L 31 3756 
L 31 4666 
z
" transform="scale(0.015625)"/>
      <path id="DejaVuSans-Bold-45" d="M 588 4666 
L 3834 4666 
L 3834 3756 
L 1791 3756 
L 1791 2888 
L 3713 2888 
L 3713 1978 
L 1791 1978 
L 1791 909 
L 3903 909 
L 3903 0 
L 588 0 
L 588 4666 
z
" transform="scale(0.015625)"/>
      <path id="DejaVuSans-Bold-4f" d="M 2719 3878 
Q 2169 3878 1866 3472 
Q 1563 3066 1563 2328 
Q 1563 1594 1866 1187 
Q 2169 781 2719 781 
Q 3272 781 3575 1187 
Q 3878 1594 3878 2328 
Q 3878 3066 3575 3472 
Q 3272 3878 2719 3878 
z
M 2719 4750 
Q 3844 4750 4481 4106 
Q 5119 3463 5119 2328 
Q 5119 1197 4481 553 
Q 3844 -91 2719 -91 
Q 1597 -91 958 553 
Q 319 1197 319 2328 
Q 319 3463 958 4106 
Q 1597 4750 2719 4750 
z
" transform="scale(0.015625)"/>
      <path id="DejaVuSans-Bold-52" d="M 2297 2597 
Q 2675 2597 2839 2737 
Q 3003 2878 3003 3200 
Q 3003 3519 2839 3656 
Q 2675 3794 2297 3794 
L 1791 3794 
L 1791 2597 
L 2297 2597 
z
M 1791 1766 
L 1791 0 
L 588 0 
L 588 4666 
L 2425 4666 
Q 3347 4666 3776 4356 
Q 4206 4047 4206 3378 
Q 4206 2916 3982 2619 
Q 3759 2322 3309 2181 
Q 3556 2125 3751 1926 
Q 3947 1728 4147 1325 
L 4800 0 
L 3519 0 
L 2950 1159 
Q 2778 1509 2601 1637 
Q 2425 1766 2131 1766 
L 1791 1766 
z
" transform="scale(0.015625)"/>
      <path id="DejaVuSans-Bold-4d" d="M 588 4666 
L 2119 4666 
L 3181 2169 
L 4250 4666 
L 5778 4666 
L 5778 0 
L 4641 0 
L 4641 3413 
L 3566 897 
L 2803 897 
L 1728 3413 
L 1728 0 
L 588 0 
L 588 4666 
z
" transform="scale(0.015625)"/>
      <path id="DejaVuSans-Bold-41" d="M 3419 850 
L 1538 850 
L 1241 0 
L 31 0 
L 1759 4666 
L 3194 4666 
L 4922 0 
L 3713 0 
L 3419 850 
z
M 1838 1716 
L 3116 1716 
L 2478 3572 
L 1838 1716 
z
" transform="scale(0.015625)"/>
      <path id="DejaVuSans-Bold-20" transform="scale(0.015625)"/>
      <path id="DejaVuSans-Bold-44" d="M 1791 3756 
L 1791 909 
L 2222 909 
Q 2959 909 3348 1275 
Q 3738 1641 3738 2338 
Q 3738 3031 3350 3393 
Q 2963 3756 2222 3756 
L 1791 3756 
z
M 588 4666 
L 1856 4666 
Q 2919 4666 3439 4514 
Q 3959 4363 4331 4000 
Q 4659 3684 4818 3271 
Q 4978 2859 4978 2338 
Q 4978 1809 4818 1395 
Q 4659 981 4331 666 
Q 3956 303 3431 151 
Q 2906 0 1856 0 
L 588 0 
L 588 4666 
z
" transform="scale(0.015625)"/>
      <path id="DejaVuSans-Bold-4c" d="M 588 4666 
L 1791 4666 
L 1791 909 
L 3903 909 
L 3903 0 
L 588 0 
L 588 4666 
z
" transform="scale(0.015625)"/>
      <path id="DejaVuSans-Bold-50" d="M 588 4666 
L 2584 4666 
Q 3475 4666 3951 4270 
Q 4428 3875 4428 3144 
Q 4428 2409 3951 2014 
Q 3475 1619 2584 1619 
L 1791 1619 
L 1791 0 
L 588 0 
L 588 4666 
z
M 1791 3794 
L 1791 2491 
L 2456 2491 
Q 2806 2491 2997 2661 
Q 3188 2831 3188 3144 
Q 3188 3456 2997 3625 
Q 2806 3794 2456 3794 
L 1791 3794 
z
" transform="scale(0.015625)"/>
      <path id="DejaVuSans-Bold-42" d="M 2456 2859 
Q 2741 2859 2887 2984 
Q 3034 3109 3034 3353 
Q 3034 3594 2887 3720 
Q 2741 3847 2456 3847 
L 1791 3847 
L 1791 2859 
L 2456 2859 
z
M 2497 819 
Q 2859 819 3042 972 
Q 3225 1125 3225 1434 
Q 3225 1738 3044 1889 
Q 2863 2041 2497 2041 
L 1791 2041 
L 1791 819 
L 2497 819 
z
M 3616 2497 
Q 4003 2384 4215 2081 
Q 4428 1778 4428 1338 
Q 4428 663 3972 331 
Q 3516 0 2584 0 
L 588 0 
L 588 4666 
L 2394 4666 
Q 3366 4666 3802 4372 
Q 4238 4078 4238 3431 
Q 4238 3091 4078 2852 
Q 3919 2613 3616 2497 
z
" transform="scale(0.015625)"/>
      <path id="DejaVuSans-Bold-49" d="M 588 4666 
L 1791 4666 
L 1791 0 
L 588 0 
L 588 4666 
z
" transform="scale(0.015625)"/>
     </defs>
     <use xlink:href="#DejaVuSans-Bold-54"/>
     <use xlink:href="#DejaVuSans-Bold-45" x="68.212891"/>
     <use xlink:href="#DejaVuSans-Bold-4f" x="136.523438"/>
     <use xlink:href="#DejaVuSans-Bold-52" x="221.533203"/>
     <use xlink:href="#DejaVuSans-Bold-45" x="298.535156"/>
     <use xlink:href="#DejaVuSans-Bold-4d" x="366.845703"/>
     <use xlink:href="#DejaVuSans-Bold-41" x="466.357422"/>
     <use xlink:href="#DejaVuSans-Bold-20" x="543.75"/>
     <use xlink:href="#DejaVuSans-Bold-44" x="578.564453"/>
     <use xlink:href="#DejaVuSans-Bold-45" x="661.572266"/>
     <use xlink:href="#DejaVuSans-Bold-20" x="729.882812"/>
     <use xlink:href="#DejaVuSans-Bold-4c" x="764.697266"/>
     <use xlink:href="#DejaVuSans-Bold-41" x="828.417969"/>
     <use xlink:href="#DejaVuSans-Bold-20" x="905.810547"/>
     <use xlink:href="#DejaVuSans-Bold-50" x="940.625"/>
     <use xlink:href="#DejaVuSans-Bold-52" x="1013.916016"/>
     <use xlink:href="#DejaVuSans-Bold-4f" x="1090.917969"/>
     <use xlink:href="#DejaVuSans-Bold-42" x="1175.927734"/>
     <use xlink:href="#DejaVuSans-Bold-41" x="1252.148438"/>
     <use xlink:href="#DejaVuSans-Bold-42" x="1329.541016"/>
     <use xlink:href="#DejaVuSans-Bold-49" x="1405.761719"/>
     <use xlink:href="#DejaVuSans-Bold-4c" x="1442.96875"/>
     <use xlink:href="#DejaVuSans-Bold-49" x="1506.689453"/>
     <use xlink:href="#DejaVuSans-Bold-44" x="1543.896484"/>
     <use xlink:href="#DejaVuSans-Bold-41" x="1626.904297"/>
     <use xlink:href="#DejaVuSans-Bold-44" x="1704.296875"/>
     <use xlink:href="#DejaVuSans-Bold-20" x="1787.304688"/>
     <use xlink:href="#DejaVuSans-Bold-54" x="1822.119141"/>
     <use xlink:href="#DejaVuSans-Bold-4f" x="1890.332031"/>
     <use xlink:href="#DejaVuSans-Bold-54" x="1975.341797"/>
     <use xlink:href="#DejaVuSans-Bold-41" x="2035.804688"/>
     <use xlink:href="#DejaVuSans-Bold-4c" x="2113.197266"/>
    </g>
   </g>
   <g id="text_2">
    <!-- A₁ -->
    <g transform="translate(106.668474 177.788125) scale(0.14 -0.14)">
     <defs>
      <path id="DejaVuSans-Bold-2081" d="M 441 466 
L 1088 466 
L 1088 2094 
L 384 1932 
L 384 2432 
L 1100 2585 
L 1806 2585 
L 1806 466 
L 2444 466 
L 2444 -24 
L 441 -24 
L 441 466 
z
" transform="scale(0.015625)"/>
     </defs>
     <use xlink:href="#DejaVuSans-Bold-41"/>
     <use xlink:href="#DejaVuSans-Bold-2081" x="77.392578"/>
    </g>
   </g>
   <g id="text_3">
    <!-- P(A₁)=0.25 -->
    <g transform="translate(90.253943 289.35) scale(0.09 -0.09)">
     <defs>
      <path id="DejaVuSans-50" d="M 1259 4147 
L 1259 2394 
L 2053 2394 
Q 2494 2394 2734 2622 
Q 2975 2850 2975 3272 
Q 2975 3691 2734 3919 
Q 2494 4147 2053 4147 
L 1259 4147 
z
M 628 4666 
L 2053 4666 
Q 2838 4666 3239 4311 
Q 3641 3956 3641 3272 
Q 3641 2581 3239 2228 
Q 2838 1875 2053 1875 
L 1259 1875 
L 1259 0 
L 628 0 
L 628 4666 
z
" transform="scale(0.015625)"/>
      <path id="DejaVuSans-28" d="M 1984 4856 
Q 1566 4138 1362 3434 
Q 1159 2731 1159 2009 
Q 1159 1288 1364 580 
Q 1569 -128 1984 -844 
L 1484 -844 
Q 1016 -109 783 600 
Q 550 1309 550 2009 
Q 550 2706 781 3412 
Q 1013 4119 1484 4856 
L 1984 4856 
z
" transform="scale(0.015625)"/>
      <path id="DejaVuSans-41" d="M 2188 4044 
L 1331 1722 
L 3047 1722 
L 2188 4044 
z
M 1831 4666 
L 2547 4666 
L 4325 0 
L 3669 0 
L 3244 1197 
L 1141 1197 
L 716 0 
L 50 0 
L 1831 4666 
z
" transform="scale(0.015625)"/>
      <path id="DejaVuSans-2081" d="M 488 319 
L 1125 319 
L 1125 2229 
L 428 2101 
L 428 2463 
L 1147 2585 
L 1575 2585 
L 1575 319 
L 2216 319 
L 2216 -24 
L 488 -24 
L 488 319 
z
" transform="scale(0.015625)"/>
      <path id="DejaVuSans-29" d="M 513 4856 
L 1013 4856 
Q 1481 4119 1714 3412 
Q 1947 2706 1947 2009 
Q 1947 1309 1714 600 
Q 1481 -109 1013 -844 
L 513 -844 
Q 928 -128 1133 580 
Q 1338 1288 1338 2009 
Q 1338 2731 1133 3434 
Q 928 4138 513 4856 
z
" transform="scale(0.015625)"/>
      <path id="DejaVuSans-3d" d="M 678 2906 
L 4684 2906 
L 4684 2381 
L 678 2381 
L 678 2906 
z
M 678 1631 
L 4684 1631 
L 4684 1100 
L 678 1100 
L 678 1631 
z
" transform="scale(0.015625)"/>
      <path id="DejaVuSans-30" d="M 2034 4250 
Q 1547 4250 1301 3770 
Q 1056 3291 1056 2328 
Q 1056 1369 1301 889 
Q 1547 409 2034 409 
Q 2525 409 2770 889 
Q 3016 1369 3016 2328 
Q 3016 3291 2770 3770 
Q 2525 4250 2034 4250 
z
M 2034 4750 
Q 2819 4750 3233 4129 
Q 3647 3509 3647 2328 
Q 3647 1150 3233 529 
Q 2819 -91 2034 -91 
Q 1250 -91 836 529 
Q 422 1150 422 2328 
Q 422 3509 836 4129 
Q 1250 4750 2034 4750 
z
" transform="scale(0.015625)"/>
      <path id="DejaVuSans-2e" d="M 684 794 
L 1344 794 
L 1344 0 
L 684 0 
L 684 794 
z
" transform="scale(0.015625)"/>
      <path id="DejaVuSans-32" d="M 1228 531 
L 3431 531 
L 3431 0 
L 469 0 
L 469 531 
Q 828 903 1448 1529 
Q 2069 2156 2228 2338 
Q 2531 2678 2651 2914 
Q 2772 3150 2772 3378 
Q 2772 3750 2511 3984 
Q 2250 4219 1831 4219 
Q 1534 4219 1204 4116 
Q 875 4013 500 3803 
L 500 4441 
Q 881 4594 1212 4672 
Q 1544 4750 1819 4750 
Q 2544 4750 2975 4387 
Q 3406 4025 3406 3419 
Q 3406 3131 3298 2873 
Q 3191 2616 2906 2266 
Q 2828 2175 2409 1742 
Q 1991 1309 1228 531 
z
" transform="scale(0.015625)"/>
      <path id="DejaVuSans-35" d="M 691 4666 
L 3169 4666 
L 3169 4134 
L 1269 4134 
L 1269 2991 
Q 1406 3038 1543 3061 
Q 1681 3084 1819 3084 
Q 2600 3084 3056 2656 
Q 3513 2228 3513 1497 
Q 3513 744 3044 326 
Q 2575 -91 1722 -91 
Q 1428 -91 1123 -41 
Q 819 9 494 109 
L 494 744 
Q 775 591 1075 516 
Q 1375 441 1709 441 
Q 2250 441 2565 725 
Q 2881 1009 2881 1497 
Q 2881 1984 2565 2268 
Q 2250 2553 1709 2553 
Q 1456 2553 1204 2497 
Q 953 2441 691 2322 
L 691 4666 
z
" transform="scale(0.015625)"/>
     </defs>
     <use xlink:href="#DejaVuSans-50"/>
     <use xlink:href="#DejaVuSans-28" x="60.302734"/>
     <use xlink:href="#DejaVuSans-41" x="99.316406"/>
     <use xlink:href="#DejaVuSans-2081" x="167.724609"/>
     <use xlink:href="#DejaVuSans-29" x="207.8125"/>
     <use xlink:href="#DejaVuSans-3d" x="246.826172"/>
     <use xlink:href="#DejaVuSans-30" x="330.615234"/>
     <use xlink:href="#DejaVuSans-2e" x="394.238281"/>
     <use xlink:href="#DejaVuSans-32" x="426.025391"/>
     <use xlink:href="#DejaVuSans-35" x="489.648438"/>
    </g>
   </g>
   <g id="text_4">
    <!-- A₂ -->
    <g transform="translate(238.609318 177.788125) scale(0.14 -0.14)">
     <defs>
      <path id="DejaVuSans-Bold-2082" d="M 1288 501 
L 2444 501 
L 2444 -24 
L 341 -24 
L 341 454 
L 1319 1285 
Q 1509 1451 1590 1576 
Q 1672 1701 1672 1826 
Q 1672 1982 1558 2079 
Q 1444 2176 1259 2176 
Q 1066 2176 844 2105 
Q 622 2035 359 1888 
L 359 2469 
Q 631 2554 886 2596 
Q 1141 2638 1375 2638 
Q 1869 2638 2150 2436 
Q 2431 2235 2431 1888 
Q 2431 1663 2320 1474 
Q 2209 1285 1894 1016 
L 1288 501 
z
" transform="scale(0.015625)"/>
     </defs>
     <use xlink:href="#DejaVuSans-Bold-41"/>
     <use xlink:href="#DejaVuSans-Bold-2082" x="77.392578"/>
    </g>
   </g>
   <g id="text_5">
    <!-- P(A₂)=0.30 -->
    <g transform="translate(222.194787 289.35) scale(0.09 -0.09)">
     <defs>
      <path id="DejaVuSans-2082" d="M 838 332 
L 2163 332 
L 2163 -24 
L 294 -24 
L 294 319 
Q 400 416 597 591 
Q 1672 1544 1672 1838 
Q 1672 2044 1509 2170 
Q 1347 2297 1081 2297 
Q 919 2297 728 2242 
Q 538 2188 313 2079 
L 313 2463 
Q 553 2551 761 2594 
Q 969 2638 1147 2638 
Q 1600 2638 1872 2432 
Q 2144 2226 2144 1888 
Q 2144 1454 1109 566 
Q 934 416 838 332 
z
" transform="scale(0.015625)"/>
      <path id="DejaVuSans-33" d="M 2597 2516 
Q 3050 2419 3304 2112 
Q 3559 1806 3559 1356 
Q 3559 666 3084 287 
Q 2609 -91 1734 -91 
Q 1441 -91 1130 -33 
Q 819 25 488 141 
L 488 750 
Q 750 597 1062 519 
Q 1375 441 1716 441 
Q 2309 441 2620 675 
Q 2931 909 2931 1356 
Q 2931 1769 2642 2001 
Q 2353 2234 1838 2234 
L 1294 2234 
L 1294 2753 
L 1863 2753 
Q 2328 2753 2575 2939 
Q 2822 3125 2822 3475 
Q 2822 3834 2567 4026 
Q 2313 4219 1838 4219 
Q 1578 4219 1281 4162 
Q 984 4106 628 3988 
L 628 4550 
Q 988 4650 1302 4700 
Q 1616 4750 1894 4750 
Q 2613 4750 3031 4423 
Q 3450 4097 3450 3541 
Q 3450 3153 3228 2886 
Q 3006 2619 2597 2516 
z
" transform="scale(0.015625)"/>
     </defs>
     <use xlink:href="#DejaVuSans-50"/>
     <use xlink:href="#DejaVuSans-28" x="60.302734"/>
     <use xlink:href="#DejaVuSans-41" x="99.316406"/>
     <use xlink:href="#DejaVuSans-2082" x="167.724609"/>
     <use xlink:href="#DejaVuSans-29" x="207.8125"/>
     <use xlink:href="#DejaVuSans-3d" x="246.826172"/>
     <use xlink:href="#DejaVuSans-30" x="330.615234"/>
     <use xlink:href="#DejaVuSans-2e" x="394.238281"/>
     <use xlink:href="#DejaVuSans-33" x="426.025391"/>
     <use xlink:href="#DejaVuSans-30" x="489.648438"/>
    </g>
   </g>
   <g id="text_6">
    <!-- A₃ -->
    <g transform="translate(358.55554 177.788125) scale(0.14 -0.14)">
     <defs>
      <path id="DejaVuSans-Bold-2083" d="M 1850 1388 
Q 2138 1332 2297 1160 
Q 2456 988 2456 735 
Q 2456 332 2147 130 
Q 1838 -71 1209 -71 
Q 956 -71 725 -35 
Q 494 1 281 69 
L 281 613 
Q 488 501 688 443 
Q 888 385 1075 385 
Q 1372 385 1534 485 
Q 1697 585 1697 769 
Q 1697 969 1530 1064 
Q 1363 1160 1006 1160 
L 775 1160 
L 775 1588 
L 1038 1588 
Q 1344 1588 1484 1661 
Q 1625 1735 1625 1894 
Q 1625 2035 1503 2105 
Q 1381 2176 1131 2176 
Q 969 2176 776 2135 
Q 584 2094 366 2010 
L 366 2529 
Q 569 2582 805 2610 
Q 1041 2638 1313 2638 
Q 1834 2638 2111 2463 
Q 2388 2288 2388 1960 
Q 2388 1744 2247 1594 
Q 2106 1444 1850 1388 
z
" transform="scale(0.015625)"/>
     </defs>
     <use xlink:href="#DejaVuSans-Bold-41"/>
     <use xlink:href="#DejaVuSans-Bold-2083" x="77.392578"/>
    </g>
   </g>
   <g id="text_7">
    <!-- P(A₃)=0.20 -->
    <g transform="translate(342.141009 289.35) scale(0.09 -0.09)">
     <defs>
      <path id="DejaVuSans-2083" d="M 1638 1388 
Q 1925 1332 2083 1161 
Q 2241 991 2241 735 
Q 2241 347 1944 138 
Q 1647 -71 1094 -71 
Q 916 -71 720 -38 
Q 525 -6 306 57 
L 306 435 
Q 469 351 655 310 
Q 841 269 1050 269 
Q 1391 269 1578 392 
Q 1766 516 1766 735 
Q 1766 966 1592 1085 
Q 1419 1204 1081 1204 
L 813 1204 
L 813 1541 
L 1106 1541 
Q 1400 1541 1551 1639 
Q 1703 1738 1703 1926 
Q 1703 2107 1547 2202 
Q 1391 2297 1094 2297 
Q 969 2297 809 2269 
Q 650 2241 397 2169 
L 397 2529 
Q 625 2582 825 2610 
Q 1025 2638 1197 2638 
Q 1647 2638 1911 2453 
Q 2175 2269 2175 1960 
Q 2175 1744 2034 1594 
Q 1894 1444 1638 1388 
z
" transform="scale(0.015625)"/>
     </defs>
     <use xlink:href="#DejaVuSans-50"/>
     <use xlink:href="#DejaVuSans-28" x="60.302734"/>
     <use xlink:href="#DejaVuSans-41" x="99.316406"/>
     <use xlink:href="#DejaVuSans-2083" x="167.724609"/>
     <use xlink:href="#DejaVuSans-29" x="207.8125"/>
     <use xlink:href="#DejaVuSans-3d" x="246.826172"/>
     <use xlink:href="#DejaVuSans-30" x="330.615234"/>
     <use xlink:href="#DejaVuSans-2e" x="394.238281"/>
     <use xlink:href="#DejaVuSans-32" x="426.025391"/>
     <use xlink:href="#DejaVuSans-30" x="489.648438"/>
    </g>
   </g>
   <g id="text_8">
    <!-- A₄ -->
    <g transform="translate(466.507139 177.788125) scale(0.14 -0.14)">
     <defs>
      <path id="DejaVuSans-Bold-2084" d="M 1397 1976 
L 650 966 
L 1397 966 
L 1397 1976 
z
M 1341 2585 
L 2116 2585 
L 2116 966 
L 2544 966 
L 2544 482 
L 2116 482 
L 2116 -24 
L 1397 -24 
L 1397 482 
L 175 482 
L 175 1007 
L 1341 2585 
z
" transform="scale(0.015625)"/>
     </defs>
     <use xlink:href="#DejaVuSans-Bold-41"/>
     <use xlink:href="#DejaVuSans-Bold-2084" x="77.392578"/>
    </g>
   </g>
   <g id="text_9">
    <!-- P(A₄)=0.25 -->
    <g transform="translate(450.092608 289.35) scale(0.09 -0.09)">
     <defs>
      <path id="DejaVuSans-2084" d="M 1491 2207 
L 525 897 
L 1491 897 
L 1491 2207 
z
M 1422 2585 
L 1941 2585 
L 1941 897 
L 2363 897 
L 2363 557 
L 1941 557 
L 1941 -24 
L 1491 -24 
L 1491 557 
L 197 557 
L 197 935 
L 1422 2585 
z
" transform="scale(0.015625)"/>
     </defs>
     <use xlink:href="#DejaVuSans-50"/>
     <use xlink:href="#DejaVuSans-28" x="60.302734"/>
     <use xlink:href="#DejaVuSans-41" x="99.316406"/>
     <use xlink:href="#DejaVuSans-2084" x="167.724609"/>
     <use xlink:href="#DejaVuSans-29" x="207.8125"/>
     <use xlink:href="#DejaVuSans-3d" x="246.826172"/>
     <use xlink:href="#DejaVuSans-30" x="330.615234"/>
     <use xlink:href="#DejaVuSans-2e" x="394.238281"/>
     <use xlink:href="#DejaVuSans-32" x="426.025391"/>
     <use xlink:href="#DejaVuSans-35" x="489.648438"/>
    </g>
   </g>
   <g id="text_10">
    <!-- Ω -->
    <g transform="translate(20.987369 177.23625) scale(0.12 -0.12)">
     <defs>
      <path id="DejaVuSans-Bold-3a9" d="M 2719 4750 
Q 3841 4750 4480 4106 
Q 5119 3463 5119 2494 
Q 5119 1406 4306 909 
L 5266 909 
L 5266 0 
L 3125 0 
L 3125 975 
Q 3244 1041 3334 1131 
Q 3875 1678 3875 2466 
Q 3875 3066 3572 3472 
Q 3269 3878 2719 3878 
Q 2169 3878 1866 3472 
Q 1563 3066 1563 2466 
Q 1563 1678 2103 1131 
Q 2194 1041 2313 975 
L 2313 0 
L 172 0 
L 172 909 
L 1131 909 
Q 319 1406 319 2494 
Q 319 3463 958 4106 
Q 1597 4750 2719 4750 
z
" transform="scale(0.015625)"/>
     </defs>
     <use xlink:href="#DejaVuSans-Bold-3a9"/>
    </g>
   </g>
   <g id="text_11">
    <!-- B -->
    <g style="fill: #ff0000" transform="translate(205.773264 203.438125) scale(0.14 -0.14)">
     <use xlink:href="#DejaVuSans-Bold-42"/>
    </g>
   </g>
   <g id="text_12">
    <g id="patch_7">
     <path d="M 174.877443 408.85 
L 319.307443 408.85 
Q 323.207443 408.85 323.207443 404.95 
L 323.207443 371.15 
Q 323.207443 367.25 319.307443 367.25 
L 174.877443 367.25 
Q 170.977443 367.25 170.977443 371.15 
L 170.977443 404.95 
Q 170.977443 408.85 174.877443 408.85 
z
" style="fill: #ffff00; stroke: #ff0000; stroke-width: 2; stroke-linejoin: miter"/>
    </g>
    <!-- $P(B) = \sum_{i=1}^{n} P(A_i) \cdot P(B|A_i)$ -->
    <g transform="translate(174.877443 391.95) scale(0.13 -0.13)">
     <defs>
      <path id="DejaVuSans-Oblique-50" d="M 1081 4666 
L 2541 4666 
Q 3178 4666 3512 4369 
Q 3847 4072 3847 3500 
Q 3847 2731 3353 2303 
Q 2859 1875 1966 1875 
L 1172 1875 
L 806 0 
L 172 0 
L 1081 4666 
z
M 1613 4147 
L 1275 2394 
L 2069 2394 
Q 2606 2394 2893 2669 
Q 3181 2944 3181 3456 
Q 3181 3784 2986 3965 
Q 2791 4147 2438 4147 
L 1613 4147 
z
" transform="scale(0.015625)"/>
      <path id="DejaVuSans-Oblique-42" d="M 1081 4666 
L 2694 4666 
Q 3350 4666 3675 4422 
Q 4000 4178 4000 3688 
Q 4000 3238 3720 2911 
Q 3441 2584 2988 2516 
Q 3375 2428 3569 2181 
Q 3763 1934 3763 1522 
Q 3763 819 3242 409 
Q 2722 0 1819 0 
L 172 0 
L 1081 4666 
z
M 1234 2228 
L 903 519 
L 1919 519 
Q 2491 519 2800 781 
Q 3109 1044 3109 1522 
Q 3109 1891 2904 2059 
Q 2700 2228 2247 2228 
L 1234 2228 
z
M 1606 4147 
L 1331 2741 
L 2272 2741 
Q 2775 2741 3058 2959 
Q 3341 3178 3341 3566 
Q 3341 3869 3150 4008 
Q 2959 4147 2541 4147 
L 1606 4147 
z
" transform="scale(0.015625)"/>
      <path id="DejaVuSans-Oblique-6e" d="M 3566 2113 
L 3156 0 
L 2578 0 
L 2988 2091 
Q 3016 2238 3031 2350 
Q 3047 2463 3047 2528 
Q 3047 2791 2881 2937 
Q 2716 3084 2419 3084 
Q 1956 3084 1622 2776 
Q 1288 2469 1184 1941 
L 800 0 
L 225 0 
L 903 3500 
L 1478 3500 
L 1363 2950 
Q 1603 3253 1940 3418 
Q 2278 3584 2650 3584 
Q 3113 3584 3367 3334 
Q 3622 3084 3622 2631 
Q 3622 2519 3608 2391 
Q 3594 2263 3566 2113 
z
" transform="scale(0.015625)"/>
      <path id="DejaVuSansDisplay-2211" d="M 244 6509 
L 5803 6509 
L 5803 5656 
L 1566 5656 
L 4534 2488 
L 1469 -888 
L 5919 -888 
L 5919 -1738 
L 109 -1738 
L 109 -1078 
L 3316 2463 
L 244 5728 
L 244 6509 
z
" transform="scale(0.015625)"/>
      <path id="DejaVuSans-Oblique-69" d="M 1172 4863 
L 1747 4863 
L 1606 4134 
L 1031 4134 
L 1172 4863 
z
M 909 3500 
L 1484 3500 
L 800 0 
L 225 0 
L 909 3500 
z
" transform="scale(0.015625)"/>
      <path id="DejaVuSans-31" d="M 794 531 
L 1825 531 
L 1825 4091 
L 703 3866 
L 703 4441 
L 1819 4666 
L 2450 4666 
L 2450 531 
L 3481 531 
L 3481 0 
L 794 0 
L 794 531 
z
" transform="scale(0.015625)"/>
      <path id="DejaVuSans-Oblique-41" d="M 2356 4666 
L 3072 4666 
L 3938 0 
L 3278 0 
L 3084 1197 
L 984 1197 
L 325 0 
L -341 0 
L 2356 4666 
z
M 2584 4044 
L 1275 1722 
L 2988 1722 
L 2584 4044 
z
" transform="scale(0.015625)"/>
      <path id="DejaVuSans-22c5" d="M 684 2619 
L 1344 2619 
L 1344 1825 
L 684 1825 
L 684 2619 
z
" transform="scale(0.015625)"/>
      <path id="DejaVuSans-7c" d="M 1344 4891 
L 1344 -1509 
L 813 -1509 
L 813 4891 
L 1344 4891 
z
" transform="scale(0.015625)"/>
     </defs>
     <use xlink:href="#DejaVuSans-Oblique-50" transform="translate(0 0.346875)"/>
     <use xlink:href="#DejaVuSans-28" transform="translate(60.302734 0.346875)"/>
     <use xlink:href="#DejaVuSans-Oblique-42" transform="translate(99.316406 0.346875)"/>
     <use xlink:href="#DejaVuSans-29" transform="translate(167.919922 0.346875)"/>
     <use xlink:href="#DejaVuSans-3d" transform="translate(226.416016 0.346875)"/>
     <use xlink:href="#DejaVuSans-Oblique-6e" transform="translate(382.6875 120.8) scale(0.7)"/>
     <use xlink:href="#DejaVuSansDisplay-2211" transform="translate(359.6875 0.346875)"/>
     <use xlink:href="#DejaVuSans-Oblique-69" transform="translate(329.6875 -98.748438) scale(0.7)"/>
     <use xlink:href="#DejaVuSans-3d" transform="translate(362.773438 -98.748438) scale(0.7)"/>
     <use xlink:href="#DejaVuSans-31" transform="translate(435.063477 -98.748438) scale(0.7)"/>
     <use xlink:href="#DejaVuSans-Oblique-50" transform="translate(479.599609 0.346875)"/>
     <use xlink:href="#DejaVuSans-28" transform="translate(539.902344 0.346875)"/>
     <use xlink:href="#DejaVuSans-Oblique-41" transform="translate(578.916016 0.346875)"/>
     <use xlink:href="#DejaVuSans-Oblique-69" transform="translate(647.324219 -16.059375) scale(0.7)"/>
     <use xlink:href="#DejaVuSans-29" transform="translate(669.506836 0.346875)"/>
     <use xlink:href="#DejaVuSans-22c5" transform="translate(728.00293 0.346875)"/>
     <use xlink:href="#DejaVuSans-Oblique-50" transform="translate(779.272461 0.346875)"/>
     <use xlink:href="#DejaVuSans-28" transform="translate(839.575195 0.346875)"/>
     <use xlink:href="#DejaVuSans-Oblique-42" transform="translate(878.588867 0.346875)"/>
     <use xlink:href="#DejaVuSans-7c" transform="translate(947.192383 0.346875)"/>
     <use xlink:href="#DejaVuSans-Oblique-41" transform="translate(980.883789 0.346875)"/>
     <use xlink:href="#DejaVuSans-Oblique-69" transform="translate(1049.291992 -16.059375) scale(0.7)"/>
     <use xlink:href="#DejaVuSans-29" transform="translate(1071.474609 0.346875)"/>
    </g>
   </g>
  </g>
  <g id="axes_2">
   <g id="text_13">
    <!-- TEOREMA DE BAYES -->
    <g transform="translate(686.421307 27.72) scale(0.12 -0.12)">
     <defs>
      <path id="DejaVuSans-Bold-59" d="M -63 4666 
L 1253 4666 
L 2316 3003 
L 3378 4666 
L 4697 4666 
L 2919 1966 
L 2919 0 
L 1716 0 
L 1716 1966 
L -63 4666 
z
" transform="scale(0.015625)"/>
      <path id="DejaVuSans-Bold-53" d="M 3834 4519 
L 3834 3531 
Q 3450 3703 3084 3790 
Q 2719 3878 2394 3878 
Q 1963 3878 1756 3759 
Q 1550 3641 1550 3391 
Q 1550 3203 1689 3098 
Q 1828 2994 2194 2919 
L 2706 2816 
Q 3484 2659 3812 2340 
Q 4141 2022 4141 1434 
Q 4141 663 3683 286 
Q 3225 -91 2284 -91 
Q 1841 -91 1394 -6 
Q 947 78 500 244 
L 500 1259 
Q 947 1022 1364 901 
Q 1781 781 2169 781 
Q 2563 781 2772 912 
Q 2981 1044 2981 1288 
Q 2981 1506 2839 1625 
Q 2697 1744 2272 1838 
L 1806 1941 
Q 1106 2091 782 2419 
Q 459 2747 459 3303 
Q 459 4000 909 4375 
Q 1359 4750 2203 4750 
Q 2588 4750 2994 4692 
Q 3400 4634 3834 4519 
z
" transform="scale(0.015625)"/>
     </defs>
     <use xlink:href="#DejaVuSans-Bold-54"/>
     <use xlink:href="#DejaVuSans-Bold-45" x="68.212891"/>
     <use xlink:href="#DejaVuSans-Bold-4f" x="136.523438"/>
     <use xlink:href="#DejaVuSans-Bold-52" x="221.533203"/>
     <use xlink:href="#DejaVuSans-Bold-45" x="298.535156"/>
     <use xlink:href="#DejaVuSans-Bold-4d" x="366.845703"/>
     <use xlink:href="#DejaVuSans-Bold-41" x="466.357422"/>
     <use xlink:href="#DejaVuSans-Bold-20" x="543.75"/>
     <use xlink:href="#DejaVuSans-Bold-44" x="578.564453"/>
     <use xlink:href="#DejaVuSans-Bold-45" x="661.572266"/>
     <use xlink:href="#DejaVuSans-Bold-20" x="729.882812"/>
     <use xlink:href="#DejaVuSans-Bold-42" x="764.697266"/>
     <use xlink:href="#DejaVuSans-Bold-41" x="840.917969"/>
     <use xlink:href="#DejaVuSans-Bold-59" x="908.685547"/>
     <use xlink:href="#DejaVuSans-Bold-45" x="981.097656"/>
     <use xlink:href="#DejaVuSans-Bold-53" x="1049.408203"/>
    </g>
   </g>
   <g id="text_14">
    <!-- Conocemos P(B|A), queremos P(A|B) -->
    <g transform="translate(653.074744 109.8) scale(0.11 -0.11)">
     <defs>
      <path id="DejaVuSans-Oblique-43" d="M 4447 4306 
L 4319 3641 
Q 4019 3944 3683 4091 
Q 3347 4238 2956 4238 
Q 2422 4238 2017 3981 
Q 1613 3725 1319 3200 
Q 1131 2863 1032 2486 
Q 934 2109 934 1728 
Q 934 1091 1264 756 
Q 1594 422 2222 422 
Q 2656 422 3056 561 
Q 3456 700 3834 978 
L 3688 231 
Q 3316 72 2936 -9 
Q 2556 -91 2175 -91 
Q 1278 -91 773 396 
Q 269 884 269 1753 
Q 269 2309 461 2846 
Q 653 3384 1013 3828 
Q 1394 4300 1883 4525 
Q 2372 4750 3022 4750 
Q 3422 4750 3780 4639 
Q 4138 4528 4447 4306 
z
" transform="scale(0.015625)"/>
      <path id="DejaVuSans-Oblique-6f" d="M 1625 -91 
Q 1009 -91 651 289 
Q 294 669 294 1325 
Q 294 1706 417 2101 
Q 541 2497 738 2766 
Q 1047 3184 1428 3384 
Q 1809 3584 2291 3584 
Q 2888 3584 3255 3212 
Q 3622 2841 3622 2241 
Q 3622 1825 3500 1412 
Q 3378 1000 3181 728 
Q 2875 309 2494 109 
Q 2113 -91 1625 -91 
z
M 891 1344 
Q 891 869 1089 633 
Q 1288 397 1691 397 
Q 2269 397 2648 901 
Q 3028 1406 3028 2181 
Q 3028 2634 2825 2865 
Q 2622 3097 2228 3097 
Q 1903 3097 1650 2945 
Q 1397 2794 1197 2484 
Q 1050 2253 970 1956 
Q 891 1659 891 1344 
z
" transform="scale(0.015625)"/>
      <path id="DejaVuSans-Oblique-63" d="M 3431 3366 
L 3316 2797 
Q 3109 2947 2876 3022 
Q 2644 3097 2394 3097 
Q 2119 3097 1870 3000 
Q 1622 2903 1453 2725 
Q 1184 2453 1037 2087 
Q 891 1722 891 1331 
Q 891 859 1127 628 
Q 1363 397 1844 397 
Q 2081 397 2348 469 
Q 2616 541 2906 684 
L 2797 116 
Q 2547 13 2283 -39 
Q 2019 -91 1741 -91 
Q 1044 -91 669 257 
Q 294 606 294 1253 
Q 294 1797 489 2255 
Q 684 2713 1069 3078 
Q 1331 3328 1684 3456 
Q 2038 3584 2456 3584 
Q 2700 3584 2940 3529 
Q 3181 3475 3431 3366 
z
" transform="scale(0.015625)"/>
      <path id="DejaVuSans-Oblique-65" d="M 3078 2063 
Q 3088 2113 3092 2166 
Q 3097 2219 3097 2272 
Q 3097 2653 2873 2875 
Q 2650 3097 2266 3097 
Q 1838 3097 1509 2826 
Q 1181 2556 1013 2059 
L 3078 2063 
z
M 3578 1613 
L 903 1613 
Q 884 1494 878 1425 
Q 872 1356 872 1306 
Q 872 872 1139 634 
Q 1406 397 1894 397 
Q 2269 397 2603 481 
Q 2938 566 3225 728 
L 3116 159 
Q 2806 34 2476 -28 
Q 2147 -91 1806 -91 
Q 1078 -91 686 257 
Q 294 606 294 1247 
Q 294 1794 489 2264 
Q 684 2734 1063 3103 
Q 1306 3334 1642 3459 
Q 1978 3584 2356 3584 
Q 2950 3584 3301 3228 
Q 3653 2872 3653 2272 
Q 3653 2128 3634 1964 
Q 3616 1800 3578 1613 
z
" transform="scale(0.015625)"/>
      <path id="DejaVuSans-Oblique-6d" d="M 5747 2113 
L 5338 0 
L 4763 0 
L 5166 2094 
Q 5191 2228 5203 2325 
Q 5216 2422 5216 2491 
Q 5216 2772 5059 2928 
Q 4903 3084 4622 3084 
Q 4203 3084 3875 2770 
Q 3547 2456 3450 1953 
L 3066 0 
L 2491 0 
L 2900 2094 
Q 2925 2209 2937 2307 
Q 2950 2406 2950 2484 
Q 2950 2769 2794 2926 
Q 2638 3084 2363 3084 
Q 1938 3084 1609 2770 
Q 1281 2456 1184 1953 
L 800 0 
L 225 0 
L 909 3500 
L 1484 3500 
L 1375 2956 
Q 1609 3263 1923 3423 
Q 2238 3584 2597 3584 
Q 2978 3584 3223 3384 
Q 3469 3184 3519 2828 
Q 3781 3197 4126 3390 
Q 4472 3584 4856 3584 
Q 5306 3584 5551 3325 
Q 5797 3066 5797 2591 
Q 5797 2488 5784 2364 
Q 5772 2241 5747 2113 
z
" transform="scale(0.015625)"/>
      <path id="DejaVuSans-Oblique-73" d="M 3200 3397 
L 3091 2853 
Q 2863 2978 2609 3040 
Q 2356 3103 2088 3103 
Q 1634 3103 1373 2948 
Q 1113 2794 1113 2528 
Q 1113 2219 1719 2053 
Q 1766 2041 1788 2034 
L 1972 1978 
Q 2547 1819 2739 1644 
Q 2931 1469 2931 1166 
Q 2931 609 2489 259 
Q 2047 -91 1331 -91 
Q 1053 -91 747 -37 
Q 441 16 72 128 
L 184 722 
Q 500 559 806 475 
Q 1113 391 1394 391 
Q 1816 391 2080 572 
Q 2344 753 2344 1031 
Q 2344 1331 1650 1516 
L 1591 1531 
L 1394 1581 
Q 956 1697 753 1886 
Q 550 2075 550 2369 
Q 550 2928 970 3256 
Q 1391 3584 2113 3584 
Q 2397 3584 2667 3537 
Q 2938 3491 3200 3397 
z
" transform="scale(0.015625)"/>
      <path id="DejaVuSans-Oblique-20" transform="scale(0.015625)"/>
      <path id="DejaVuSans-Oblique-28" d="M 2731 4856 
Q 1903 3822 1495 2892 
Q 1088 1963 1088 1100 
Q 1088 606 1206 120 
Q 1325 -366 1563 -844 
L 1063 -844 
Q 775 -306 634 201 
Q 494 709 494 1197 
Q 494 2125 923 3036 
Q 1353 3947 2222 4856 
L 2731 4856 
z
" transform="scale(0.015625)"/>
      <path id="DejaVuSans-Oblique-7c" d="M 1344 4891 
L 1344 -1509 
L 813 -1509 
L 813 4891 
L 1344 4891 
z
" transform="scale(0.015625)"/>
      <path id="DejaVuSans-Oblique-29" d="M -397 -844 
Q 434 191 840 1120 
Q 1247 2050 1247 2913 
Q 1247 3406 1130 3892 
Q 1013 4378 775 4856 
L 1275 4856 
Q 1563 4316 1703 3812 
Q 1844 3309 1844 2822 
Q 1844 1891 1411 973 
Q 978 56 116 -844 
L -397 -844 
z
" transform="scale(0.015625)"/>
      <path id="DejaVuSans-Oblique-2c" d="M 575 794 
L 1234 794 
L 1131 256 
L 422 -744 
L 19 -744 
L 469 256 
L 575 794 
z
" transform="scale(0.015625)"/>
      <path id="DejaVuSans-Oblique-71" d="M 2669 525 
Q 2438 222 2123 65 
Q 1809 -91 1428 -91 
Q 897 -91 595 267 
Q 294 625 294 1253 
Q 294 1759 480 2231 
Q 666 2703 1013 3078 
Q 1238 3322 1530 3453 
Q 1822 3584 2144 3584 
Q 2531 3584 2781 3431 
Q 3031 3278 3144 2969 
L 3244 3494 
L 3822 3494 
L 2888 -1319 
L 2309 -1319 
L 2669 525 
z
M 891 1338 
Q 891 875 1084 633 
Q 1278 391 1644 391 
Q 2188 391 2572 911 
Q 2956 1431 2956 2175 
Q 2956 2625 2757 2864 
Q 2559 3103 2188 3103 
Q 1916 3103 1684 2976 
Q 1453 2850 1281 2606 
Q 1100 2350 995 2006 
Q 891 1663 891 1338 
z
" transform="scale(0.015625)"/>
      <path id="DejaVuSans-Oblique-75" d="M 428 1388 
L 838 3500 
L 1416 3500 
L 1006 1409 
Q 975 1256 961 1147 
Q 947 1038 947 966 
Q 947 700 1109 554 
Q 1272 409 1569 409 
Q 2031 409 2368 721 
Q 2706 1034 2809 1563 
L 3194 3500 
L 3769 3500 
L 3091 0 
L 2516 0 
L 2631 550 
Q 2388 244 2052 76 
Q 1716 -91 1338 -91 
Q 878 -91 622 161 
Q 366 413 366 863 
Q 366 956 381 1097 
Q 397 1238 428 1388 
z
" transform="scale(0.015625)"/>
      <path id="DejaVuSans-Oblique-72" d="M 2853 2969 
Q 2766 3016 2653 3041 
Q 2541 3066 2413 3066 
Q 1953 3066 1609 2717 
Q 1266 2369 1153 1784 
L 800 0 
L 225 0 
L 909 3500 
L 1484 3500 
L 1375 2956 
Q 1603 3259 1920 3421 
Q 2238 3584 2597 3584 
Q 2691 3584 2781 3573 
Q 2872 3563 2963 3538 
L 2853 2969 
z
" transform="scale(0.015625)"/>
     </defs>
     <use xlink:href="#DejaVuSans-Oblique-43"/>
     <use xlink:href="#DejaVuSans-Oblique-6f" x="69.824219"/>
     <use xlink:href="#DejaVuSans-Oblique-6e" x="131.005859"/>
     <use xlink:href="#DejaVuSans-Oblique-6f" x="194.384766"/>
     <use xlink:href="#DejaVuSans-Oblique-63" x="255.566406"/>
     <use xlink:href="#DejaVuSans-Oblique-65" x="310.546875"/>
     <use xlink:href="#DejaVuSans-Oblique-6d" x="372.070312"/>
     <use xlink:href="#DejaVuSans-Oblique-6f" x="469.482422"/>
     <use xlink:href="#DejaVuSans-Oblique-73" x="530.664062"/>
     <use xlink:href="#DejaVuSans-Oblique-20" x="582.763672"/>
     <use xlink:href="#DejaVuSans-Oblique-50" x="614.550781"/>
     <use xlink:href="#DejaVuSans-Oblique-28" x="674.853516"/>
     <use xlink:href="#DejaVuSans-Oblique-42" x="713.867188"/>
     <use xlink:href="#DejaVuSans-Oblique-7c" x="782.470703"/>
     <use xlink:href="#DejaVuSans-Oblique-41" x="816.162109"/>
     <use xlink:href="#DejaVuSans-Oblique-29" x="884.570312"/>
     <use xlink:href="#DejaVuSans-Oblique-2c" x="923.583984"/>
     <use xlink:href="#DejaVuSans-Oblique-20" x="955.371094"/>
     <use xlink:href="#DejaVuSans-Oblique-71" x="987.158203"/>
     <use xlink:href="#DejaVuSans-Oblique-75" x="1050.634766"/>
     <use xlink:href="#DejaVuSans-Oblique-65" x="1114.013672"/>
     <use xlink:href="#DejaVuSans-Oblique-72" x="1175.537109"/>
     <use xlink:href="#DejaVuSans-Oblique-65" x="1216.650391"/>
     <use xlink:href="#DejaVuSans-Oblique-6d" x="1278.173828"/>
     <use xlink:href="#DejaVuSans-Oblique-6f" x="1375.585938"/>
     <use xlink:href="#DejaVuSans-Oblique-73" x="1436.767578"/>
     <use xlink:href="#DejaVuSans-Oblique-20" x="1488.867188"/>
     <use xlink:href="#DejaVuSans-Oblique-50" x="1520.654297"/>
     <use xlink:href="#DejaVuSans-Oblique-28" x="1580.957031"/>
     <use xlink:href="#DejaVuSans-Oblique-41" x="1619.970703"/>
     <use xlink:href="#DejaVuSans-Oblique-7c" x="1688.378906"/>
     <use xlink:href="#DejaVuSans-Oblique-42" x="1722.070312"/>
     <use xlink:href="#DejaVuSans-Oblique-29" x="1790.673828"/>
    </g>
   </g>
   <g id="text_15">
    <g id="patch_8">
     <path d="M 680.987557 204.68 
L 826.427557 204.68 
Q 831.227557 204.68 831.227557 199.88 
L 831.227557 173.64 
Q 831.227557 168.84 826.427557 168.84 
L 680.987557 168.84 
Q 676.187557 168.84 676.187557 173.64 
L 676.187557 199.88 
Q 676.187557 204.68 680.987557 204.68 
z
" style="fill: #e3f2fd; stroke: #0000ff; stroke-width: 3; stroke-linejoin: miter"/>
    </g>
    <!-- $P(A_i|B) = \frac{P(A_i) \cdot P(B|A_i)}{P(B)}$ -->
    <g transform="translate(680.987557 191.88) scale(0.16 -0.16)">
     <use xlink:href="#DejaVuSans-Oblique-50" transform="translate(0 0.203125)"/>
     <use xlink:href="#DejaVuSans-28" transform="translate(60.302734 0.203125)"/>
     <use xlink:href="#DejaVuSans-Oblique-41" transform="translate(99.316406 0.203125)"/>
     <use xlink:href="#DejaVuSans-Oblique-69" transform="translate(167.724609 -16.203125) scale(0.7)"/>
     <use xlink:href="#DejaVuSans-7c" transform="translate(189.907227 0.203125)"/>
     <use xlink:href="#DejaVuSans-Oblique-42" transform="translate(223.598633 0.203125)"/>
     <use xlink:href="#DejaVuSans-29" transform="translate(292.202148 0.203125)"/>
     <use xlink:href="#DejaVuSans-3d" transform="translate(350.698242 0.203125)"/>
     <use xlink:href="#DejaVuSans-Oblique-50" transform="translate(453.969727 60.504688) scale(0.7)"/>
     <use xlink:href="#DejaVuSans-28" transform="translate(496.181641 60.504688) scale(0.7)"/>
     <use xlink:href="#DejaVuSans-Oblique-41" transform="translate(523.491211 60.504688) scale(0.7)"/>
     <use xlink:href="#DejaVuSans-Oblique-69" transform="translate(571.376953 49.020313) scale(0.49)"/>
     <use xlink:href="#DejaVuSans-29" transform="translate(586.904785 60.504688) scale(0.7)"/>
     <use xlink:href="#DejaVuSans-22c5" transform="translate(627.852051 60.504688) scale(0.7)"/>
     <use xlink:href="#DejaVuSans-Oblique-50" transform="translate(663.740723 60.504688) scale(0.7)"/>
     <use xlink:href="#DejaVuSans-28" transform="translate(705.952637 60.504688) scale(0.7)"/>
     <use xlink:href="#DejaVuSans-Oblique-42" transform="translate(733.262207 60.504688) scale(0.7)"/>
     <use xlink:href="#DejaVuSans-7c" transform="translate(781.284668 60.504688) scale(0.7)"/>
     <use xlink:href="#DejaVuSans-Oblique-41" transform="translate(804.868652 60.504688) scale(0.7)"/>
     <use xlink:href="#DejaVuSans-Oblique-69" transform="translate(852.754395 49.020313) scale(0.49)"/>
     <use xlink:href="#DejaVuSans-29" transform="translate(868.282227 60.504688) scale(0.7)"/>
     <use xlink:href="#DejaVuSans-Oblique-50" transform="translate(601.969727 -40.3625) scale(0.7)"/>
     <use xlink:href="#DejaVuSans-28" transform="translate(644.181641 -40.3625) scale(0.7)"/>
     <use xlink:href="#DejaVuSans-Oblique-42" transform="translate(671.491211 -40.3625) scale(0.7)"/>
     <use xlink:href="#DejaVuSans-29" transform="translate(719.513672 -40.3625) scale(0.7)"/>
     <path d="M 453.969727 19 
L 453.969727 25.25 
L 895.591797 25.25 
L 895.591797 19 
L 453.969727 19 
z
"/>
    </g>
   </g>
   <g id="text_16">
    <g id="patch_9">
     <path d="M 682.727557 303.22 
L 824.687557 303.22 
Q 828.887557 303.22 828.887557 299.02 
L 828.887557 258 
Q 828.887557 253.8 824.687557 253.8 
L 682.727557 253.8 
Q 678.527557 253.8 678.527557 258 
L 678.527557 299.02 
Q 678.527557 303.22 682.727557 303.22 
z
" style="fill: #fff3e0; stroke: #000000; stroke-linejoin: miter"/>
    </g>
    <!-- $P(A_i|B) = \frac{P(A_i) \cdot P(B|A_i)}{\sum_{j=1}^{n} P(A_j) \cdot P(B|A_j)}$ -->
    <g transform="translate(682.727557 273.96) scale(0.14 -0.14)">
     <defs>
      <path id="DejaVuSans-Oblique-6a" d="M 928 3500 
L 1503 3500 
L 813 -63 
L 809 -78 
Q 694 -675 544 -897 
Q 403 -1106 132 -1218 
Q -138 -1331 -506 -1331 
L -722 -1331 
L -628 -844 
L -481 -844 
Q -144 -844 -1 -703 
Q 141 -563 238 -63 
L 928 3500 
z
M 1197 4863 
L 1772 4863 
L 1631 4134 
L 1056 4134 
L 1197 4863 
z
" transform="scale(0.015625)"/>
     </defs>
     <use xlink:href="#DejaVuSans-Oblique-50" transform="translate(0 0.203125)"/>
     <use xlink:href="#DejaVuSans-28" transform="translate(60.302734 0.203125)"/>
     <use xlink:href="#DejaVuSans-Oblique-41" transform="translate(99.316406 0.203125)"/>
     <use xlink:href="#DejaVuSans-Oblique-69" transform="translate(167.724609 -16.203125) scale(0.7)"/>
     <use xlink:href="#DejaVuSans-7c" transform="translate(189.907227 0.203125)"/>
     <use xlink:href="#DejaVuSans-Oblique-42" transform="translate(223.598633 0.203125)"/>
     <use xlink:href="#DejaVuSans-29" transform="translate(292.202148 0.203125)"/>
     <use xlink:href="#DejaVuSans-3d" transform="translate(350.698242 0.203125)"/>
     <use xlink:href="#DejaVuSans-Oblique-50" transform="translate(505.969727 60.504688) scale(0.7)"/>
     <use xlink:href="#DejaVuSans-28" transform="translate(548.181641 60.504688) scale(0.7)"/>
     <use xlink:href="#DejaVuSans-Oblique-41" transform="translate(575.491211 60.504688) scale(0.7)"/>
     <use xlink:href="#DejaVuSans-Oblique-69" transform="translate(623.376953 49.020313) scale(0.49)"/>
     <use xlink:href="#DejaVuSans-29" transform="translate(638.904785 60.504688) scale(0.7)"/>
     <use xlink:href="#DejaVuSans-22c5" transform="translate(679.852051 60.504688) scale(0.7)"/>
     <use xlink:href="#DejaVuSans-Oblique-50" transform="translate(715.740723 60.504688) scale(0.7)"/>
     <use xlink:href="#DejaVuSans-28" transform="translate(757.952637 60.504688) scale(0.7)"/>
     <use xlink:href="#DejaVuSans-Oblique-42" transform="translate(785.262207 60.504688) scale(0.7)"/>
     <use xlink:href="#DejaVuSans-7c" transform="translate(833.284668 60.504688) scale(0.7)"/>
     <use xlink:href="#DejaVuSans-Oblique-41" transform="translate(856.868652 60.504688) scale(0.7)"/>
     <use xlink:href="#DejaVuSans-Oblique-69" transform="translate(904.754395 49.020313) scale(0.49)"/>
     <use xlink:href="#DejaVuSans-29" transform="translate(920.282227 60.504688) scale(0.7)"/>
     <use xlink:href="#DejaVuSans-Oblique-6e" transform="translate(490.969727 -14.69) scale(0.49)"/>
     <use xlink:href="#DejaVuSansDisplay-2211" transform="translate(474.969727 -99.007187) scale(0.7)"/>
     <use xlink:href="#DejaVuSans-Oblique-6a" transform="translate(453.969727 -168.373906) scale(0.49)"/>
     <use xlink:href="#DejaVuSans-3d" transform="translate(477.129883 -168.373906) scale(0.49)"/>
     <use xlink:href="#DejaVuSans-31" transform="translate(527.73291 -168.373906) scale(0.49)"/>
     <use xlink:href="#DejaVuSans-Oblique-50" transform="translate(558.908203 -99.007187) scale(0.7)"/>
     <use xlink:href="#DejaVuSans-28" transform="translate(601.120117 -99.007187) scale(0.7)"/>
     <use xlink:href="#DejaVuSans-Oblique-41" transform="translate(628.429688 -99.007187) scale(0.7)"/>
     <use xlink:href="#DejaVuSans-Oblique-6a" transform="translate(676.31543 -110.491562) scale(0.49)"/>
     <use xlink:href="#DejaVuSans-29" transform="translate(691.843262 -99.007187) scale(0.7)"/>
     <use xlink:href="#DejaVuSans-22c5" transform="translate(732.790527 -99.007187) scale(0.7)"/>
     <use xlink:href="#DejaVuSans-Oblique-50" transform="translate(768.679199 -99.007187) scale(0.7)"/>
     <use xlink:href="#DejaVuSans-28" transform="translate(810.891113 -99.007187) scale(0.7)"/>
     <use xlink:href="#DejaVuSans-Oblique-42" transform="translate(838.200684 -99.007187) scale(0.7)"/>
     <use xlink:href="#DejaVuSans-7c" transform="translate(886.223145 -99.007187) scale(0.7)"/>
     <use xlink:href="#DejaVuSans-Oblique-41" transform="translate(909.807129 -99.007187) scale(0.7)"/>
     <use xlink:href="#DejaVuSans-Oblique-6a" transform="translate(957.692871 -110.491562) scale(0.49)"/>
     <use xlink:href="#DejaVuSans-29" transform="translate(973.220703 -99.007187) scale(0.7)"/>
     <path d="M 453.969727 19 
L 453.969727 25.25 
L 1000.530273 25.25 
L 1000.530273 19 
L 453.969727 19 
z
"/>
    </g>
   </g>
   <g id="text_17">
    <!-- 📊 Invierte la dirección del condicionamiento -->
    <g transform="translate(644.313807 356.04) scale(0.1 -0.1)">
     <defs>
      <path id="DejaVuSans-1f4ca" d="M 319 -1131 
L 319 4513 
L 3519 4513 
L 3519 -1131 
L 319 -1131 
z
M 678 -775 
L 3163 -775 
L 3163 4153 
L 678 4153 
L 678 -775 
z
" transform="scale(0.015625)"/>
      <path id="DejaVuSans-20" transform="scale(0.015625)"/>
      <path id="DejaVuSans-49" d="M 628 4666 
L 1259 4666 
L 1259 0 
L 628 0 
L 628 4666 
z
" transform="scale(0.015625)"/>
      <path id="DejaVuSans-6e" d="M 3513 2113 
L 3513 0 
L 2938 0 
L 2938 2094 
Q 2938 2591 2744 2837 
Q 2550 3084 2163 3084 
Q 1697 3084 1428 2787 
Q 1159 2491 1159 1978 
L 1159 0 
L 581 0 
L 581 3500 
L 1159 3500 
L 1159 2956 
Q 1366 3272 1645 3428 
Q 1925 3584 2291 3584 
Q 2894 3584 3203 3211 
Q 3513 2838 3513 2113 
z
" transform="scale(0.015625)"/>
      <path id="DejaVuSans-76" d="M 191 3500 
L 800 3500 
L 1894 563 
L 2988 3500 
L 3597 3500 
L 2284 0 
L 1503 0 
L 191 3500 
z
" transform="scale(0.015625)"/>
      <path id="DejaVuSans-69" d="M 603 3500 
L 1178 3500 
L 1178 0 
L 603 0 
L 603 3500 
z
M 603 4863 
L 1178 4863 
L 1178 4134 
L 603 4134 
L 603 4863 
z
" transform="scale(0.015625)"/>
      <path id="DejaVuSans-65" d="M 3597 1894 
L 3597 1613 
L 953 1613 
Q 991 1019 1311 708 
Q 1631 397 2203 397 
Q 2534 397 2845 478 
Q 3156 559 3463 722 
L 3463 178 
Q 3153 47 2828 -22 
Q 2503 -91 2169 -91 
Q 1331 -91 842 396 
Q 353 884 353 1716 
Q 353 2575 817 3079 
Q 1281 3584 2069 3584 
Q 2775 3584 3186 3129 
Q 3597 2675 3597 1894 
z
M 3022 2063 
Q 3016 2534 2758 2815 
Q 2500 3097 2075 3097 
Q 1594 3097 1305 2825 
Q 1016 2553 972 2059 
L 3022 2063 
z
" transform="scale(0.015625)"/>
      <path id="DejaVuSans-72" d="M 2631 2963 
Q 2534 3019 2420 3045 
Q 2306 3072 2169 3072 
Q 1681 3072 1420 2755 
Q 1159 2438 1159 1844 
L 1159 0 
L 581 0 
L 581 3500 
L 1159 3500 
L 1159 2956 
Q 1341 3275 1631 3429 
Q 1922 3584 2338 3584 
Q 2397 3584 2469 3576 
Q 2541 3569 2628 3553 
L 2631 2963 
z
" transform="scale(0.015625)"/>
      <path id="DejaVuSans-74" d="M 1172 4494 
L 1172 3500 
L 2356 3500 
L 2356 3053 
L 1172 3053 
L 1172 1153 
Q 1172 725 1289 603 
Q 1406 481 1766 481 
L 2356 481 
L 2356 0 
L 1766 0 
Q 1100 0 847 248 
Q 594 497 594 1153 
L 594 3053 
L 172 3053 
L 172 3500 
L 594 3500 
L 594 4494 
L 1172 4494 
z
" transform="scale(0.015625)"/>
      <path id="DejaVuSans-6c" d="M 603 4863 
L 1178 4863 
L 1178 0 
L 603 0 
L 603 4863 
z
" transform="scale(0.015625)"/>
      <path id="DejaVuSans-61" d="M 2194 1759 
Q 1497 1759 1228 1600 
Q 959 1441 959 1056 
Q 959 750 1161 570 
Q 1363 391 1709 391 
Q 2188 391 2477 730 
Q 2766 1069 2766 1631 
L 2766 1759 
L 2194 1759 
z
M 3341 1997 
L 3341 0 
L 2766 0 
L 2766 531 
Q 2569 213 2275 61 
Q 1981 -91 1556 -91 
Q 1019 -91 701 211 
Q 384 513 384 1019 
Q 384 1609 779 1909 
Q 1175 2209 1959 2209 
L 2766 2209 
L 2766 2266 
Q 2766 2663 2505 2880 
Q 2244 3097 1772 3097 
Q 1472 3097 1187 3025 
Q 903 2953 641 2809 
L 641 3341 
Q 956 3463 1253 3523 
Q 1550 3584 1831 3584 
Q 2591 3584 2966 3190 
Q 3341 2797 3341 1997 
z
" transform="scale(0.015625)"/>
      <path id="DejaVuSans-64" d="M 2906 2969 
L 2906 4863 
L 3481 4863 
L 3481 0 
L 2906 0 
L 2906 525 
Q 2725 213 2448 61 
Q 2172 -91 1784 -91 
Q 1150 -91 751 415 
Q 353 922 353 1747 
Q 353 2572 751 3078 
Q 1150 3584 1784 3584 
Q 2172 3584 2448 3432 
Q 2725 3281 2906 2969 
z
M 947 1747 
Q 947 1113 1208 752 
Q 1469 391 1925 391 
Q 2381 391 2643 752 
Q 2906 1113 2906 1747 
Q 2906 2381 2643 2742 
Q 2381 3103 1925 3103 
Q 1469 3103 1208 2742 
Q 947 2381 947 1747 
z
" transform="scale(0.015625)"/>
      <path id="DejaVuSans-63" d="M 3122 3366 
L 3122 2828 
Q 2878 2963 2633 3030 
Q 2388 3097 2138 3097 
Q 1578 3097 1268 2742 
Q 959 2388 959 1747 
Q 959 1106 1268 751 
Q 1578 397 2138 397 
Q 2388 397 2633 464 
Q 2878 531 3122 666 
L 3122 134 
Q 2881 22 2623 -34 
Q 2366 -91 2075 -91 
Q 1284 -91 818 406 
Q 353 903 353 1747 
Q 353 2603 823 3093 
Q 1294 3584 2113 3584 
Q 2378 3584 2631 3529 
Q 2884 3475 3122 3366 
z
" transform="scale(0.015625)"/>
      <path id="DejaVuSans-f3" d="M 1959 3097 
Q 1497 3097 1228 2736 
Q 959 2375 959 1747 
Q 959 1119 1226 758 
Q 1494 397 1959 397 
Q 2419 397 2687 759 
Q 2956 1122 2956 1747 
Q 2956 2369 2687 2733 
Q 2419 3097 1959 3097 
z
M 1959 3584 
Q 2709 3584 3137 3096 
Q 3566 2609 3566 1747 
Q 3566 888 3137 398 
Q 2709 -91 1959 -91 
Q 1206 -91 779 398 
Q 353 888 353 1747 
Q 353 2609 779 3096 
Q 1206 3584 1959 3584 
z
M 2394 5119 
L 3016 5119 
L 1998 3944 
L 1519 3944 
L 2394 5119 
z
" transform="scale(0.015625)"/>
      <path id="DejaVuSans-6f" d="M 1959 3097 
Q 1497 3097 1228 2736 
Q 959 2375 959 1747 
Q 959 1119 1226 758 
Q 1494 397 1959 397 
Q 2419 397 2687 759 
Q 2956 1122 2956 1747 
Q 2956 2369 2687 2733 
Q 2419 3097 1959 3097 
z
M 1959 3584 
Q 2709 3584 3137 3096 
Q 3566 2609 3566 1747 
Q 3566 888 3137 398 
Q 2709 -91 1959 -91 
Q 1206 -91 779 398 
Q 353 888 353 1747 
Q 353 2609 779 3096 
Q 1206 3584 1959 3584 
z
" transform="scale(0.015625)"/>
      <path id="DejaVuSans-6d" d="M 3328 2828 
Q 3544 3216 3844 3400 
Q 4144 3584 4550 3584 
Q 5097 3584 5394 3201 
Q 5691 2819 5691 2113 
L 5691 0 
L 5113 0 
L 5113 2094 
Q 5113 2597 4934 2840 
Q 4756 3084 4391 3084 
Q 3944 3084 3684 2787 
Q 3425 2491 3425 1978 
L 3425 0 
L 2847 0 
L 2847 2094 
Q 2847 2600 2669 2842 
Q 2491 3084 2119 3084 
Q 1678 3084 1418 2786 
Q 1159 2488 1159 1978 
L 1159 0 
L 581 0 
L 581 3500 
L 1159 3500 
L 1159 2956 
Q 1356 3278 1631 3431 
Q 1906 3584 2284 3584 
Q 2666 3584 2933 3390 
Q 3200 3197 3328 2828 
z
" transform="scale(0.015625)"/>
     </defs>
     <use xlink:href="#DejaVuSans-1f4ca"/>
     <use xlink:href="#DejaVuSans-20" x="60.009766"/>
     <use xlink:href="#DejaVuSans-49" x="91.796875"/>
     <use xlink:href="#DejaVuSans-6e" x="121.289062"/>
     <use xlink:href="#DejaVuSans-76" x="184.667969"/>
     <use xlink:href="#DejaVuSans-69" x="243.847656"/>
     <use xlink:href="#DejaVuSans-65" x="271.630859"/>
     <use xlink:href="#DejaVuSans-72" x="333.154297"/>
     <use xlink:href="#DejaVuSans-74" x="374.267578"/>
     <use xlink:href="#DejaVuSans-65" x="413.476562"/>
     <use xlink:href="#DejaVuSans-20" x="475"/>
     <use xlink:href="#DejaVuSans-6c" x="506.787109"/>
     <use xlink:href="#DejaVuSans-61" x="534.570312"/>
     <use xlink:href="#DejaVuSans-20" x="595.849609"/>
     <use xlink:href="#DejaVuSans-64" x="627.636719"/>
     <use xlink:href="#DejaVuSans-69" x="691.113281"/>
     <use xlink:href="#DejaVuSans-72" x="718.896484"/>
     <use xlink:href="#DejaVuSans-65" x="757.759766"/>
     <use xlink:href="#DejaVuSans-63" x="819.283203"/>
     <use xlink:href="#DejaVuSans-63" x="874.263672"/>
     <use xlink:href="#DejaVuSans-69" x="929.244141"/>
     <use xlink:href="#DejaVuSans-f3" x="957.027344"/>
     <use xlink:href="#DejaVuSans-6e" x="1018.208984"/>
     <use xlink:href="#DejaVuSans-20" x="1081.587891"/>
     <use xlink:href="#DejaVuSans-64" x="1113.375"/>
     <use xlink:href="#DejaVuSans-65" x="1176.851562"/>
     <use xlink:href="#DejaVuSans-6c" x="1238.375"/>
     <use xlink:href="#DejaVuSans-20" x="1266.158203"/>
     <use xlink:href="#DejaVuSans-63" x="1297.945312"/>
     <use xlink:href="#DejaVuSans-6f" x="1352.925781"/>
     <use xlink:href="#DejaVuSans-6e" x="1414.107422"/>
     <use xlink:href="#DejaVuSans-64" x="1477.486328"/>
     <use xlink:href="#DejaVuSans-69" x="1540.962891"/>
     <use xlink:href="#DejaVuSans-63" x="1568.746094"/>
     <use xlink:href="#DejaVuSans-69" x="1623.726562"/>
     <use xlink:href="#DejaVuSans-6f" x="1651.509766"/>
     <use xlink:href="#DejaVuSans-6e" x="1712.691406"/>
     <use xlink:href="#DejaVuSans-61" x="1776.070312"/>
     <use xlink:href="#DejaVuSans-6d" x="1837.349609"/>
     <use xlink:href="#DejaVuSans-69" x="1934.761719"/>
     <use xlink:href="#DejaVuSans-65" x="1962.544922"/>
     <use xlink:href="#DejaVuSans-6e" x="2024.068359"/>
     <use xlink:href="#DejaVuSans-74" x="2087.447266"/>
     <use xlink:href="#DejaVuSans-6f" x="2126.65625"/>
    </g>
   </g>
   <g id="text_18">
    <!-- (De "B dado A" a "A dado B") -->
    <g transform="translate(688.132713 384.768) scale(0.09 -0.09)">
     <defs>
      <path id="DejaVuSans-Oblique-44" d="M 1081 4666 
L 2438 4666 
Q 3519 4666 4070 4208 
Q 4622 3750 4622 2847 
Q 4622 2250 4412 1698 
Q 4203 1147 3834 769 
Q 3463 381 2891 190 
Q 2319 0 1538 0 
L 172 0 
L 1081 4666 
z
M 1613 4147 
L 909 519 
L 1734 519 
Q 2794 519 3375 1128 
Q 3956 1738 3956 2847 
Q 3956 3519 3581 3833 
Q 3206 4147 2406 4147 
L 1613 4147 
z
" transform="scale(0.015625)"/>
      <path id="DejaVuSans-Oblique-22" d="M 1147 4666 
L 1147 2931 
L 616 2931 
L 616 4666 
L 1147 4666 
z
M 2328 4666 
L 2328 2931 
L 1797 2931 
L 1797 4666 
L 2328 4666 
z
" transform="scale(0.015625)"/>
      <path id="DejaVuSans-Oblique-64" d="M 2675 525 
Q 2444 222 2128 65 
Q 1813 -91 1428 -91 
Q 903 -91 598 267 
Q 294 625 294 1247 
Q 294 1766 478 2236 
Q 663 2706 1013 3078 
Q 1244 3325 1534 3454 
Q 1825 3584 2144 3584 
Q 2481 3584 2739 3421 
Q 2997 3259 3138 2956 
L 3513 4863 
L 4091 4863 
L 3144 0 
L 2566 0 
L 2675 525 
z
M 891 1350 
Q 891 897 1095 644 
Q 1300 391 1663 391 
Q 1931 391 2161 520 
Q 2391 650 2566 903 
Q 2750 1166 2856 1509 
Q 2963 1853 2963 2188 
Q 2963 2622 2758 2865 
Q 2553 3109 2194 3109 
Q 1922 3109 1687 2981 
Q 1453 2853 1288 2613 
Q 1106 2353 998 2009 
Q 891 1666 891 1350 
z
" transform="scale(0.015625)"/>
      <path id="DejaVuSans-Oblique-61" d="M 3438 1997 
L 3047 0 
L 2472 0 
L 2578 531 
Q 2325 219 2001 64 
Q 1678 -91 1281 -91 
Q 834 -91 548 182 
Q 263 456 263 884 
Q 263 1497 752 1853 
Q 1241 2209 2100 2209 
L 2900 2209 
L 2931 2363 
Q 2938 2388 2941 2417 
Q 2944 2447 2944 2509 
Q 2944 2788 2717 2942 
Q 2491 3097 2081 3097 
Q 1800 3097 1504 3025 
Q 1209 2953 897 2809 
L 997 3341 
Q 1322 3463 1633 3523 
Q 1944 3584 2234 3584 
Q 2853 3584 3176 3315 
Q 3500 3047 3500 2534 
Q 3500 2431 3484 2292 
Q 3469 2153 3438 1997 
z
M 2816 1759 
L 2241 1759 
Q 1534 1759 1195 1570 
Q 856 1381 856 984 
Q 856 709 1029 553 
Q 1203 397 1509 397 
Q 1978 397 2328 733 
Q 2678 1069 2791 1631 
L 2816 1759 
z
" transform="scale(0.015625)"/>
     </defs>
     <use xlink:href="#DejaVuSans-Oblique-28"/>
     <use xlink:href="#DejaVuSans-Oblique-44" x="39.013672"/>
     <use xlink:href="#DejaVuSans-Oblique-65" x="116.015625"/>
     <use xlink:href="#DejaVuSans-Oblique-20" x="177.539062"/>
     <use xlink:href="#DejaVuSans-Oblique-22" x="209.326172"/>
     <use xlink:href="#DejaVuSans-Oblique-42" x="255.322266"/>
     <use xlink:href="#DejaVuSans-Oblique-20" x="323.925781"/>
     <use xlink:href="#DejaVuSans-Oblique-64" x="355.712891"/>
     <use xlink:href="#DejaVuSans-Oblique-61" x="419.189453"/>
     <use xlink:href="#DejaVuSans-Oblique-64" x="480.46875"/>
     <use xlink:href="#DejaVuSans-Oblique-6f" x="543.945312"/>
     <use xlink:href="#DejaVuSans-Oblique-20" x="605.126953"/>
     <use xlink:href="#DejaVuSans-Oblique-41" x="636.914062"/>
     <use xlink:href="#DejaVuSans-Oblique-22" x="705.322266"/>
     <use xlink:href="#DejaVuSans-Oblique-20" x="751.318359"/>
     <use xlink:href="#DejaVuSans-Oblique-61" x="783.105469"/>
     <use xlink:href="#DejaVuSans-Oblique-20" x="844.384766"/>
     <use xlink:href="#DejaVuSans-Oblique-22" x="876.171875"/>
     <use xlink:href="#DejaVuSans-Oblique-41" x="922.167969"/>
     <use xlink:href="#DejaVuSans-Oblique-20" x="990.576172"/>
     <use xlink:href="#DejaVuSans-Oblique-64" x="1022.363281"/>
     <use xlink:href="#DejaVuSans-Oblique-61" x="1085.839844"/>
     <use xlink:href="#DejaVuSans-Oblique-64" x="1147.119141"/>
     <use xlink:href="#DejaVuSans-Oblique-6f" x="1210.595703"/>
     <use xlink:href="#DejaVuSans-Oblique-20" x="1271.777344"/>
     <use xlink:href="#DejaVuSans-Oblique-42" x="1303.564453"/>
     <use xlink:href="#DejaVuSans-Oblique-22" x="1372.167969"/>
     <use xlink:href="#DejaVuSans-Oblique-29" x="1418.164062"/>
    </g>
   </g>
  </g>
 </g>
 <defs>
  <clipPath id="p7c3b648c39">
   <rect x="7.2" y="7.2" width="479.784886" height="410.4"/>
  </clipPath>
 </defs>
</svg>
