<?xml version="1.0" encoding="utf-8" standalone="no"?>
<!DOCTYPE svg PUBLIC "-//W3C//DTD SVG 1.1//EN"
  "http://www.w3.org/Graphics/SVG/1.1/DTD/svg11.dtd">
<svg xmlns:xlink="http://www.w3.org/1999/xlink" width="1008pt" height="432pt" viewBox="0 0 1008 432" xmlns="http://www.w3.org/2000/svg" version="1.1">
 <metadata>
  <rdf:RDF xmlns:dc="http://purl.org/dc/elements/1.1/" xmlns:cc="http://creativecommons.org/ns#" xmlns:rdf="http://www.w3.org/1999/02/22-rdf-syntax-ns#">
   <cc:Work>
    <dc:type rdf:resource="http://purl.org/dc/dcmitype/StillImage"/>
    <dc:date>2026-04-19T19:28:53.154987</dc:date>
    <dc:format>image/svg+xml</dc:format>
    <dc:creator>
     <cc:Agent>
      <dc:title>Matplotlib v3.9.4, https://matplotlib.org/</dc:title>
     </cc:Agent>
    </dc:creator>
   </cc:Work>
  </rdf:RDF>
 </metadata>
 <defs>
  <style type="text/css">*{stroke-linejoin: round; stroke-linecap: butt}</style>
 </defs>
 <g id="figure_1">
  <g id="patch_1">
   <path d="M 0 432 
L 1008 432 
L 1008 0 
L 0 0 
z
" style="fill: #ffffff"/>
  </g>
  <g id="axes_1">
   <g id="patch_2">
    <path d="M 48.215 389.68 
L 500.1975 389.68 
L 500.1975 40.452 
L 48.215 40.452 
z
" style="fill: #ffffff"/>
   </g>
   <g id="patch_3">
    <path d="M 68.759659 389.68 
L 120.121307 389.68 
L 120.121307 57.081905 
L 68.759659 57.081905 
z
" clip-path="url(#p698dcf25b5)" style="fill: #2a5298; opacity: 0.7; stroke: #000000; stroke-width: 1.2; stroke-linejoin: miter"/>
   </g>
   <g id="patch_4">
    <path d="M 120.121307 389.68 
L 171.482955 389.68 
L 171.482955 306.530476 
L 120.121307 306.530476 
z
" clip-path="url(#p698dcf25b5)" style="fill: #2a5298; opacity: 0.7; stroke: #000000; stroke-width: 1.2; stroke-linejoin: miter"/>
   </g>
   <g id="patch_5">
    <path d="M 171.482955 389.68 
L 222.844602 389.68 
L 222.844602 140.231429 
L 171.482955 140.231429 
z
" clip-path="url(#p698dcf25b5)" style="fill: #2a5298; opacity: 0.7; stroke: #000000; stroke-width: 1.2; stroke-linejoin: miter"/>
   </g>
   <g id="patch_6">
    <path d="M 222.844602 389.68 
L 274.20625 389.68 
L 274.20625 140.231429 
L 222.844602 140.231429 
z
" clip-path="url(#p698dcf25b5)" style="fill: #2a5298; opacity: 0.7; stroke: #000000; stroke-width: 1.2; stroke-linejoin: miter"/>
   </g>
   <g id="patch_7">
    <path d="M 274.20625 389.68 
L 325.567898 389.68 
L 325.567898 306.530476 
L 274.20625 306.530476 
z
" clip-path="url(#p698dcf25b5)" style="fill: #2a5298; opacity: 0.7; stroke: #000000; stroke-width: 1.2; stroke-linejoin: miter"/>
   </g>
   <g id="patch_8">
    <path d="M 325.567898 389.68 
L 376.929545 389.68 
L 376.929545 223.380952 
L 325.567898 223.380952 
z
" clip-path="url(#p698dcf25b5)" style="fill: #2a5298; opacity: 0.7; stroke: #000000; stroke-width: 1.2; stroke-linejoin: miter"/>
   </g>
   <g id="patch_9">
    <path d="M 376.929545 389.68 
L 428.291193 389.68 
L 428.291193 306.530476 
L 376.929545 306.530476 
z
" clip-path="url(#p698dcf25b5)" style="fill: #2a5298; opacity: 0.7; stroke: #000000; stroke-width: 1.2; stroke-linejoin: miter"/>
   </g>
   <g id="patch_10">
    <path d="M 428.291193 389.68 
L 479.652841 389.68 
L 479.652841 140.231429 
L 428.291193 140.231429 
z
" clip-path="url(#p698dcf25b5)" style="fill: #2a5298; opacity: 0.7; stroke: #000000; stroke-width: 1.2; stroke-linejoin: miter"/>
   </g>
   <g id="matplotlib.axis_1">
    <g id="xtick_1">
     <g id="line2d_1">
      <defs>
       <path id="m87e0799222" d="M 0 0 
L 0 3.5 
" style="stroke: #000000; stroke-width: 0.8"/>
      </defs>
      <g>
       <use xlink:href="#m87e0799222" x="95.792105" y="389.68" style="stroke: #000000; stroke-width: 0.8"/>
      </g>
     </g>
     <g id="text_1">
      <!-- 20 -->
      <g transform="translate(89.429605 404.278437) scale(0.1 -0.1)">
       <defs>
        <path id="DejaVuSans-32" d="M 1228 531 
L 3431 531 
L 3431 0 
L 469 0 
L 469 531 
Q 828 903 1448 1529 
Q 2069 2156 2228 2338 
Q 2531 2678 2651 2914 
Q 2772 3150 2772 3378 
Q 2772 3750 2511 3984 
Q 2250 4219 1831 4219 
Q 1534 4219 1204 4116 
Q 875 4013 500 3803 
L 500 4441 
Q 881 4594 1212 4672 
Q 1544 4750 1819 4750 
Q 2544 4750 2975 4387 
Q 3406 4025 3406 3419 
Q 3406 3131 3298 2873 
Q 3191 2616 2906 2266 
Q 2828 2175 2409 1742 
Q 1991 1309 1228 531 
z
" transform="scale(0.015625)"/>
        <path id="DejaVuSans-30" d="M 2034 4250 
Q 1547 4250 1301 3770 
Q 1056 3291 1056 2328 
Q 1056 1369 1301 889 
Q 1547 409 2034 409 
Q 2525 409 2770 889 
Q 3016 1369 3016 2328 
Q 3016 3291 2770 3770 
Q 2525 4250 2034 4250 
z
M 2034 4750 
Q 2819 4750 3233 4129 
Q 3647 3509 3647 2328 
Q 3647 1150 3233 529 
Q 2819 -91 2034 -91 
Q 1250 -91 836 529 
Q 422 1150 422 2328 
Q 422 3509 836 4129 
Q 1250 4750 2034 4750 
z
" transform="scale(0.015625)"/>
       </defs>
       <use xlink:href="#DejaVuSans-32"/>
       <use xlink:href="#DejaVuSans-30" x="63.623047"/>
      </g>
     </g>
    </g>
    <g id="xtick_2">
     <g id="line2d_2">
      <g>
       <use xlink:href="#m87e0799222" x="185.900259" y="389.68" style="stroke: #000000; stroke-width: 0.8"/>
      </g>
     </g>
     <g id="text_2">
      <!-- 25 -->
      <g transform="translate(179.537759 404.278437) scale(0.1 -0.1)">
       <defs>
        <path id="DejaVuSans-35" d="M 691 4666 
L 3169 4666 
L 3169 4134 
L 1269 4134 
L 1269 2991 
Q 1406 3038 1543 3061 
Q 1681 3084 1819 3084 
Q 2600 3084 3056 2656 
Q 3513 2228 3513 1497 
Q 3513 744 3044 326 
Q 2575 -91 1722 -91 
Q 1428 -91 1123 -41 
Q 819 9 494 109 
L 494 744 
Q 775 591 1075 516 
Q 1375 441 1709 441 
Q 2250 441 2565 725 
Q 2881 1009 2881 1497 
Q 2881 1984 2565 2268 
Q 2250 2553 1709 2553 
Q 1456 2553 1204 2497 
Q 953 2441 691 2322 
L 691 4666 
z
" transform="scale(0.015625)"/>
       </defs>
       <use xlink:href="#DejaVuSans-32"/>
       <use xlink:href="#DejaVuSans-35" x="63.623047"/>
      </g>
     </g>
    </g>
    <g id="xtick_3">
     <g id="line2d_3">
      <g>
       <use xlink:href="#m87e0799222" x="276.008413" y="389.68" style="stroke: #000000; stroke-width: 0.8"/>
      </g>
     </g>
     <g id="text_3">
      <!-- 30 -->
      <g transform="translate(269.645913 404.278437) scale(0.1 -0.1)">
       <defs>
        <path id="DejaVuSans-33" d="M 2597 2516 
Q 3050 2419 3304 2112 
Q 3559 1806 3559 1356 
Q 3559 666 3084 287 
Q 2609 -91 1734 -91 
Q 1441 -91 1130 -33 
Q 819 25 488 141 
L 488 750 
Q 750 597 1062 519 
Q 1375 441 1716 441 
Q 2309 441 2620 675 
Q 2931 909 2931 1356 
Q 2931 1769 2642 2001 
Q 2353 2234 1838 2234 
L 1294 2234 
L 1294 2753 
L 1863 2753 
Q 2328 2753 2575 2939 
Q 2822 3125 2822 3475 
Q 2822 3834 2567 4026 
Q 2313 4219 1838 4219 
Q 1578 4219 1281 4162 
Q 984 4106 628 3988 
L 628 4550 
Q 988 4650 1302 4700 
Q 1616 4750 1894 4750 
Q 2613 4750 3031 4423 
Q 3450 4097 3450 3541 
Q 3450 3153 3228 2886 
Q 3006 2619 2597 2516 
z
" transform="scale(0.015625)"/>
       </defs>
       <use xlink:href="#DejaVuSans-33"/>
       <use xlink:href="#DejaVuSans-30" x="63.623047"/>
      </g>
     </g>
    </g>
    <g id="xtick_4">
     <g id="line2d_4">
      <g>
       <use xlink:href="#m87e0799222" x="366.116567" y="389.68" style="stroke: #000000; stroke-width: 0.8"/>
      </g>
     </g>
     <g id="text_4">
      <!-- 35 -->
      <g transform="translate(359.754067 404.278437) scale(0.1 -0.1)">
       <use xlink:href="#DejaVuSans-33"/>
       <use xlink:href="#DejaVuSans-35" x="63.623047"/>
      </g>
     </g>
    </g>
    <g id="xtick_5">
     <g id="line2d_5">
      <g>
       <use xlink:href="#m87e0799222" x="456.224721" y="389.68" style="stroke: #000000; stroke-width: 0.8"/>
      </g>
     </g>
     <g id="text_5">
      <!-- 40 -->
      <g transform="translate(449.862221 404.278437) scale(0.1 -0.1)">
       <defs>
        <path id="DejaVuSans-34" d="M 2419 4116 
L 825 1625 
L 2419 1625 
L 2419 4116 
z
M 2253 4666 
L 3047 4666 
L 3047 1625 
L 3713 1625 
L 3713 1100 
L 3047 1100 
L 3047 0 
L 2419 0 
L 2419 1100 
L 313 1100 
L 313 1709 
L 2253 4666 
z
" transform="scale(0.015625)"/>
       </defs>
       <use xlink:href="#DejaVuSans-34"/>
       <use xlink:href="#DejaVuSans-30" x="63.623047"/>
      </g>
     </g>
    </g>
    <g id="text_6">
     <!-- Salario Anual (miles €) -->
     <g transform="translate(203.771875 418.716406) scale(0.11 -0.11)">
      <defs>
       <path id="DejaVuSans-Bold-53" d="M 3834 4519 
L 3834 3531 
Q 3450 3703 3084 3790 
Q 2719 3878 2394 3878 
Q 1963 3878 1756 3759 
Q 1550 3641 1550 3391 
Q 1550 3203 1689 3098 
Q 1828 2994 2194 2919 
L 2706 2816 
Q 3484 2659 3812 2340 
Q 4141 2022 4141 1434 
Q 4141 663 3683 286 
Q 3225 -91 2284 -91 
Q 1841 -91 1394 -6 
Q 947 78 500 244 
L 500 1259 
Q 947 1022 1364 901 
Q 1781 781 2169 781 
Q 2563 781 2772 912 
Q 2981 1044 2981 1288 
Q 2981 1506 2839 1625 
Q 2697 1744 2272 1838 
L 1806 1941 
Q 1106 2091 782 2419 
Q 459 2747 459 3303 
Q 459 4000 909 4375 
Q 1359 4750 2203 4750 
Q 2588 4750 2994 4692 
Q 3400 4634 3834 4519 
z
" transform="scale(0.015625)"/>
       <path id="DejaVuSans-Bold-61" d="M 2106 1575 
Q 1756 1575 1579 1456 
Q 1403 1338 1403 1106 
Q 1403 894 1545 773 
Q 1688 653 1941 653 
Q 2256 653 2472 879 
Q 2688 1106 2688 1447 
L 2688 1575 
L 2106 1575 
z
M 3816 1997 
L 3816 0 
L 2688 0 
L 2688 519 
Q 2463 200 2181 54 
Q 1900 -91 1497 -91 
Q 953 -91 614 226 
Q 275 544 275 1050 
Q 275 1666 698 1953 
Q 1122 2241 2028 2241 
L 2688 2241 
L 2688 2328 
Q 2688 2594 2478 2717 
Q 2269 2841 1825 2841 
Q 1466 2841 1156 2769 
Q 847 2697 581 2553 
L 581 3406 
Q 941 3494 1303 3539 
Q 1666 3584 2028 3584 
Q 2975 3584 3395 3211 
Q 3816 2838 3816 1997 
z
" transform="scale(0.015625)"/>
       <path id="DejaVuSans-Bold-6c" d="M 538 4863 
L 1656 4863 
L 1656 0 
L 538 0 
L 538 4863 
z
" transform="scale(0.015625)"/>
       <path id="DejaVuSans-Bold-72" d="M 3138 2547 
Q 2991 2616 2845 2648 
Q 2700 2681 2553 2681 
Q 2122 2681 1889 2404 
Q 1656 2128 1656 1613 
L 1656 0 
L 538 0 
L 538 3500 
L 1656 3500 
L 1656 2925 
Q 1872 3269 2151 3426 
Q 2431 3584 2822 3584 
Q 2878 3584 2943 3579 
Q 3009 3575 3134 3559 
L 3138 2547 
z
" transform="scale(0.015625)"/>
       <path id="DejaVuSans-Bold-69" d="M 538 3500 
L 1656 3500 
L 1656 0 
L 538 0 
L 538 3500 
z
M 538 4863 
L 1656 4863 
L 1656 3950 
L 538 3950 
L 538 4863 
z
" transform="scale(0.015625)"/>
       <path id="DejaVuSans-Bold-6f" d="M 2203 2784 
Q 1831 2784 1636 2517 
Q 1441 2250 1441 1747 
Q 1441 1244 1636 976 
Q 1831 709 2203 709 
Q 2569 709 2762 976 
Q 2956 1244 2956 1747 
Q 2956 2250 2762 2517 
Q 2569 2784 2203 2784 
z
M 2203 3584 
Q 3106 3584 3614 3096 
Q 4122 2609 4122 1747 
Q 4122 884 3614 396 
Q 3106 -91 2203 -91 
Q 1297 -91 786 396 
Q 275 884 275 1747 
Q 275 2609 786 3096 
Q 1297 3584 2203 3584 
z
" transform="scale(0.015625)"/>
       <path id="DejaVuSans-Bold-20" transform="scale(0.015625)"/>
       <path id="DejaVuSans-Bold-41" d="M 3419 850 
L 1538 850 
L 1241 0 
L 31 0 
L 1759 4666 
L 3194 4666 
L 4922 0 
L 3713 0 
L 3419 850 
z
M 1838 1716 
L 3116 1716 
L 2478 3572 
L 1838 1716 
z
" transform="scale(0.015625)"/>
       <path id="DejaVuSans-Bold-6e" d="M 4056 2131 
L 4056 0 
L 2931 0 
L 2931 347 
L 2931 1631 
Q 2931 2084 2911 2256 
Q 2891 2428 2841 2509 
Q 2775 2619 2662 2680 
Q 2550 2741 2406 2741 
Q 2056 2741 1856 2470 
Q 1656 2200 1656 1722 
L 1656 0 
L 538 0 
L 538 3500 
L 1656 3500 
L 1656 2988 
Q 1909 3294 2193 3439 
Q 2478 3584 2822 3584 
Q 3428 3584 3742 3212 
Q 4056 2841 4056 2131 
z
" transform="scale(0.015625)"/>
       <path id="DejaVuSans-Bold-75" d="M 500 1363 
L 500 3500 
L 1625 3500 
L 1625 3150 
Q 1625 2866 1622 2436 
Q 1619 2006 1619 1863 
Q 1619 1441 1641 1255 
Q 1663 1069 1716 984 
Q 1784 875 1895 815 
Q 2006 756 2150 756 
Q 2500 756 2700 1025 
Q 2900 1294 2900 1772 
L 2900 3500 
L 4019 3500 
L 4019 0 
L 2900 0 
L 2900 506 
Q 2647 200 2364 54 
Q 2081 -91 1741 -91 
Q 1134 -91 817 281 
Q 500 653 500 1363 
z
" transform="scale(0.015625)"/>
       <path id="DejaVuSans-Bold-28" d="M 2413 -844 
L 1484 -844 
Q 1006 -72 778 623 
Q 550 1319 550 2003 
Q 550 2688 779 3389 
Q 1009 4091 1484 4856 
L 2413 4856 
Q 2013 4116 1813 3408 
Q 1613 2700 1613 2009 
Q 1613 1319 1811 609 
Q 2009 -100 2413 -844 
z
" transform="scale(0.015625)"/>
       <path id="DejaVuSans-Bold-6d" d="M 3781 2919 
Q 3994 3244 4286 3414 
Q 4578 3584 4928 3584 
Q 5531 3584 5847 3212 
Q 6163 2841 6163 2131 
L 6163 0 
L 5038 0 
L 5038 1825 
Q 5041 1866 5042 1909 
Q 5044 1953 5044 2034 
Q 5044 2406 4934 2573 
Q 4825 2741 4581 2741 
Q 4263 2741 4089 2478 
Q 3916 2216 3909 1719 
L 3909 0 
L 2784 0 
L 2784 1825 
Q 2784 2406 2684 2573 
Q 2584 2741 2328 2741 
Q 2006 2741 1831 2477 
Q 1656 2213 1656 1722 
L 1656 0 
L 531 0 
L 531 3500 
L 1656 3500 
L 1656 2988 
Q 1863 3284 2130 3434 
Q 2397 3584 2719 3584 
Q 3081 3584 3359 3409 
Q 3638 3234 3781 2919 
z
" transform="scale(0.015625)"/>
       <path id="DejaVuSans-Bold-65" d="M 4031 1759 
L 4031 1441 
L 1416 1441 
Q 1456 1047 1700 850 
Q 1944 653 2381 653 
Q 2734 653 3104 758 
Q 3475 863 3866 1075 
L 3866 213 
Q 3469 63 3072 -14 
Q 2675 -91 2278 -91 
Q 1328 -91 801 392 
Q 275 875 275 1747 
Q 275 2603 792 3093 
Q 1309 3584 2216 3584 
Q 3041 3584 3536 3087 
Q 4031 2591 4031 1759 
z
M 2881 2131 
Q 2881 2450 2695 2645 
Q 2509 2841 2209 2841 
Q 1884 2841 1681 2658 
Q 1478 2475 1428 2131 
L 2881 2131 
z
" transform="scale(0.015625)"/>
       <path id="DejaVuSans-Bold-73" d="M 3272 3391 
L 3272 2541 
Q 2913 2691 2578 2766 
Q 2244 2841 1947 2841 
Q 1628 2841 1473 2761 
Q 1319 2681 1319 2516 
Q 1319 2381 1436 2309 
Q 1553 2238 1856 2203 
L 2053 2175 
Q 2913 2066 3209 1816 
Q 3506 1566 3506 1031 
Q 3506 472 3093 190 
Q 2681 -91 1863 -91 
Q 1516 -91 1145 -36 
Q 775 19 384 128 
L 384 978 
Q 719 816 1070 734 
Q 1422 653 1784 653 
Q 2113 653 2278 743 
Q 2444 834 2444 1013 
Q 2444 1163 2330 1236 
Q 2216 1309 1875 1350 
L 1678 1375 
Q 931 1469 631 1722 
Q 331 1975 331 2491 
Q 331 3047 712 3315 
Q 1094 3584 1881 3584 
Q 2191 3584 2531 3537 
Q 2872 3491 3272 3391 
z
" transform="scale(0.015625)"/>
       <path id="DejaVuSans-Bold-20ac" d="M 4025 256 
Q 3728 84 3404 -3 
Q 3081 -91 2731 -91 
Q 1913 -91 1352 317 
Q 791 725 556 1491 
L -122 1491 
L 153 2100 
L 459 2100 
Q 456 2144 454 2192 
Q 453 2241 453 2328 
Q 453 2419 454 2469 
Q 456 2519 459 2566 
L -122 2566 
L 153 3175 
L 556 3175 
Q 797 3944 1355 4347 
Q 1913 4750 2731 4750 
Q 3081 4750 3404 4662 
Q 3728 4575 4025 4403 
L 4025 3438 
Q 3772 3681 3484 3804 
Q 3197 3928 2888 3928 
Q 2491 3928 2211 3736 
Q 1931 3544 1791 3175 
L 3475 3175 
L 3206 2566 
L 1666 2566 
Q 1659 2516 1657 2459 
Q 1656 2403 1656 2291 
Q 1656 2250 1657 2201 
Q 1659 2153 1663 2100 
L 3003 2100 
L 2725 1491 
L 1791 1491 
Q 1947 1109 2220 918 
Q 2494 728 2888 728 
Q 3197 728 3480 851 
Q 3763 975 4025 1222 
L 4025 256 
z
" transform="scale(0.015625)"/>
       <path id="DejaVuSans-Bold-29" d="M 513 -844 
Q 913 -100 1113 609 
Q 1313 1319 1313 2009 
Q 1313 2700 1113 3408 
Q 913 4116 513 4856 
L 1441 4856 
Q 1916 4091 2145 3389 
Q 2375 2688 2375 2003 
Q 2375 1319 2147 623 
Q 1919 -72 1441 -844 
L 513 -844 
z
" transform="scale(0.015625)"/>
      </defs>
      <use xlink:href="#DejaVuSans-Bold-53"/>
      <use xlink:href="#DejaVuSans-Bold-61" x="72.021484"/>
      <use xlink:href="#DejaVuSans-Bold-6c" x="139.501953"/>
      <use xlink:href="#DejaVuSans-Bold-61" x="173.779297"/>
      <use xlink:href="#DejaVuSans-Bold-72" x="241.259766"/>
      <use xlink:href="#DejaVuSans-Bold-69" x="290.576172"/>
      <use xlink:href="#DejaVuSans-Bold-6f" x="324.853516"/>
      <use xlink:href="#DejaVuSans-Bold-20" x="393.554688"/>
      <use xlink:href="#DejaVuSans-Bold-41" x="428.369141"/>
      <use xlink:href="#DejaVuSans-Bold-6e" x="505.761719"/>
      <use xlink:href="#DejaVuSans-Bold-75" x="576.953125"/>
      <use xlink:href="#DejaVuSans-Bold-61" x="648.144531"/>
      <use xlink:href="#DejaVuSans-Bold-6c" x="715.625"/>
      <use xlink:href="#DejaVuSans-Bold-20" x="749.902344"/>
      <use xlink:href="#DejaVuSans-Bold-28" x="784.716797"/>
      <use xlink:href="#DejaVuSans-Bold-6d" x="830.419922"/>
      <use xlink:href="#DejaVuSans-Bold-69" x="934.619141"/>
      <use xlink:href="#DejaVuSans-Bold-6c" x="968.896484"/>
      <use xlink:href="#DejaVuSans-Bold-65" x="1003.173828"/>
      <use xlink:href="#DejaVuSans-Bold-73" x="1070.996094"/>
      <use xlink:href="#DejaVuSans-Bold-20" x="1130.517578"/>
      <use xlink:href="#DejaVuSans-Bold-20ac" x="1165.332031"/>
      <use xlink:href="#DejaVuSans-Bold-29" x="1234.912109"/>
     </g>
    </g>
   </g>
   <g id="matplotlib.axis_2">
    <g id="ytick_1">
     <g id="line2d_6">
      <path d="M 48.215 389.68 
L 500.1975 389.68 
" clip-path="url(#p698dcf25b5)" style="fill: none; stroke: #b0b0b0; stroke-opacity: 0.3; stroke-width: 0.8; stroke-linecap: square"/>
     </g>
     <g id="line2d_7">
      <defs>
       <path id="m5a40203513" d="M 0 0 
L -3.5 0 
" style="stroke: #000000; stroke-width: 0.8"/>
      </defs>
      <g>
       <use xlink:href="#m5a40203513" x="48.215" y="389.68" style="stroke: #000000; stroke-width: 0.8"/>
      </g>
     </g>
     <g id="text_7">
      <!-- 0.0 -->
      <g transform="translate(25.311875 393.479219) scale(0.1 -0.1)">
       <defs>
        <path id="DejaVuSans-2e" d="M 684 794 
L 1344 794 
L 1344 0 
L 684 0 
L 684 794 
z
" transform="scale(0.015625)"/>
       </defs>
       <use xlink:href="#DejaVuSans-30"/>
       <use xlink:href="#DejaVuSans-2e" x="63.623047"/>
       <use xlink:href="#DejaVuSans-30" x="95.410156"/>
      </g>
     </g>
    </g>
    <g id="ytick_2">
     <g id="line2d_8">
      <path d="M 48.215 348.105238 
L 500.1975 348.105238 
" clip-path="url(#p698dcf25b5)" style="fill: none; stroke: #b0b0b0; stroke-opacity: 0.3; stroke-width: 0.8; stroke-linecap: square"/>
     </g>
     <g id="line2d_9">
      <g>
       <use xlink:href="#m5a40203513" x="48.215" y="348.105238" style="stroke: #000000; stroke-width: 0.8"/>
      </g>
     </g>
     <g id="text_8">
      <!-- 0.5 -->
      <g transform="translate(25.311875 351.904457) scale(0.1 -0.1)">
       <use xlink:href="#DejaVuSans-30"/>
       <use xlink:href="#DejaVuSans-2e" x="63.623047"/>
       <use xlink:href="#DejaVuSans-35" x="95.410156"/>
      </g>
     </g>
    </g>
    <g id="ytick_3">
     <g id="line2d_10">
      <path d="M 48.215 306.530476 
L 500.1975 306.530476 
" clip-path="url(#p698dcf25b5)" style="fill: none; stroke: #b0b0b0; stroke-opacity: 0.3; stroke-width: 0.8; stroke-linecap: square"/>
     </g>
     <g id="line2d_11">
      <g>
       <use xlink:href="#m5a40203513" x="48.215" y="306.530476" style="stroke: #000000; stroke-width: 0.8"/>
      </g>
     </g>
     <g id="text_9">
      <!-- 1.0 -->
      <g transform="translate(25.311875 310.329695) scale(0.1 -0.1)">
       <defs>
        <path id="DejaVuSans-31" d="M 794 531 
L 1825 531 
L 1825 4091 
L 703 3866 
L 703 4441 
L 1819 4666 
L 2450 4666 
L 2450 531 
L 3481 531 
L 3481 0 
L 794 0 
L 794 531 
z
" transform="scale(0.015625)"/>
       </defs>
       <use xlink:href="#DejaVuSans-31"/>
       <use xlink:href="#DejaVuSans-2e" x="63.623047"/>
       <use xlink:href="#DejaVuSans-30" x="95.410156"/>
      </g>
     </g>
    </g>
    <g id="ytick_4">
     <g id="line2d_12">
      <path d="M 48.215 264.955714 
L 500.1975 264.955714 
" clip-path="url(#p698dcf25b5)" style="fill: none; stroke: #b0b0b0; stroke-opacity: 0.3; stroke-width: 0.8; stroke-linecap: square"/>
     </g>
     <g id="line2d_13">
      <g>
       <use xlink:href="#m5a40203513" x="48.215" y="264.955714" style="stroke: #000000; stroke-width: 0.8"/>
      </g>
     </g>
     <g id="text_10">
      <!-- 1.5 -->
      <g transform="translate(25.311875 268.754933) scale(0.1 -0.1)">
       <use xlink:href="#DejaVuSans-31"/>
       <use xlink:href="#DejaVuSans-2e" x="63.623047"/>
       <use xlink:href="#DejaVuSans-35" x="95.410156"/>
      </g>
     </g>
    </g>
    <g id="ytick_5">
     <g id="line2d_14">
      <path d="M 48.215 223.380952 
L 500.1975 223.380952 
" clip-path="url(#p698dcf25b5)" style="fill: none; stroke: #b0b0b0; stroke-opacity: 0.3; stroke-width: 0.8; stroke-linecap: square"/>
     </g>
     <g id="line2d_15">
      <g>
       <use xlink:href="#m5a40203513" x="48.215" y="223.380952" style="stroke: #000000; stroke-width: 0.8"/>
      </g>
     </g>
     <g id="text_11">
      <!-- 2.0 -->
      <g transform="translate(25.311875 227.180171) scale(0.1 -0.1)">
       <use xlink:href="#DejaVuSans-32"/>
       <use xlink:href="#DejaVuSans-2e" x="63.623047"/>
       <use xlink:href="#DejaVuSans-30" x="95.410156"/>
      </g>
     </g>
    </g>
    <g id="ytick_6">
     <g id="line2d_16">
      <path d="M 48.215 181.80619 
L 500.1975 181.80619 
" clip-path="url(#p698dcf25b5)" style="fill: none; stroke: #b0b0b0; stroke-opacity: 0.3; stroke-width: 0.8; stroke-linecap: square"/>
     </g>
     <g id="line2d_17">
      <g>
       <use xlink:href="#m5a40203513" x="48.215" y="181.80619" style="stroke: #000000; stroke-width: 0.8"/>
      </g>
     </g>
     <g id="text_12">
      <!-- 2.5 -->
      <g transform="translate(25.311875 185.605409) scale(0.1 -0.1)">
       <use xlink:href="#DejaVuSans-32"/>
       <use xlink:href="#DejaVuSans-2e" x="63.623047"/>
       <use xlink:href="#DejaVuSans-35" x="95.410156"/>
      </g>
     </g>
    </g>
    <g id="ytick_7">
     <g id="line2d_18">
      <path d="M 48.215 140.231429 
L 500.1975 140.231429 
" clip-path="url(#p698dcf25b5)" style="fill: none; stroke: #b0b0b0; stroke-opacity: 0.3; stroke-width: 0.8; stroke-linecap: square"/>
     </g>
     <g id="line2d_19">
      <g>
       <use xlink:href="#m5a40203513" x="48.215" y="140.231429" style="stroke: #000000; stroke-width: 0.8"/>
      </g>
     </g>
     <g id="text_13">
      <!-- 3.0 -->
      <g transform="translate(25.311875 144.030647) scale(0.1 -0.1)">
       <use xlink:href="#DejaVuSans-33"/>
       <use xlink:href="#DejaVuSans-2e" x="63.623047"/>
       <use xlink:href="#DejaVuSans-30" x="95.410156"/>
      </g>
     </g>
    </g>
    <g id="ytick_8">
     <g id="line2d_20">
      <path d="M 48.215 98.656667 
L 500.1975 98.656667 
" clip-path="url(#p698dcf25b5)" style="fill: none; stroke: #b0b0b0; stroke-opacity: 0.3; stroke-width: 0.8; stroke-linecap: square"/>
     </g>
     <g id="line2d_21">
      <g>
       <use xlink:href="#m5a40203513" x="48.215" y="98.656667" style="stroke: #000000; stroke-width: 0.8"/>
      </g>
     </g>
     <g id="text_14">
      <!-- 3.5 -->
      <g transform="translate(25.311875 102.455885) scale(0.1 -0.1)">
       <use xlink:href="#DejaVuSans-33"/>
       <use xlink:href="#DejaVuSans-2e" x="63.623047"/>
       <use xlink:href="#DejaVuSans-35" x="95.410156"/>
      </g>
     </g>
    </g>
    <g id="ytick_9">
     <g id="line2d_22">
      <path d="M 48.215 57.081905 
L 500.1975 57.081905 
" clip-path="url(#p698dcf25b5)" style="fill: none; stroke: #b0b0b0; stroke-opacity: 0.3; stroke-width: 0.8; stroke-linecap: square"/>
     </g>
     <g id="line2d_23">
      <g>
       <use xlink:href="#m5a40203513" x="48.215" y="57.081905" style="stroke: #000000; stroke-width: 0.8"/>
      </g>
     </g>
     <g id="text_15">
      <!-- 4.0 -->
      <g transform="translate(25.311875 60.881124) scale(0.1 -0.1)">
       <use xlink:href="#DejaVuSans-34"/>
       <use xlink:href="#DejaVuSans-2e" x="63.623047"/>
       <use xlink:href="#DejaVuSans-30" x="95.410156"/>
      </g>
     </g>
    </g>
    <g id="text_16">
     <!-- Frecuencia -->
     <g transform="translate(19.024219 248.594516) rotate(-90) scale(0.11 -0.11)">
      <defs>
       <path id="DejaVuSans-Bold-46" d="M 588 4666 
L 3834 4666 
L 3834 3756 
L 1791 3756 
L 1791 2888 
L 3713 2888 
L 3713 1978 
L 1791 1978 
L 1791 0 
L 588 0 
L 588 4666 
z
" transform="scale(0.015625)"/>
       <path id="DejaVuSans-Bold-63" d="M 3366 3391 
L 3366 2478 
Q 3138 2634 2908 2709 
Q 2678 2784 2431 2784 
Q 1963 2784 1702 2511 
Q 1441 2238 1441 1747 
Q 1441 1256 1702 982 
Q 1963 709 2431 709 
Q 2694 709 2930 787 
Q 3166 866 3366 1019 
L 3366 103 
Q 3103 6 2833 -42 
Q 2563 -91 2291 -91 
Q 1344 -91 809 395 
Q 275 881 275 1747 
Q 275 2613 809 3098 
Q 1344 3584 2291 3584 
Q 2566 3584 2833 3536 
Q 3100 3488 3366 3391 
z
" transform="scale(0.015625)"/>
      </defs>
      <use xlink:href="#DejaVuSans-Bold-46"/>
      <use xlink:href="#DejaVuSans-Bold-72" x="61.935547"/>
      <use xlink:href="#DejaVuSans-Bold-65" x="111.251953"/>
      <use xlink:href="#DejaVuSans-Bold-63" x="179.074219"/>
      <use xlink:href="#DejaVuSans-Bold-75" x="238.351562"/>
      <use xlink:href="#DejaVuSans-Bold-65" x="309.542969"/>
      <use xlink:href="#DejaVuSans-Bold-6e" x="377.365234"/>
      <use xlink:href="#DejaVuSans-Bold-63" x="448.556641"/>
      <use xlink:href="#DejaVuSans-Bold-69" x="507.833984"/>
      <use xlink:href="#DejaVuSans-Bold-61" x="542.111328"/>
     </g>
    </g>
   </g>
   <g id="line2d_24">
    <path d="M 258.086902 389.68 
L 258.086902 40.452 
" clip-path="url(#p698dcf25b5)" style="fill: none; stroke-dasharray: 7.4,3.2; stroke-dashoffset: 0; stroke: #ff0000; stroke-width: 2"/>
   </g>
   <g id="patch_11">
    <path d="M 48.215 389.68 
L 48.215 40.452 
" style="fill: none; stroke: #000000; stroke-width: 0.8; stroke-linejoin: miter; stroke-linecap: square"/>
   </g>
   <g id="patch_12">
    <path d="M 48.215 389.68 
L 500.1975 389.68 
" style="fill: none; stroke: #000000; stroke-width: 0.8; stroke-linejoin: miter; stroke-linecap: square"/>
   </g>
   <g id="text_17">
    <!-- Distribución Marginal de Salarios -->
    <g transform="translate(161.618125 20.920875) scale(0.12 -0.12)">
     <defs>
      <path id="DejaVuSans-Bold-44" d="M 1791 3756 
L 1791 909 
L 2222 909 
Q 2959 909 3348 1275 
Q 3738 1641 3738 2338 
Q 3738 3031 3350 3393 
Q 2963 3756 2222 3756 
L 1791 3756 
z
M 588 4666 
L 1856 4666 
Q 2919 4666 3439 4514 
Q 3959 4363 4331 4000 
Q 4659 3684 4818 3271 
Q 4978 2859 4978 2338 
Q 4978 1809 4818 1395 
Q 4659 981 4331 666 
Q 3956 303 3431 151 
Q 2906 0 1856 0 
L 588 0 
L 588 4666 
z
" transform="scale(0.015625)"/>
      <path id="DejaVuSans-Bold-74" d="M 1759 4494 
L 1759 3500 
L 2913 3500 
L 2913 2700 
L 1759 2700 
L 1759 1216 
Q 1759 972 1856 886 
Q 1953 800 2241 800 
L 2816 800 
L 2816 0 
L 1856 0 
Q 1194 0 917 276 
Q 641 553 641 1216 
L 641 2700 
L 84 2700 
L 84 3500 
L 641 3500 
L 641 4494 
L 1759 4494 
z
" transform="scale(0.015625)"/>
      <path id="DejaVuSans-Bold-62" d="M 2400 722 
Q 2759 722 2948 984 
Q 3138 1247 3138 1747 
Q 3138 2247 2948 2509 
Q 2759 2772 2400 2772 
Q 2041 2772 1848 2508 
Q 1656 2244 1656 1747 
Q 1656 1250 1848 986 
Q 2041 722 2400 722 
z
M 1656 2988 
Q 1888 3294 2169 3439 
Q 2450 3584 2816 3584 
Q 3463 3584 3878 3070 
Q 4294 2556 4294 1747 
Q 4294 938 3878 423 
Q 3463 -91 2816 -91 
Q 2450 -91 2169 54 
Q 1888 200 1656 506 
L 1656 0 
L 538 0 
L 538 4863 
L 1656 4863 
L 1656 2988 
z
" transform="scale(0.015625)"/>
      <path id="DejaVuSans-Bold-f3" d="M 2203 2784 
Q 1831 2784 1636 2517 
Q 1441 2250 1441 1747 
Q 1441 1244 1636 976 
Q 1831 709 2203 709 
Q 2569 709 2762 976 
Q 2956 1244 2956 1747 
Q 2956 2250 2762 2517 
Q 2569 2784 2203 2784 
z
M 2203 3584 
Q 3106 3584 3614 3096 
Q 4122 2609 4122 1747 
Q 4122 884 3614 396 
Q 3106 -91 2203 -91 
Q 1297 -91 786 396 
Q 275 884 275 1747 
Q 275 2609 786 3096 
Q 1297 3584 2203 3584 
z
M 2694 5119 
L 3578 5119 
L 2425 3944 
L 1813 3944 
L 2694 5119 
z
" transform="scale(0.015625)"/>
      <path id="DejaVuSans-Bold-4d" d="M 588 4666 
L 2119 4666 
L 3181 2169 
L 4250 4666 
L 5778 4666 
L 5778 0 
L 4641 0 
L 4641 3413 
L 3566 897 
L 2803 897 
L 1728 3413 
L 1728 0 
L 588 0 
L 588 4666 
z
" transform="scale(0.015625)"/>
      <path id="DejaVuSans-Bold-67" d="M 2919 594 
Q 2688 288 2409 144 
Q 2131 0 1766 0 
Q 1125 0 706 504 
Q 288 1009 288 1791 
Q 288 2575 706 3076 
Q 1125 3578 1766 3578 
Q 2131 3578 2409 3434 
Q 2688 3291 2919 2981 
L 2919 3500 
L 4044 3500 
L 4044 353 
Q 4044 -491 3511 -936 
Q 2978 -1381 1966 -1381 
Q 1638 -1381 1331 -1331 
Q 1025 -1281 716 -1178 
L 716 -306 
Q 1009 -475 1290 -558 
Q 1572 -641 1856 -641 
Q 2406 -641 2662 -400 
Q 2919 -159 2919 353 
L 2919 594 
z
M 2181 2772 
Q 1834 2772 1640 2515 
Q 1447 2259 1447 1791 
Q 1447 1309 1634 1061 
Q 1822 813 2181 813 
Q 2531 813 2725 1069 
Q 2919 1325 2919 1791 
Q 2919 2259 2725 2515 
Q 2531 2772 2181 2772 
z
" transform="scale(0.015625)"/>
      <path id="DejaVuSans-Bold-64" d="M 2919 2988 
L 2919 4863 
L 4044 4863 
L 4044 0 
L 2919 0 
L 2919 506 
Q 2688 197 2409 53 
Q 2131 -91 1766 -91 
Q 1119 -91 703 423 
Q 288 938 288 1747 
Q 288 2556 703 3070 
Q 1119 3584 1766 3584 
Q 2128 3584 2408 3439 
Q 2688 3294 2919 2988 
z
M 2181 722 
Q 2541 722 2730 984 
Q 2919 1247 2919 1747 
Q 2919 2247 2730 2509 
Q 2541 2772 2181 2772 
Q 1825 2772 1636 2509 
Q 1447 2247 1447 1747 
Q 1447 1247 1636 984 
Q 1825 722 2181 722 
z
" transform="scale(0.015625)"/>
     </defs>
     <use xlink:href="#DejaVuSans-Bold-44"/>
     <use xlink:href="#DejaVuSans-Bold-69" x="83.007812"/>
     <use xlink:href="#DejaVuSans-Bold-73" x="117.285156"/>
     <use xlink:href="#DejaVuSans-Bold-74" x="176.806641"/>
     <use xlink:href="#DejaVuSans-Bold-72" x="224.609375"/>
     <use xlink:href="#DejaVuSans-Bold-69" x="273.925781"/>
     <use xlink:href="#DejaVuSans-Bold-62" x="308.203125"/>
     <use xlink:href="#DejaVuSans-Bold-75" x="379.785156"/>
     <use xlink:href="#DejaVuSans-Bold-63" x="450.976562"/>
     <use xlink:href="#DejaVuSans-Bold-69" x="510.253906"/>
     <use xlink:href="#DejaVuSans-Bold-f3" x="544.53125"/>
     <use xlink:href="#DejaVuSans-Bold-6e" x="613.232422"/>
     <use xlink:href="#DejaVuSans-Bold-20" x="684.423828"/>
     <use xlink:href="#DejaVuSans-Bold-4d" x="719.238281"/>
     <use xlink:href="#DejaVuSans-Bold-61" x="818.75"/>
     <use xlink:href="#DejaVuSans-Bold-72" x="886.230469"/>
     <use xlink:href="#DejaVuSans-Bold-67" x="935.546875"/>
     <use xlink:href="#DejaVuSans-Bold-69" x="1007.128906"/>
     <use xlink:href="#DejaVuSans-Bold-6e" x="1041.40625"/>
     <use xlink:href="#DejaVuSans-Bold-61" x="1112.597656"/>
     <use xlink:href="#DejaVuSans-Bold-6c" x="1180.078125"/>
     <use xlink:href="#DejaVuSans-Bold-20" x="1214.355469"/>
     <use xlink:href="#DejaVuSans-Bold-64" x="1249.169922"/>
     <use xlink:href="#DejaVuSans-Bold-65" x="1320.751953"/>
     <use xlink:href="#DejaVuSans-Bold-20" x="1388.574219"/>
     <use xlink:href="#DejaVuSans-Bold-53" x="1423.388672"/>
     <use xlink:href="#DejaVuSans-Bold-61" x="1495.410156"/>
     <use xlink:href="#DejaVuSans-Bold-6c" x="1562.890625"/>
     <use xlink:href="#DejaVuSans-Bold-61" x="1597.167969"/>
     <use xlink:href="#DejaVuSans-Bold-72" x="1664.648438"/>
     <use xlink:href="#DejaVuSans-Bold-69" x="1713.964844"/>
     <use xlink:href="#DejaVuSans-Bold-6f" x="1748.242188"/>
     <use xlink:href="#DejaVuSans-Bold-73" x="1816.943359"/>
    </g>
    <!-- (Todos los niveles educativos) -->
    <g transform="translate(172.520313 34.452) scale(0.12 -0.12)">
     <defs>
      <path id="DejaVuSans-Bold-54" d="M 31 4666 
L 4331 4666 
L 4331 3756 
L 2784 3756 
L 2784 0 
L 1581 0 
L 1581 3756 
L 31 3756 
L 31 4666 
z
" transform="scale(0.015625)"/>
      <path id="DejaVuSans-Bold-76" d="M 97 3500 
L 1216 3500 
L 2088 1081 
L 2956 3500 
L 4078 3500 
L 2700 0 
L 1472 0 
L 97 3500 
z
" transform="scale(0.015625)"/>
     </defs>
     <use xlink:href="#DejaVuSans-Bold-28"/>
     <use xlink:href="#DejaVuSans-Bold-54" x="45.703125"/>
     <use xlink:href="#DejaVuSans-Bold-6f" x="100.666016"/>
     <use xlink:href="#DejaVuSans-Bold-64" x="169.367188"/>
     <use xlink:href="#DejaVuSans-Bold-6f" x="240.949219"/>
     <use xlink:href="#DejaVuSans-Bold-73" x="309.650391"/>
     <use xlink:href="#DejaVuSans-Bold-20" x="369.171875"/>
     <use xlink:href="#DejaVuSans-Bold-6c" x="403.986328"/>
     <use xlink:href="#DejaVuSans-Bold-6f" x="438.263672"/>
     <use xlink:href="#DejaVuSans-Bold-73" x="506.964844"/>
     <use xlink:href="#DejaVuSans-Bold-20" x="566.486328"/>
     <use xlink:href="#DejaVuSans-Bold-6e" x="601.300781"/>
     <use xlink:href="#DejaVuSans-Bold-69" x="672.492188"/>
     <use xlink:href="#DejaVuSans-Bold-76" x="706.769531"/>
     <use xlink:href="#DejaVuSans-Bold-65" x="771.955078"/>
     <use xlink:href="#DejaVuSans-Bold-6c" x="839.777344"/>
     <use xlink:href="#DejaVuSans-Bold-65" x="874.054688"/>
     <use xlink:href="#DejaVuSans-Bold-73" x="941.876953"/>
     <use xlink:href="#DejaVuSans-Bold-20" x="1001.398438"/>
     <use xlink:href="#DejaVuSans-Bold-65" x="1036.212891"/>
     <use xlink:href="#DejaVuSans-Bold-64" x="1104.035156"/>
     <use xlink:href="#DejaVuSans-Bold-75" x="1175.617188"/>
     <use xlink:href="#DejaVuSans-Bold-63" x="1246.808594"/>
     <use xlink:href="#DejaVuSans-Bold-61" x="1306.085938"/>
     <use xlink:href="#DejaVuSans-Bold-74" x="1373.566406"/>
     <use xlink:href="#DejaVuSans-Bold-69" x="1421.369141"/>
     <use xlink:href="#DejaVuSans-Bold-76" x="1455.646484"/>
     <use xlink:href="#DejaVuSans-Bold-6f" x="1520.832031"/>
     <use xlink:href="#DejaVuSans-Bold-73" x="1589.533203"/>
     <use xlink:href="#DejaVuSans-Bold-29" x="1649.054688"/>
    </g>
   </g>
   <g id="legend_1">
    <g id="patch_13">
     <path d="M 377.511563 63.130125 
L 493.1975 63.130125 
Q 495.1975 63.130125 495.1975 61.130125 
L 495.1975 47.452 
Q 495.1975 45.452 493.1975 45.452 
L 377.511563 45.452 
Q 375.511563 45.452 375.511563 47.452 
L 375.511563 61.130125 
Q 375.511563 63.130125 377.511563 63.130125 
z
" style="fill: #ffffff; opacity: 0.8; stroke: #cccccc; stroke-linejoin: miter"/>
    </g>
    <g id="line2d_25">
     <path d="M 379.511563 53.550438 
L 389.511563 53.550438 
L 399.511563 53.550438 
" style="fill: none; stroke-dasharray: 7.4,3.2; stroke-dashoffset: 0; stroke: #ff0000; stroke-width: 2"/>
    </g>
    <g id="text_18">
     <!-- Media: 29.0 mil€ -->
     <g transform="translate(407.511563 57.050438) scale(0.1 -0.1)">
      <defs>
       <path id="DejaVuSans-4d" d="M 628 4666 
L 1569 4666 
L 2759 1491 
L 3956 4666 
L 4897 4666 
L 4897 0 
L 4281 0 
L 4281 4097 
L 3078 897 
L 2444 897 
L 1241 4097 
L 1241 0 
L 628 0 
L 628 4666 
z
" transform="scale(0.015625)"/>
       <path id="DejaVuSans-65" d="M 3597 1894 
L 3597 1613 
L 953 1613 
Q 991 1019 1311 708 
Q 1631 397 2203 397 
Q 2534 397 2845 478 
Q 3156 559 3463 722 
L 3463 178 
Q 3153 47 2828 -22 
Q 2503 -91 2169 -91 
Q 1331 -91 842 396 
Q 353 884 353 1716 
Q 353 2575 817 3079 
Q 1281 3584 2069 3584 
Q 2775 3584 3186 3129 
Q 3597 2675 3597 1894 
z
M 3022 2063 
Q 3016 2534 2758 2815 
Q 2500 3097 2075 3097 
Q 1594 3097 1305 2825 
Q 1016 2553 972 2059 
L 3022 2063 
z
" transform="scale(0.015625)"/>
       <path id="DejaVuSans-64" d="M 2906 2969 
L 2906 4863 
L 3481 4863 
L 3481 0 
L 2906 0 
L 2906 525 
Q 2725 213 2448 61 
Q 2172 -91 1784 -91 
Q 1150 -91 751 415 
Q 353 922 353 1747 
Q 353 2572 751 3078 
Q 1150 3584 1784 3584 
Q 2172 3584 2448 3432 
Q 2725 3281 2906 2969 
z
M 947 1747 
Q 947 1113 1208 752 
Q 1469 391 1925 391 
Q 2381 391 2643 752 
Q 2906 1113 2906 1747 
Q 2906 2381 2643 2742 
Q 2381 3103 1925 3103 
Q 1469 3103 1208 2742 
Q 947 2381 947 1747 
z
" transform="scale(0.015625)"/>
       <path id="DejaVuSans-69" d="M 603 3500 
L 1178 3500 
L 1178 0 
L 603 0 
L 603 3500 
z
M 603 4863 
L 1178 4863 
L 1178 4134 
L 603 4134 
L 603 4863 
z
" transform="scale(0.015625)"/>
       <path id="DejaVuSans-61" d="M 2194 1759 
Q 1497 1759 1228 1600 
Q 959 1441 959 1056 
Q 959 750 1161 570 
Q 1363 391 1709 391 
Q 2188 391 2477 730 
Q 2766 1069 2766 1631 
L 2766 1759 
L 2194 1759 
z
M 3341 1997 
L 3341 0 
L 2766 0 
L 2766 531 
Q 2569 213 2275 61 
Q 1981 -91 1556 -91 
Q 1019 -91 701 211 
Q 384 513 384 1019 
Q 384 1609 779 1909 
Q 1175 2209 1959 2209 
L 2766 2209 
L 2766 2266 
Q 2766 2663 2505 2880 
Q 2244 3097 1772 3097 
Q 1472 3097 1187 3025 
Q 903 2953 641 2809 
L 641 3341 
Q 956 3463 1253 3523 
Q 1550 3584 1831 3584 
Q 2591 3584 2966 3190 
Q 3341 2797 3341 1997 
z
" transform="scale(0.015625)"/>
       <path id="DejaVuSans-3a" d="M 750 794 
L 1409 794 
L 1409 0 
L 750 0 
L 750 794 
z
M 750 3309 
L 1409 3309 
L 1409 2516 
L 750 2516 
L 750 3309 
z
" transform="scale(0.015625)"/>
       <path id="DejaVuSans-20" transform="scale(0.015625)"/>
       <path id="DejaVuSans-39" d="M 703 97 
L 703 672 
Q 941 559 1184 500 
Q 1428 441 1663 441 
Q 2288 441 2617 861 
Q 2947 1281 2994 2138 
Q 2813 1869 2534 1725 
Q 2256 1581 1919 1581 
Q 1219 1581 811 2004 
Q 403 2428 403 3163 
Q 403 3881 828 4315 
Q 1253 4750 1959 4750 
Q 2769 4750 3195 4129 
Q 3622 3509 3622 2328 
Q 3622 1225 3098 567 
Q 2575 -91 1691 -91 
Q 1453 -91 1209 -44 
Q 966 3 703 97 
z
M 1959 2075 
Q 2384 2075 2632 2365 
Q 2881 2656 2881 3163 
Q 2881 3666 2632 3958 
Q 2384 4250 1959 4250 
Q 1534 4250 1286 3958 
Q 1038 3666 1038 3163 
Q 1038 2656 1286 2365 
Q 1534 2075 1959 2075 
z
" transform="scale(0.015625)"/>
       <path id="DejaVuSans-6d" d="M 3328 2828 
Q 3544 3216 3844 3400 
Q 4144 3584 4550 3584 
Q 5097 3584 5394 3201 
Q 5691 2819 5691 2113 
L 5691 0 
L 5113 0 
L 5113 2094 
Q 5113 2597 4934 2840 
Q 4756 3084 4391 3084 
Q 3944 3084 3684 2787 
Q 3425 2491 3425 1978 
L 3425 0 
L 2847 0 
L 2847 2094 
Q 2847 2600 2669 2842 
Q 2491 3084 2119 3084 
Q 1678 3084 1418 2786 
Q 1159 2488 1159 1978 
L 1159 0 
L 581 0 
L 581 3500 
L 1159 3500 
L 1159 2956 
Q 1356 3278 1631 3431 
Q 1906 3584 2284 3584 
Q 2666 3584 2933 3390 
Q 3200 3197 3328 2828 
z
" transform="scale(0.015625)"/>
       <path id="DejaVuSans-6c" d="M 603 4863 
L 1178 4863 
L 1178 0 
L 603 0 
L 603 4863 
z
" transform="scale(0.015625)"/>
       <path id="DejaVuSans-20ac" d="M 3647 4306 
L 3647 3641 
Q 3363 3969 3098 4109 
Q 2834 4250 2516 4250 
Q 2025 4250 1709 3937 
Q 1394 3625 1294 3041 
L 3097 3041 
L 2925 2656 
L 1244 2656 
Q 1238 2581 1236 2509 
Q 1234 2438 1234 2328 
Q 1234 2228 1236 2156 
Q 1238 2084 1244 2009 
L 2638 2009 
L 2463 1625 
L 1294 1625 
Q 1394 1041 1709 725 
Q 2025 409 2516 409 
Q 2834 409 3098 550 
Q 3363 691 3647 1019 
L 3647 359 
Q 3369 134 3080 21 
Q 2791 -91 2491 -91 
Q 1750 -91 1267 362 
Q 784 816 659 1625 
L 0 1625 
L 172 2009 
L 606 2009 
Q 606 2081 604 2154 
Q 603 2228 603 2328 
Q 603 2438 604 2511 
Q 606 2584 606 2656 
L 0 2656 
L 172 3041 
L 659 3041 
Q 784 3844 1268 4297 
Q 1753 4750 2491 4750 
Q 2797 4750 3086 4639 
Q 3375 4528 3647 4306 
z
" transform="scale(0.015625)"/>
      </defs>
      <use xlink:href="#DejaVuSans-4d"/>
      <use xlink:href="#DejaVuSans-65" x="86.279297"/>
      <use xlink:href="#DejaVuSans-64" x="147.802734"/>
      <use xlink:href="#DejaVuSans-69" x="211.279297"/>
      <use xlink:href="#DejaVuSans-61" x="239.0625"/>
      <use xlink:href="#DejaVuSans-3a" x="300.341797"/>
      <use xlink:href="#DejaVuSans-20" x="334.033203"/>
      <use xlink:href="#DejaVuSans-32" x="365.820312"/>
      <use xlink:href="#DejaVuSans-39" x="429.443359"/>
      <use xlink:href="#DejaVuSans-2e" x="493.066406"/>
      <use xlink:href="#DejaVuSans-30" x="524.853516"/>
      <use xlink:href="#DejaVuSans-20" x="588.476562"/>
      <use xlink:href="#DejaVuSans-6d" x="620.263672"/>
      <use xlink:href="#DejaVuSans-69" x="717.675781"/>
      <use xlink:href="#DejaVuSans-6c" x="745.458984"/>
      <use xlink:href="#DejaVuSans-20ac" x="773.242188"/>
     </g>
    </g>
   </g>
  </g>
  <g id="axes_2">
   <g id="patch_14">
    <path d="M 545.2175 389.68 
L 997.2 389.68 
L 997.2 40.452 
L 545.2175 40.452 
z
" style="fill: #ffffff"/>
   </g>
   <g id="matplotlib.axis_3">
    <g id="xtick_6">
     <g id="line2d_26">
      <g>
       <use xlink:href="#m87e0799222" x="620.547917" y="389.68" style="stroke: #000000; stroke-width: 0.8"/>
      </g>
     </g>
     <g id="text_19">
      <!-- Básico -->
      <g transform="translate(604.251042 404.278437) scale(0.1 -0.1)">
       <defs>
        <path id="DejaVuSans-42" d="M 1259 2228 
L 1259 519 
L 2272 519 
Q 2781 519 3026 730 
Q 3272 941 3272 1375 
Q 3272 1813 3026 2020 
Q 2781 2228 2272 2228 
L 1259 2228 
z
M 1259 4147 
L 1259 2741 
L 2194 2741 
Q 2656 2741 2882 2914 
Q 3109 3088 3109 3444 
Q 3109 3797 2882 3972 
Q 2656 4147 2194 4147 
L 1259 4147 
z
M 628 4666 
L 2241 4666 
Q 2963 4666 3353 4366 
Q 3744 4066 3744 3513 
Q 3744 3084 3544 2831 
Q 3344 2578 2956 2516 
Q 3422 2416 3680 2098 
Q 3938 1781 3938 1306 
Q 3938 681 3513 340 
Q 3088 0 2303 0 
L 628 0 
L 628 4666 
z
" transform="scale(0.015625)"/>
        <path id="DejaVuSans-e1" d="M 2194 1759 
Q 1497 1759 1228 1600 
Q 959 1441 959 1056 
Q 959 750 1161 570 
Q 1363 391 1709 391 
Q 2188 391 2477 730 
Q 2766 1069 2766 1631 
L 2766 1759 
L 2194 1759 
z
M 3341 1997 
L 3341 0 
L 2766 0 
L 2766 531 
Q 2569 213 2275 61 
Q 1981 -91 1556 -91 
Q 1019 -91 701 211 
Q 384 513 384 1019 
Q 384 1609 779 1909 
Q 1175 2209 1959 2209 
L 2766 2209 
L 2766 2266 
Q 2766 2663 2505 2880 
Q 2244 3097 1772 3097 
Q 1472 3097 1187 3025 
Q 903 2953 641 2809 
L 641 3341 
Q 956 3463 1253 3523 
Q 1550 3584 1831 3584 
Q 2591 3584 2966 3190 
Q 3341 2797 3341 1997 
z
M 2290 5119 
L 2912 5119 
L 1894 3944 
L 1415 3944 
L 2290 5119 
z
" transform="scale(0.015625)"/>
        <path id="DejaVuSans-73" d="M 2834 3397 
L 2834 2853 
Q 2591 2978 2328 3040 
Q 2066 3103 1784 3103 
Q 1356 3103 1142 2972 
Q 928 2841 928 2578 
Q 928 2378 1081 2264 
Q 1234 2150 1697 2047 
L 1894 2003 
Q 2506 1872 2764 1633 
Q 3022 1394 3022 966 
Q 3022 478 2636 193 
Q 2250 -91 1575 -91 
Q 1294 -91 989 -36 
Q 684 19 347 128 
L 347 722 
Q 666 556 975 473 
Q 1284 391 1588 391 
Q 1994 391 2212 530 
Q 2431 669 2431 922 
Q 2431 1156 2273 1281 
Q 2116 1406 1581 1522 
L 1381 1569 
Q 847 1681 609 1914 
Q 372 2147 372 2553 
Q 372 3047 722 3315 
Q 1072 3584 1716 3584 
Q 2034 3584 2315 3537 
Q 2597 3491 2834 3397 
z
" transform="scale(0.015625)"/>
        <path id="DejaVuSans-63" d="M 3122 3366 
L 3122 2828 
Q 2878 2963 2633 3030 
Q 2388 3097 2138 3097 
Q 1578 3097 1268 2742 
Q 959 2388 959 1747 
Q 959 1106 1268 751 
Q 1578 397 2138 397 
Q 2388 397 2633 464 
Q 2878 531 3122 666 
L 3122 134 
Q 2881 22 2623 -34 
Q 2366 -91 2075 -91 
Q 1284 -91 818 406 
Q 353 903 353 1747 
Q 353 2603 823 3093 
Q 1294 3584 2113 3584 
Q 2378 3584 2631 3529 
Q 2884 3475 3122 3366 
z
" transform="scale(0.015625)"/>
        <path id="DejaVuSans-6f" d="M 1959 3097 
Q 1497 3097 1228 2736 
Q 959 2375 959 1747 
Q 959 1119 1226 758 
Q 1494 397 1959 397 
Q 2419 397 2687 759 
Q 2956 1122 2956 1747 
Q 2956 2369 2687 2733 
Q 2419 3097 1959 3097 
z
M 1959 3584 
Q 2709 3584 3137 3096 
Q 3566 2609 3566 1747 
Q 3566 888 3137 398 
Q 2709 -91 1959 -91 
Q 1206 -91 779 398 
Q 353 888 353 1747 
Q 353 2609 779 3096 
Q 1206 3584 1959 3584 
z
" transform="scale(0.015625)"/>
       </defs>
       <use xlink:href="#DejaVuSans-42"/>
       <use xlink:href="#DejaVuSans-e1" x="68.603516"/>
       <use xlink:href="#DejaVuSans-73" x="129.882812"/>
       <use xlink:href="#DejaVuSans-69" x="181.982422"/>
       <use xlink:href="#DejaVuSans-63" x="209.765625"/>
       <use xlink:href="#DejaVuSans-6f" x="264.746094"/>
      </g>
     </g>
    </g>
    <g id="xtick_7">
     <g id="line2d_27">
      <g>
       <use xlink:href="#m87e0799222" x="771.20875" y="389.68" style="stroke: #000000; stroke-width: 0.8"/>
      </g>
     </g>
     <g id="text_20">
      <!-- Medio -->
      <g transform="translate(756.195469 404.278437) scale(0.1 -0.1)">
       <use xlink:href="#DejaVuSans-4d"/>
       <use xlink:href="#DejaVuSans-65" x="86.279297"/>
       <use xlink:href="#DejaVuSans-64" x="147.802734"/>
       <use xlink:href="#DejaVuSans-69" x="211.279297"/>
       <use xlink:href="#DejaVuSans-6f" x="239.0625"/>
      </g>
     </g>
    </g>
    <g id="xtick_8">
     <g id="line2d_28">
      <g>
       <use xlink:href="#m87e0799222" x="921.869583" y="389.68" style="stroke: #000000; stroke-width: 0.8"/>
      </g>
     </g>
     <g id="text_21">
      <!-- Superior -->
      <g transform="translate(900.716458 404.278437) scale(0.1 -0.1)">
       <defs>
        <path id="DejaVuSans-53" d="M 3425 4513 
L 3425 3897 
Q 3066 4069 2747 4153 
Q 2428 4238 2131 4238 
Q 1616 4238 1336 4038 
Q 1056 3838 1056 3469 
Q 1056 3159 1242 3001 
Q 1428 2844 1947 2747 
L 2328 2669 
Q 3034 2534 3370 2195 
Q 3706 1856 3706 1288 
Q 3706 609 3251 259 
Q 2797 -91 1919 -91 
Q 1588 -91 1214 -16 
Q 841 59 441 206 
L 441 856 
Q 825 641 1194 531 
Q 1563 422 1919 422 
Q 2459 422 2753 634 
Q 3047 847 3047 1241 
Q 3047 1584 2836 1778 
Q 2625 1972 2144 2069 
L 1759 2144 
Q 1053 2284 737 2584 
Q 422 2884 422 3419 
Q 422 4038 858 4394 
Q 1294 4750 2059 4750 
Q 2388 4750 2728 4690 
Q 3069 4631 3425 4513 
z
" transform="scale(0.015625)"/>
        <path id="DejaVuSans-75" d="M 544 1381 
L 544 3500 
L 1119 3500 
L 1119 1403 
Q 1119 906 1312 657 
Q 1506 409 1894 409 
Q 2359 409 2629 706 
Q 2900 1003 2900 1516 
L 2900 3500 
L 3475 3500 
L 3475 0 
L 2900 0 
L 2900 538 
Q 2691 219 2414 64 
Q 2138 -91 1772 -91 
Q 1169 -91 856 284 
Q 544 659 544 1381 
z
M 1991 3584 
L 1991 3584 
z
" transform="scale(0.015625)"/>
        <path id="DejaVuSans-70" d="M 1159 525 
L 1159 -1331 
L 581 -1331 
L 581 3500 
L 1159 3500 
L 1159 2969 
Q 1341 3281 1617 3432 
Q 1894 3584 2278 3584 
Q 2916 3584 3314 3078 
Q 3713 2572 3713 1747 
Q 3713 922 3314 415 
Q 2916 -91 2278 -91 
Q 1894 -91 1617 61 
Q 1341 213 1159 525 
z
M 3116 1747 
Q 3116 2381 2855 2742 
Q 2594 3103 2138 3103 
Q 1681 3103 1420 2742 
Q 1159 2381 1159 1747 
Q 1159 1113 1420 752 
Q 1681 391 2138 391 
Q 2594 391 2855 752 
Q 3116 1113 3116 1747 
z
" transform="scale(0.015625)"/>
        <path id="DejaVuSans-72" d="M 2631 2963 
Q 2534 3019 2420 3045 
Q 2306 3072 2169 3072 
Q 1681 3072 1420 2755 
Q 1159 2438 1159 1844 
L 1159 0 
L 581 0 
L 581 3500 
L 1159 3500 
L 1159 2956 
Q 1341 3275 1631 3429 
Q 1922 3584 2338 3584 
Q 2397 3584 2469 3576 
Q 2541 3569 2628 3553 
L 2631 2963 
z
" transform="scale(0.015625)"/>
       </defs>
       <use xlink:href="#DejaVuSans-53"/>
       <use xlink:href="#DejaVuSans-75" x="63.476562"/>
       <use xlink:href="#DejaVuSans-70" x="126.855469"/>
       <use xlink:href="#DejaVuSans-65" x="190.332031"/>
       <use xlink:href="#DejaVuSans-72" x="251.855469"/>
       <use xlink:href="#DejaVuSans-69" x="292.96875"/>
       <use xlink:href="#DejaVuSans-6f" x="320.751953"/>
       <use xlink:href="#DejaVuSans-72" x="381.933594"/>
      </g>
     </g>
    </g>
    <g id="text_22">
     <!-- Nivel Educativo -->
     <g transform="translate(723.144766 418.716406) scale(0.11 -0.11)">
      <defs>
       <path id="DejaVuSans-Bold-4e" d="M 588 4666 
L 1931 4666 
L 3628 1466 
L 3628 4666 
L 4769 4666 
L 4769 0 
L 3425 0 
L 1728 3200 
L 1728 0 
L 588 0 
L 588 4666 
z
" transform="scale(0.015625)"/>
       <path id="DejaVuSans-Bold-45" d="M 588 4666 
L 3834 4666 
L 3834 3756 
L 1791 3756 
L 1791 2888 
L 3713 2888 
L 3713 1978 
L 1791 1978 
L 1791 909 
L 3903 909 
L 3903 0 
L 588 0 
L 588 4666 
z
" transform="scale(0.015625)"/>
      </defs>
      <use xlink:href="#DejaVuSans-Bold-4e"/>
      <use xlink:href="#DejaVuSans-Bold-69" x="83.691406"/>
      <use xlink:href="#DejaVuSans-Bold-76" x="117.96875"/>
      <use xlink:href="#DejaVuSans-Bold-65" x="183.154297"/>
      <use xlink:href="#DejaVuSans-Bold-6c" x="250.976562"/>
      <use xlink:href="#DejaVuSans-Bold-20" x="285.253906"/>
      <use xlink:href="#DejaVuSans-Bold-45" x="320.068359"/>
      <use xlink:href="#DejaVuSans-Bold-64" x="388.378906"/>
      <use xlink:href="#DejaVuSans-Bold-75" x="459.960938"/>
      <use xlink:href="#DejaVuSans-Bold-63" x="531.152344"/>
      <use xlink:href="#DejaVuSans-Bold-61" x="590.429688"/>
      <use xlink:href="#DejaVuSans-Bold-74" x="657.910156"/>
      <use xlink:href="#DejaVuSans-Bold-69" x="705.712891"/>
      <use xlink:href="#DejaVuSans-Bold-76" x="739.990234"/>
      <use xlink:href="#DejaVuSans-Bold-6f" x="805.175781"/>
     </g>
    </g>
   </g>
   <g id="matplotlib.axis_4">
    <g id="ytick_10">
     <g id="line2d_29">
      <path d="M 545.2175 352.919158 
L 997.2 352.919158 
" clip-path="url(#pb9b3ace65e)" style="fill: none; stroke: #b0b0b0; stroke-opacity: 0.3; stroke-width: 0.8; stroke-linecap: square"/>
     </g>
     <g id="line2d_30">
      <g>
       <use xlink:href="#m5a40203513" x="545.2175" y="352.919158" style="stroke: #000000; stroke-width: 0.8"/>
      </g>
     </g>
     <g id="text_23">
      <!-- 20 -->
      <g transform="translate(525.4925 356.718377) scale(0.1 -0.1)">
       <use xlink:href="#DejaVuSans-32"/>
       <use xlink:href="#DejaVuSans-30" x="63.623047"/>
      </g>
     </g>
    </g>
    <g id="ytick_11">
     <g id="line2d_31">
      <path d="M 545.2175 283.296351 
L 997.2 283.296351 
" clip-path="url(#pb9b3ace65e)" style="fill: none; stroke: #b0b0b0; stroke-opacity: 0.3; stroke-width: 0.8; stroke-linecap: square"/>
     </g>
     <g id="line2d_32">
      <g>
       <use xlink:href="#m5a40203513" x="545.2175" y="283.296351" style="stroke: #000000; stroke-width: 0.8"/>
      </g>
     </g>
     <g id="text_24">
      <!-- 25 -->
      <g transform="translate(525.4925 287.09557) scale(0.1 -0.1)">
       <use xlink:href="#DejaVuSans-32"/>
       <use xlink:href="#DejaVuSans-35" x="63.623047"/>
      </g>
     </g>
    </g>
    <g id="ytick_12">
     <g id="line2d_33">
      <path d="M 545.2175 213.673544 
L 997.2 213.673544 
" clip-path="url(#pb9b3ace65e)" style="fill: none; stroke: #b0b0b0; stroke-opacity: 0.3; stroke-width: 0.8; stroke-linecap: square"/>
     </g>
     <g id="line2d_34">
      <g>
       <use xlink:href="#m5a40203513" x="545.2175" y="213.673544" style="stroke: #000000; stroke-width: 0.8"/>
      </g>
     </g>
     <g id="text_25">
      <!-- 30 -->
      <g transform="translate(525.4925 217.472763) scale(0.1 -0.1)">
       <use xlink:href="#DejaVuSans-33"/>
       <use xlink:href="#DejaVuSans-30" x="63.623047"/>
      </g>
     </g>
    </g>
    <g id="ytick_13">
     <g id="line2d_35">
      <path d="M 545.2175 144.050737 
L 997.2 144.050737 
" clip-path="url(#pb9b3ace65e)" style="fill: none; stroke: #b0b0b0; stroke-opacity: 0.3; stroke-width: 0.8; stroke-linecap: square"/>
     </g>
     <g id="line2d_36">
      <g>
       <use xlink:href="#m5a40203513" x="545.2175" y="144.050737" style="stroke: #000000; stroke-width: 0.8"/>
      </g>
     </g>
     <g id="text_26">
      <!-- 35 -->
      <g transform="translate(525.4925 147.849956) scale(0.1 -0.1)">
       <use xlink:href="#DejaVuSans-33"/>
       <use xlink:href="#DejaVuSans-35" x="63.623047"/>
      </g>
     </g>
    </g>
    <g id="ytick_14">
     <g id="line2d_37">
      <path d="M 545.2175 74.42793 
L 997.2 74.42793 
" clip-path="url(#pb9b3ace65e)" style="fill: none; stroke: #b0b0b0; stroke-opacity: 0.3; stroke-width: 0.8; stroke-linecap: square"/>
     </g>
     <g id="line2d_38">
      <g>
       <use xlink:href="#m5a40203513" x="545.2175" y="74.42793" style="stroke: #000000; stroke-width: 0.8"/>
      </g>
     </g>
     <g id="text_27">
      <!-- 40 -->
      <g transform="translate(525.4925 78.227149) scale(0.1 -0.1)">
       <use xlink:href="#DejaVuSans-34"/>
       <use xlink:href="#DejaVuSans-30" x="63.623047"/>
      </g>
     </g>
    </g>
    <g id="text_28">
     <!-- Salario Anual (miles €) -->
     <g transform="translate(519.204844 285.500375) rotate(-90) scale(0.11 -0.11)">
      <use xlink:href="#DejaVuSans-Bold-53"/>
      <use xlink:href="#DejaVuSans-Bold-61" x="72.021484"/>
      <use xlink:href="#DejaVuSans-Bold-6c" x="139.501953"/>
      <use xlink:href="#DejaVuSans-Bold-61" x="173.779297"/>
      <use xlink:href="#DejaVuSans-Bold-72" x="241.259766"/>
      <use xlink:href="#DejaVuSans-Bold-69" x="290.576172"/>
      <use xlink:href="#DejaVuSans-Bold-6f" x="324.853516"/>
      <use xlink:href="#DejaVuSans-Bold-20" x="393.554688"/>
      <use xlink:href="#DejaVuSans-Bold-41" x="428.369141"/>
      <use xlink:href="#DejaVuSans-Bold-6e" x="505.761719"/>
      <use xlink:href="#DejaVuSans-Bold-75" x="576.953125"/>
      <use xlink:href="#DejaVuSans-Bold-61" x="648.144531"/>
      <use xlink:href="#DejaVuSans-Bold-6c" x="715.625"/>
      <use xlink:href="#DejaVuSans-Bold-20" x="749.902344"/>
      <use xlink:href="#DejaVuSans-Bold-28" x="784.716797"/>
      <use xlink:href="#DejaVuSans-Bold-6d" x="830.419922"/>
      <use xlink:href="#DejaVuSans-Bold-69" x="934.619141"/>
      <use xlink:href="#DejaVuSans-Bold-6c" x="968.896484"/>
      <use xlink:href="#DejaVuSans-Bold-65" x="1003.173828"/>
      <use xlink:href="#DejaVuSans-Bold-73" x="1070.996094"/>
      <use xlink:href="#DejaVuSans-Bold-20" x="1130.517578"/>
      <use xlink:href="#DejaVuSans-Bold-20ac" x="1165.332031"/>
      <use xlink:href="#DejaVuSans-Bold-29" x="1234.912109"/>
     </g>
    </g>
   </g>
   <g id="patch_15">
    <path d="M 597.948792 355.70407 
L 643.147042 355.70407 
L 643.147042 365.214204 
L 631.847479 351.526702 
L 643.147042 337.839199 
L 643.147042 336.209684 
L 597.948792 336.209684 
L 597.948792 337.839199 
L 609.248354 351.526702 
L 597.948792 365.214204 
L 597.948792 355.70407 
z
" clip-path="url(#pb9b3ace65e)" style="fill: #f9a825; opacity: 0.7; stroke: #000000; stroke-linejoin: miter"/>
   </g>
   <g id="line2d_39">
    <path d="M 620.547917 355.70407 
L 620.547917 373.806 
" clip-path="url(#pb9b3ace65e)" style="fill: none; stroke: #000000; stroke-linecap: square"/>
   </g>
   <g id="line2d_40">
    <path d="M 620.547917 336.209684 
L 620.547917 320.892667 
" clip-path="url(#pb9b3ace65e)" style="fill: none; stroke: #000000; stroke-linecap: square"/>
   </g>
   <g id="line2d_41">
    <path d="M 609.248354 373.806 
L 631.847479 373.806 
" clip-path="url(#pb9b3ace65e)" style="fill: none; stroke: #000000; stroke-linecap: square"/>
   </g>
   <g id="line2d_42">
    <path d="M 609.248354 320.892667 
L 631.847479 320.892667 
" clip-path="url(#pb9b3ace65e)" style="fill: none; stroke: #000000; stroke-linecap: square"/>
   </g>
   <g id="line2d_43"/>
   <g id="patch_16">
    <path d="M 748.609625 273.201044 
L 793.807875 273.201044 
L 793.807875 273.359099 
L 782.508313 251.26986 
L 793.807875 229.180621 
L 793.807875 238.737754 
L 748.609625 238.737754 
L 748.609625 229.180621 
L 759.909188 251.26986 
L 748.609625 273.359099 
L 748.609625 273.201044 
z
" clip-path="url(#pb9b3ace65e)" style="fill: #2a5298; opacity: 0.7; stroke: #000000; stroke-linejoin: miter"/>
   </g>
   <g id="line2d_44">
    <path d="M 771.20875 273.201044 
L 771.20875 290.258632 
" clip-path="url(#pb9b3ace65e)" style="fill: none; stroke: #000000; stroke-linecap: square"/>
   </g>
   <g id="line2d_45">
    <path d="M 771.20875 238.737754 
L 771.20875 226.205649 
" clip-path="url(#pb9b3ace65e)" style="fill: none; stroke: #000000; stroke-linecap: square"/>
   </g>
   <g id="line2d_46">
    <path d="M 759.909188 290.258632 
L 782.508313 290.258632 
" clip-path="url(#pb9b3ace65e)" style="fill: none; stroke: #000000; stroke-linecap: square"/>
   </g>
   <g id="line2d_47">
    <path d="M 759.909188 226.205649 
L 782.508313 226.205649 
" clip-path="url(#pb9b3ace65e)" style="fill: none; stroke: #000000; stroke-linecap: square"/>
   </g>
   <g id="line2d_48"/>
   <g id="patch_17">
    <path d="M 899.270458 148.924333 
L 944.468708 148.924333 
L 944.468708 156.582692 
L 933.169146 118.986526 
L 944.468708 81.390361 
L 944.468708 85.567579 
L 899.270458 85.567579 
L 899.270458 81.390361 
L 910.570021 118.986526 
L 899.270458 156.582692 
L 899.270458 148.924333 
z
" clip-path="url(#pb9b3ace65e)" style="fill: #388e3c; opacity: 0.7; stroke: #000000; stroke-linejoin: miter"/>
   </g>
   <g id="line2d_49">
    <path d="M 921.869583 148.924333 
L 921.869583 178.86214 
" clip-path="url(#pb9b3ace65e)" style="fill: none; stroke: #000000; stroke-linecap: square"/>
   </g>
   <g id="line2d_50">
    <path d="M 921.869583 85.567579 
L 921.869583 56.326 
" clip-path="url(#pb9b3ace65e)" style="fill: none; stroke: #000000; stroke-linecap: square"/>
   </g>
   <g id="line2d_51">
    <path d="M 910.570021 178.86214 
L 933.169146 178.86214 
" clip-path="url(#pb9b3ace65e)" style="fill: none; stroke: #000000; stroke-linecap: square"/>
   </g>
   <g id="line2d_52">
    <path d="M 910.570021 56.326 
L 933.169146 56.326 
" clip-path="url(#pb9b3ace65e)" style="fill: none; stroke: #000000; stroke-linecap: square"/>
   </g>
   <g id="line2d_53"/>
   <g id="line2d_54">
    <path d="M 609.248354 351.526702 
L 631.847479 351.526702 
" clip-path="url(#pb9b3ace65e)" style="fill: none; stroke: #ff0000; stroke-width: 2"/>
   </g>
   <g id="line2d_55">
    <path d="M 759.909188 251.26986 
L 782.508313 251.26986 
" clip-path="url(#pb9b3ace65e)" style="fill: none; stroke: #ff0000; stroke-width: 2"/>
   </g>
   <g id="line2d_56">
    <path d="M 910.570021 118.986526 
L 933.169146 118.986526 
" clip-path="url(#pb9b3ace65e)" style="fill: none; stroke: #ff0000; stroke-width: 2"/>
   </g>
   <g id="patch_18">
    <path d="M 545.2175 389.68 
L 545.2175 40.452 
" style="fill: none; stroke: #000000; stroke-width: 0.8; stroke-linejoin: miter; stroke-linecap: square"/>
   </g>
   <g id="patch_19">
    <path d="M 545.2175 389.68 
L 997.2 389.68 
" style="fill: none; stroke: #000000; stroke-width: 0.8; stroke-linejoin: miter; stroke-linecap: square"/>
   </g>
   <g id="text_29">
    <!-- Distribuciones Condicionadas de Salario -->
    <g transform="translate(635.139063 21.014625) scale(0.12 -0.12)">
     <defs>
      <path id="DejaVuSans-Bold-43" d="M 4288 256 
Q 3956 84 3597 -3 
Q 3238 -91 2847 -91 
Q 1681 -91 1000 561 
Q 319 1213 319 2328 
Q 319 3447 1000 4098 
Q 1681 4750 2847 4750 
Q 3238 4750 3597 4662 
Q 3956 4575 4288 4403 
L 4288 3438 
Q 3953 3666 3628 3772 
Q 3303 3878 2944 3878 
Q 2300 3878 1931 3465 
Q 1563 3053 1563 2328 
Q 1563 1606 1931 1193 
Q 2300 781 2944 781 
Q 3303 781 3628 887 
Q 3953 994 4288 1222 
L 4288 256 
z
" transform="scale(0.015625)"/>
     </defs>
     <use xlink:href="#DejaVuSans-Bold-44"/>
     <use xlink:href="#DejaVuSans-Bold-69" x="83.007812"/>
     <use xlink:href="#DejaVuSans-Bold-73" x="117.285156"/>
     <use xlink:href="#DejaVuSans-Bold-74" x="176.806641"/>
     <use xlink:href="#DejaVuSans-Bold-72" x="224.609375"/>
     <use xlink:href="#DejaVuSans-Bold-69" x="273.925781"/>
     <use xlink:href="#DejaVuSans-Bold-62" x="308.203125"/>
     <use xlink:href="#DejaVuSans-Bold-75" x="379.785156"/>
     <use xlink:href="#DejaVuSans-Bold-63" x="450.976562"/>
     <use xlink:href="#DejaVuSans-Bold-69" x="510.253906"/>
     <use xlink:href="#DejaVuSans-Bold-6f" x="544.53125"/>
     <use xlink:href="#DejaVuSans-Bold-6e" x="613.232422"/>
     <use xlink:href="#DejaVuSans-Bold-65" x="684.423828"/>
     <use xlink:href="#DejaVuSans-Bold-73" x="752.246094"/>
     <use xlink:href="#DejaVuSans-Bold-20" x="811.767578"/>
     <use xlink:href="#DejaVuSans-Bold-43" x="846.582031"/>
     <use xlink:href="#DejaVuSans-Bold-6f" x="919.970703"/>
     <use xlink:href="#DejaVuSans-Bold-6e" x="988.671875"/>
     <use xlink:href="#DejaVuSans-Bold-64" x="1059.863281"/>
     <use xlink:href="#DejaVuSans-Bold-69" x="1131.445312"/>
     <use xlink:href="#DejaVuSans-Bold-63" x="1165.722656"/>
     <use xlink:href="#DejaVuSans-Bold-69" x="1225"/>
     <use xlink:href="#DejaVuSans-Bold-6f" x="1259.277344"/>
     <use xlink:href="#DejaVuSans-Bold-6e" x="1327.978516"/>
     <use xlink:href="#DejaVuSans-Bold-61" x="1399.169922"/>
     <use xlink:href="#DejaVuSans-Bold-64" x="1466.650391"/>
     <use xlink:href="#DejaVuSans-Bold-61" x="1538.232422"/>
     <use xlink:href="#DejaVuSans-Bold-73" x="1605.712891"/>
     <use xlink:href="#DejaVuSans-Bold-20" x="1665.234375"/>
     <use xlink:href="#DejaVuSans-Bold-64" x="1700.048828"/>
     <use xlink:href="#DejaVuSans-Bold-65" x="1771.630859"/>
     <use xlink:href="#DejaVuSans-Bold-20" x="1839.453125"/>
     <use xlink:href="#DejaVuSans-Bold-53" x="1874.267578"/>
     <use xlink:href="#DejaVuSans-Bold-61" x="1946.289062"/>
     <use xlink:href="#DejaVuSans-Bold-6c" x="2013.769531"/>
     <use xlink:href="#DejaVuSans-Bold-61" x="2048.046875"/>
     <use xlink:href="#DejaVuSans-Bold-72" x="2115.527344"/>
     <use xlink:href="#DejaVuSans-Bold-69" x="2164.84375"/>
     <use xlink:href="#DejaVuSans-Bold-6f" x="2199.121094"/>
    </g>
    <!-- (por Nivel Educativo) -->
    <g transform="translate(699.826563 34.452) scale(0.12 -0.12)">
     <defs>
      <path id="DejaVuSans-Bold-70" d="M 1656 506 
L 1656 -1331 
L 538 -1331 
L 538 3500 
L 1656 3500 
L 1656 2988 
Q 1888 3294 2169 3439 
Q 2450 3584 2816 3584 
Q 3463 3584 3878 3070 
Q 4294 2556 4294 1747 
Q 4294 938 3878 423 
Q 3463 -91 2816 -91 
Q 2450 -91 2169 54 
Q 1888 200 1656 506 
z
M 2400 2772 
Q 2041 2772 1848 2508 
Q 1656 2244 1656 1747 
Q 1656 1250 1848 986 
Q 2041 722 2400 722 
Q 2759 722 2948 984 
Q 3138 1247 3138 1747 
Q 3138 2247 2948 2509 
Q 2759 2772 2400 2772 
z
" transform="scale(0.015625)"/>
     </defs>
     <use xlink:href="#DejaVuSans-Bold-28"/>
     <use xlink:href="#DejaVuSans-Bold-70" x="45.703125"/>
     <use xlink:href="#DejaVuSans-Bold-6f" x="117.285156"/>
     <use xlink:href="#DejaVuSans-Bold-72" x="185.986328"/>
     <use xlink:href="#DejaVuSans-Bold-20" x="235.302734"/>
     <use xlink:href="#DejaVuSans-Bold-4e" x="270.117188"/>
     <use xlink:href="#DejaVuSans-Bold-69" x="353.808594"/>
     <use xlink:href="#DejaVuSans-Bold-76" x="388.085938"/>
     <use xlink:href="#DejaVuSans-Bold-65" x="453.271484"/>
     <use xlink:href="#DejaVuSans-Bold-6c" x="521.09375"/>
     <use xlink:href="#DejaVuSans-Bold-20" x="555.371094"/>
     <use xlink:href="#DejaVuSans-Bold-45" x="590.185547"/>
     <use xlink:href="#DejaVuSans-Bold-64" x="658.496094"/>
     <use xlink:href="#DejaVuSans-Bold-75" x="730.078125"/>
     <use xlink:href="#DejaVuSans-Bold-63" x="801.269531"/>
     <use xlink:href="#DejaVuSans-Bold-61" x="860.546875"/>
     <use xlink:href="#DejaVuSans-Bold-74" x="928.027344"/>
     <use xlink:href="#DejaVuSans-Bold-69" x="975.830078"/>
     <use xlink:href="#DejaVuSans-Bold-76" x="1010.107422"/>
     <use xlink:href="#DejaVuSans-Bold-6f" x="1075.292969"/>
     <use xlink:href="#DejaVuSans-Bold-29" x="1143.994141"/>
    </g>
   </g>
  </g>
 </g>
 <defs>
  <clipPath id="p698dcf25b5">
   <rect x="48.215" y="40.452" width="451.9825" height="349.228"/>
  </clipPath>
  <clipPath id="pb9b3ace65e">
   <rect x="545.2175" y="40.452" width="451.9825" height="349.228"/>
  </clipPath>
 </defs>
</svg>
